<svg width="28" height="29" viewBox="0 0 28 29" fill="none" xmlns="http://www.w3.org/2000/svg">
<path d="M21.4286 0.5V9.81035M6.57143 0.5V9.81035M22.3571 14.4655H16.7857M5.64286 14.4655H11.2143M22.3571 20.0517H16.7857M11.2143 20.0517H5.64286M25.1429 5.15517H2.85714C2.3646 5.15517 1.89223 5.35135 1.54395 5.70056C1.19566 6.04977 1 6.52339 1 7.01724V25.6379C1 26.1318 1.19566 26.6054 1.54395 26.9546C1.89223 27.3038 2.3646 27.5 2.85714 27.5H25.1429C25.6354 27.5 26.1078 27.3038 26.4561 26.9546C26.8043 26.6054 27 26.1318 27 25.6379V7.01724C27 6.52339 26.8043 6.04977 26.4561 5.70056C26.1078 5.35135 25.6354 5.15517 25.1429 5.15517Z" stroke="#000957" stroke-width="2"/>
</svg>
