<svg width="25" height="26" viewBox="0 0 25 26" fill="none" xmlns="http://www.w3.org/2000/svg">
<path fill-rule="evenodd" clip-rule="evenodd" d="M5 3.46667H2.5C1.83696 3.46667 1.20107 3.74059 0.732233 4.22819C0.263391 4.71578 0 5.3771 0 6.06667V23.4C0 24.0896 0.263391 24.7509 0.732233 25.2385C1.20107 25.7261 1.83696 26 2.5 26H22.5C23.163 26 23.7989 25.7261 24.2678 25.2385C24.7366 24.7509 25 24.0896 25 23.4V6.06667C25 5.3771 24.7366 4.71578 24.2678 4.22819C23.7989 3.74059 23.163 3.46667 22.5 3.46667H20V0H18.3333V3.46667H6.66667V0H5V3.46667ZM15 13.8667H20V12.1333H15V13.8667ZM5 12.1333H10V13.8667H5V12.1333ZM15 19.0667H20V17.3333H15V19.0667ZM10 19.0667H5V17.3333H10V19.0667Z" fill="white"/>
</svg>
