<svg width="19" height="18" viewBox="0 0 19 18" fill="none" xmlns="http://www.w3.org/2000/svg">
<path d="M17.45 18C15.3667 18 13.3043 17.55 11.263 16.65C9.22167 15.75 7.36733 14.4667 5.7 12.8C4.03267 11.1333 2.74933 9.28333 1.85 7.25C0.950667 5.21667 0.500667 3.15 0.5 1.05V0H6.4L7.325 5.025L4.475 7.9C4.84167 8.55 5.25 9.16667 5.7 9.75C6.15 10.3333 6.63333 10.875 7.15 11.375C7.63333 11.8583 8.16267 12.321 8.738 12.763C9.31333 13.205 9.934 13.6173 10.6 14L13.5 11.1L18.5 12.125V18H17.45Z" fill="white"/>
</svg>
