<svg width="16" height="16" viewBox="0 0 16 16" fill="none" xmlns="http://www.w3.org/2000/svg">
<path d="M10.5454 8L15.4728 3.07255C16.1757 2.36966 16.1757 1.23006 15.4728 0.52717C14.7699 -0.175723 13.6304 -0.175723 12.9275 0.52717L8 5.45462L3.07255 0.52717C2.36966 -0.175723 1.23006 -0.175723 0.52717 0.52717C-0.175723 1.23006 -0.175723 2.36966 0.52717 3.07255L5.45462 8L0.52717 12.9275C-0.175723 13.6303 -0.175723 14.7699 0.52717 15.4728C0.878616 15.8242 1.33923 16 1.79984 16C2.26045 16 2.7211 15.8243 3.07251 15.4728L8 10.5454L12.9275 15.4728C13.2789 15.8242 13.7395 16 14.2001 16C14.6607 16 15.1213 15.8243 15.4728 15.4728C16.1757 14.7699 16.1757 13.6303 15.4728 12.9275L10.5454 8Z" fill="#EF3039"/>
</svg>
