<svg width="26" height="28" viewBox="0 0 26 28" fill="none" xmlns="http://www.w3.org/2000/svg">
<path d="M15.2061 27.5C12.8857 27.5 10.9092 26.6761 9.27661 25.0283C7.64402 23.3806 6.82773 21.3759 6.82773 19.0143V18.2166C4.90585 18.0346 3.28743 17.2117 1.97246 15.7481C0.657485 14.2865 0 12.5466 0 10.5286V2.04286H4.55182V0.5H6.06909V5.12857H4.55182V3.58571H1.51727V10.5286C1.51727 12.2257 2.11154 13.6786 3.30007 14.8871C4.4886 16.0957 5.91737 16.7 7.58637 16.7C9.25537 16.7 10.6841 16.0957 11.8727 14.8871C13.0612 13.6786 13.6555 12.2257 13.6555 10.5286V3.58571H10.6209V5.12857H9.10364V0.5H10.6209V2.04286H15.1727V10.5286C15.1727 12.5466 14.5153 14.287 13.2003 15.7496C11.8853 17.2122 10.2669 18.0346 8.34501 18.2166V19.0143C8.34501 20.9429 9.01159 22.5824 10.3448 23.9329C11.68 25.2824 13.2999 25.9571 15.2046 25.9571C17.1012 25.9571 18.713 25.2824 20.0401 23.9329C21.3673 22.5834 22.0313 20.9439 22.0323 19.0143V16.6074C21.3222 16.4377 20.7361 16.0582 20.2738 15.4688C19.8115 14.8794 19.5804 14.2016 19.5804 13.4353C19.5804 12.5302 19.893 11.7598 20.5181 11.1241C21.1432 10.4895 21.9018 10.1722 22.794 10.1722C23.6862 10.1722 24.4438 10.4895 25.0669 11.1241C25.69 11.7587 26.001 12.5297 26 13.4369C26 14.2021 25.7689 14.8794 25.3066 15.4688C24.8454 16.0582 24.2597 16.4382 23.5496 16.609V19.0143C23.5496 21.3759 22.7394 23.3806 21.1189 25.0283C19.4985 26.6761 17.5275 27.5 15.2061 27.5ZM22.7879 15.1571C23.2573 15.1571 23.6568 14.9895 23.9866 14.6542C24.3163 14.3189 24.4812 13.9126 24.4812 13.4353C24.4812 12.9581 24.3163 12.5523 23.9866 12.218C23.6568 11.8837 23.2573 11.7161 22.7879 11.715C22.3186 11.714 21.9195 11.8817 21.5908 12.218C21.2621 12.5543 21.0972 12.9606 21.0962 13.4369C21.0952 13.9131 21.26 14.3189 21.5908 14.6542C21.9216 14.9895 22.3196 15.1571 22.7879 15.1571Z" fill="#000957"/>
</svg>
