<svg width="20" height="20" viewBox="0 0 20 20" fill="none" xmlns="http://www.w3.org/2000/svg">
<path d="M11.5 20C9.7 20 8.16667 19.3667 6.9 18.1C5.63333 16.8333 5 15.3 5 13.5V12.925C3.56667 12.6917 2.375 12.0207 1.425 10.912C0.475 9.80334 0 8.49934 0 7V2C0 1.71667 0.0960001 1.47934 0.288 1.288C0.48 1.09667 0.717333 1.00067 1 1H3C3 0.71667 3.096 0.479337 3.288 0.288004C3.48 0.0966702 3.71733 0.000670115 4 3.44827e-06C4.28267 -0.000663218 4.52033 0.0953369 4.713 0.288004C4.90567 0.48067 5.00133 0.718003 5 1V3C5 3.28334 4.904 3.521 4.712 3.713C4.52 3.905 4.28267 4.00067 4 4C3.71733 3.99934 3.48 3.90334 3.288 3.712C3.096 3.52067 3 3.28334 3 3H2V7C2 8.1 2.39167 9.04167 3.175 9.825C3.95833 10.6083 4.9 11 6 11C7.1 11 8.04167 10.6083 8.825 9.825C9.60833 9.04167 10 8.1 10 7V3H9C9 3.28334 8.904 3.521 8.712 3.713C8.52 3.905 8.28267 4.00067 8 4C7.71733 3.99934 7.48 3.90334 7.288 3.712C7.096 3.52067 7 3.28334 7 3V1C7 0.71667 7.096 0.479337 7.288 0.288004C7.48 0.0966702 7.71733 0.000670115 8 3.44827e-06C8.28267 -0.000663218 8.52033 0.0953369 8.713 0.288004C8.90567 0.48067 9.00133 0.718003 9 1H11C11.2833 1 11.521 1.096 11.713 1.288C11.905 1.48 12.0007 1.71734 12 2V7C12 8.5 11.525 9.80434 10.575 10.913C9.625 12.0217 8.43333 12.6923 7 12.925V13.5C7 14.75 7.43767 15.8127 8.313 16.688C9.18833 17.5633 10.2507 18.0007 11.5 18C12.7493 17.9993 13.812 17.562 14.688 16.688C15.564 15.814 16.0013 14.7513 16 13.5V11.825C15.4167 11.6083 14.9377 11.2457 14.563 10.737C14.1883 10.2283 14.0007 9.64934 14 9C14 8.16667 14.2917 7.45834 14.875 6.875C15.4583 6.29167 16.1667 6 17 6C17.8333 6 18.5417 6.29167 19.125 6.875C19.7083 7.45834 20 8.16667 20 9C20 9.65 19.8127 10.2293 19.438 10.738C19.0633 11.2467 18.584 11.609 18 11.825V13.5C18 15.3 17.3667 16.8333 16.1 18.1C14.8333 19.3667 13.3 20 11.5 20Z" fill="white"/>
</svg>
