<svg width="18" height="19" viewBox="0 0 18 19" fill="none" xmlns="http://www.w3.org/2000/svg">
<path d="M13.3833 0.206742C13.5469 0.221428 13.6183 0.421165 13.5008 0.537678L5.35472 8.6838C5.26269 8.77588 5.1968 8.89077 5.16379 9.0167L4.18469 12.7667C4.15237 12.8906 4.15302 13.0208 4.18658 13.1444C4.22014 13.268 4.28544 13.3807 4.376 13.4712C4.46656 13.5618 4.57923 13.6271 4.70283 13.6606C4.82642 13.6942 4.95664 13.6949 5.08057 13.6625L8.82955 12.6834C8.95558 12.6501 9.07048 12.5839 9.16244 12.4915L17.4241 4.22987C17.4499 4.20333 17.4829 4.18476 17.5189 4.17634C17.555 4.16793 17.5927 4.17003 17.6277 4.18239C17.6626 4.19475 17.6932 4.21686 17.716 4.24609C17.7387 4.27533 17.7526 4.31047 17.756 4.34736C18.0999 7.62698 18.0802 10.9346 17.6973 14.2098C17.4789 16.075 15.9799 17.5388 14.1216 17.7473C10.7179 18.1244 7.28293 18.1244 3.87921 17.7473C2.0199 17.5388 0.520895 16.075 0.302555 14.2098C-0.100852 10.7585 -0.100852 7.27194 0.302555 3.82061C0.520895 1.95444 2.0199 0.490681 3.87921 0.283112C7.03634 -0.0668453 10.221 -0.0924356 13.3833 0.206742Z" fill="white"/>
<path d="M14.7023 1.41371C14.725 1.39091 14.752 1.37283 14.7818 1.36049C14.8115 1.34815 14.8434 1.3418 14.8756 1.3418C14.9078 1.3418 14.9397 1.34815 14.9694 1.36049C14.9991 1.37283 15.0261 1.39091 15.0489 1.41371L16.4333 2.79914C16.4791 2.84502 16.5048 2.90716 16.5048 2.97195C16.5048 3.03673 16.4791 3.09888 16.4333 3.14476L8.31365 11.2664C8.28278 11.2972 8.24424 11.3191 8.20203 11.33L6.32803 11.8196C6.28673 11.8304 6.24332 11.8302 6.20212 11.819C6.16092 11.8078 6.12336 11.786 6.09318 11.7558C6.06299 11.7256 6.04122 11.6881 6.03004 11.6469C6.01885 11.6057 6.01863 11.5623 6.02941 11.521L6.51896 9.64697C6.52985 9.60476 6.55182 9.56623 6.5826 9.53535L14.7023 1.41371Z" fill="white"/>
</svg>
