<svg xmlns="http://www.w3.org/2000/svg" xmlns:xlink="http://www.w3.org/1999/xlink" width="500" zoomAndPan="magnify" viewBox="0 0 375 374.999991" height="500" preserveAspectRatio="xMidYMid meet" version="1.2"><defs><clipPath id="b3570bb76d"><path d="M 0 7.25 L 375 7.25 L 375 352.25 L 0 352.25 Z M 0 7.25 "/></clipPath><filter x="0%" y="0%" width="100%" filterUnits="objectBoundingBox" id="01191e4d95" height="100%"><feColorMatrix values="0 0 0 0 1 0 0 0 0 1 0 0 0 0 1 0 0 0 1 0" type="matrix" in="SourceGraphic"/></filter><clipPath id="9f5ff60549"><path d="M 0 0.25 L 375 0.25 L 375 120 L 0 120 Z M 0 0.25 "/></clipPath><clipPath id="f7726ef13d"><rect x="0" width="375" y="0" height="346"/></clipPath><clipPath id="53c5c3b72e"><path d="M 0.238281 0.078125 L 77.761719 0.078125 L 77.761719 105.921875 L 0.238281 105.921875 Z M 0.238281 0.078125 "/></clipPath><clipPath id="dd3a2af30c"><rect x="0" width="78" y="0" height="106"/></clipPath><clipPath id="31209f9d8f"><path d="M 0.0390625 0.238281 L 94 0.238281 L 94 107 L 0.0390625 107 Z M 0.0390625 0.238281 "/></clipPath><clipPath id="1693e3998c"><rect x="0" width="95" y="0" height="108"/></clipPath><clipPath id="4e00679e5b"><path d="M 0.359375 1 L 54.839844 1 L 54.839844 78 L 0.359375 78 Z M 0.359375 1 "/></clipPath><clipPath id="86061ff35c"><rect x="0" width="55" y="0" height="78"/></clipPath><clipPath id="c207d8257e"><path d="M 0.398438 0.519531 L 19.601562 0.519531 L 19.601562 20 L 0.398438 20 Z M 0.398438 0.519531 "/></clipPath><clipPath id="2f2fdd008d"><path d="M 4 24 L 12 24 L 12 31.71875 L 4 31.71875 Z M 4 24 "/></clipPath><clipPath id="a3b5e3f4af"><rect x="0" width="20" y="0" height="32"/></clipPath><clipPath id="3655bca7bb"><path d="M 0.238281 0.121094 L 92.398438 0.121094 L 92.398438 126.359375 L 0.238281 126.359375 Z M 0.238281 0.121094 "/></clipPath><clipPath id="0acdecbaf2"><rect x="0" width="93" y="0" height="127"/></clipPath><clipPath id="cce028cffc"><path d="M 0.160156 0.0390625 L 112 0.0390625 L 112 127.480469 L 0.160156 127.480469 Z M 0.160156 0.0390625 "/></clipPath><clipPath id="1e3f9c16d4"><rect x="0" width="112" y="0" height="128"/></clipPath><clipPath id="65de338c5b"><path d="M 0 0.160156 L 65 0.160156 L 65 92 L 0 92 Z M 0 0.160156 "/></clipPath><clipPath id="2a47413964"><rect x="0" width="66" y="0" height="93"/></clipPath><clipPath id="0fee008060"><path d="M 1 0.0390625 L 23 0.0390625 L 23 23 L 1 23 Z M 1 0.0390625 "/></clipPath><clipPath id="fc8ebfdc70"><rect x="0" width="24" y="0" height="37"/></clipPath><clipPath id="d74e70d0cf"><path d="M 0.0390625 54 L 64 54 L 64 140.558594 L 0.0390625 140.558594 Z M 0.0390625 54 "/></clipPath><clipPath id="edcc2968f3"><path d="M 116 0.160156 L 183.640625 0.160156 L 183.640625 137 L 116 137 Z M 116 0.160156 "/></clipPath><clipPath id="161ce6db3e"><rect x="0" width="184" y="0" height="141"/></clipPath><clipPath id="8fe983d6c6"><path d="M 1 0.238281 L 66.960938 0.238281 L 66.960938 33 L 1 33 Z M 1 0.238281 "/></clipPath><clipPath id="99589fb813"><rect x="0" width="67" y="0" height="34"/></clipPath><clipPath id="61ca5ffe2f"><path d="M 0.160156 0.160156 L 33.761719 0.160156 L 33.761719 21.761719 L 0.160156 21.761719 Z M 0.160156 0.160156 "/></clipPath><clipPath id="af28704a55"><rect x="0" width="34" y="0" height="22"/></clipPath><clipPath id="9b56e78a06"><path d="M 1 0.121094 L 27 0.121094 L 27 33 L 1 33 Z M 1 0.121094 "/></clipPath><clipPath id="38901801fc"><path d="M 1 0.121094 L 27.28125 0.121094 L 27.28125 33.480469 L 1 33.480469 Z M 1 0.121094 "/></clipPath><clipPath id="4b82c5213b"><rect x="0" width="28" y="0" height="34"/></clipPath><clipPath id="efe7f6d717"><path d="M 0.441406 0.480469 L 35.960938 0.480469 L 35.960938 18.71875 L 0.441406 18.71875 Z M 0.441406 0.480469 "/></clipPath><clipPath id="0f07058430"><rect x="0" width="36" y="0" height="19"/></clipPath><clipPath id="7cd3dde151"><path d="M 0.238281 0.601562 L 102 0.601562 L 102 78 L 0.238281 78 Z M 0.238281 0.601562 "/></clipPath><clipPath id="05ff2f3f78"><rect x="0" width="102" y="0" height="79"/></clipPath></defs><g id="6acfa34e7c"><g clip-rule="nonzero" clip-path="url(#b3570bb76d)"><g mask="url(#fdd7395144)" transform="matrix(1,0,0,1,0,7)"><g clip-path="url(#f7726ef13d)"><path style=" stroke:none;fill-rule:nonzero;fill:#000957;fill-opacity:1;" d="M 0.0078125 172.59375 C 0.0078125 163.078125 4.65625 154.457031 12.160156 148.222656 C 19.660156 141.980469 30.03125 138.125 41.476562 138.125 L 96.152344 138.125 C 95.824219 138.816406 95.515625 139.519531 95.21875 140.230469 L 49.082031 167.664062 C 37.738281 174.402344 32.613281 188.121094 36.746094 200.644531 L 38.84375 206.996094 C 17.167969 205.871094 0.0117188 190.898438 0.0117188 172.597656 Z M 0.0078125 172.59375 "/><path style=" stroke:none;fill-rule:nonzero;fill:#000957;fill-opacity:1;" d="M 91.285156 229.078125 L 125.417969 224.375 C 125.023438 224.167969 124.628906 223.953125 124.238281 223.738281 C 124.625 223.949219 125.019531 224.164062 125.417969 224.371094 C 134.339844 229.050781 144.140625 231.128906 153.796875 229.996094 L 153.8125 229.996094 C 154.457031 229.957031 173.058594 229.023438 182.234375 225.914062 C 183.988281 225.527344 185.730469 225.03125 187.453125 224.421875 C 206.082031 217.894531 218.292969 200.484375 221.175781 179.804688 L 235.441406 177.839844 C 236.488281 185.699219 239.125 218.796875 217.609375 261.609375 C 209.3125 278.128906 198.847656 289.347656 187.503906 296.160156 C 186.109375 293.847656 183.210938 292.75 180.539062 293.746094 C 177.734375 294.792969 173.78125 296.136719 168.425781 297.6875 C 159.335938 300.324219 147.585938 298.21875 141.144531 296.652344 C 138.398438 295.984375 135.578125 297.40625 134.472656 300.007812 C 129.347656 297.941406 124.453125 295.21875 119.925781 291.9375 C 99.152344 276.871094 93.066406 245.644531 91.285156 229.074219 Z M 91.285156 229.078125 "/><path style=" stroke:none;fill-rule:nonzero;fill:#000957;fill-opacity:1;" d="M 272.007812 241.53125 C 272.007812 260.5625 290.574219 275.996094 313.480469 275.996094 L 333.523438 275.996094 C 356.421875 275.996094 374.988281 291.425781 374.988281 310.46875 C 374.988281 319.984375 370.34375 328.597656 362.839844 334.832031 C 355.339844 341.078125 344.964844 344.929688 333.523438 344.929688 L 41.476562 344.929688 C 18.574219 344.929688 0.0078125 329.5 0.0078125 310.46875 C 0.0078125 300.949219 4.65625 292.328125 12.160156 286.097656 C 19.660156 279.855469 30.03125 276 41.476562 276 L 44.261719 276 C 55.710938 276 66.082031 272.140625 73.585938 265.902344 C 75.117188 264.632812 76.527344 263.261719 77.804688 261.800781 C 84.78125 281.871094 99.085938 306.199219 128.183594 315.234375 L 127.894531 315.941406 C 126.527344 319.257812 128.472656 322.992188 131.972656 323.773438 C 138.210938 325.183594 148.441406 326.71875 160.570312 325.566406 C 173.5 324.34375 183.382812 321.03125 188.828125 318.800781 C 191.554688 317.679688 193.003906 314.703125 192.195312 311.871094 L 192.007812 311.210938 C 249.535156 285.355469 254.1875 199.890625 254.375 176.765625 C 261.183594 179.839844 268.496094 181.128906 275.710938 180.285156 C 275.710938 180.285156 275.714844 180.285156 275.726562 180.28125 C 276.265625 180.25 291.832031 179.46875 299.535156 176.867188 C 299.539062 176.863281 299.542969 176.863281 299.546875 176.863281 C 301.019531 176.53125 302.476562 176.117188 303.921875 175.613281 C 319.554688 170.132812 329.800781 155.496094 332.195312 138.125 L 333.523438 138.125 C 356.421875 138.125 374.988281 153.554688 374.988281 172.597656 C 374.988281 182.113281 370.34375 190.734375 362.839844 196.96875 C 355.339844 203.210938 344.964844 207.066406 333.523438 207.066406 L 313.480469 207.066406 C 302.027344 207.066406 291.660156 210.921875 284.15625 217.160156 C 276.652344 223.398438 272.007812 232.007812 272.007812 241.53125 Z M 272.007812 241.53125 "/><g clip-rule="nonzero" clip-path="url(#9f5ff60549)"><path style=" stroke:none;fill-rule:nonzero;fill:#000957;fill-opacity:1;" d="M 333.527344 0.25 L 41.476562 0.25 C 30.03125 0.25 19.660156 4.105469 12.160156 10.351562 C 4.65625 16.585938 0.0078125 25.203125 0.0078125 34.71875 C 0.0078125 53.757812 18.578125 69.191406 41.476562 69.191406 L 97.105469 69.191406 C 120.011719 69.191406 138.574219 84.621094 138.574219 103.65625 C 138.574219 104.246094 138.5625 104.832031 138.523438 105.414062 C 139.742188 104.9375 140.460938 104.691406 140.605469 104.644531 C 140.589844 104.652344 140.566406 104.660156 140.550781 104.671875 C 140.566406 104.664062 140.585938 104.65625 140.605469 104.648438 C 140.613281 104.644531 140.621094 104.636719 140.632812 104.636719 C 142.007812 103.996094 143.421875 103.421875 144.875 102.90625 C 164.734375 95.945312 186.617188 103.210938 202 119.6875 L 226.621094 105.046875 C 229.824219 97.402344 234.890625 90.910156 241.496094 86.464844 C 241.875 86.1875 242.269531 85.933594 242.667969 85.707031 C 242.710938 85.671875 242.753906 85.652344 242.796875 85.628906 C 242.800781 85.628906 242.800781 85.625 242.804688 85.625 C 243.714844 85.0625 244.652344 84.535156 245.617188 84.058594 C 256.796875 77.957031 264.214844 75.367188 264.667969 75.214844 C 264.640625 75.226562 264.617188 75.246094 264.589844 75.253906 C 264.617188 75.246094 264.640625 75.230469 264.667969 75.21875 C 264.675781 75.214844 264.683594 75.210938 264.6875 75.210938 C 265.839844 74.675781 267.03125 74.191406 268.25 73.761719 C 278.386719 70.207031 289.160156 71.082031 298.953125 75.4375 C 305.691406 71.5 313.902344 69.1875 322.769531 69.1875 L 333.527344 69.1875 C 344.96875 69.1875 355.34375 65.328125 362.84375 59.089844 C 370.347656 52.855469 374.992188 44.238281 374.992188 34.71875 C 374.992188 15.6875 356.421875 0.253906 333.527344 0.253906 Z M 227.699219 71.433594 C 227.699219 76.015625 223.980469 79.742188 219.390625 79.742188 L 205.941406 79.742188 L 205.941406 87.566406 C 205.941406 91.167969 201.6875 93.082031 198.992188 90.691406 L 186.652344 79.742188 L 134.964844 79.742188 C 130.375 79.742188 126.660156 76.019531 126.660156 71.433594 L 126.660156 23.105469 C 126.660156 18.523438 130.375 14.800781 134.964844 14.800781 L 219.386719 14.800781 C 223.976562 14.800781 227.695312 18.519531 227.695312 23.105469 L 227.695312 71.433594 Z M 227.699219 71.433594 "/></g><path style=" stroke:none;fill-rule:nonzero;fill:#000957;fill-opacity:1;" d="M 123.351562 101.976562 C 123.351562 106.472656 122.035156 110.65625 119.761719 114.175781 C 119.144531 114.503906 118.519531 114.84375 117.878906 115.191406 C 116.730469 115.761719 115.613281 116.386719 114.523438 117.058594 C 114.519531 117.058594 114.519531 117.0625 114.515625 117.0625 C 114.464844 117.09375 114.414062 117.117188 114.367188 117.152344 C 113.886719 117.429688 113.417969 117.730469 112.96875 118.054688 C 110.421875 119.773438 108.0625 121.742188 105.914062 123.929688 L 105.910156 123.929688 C 104.277344 124.308594 102.570312 124.503906 100.824219 124.503906 C 88.382812 124.503906 78.292969 114.417969 78.292969 101.976562 C 78.292969 89.535156 88.382812 79.449219 100.824219 79.449219 C 113.265625 79.449219 123.351562 89.535156 123.351562 101.976562 Z M 123.351562 101.976562 "/></g><mask id="fdd7395144"><g filter="url(#01191e4d95)"><rect x="0" width="375" y="0" height="374.999991" style="fill:#000000;fill-opacity:0.25;stroke:none;"/></g></mask></g></g><path style=" stroke:none;fill-rule:nonzero;fill:#000957;fill-opacity:1;" d="M 251.933594 182.570312 L 235.4375 184.84375 L 221.171875 186.804688 C 222.683594 175.953125 221.632812 164.199219 217.585938 152.652344 C 214.046875 142.558594 208.632812 133.769531 202.003906 126.6875 L 226.621094 112.050781 C 221.796875 123.597656 221.230469 137.789062 226.070312 151.613281 C 230.339844 163.78125 238.058594 173.558594 247.335938 179.820312 C 248.828125 180.832031 250.367188 181.753906 251.933594 182.574219 Z M 251.933594 182.570312 "/><g mask="url(#5ddb9bff53)" transform="matrix(1,0,0,1,222,82)"><g clip-path="url(#dd3a2af30c)"><g clip-rule="nonzero" clip-path="url(#53c5c3b72e)"><path style=" stroke:none;fill-rule:nonzero;fill:#000957;fill-opacity:1;" d="M 77.554688 101.859375 C 69.859375 104.46875 54.273438 105.253906 53.734375 105.277344 C 53.722656 105.28125 53.71875 105.28125 53.71875 105.28125 C 46.503906 106.125 39.191406 104.835938 32.386719 101.761719 C 31.5625 101.386719 30.746094 100.992188 29.941406 100.566406 C 28.375 99.746094 26.835938 98.824219 25.34375 97.8125 C 16.066406 91.550781 8.347656 81.773438 4.078125 69.605469 C -0.761719 55.78125 -0.195312 41.589844 4.628906 30.042969 C 7.832031 22.394531 12.898438 15.90625 19.503906 11.460938 C 19.882812 11.1875 20.277344 10.929688 20.675781 10.703125 C 20.71875 10.671875 20.757812 10.652344 20.800781 10.628906 C 20.804688 10.628906 20.804688 10.625 20.808594 10.625 C 21.71875 10.0625 22.65625 9.535156 23.617188 9.058594 C 34.796875 2.957031 42.214844 0.371094 42.667969 0.21875 C 34.378906 4.074219 27.855469 10.648438 23.515625 18.816406 C 16.679688 31.671875 15.277344 48.472656 20.996094 64.78125 C 26.34375 80.042969 36.820312 91.75 49.09375 97.921875 C 58.0625 102.445312 67.984375 104.007812 77.554688 101.855469 Z M 77.554688 101.859375 "/></g></g><mask id="5ddb9bff53"><g filter="url(#01191e4d95)"><rect x="0" width="375" y="0" height="374.999991" style="fill:#000000;fill-opacity:0.75;stroke:none;"/></g></mask></g><path style=" stroke:none;fill-rule:nonzero;fill:#000957;fill-opacity:1;" d="M 271.398438 188.65625 C 265.546875 188.65625 259.582031 187.34375 253.921875 184.789062 C 253.011719 184.378906 252.195312 183.976562 251.410156 183.566406 C 249.8125 182.726562 248.222656 181.777344 246.707031 180.746094 C 236.902344 174.128906 229.199219 163.914062 225.011719 151.980469 C 220.222656 138.300781 220.421875 123.964844 225.585938 111.613281 C 228.933594 103.609375 234.214844 97.015625 240.855469 92.542969 C 241.257812 92.25 241.671875 91.984375 242.09375 91.738281 C 242.101562 91.734375 242.109375 91.726562 242.117188 91.722656 L 242.335938 91.503906 L 242.488281 91.503906 C 243.355469 90.972656 244.230469 90.492188 245.097656 90.0625 C 256.539062 83.816406 263.992188 81.257812 264.304688 81.152344 L 265.140625 83.238281 C 257.308594 86.882812 250.863281 93.144531 246.507812 101.347656 C 239.515625 114.492188 238.621094 130.917969 244.054688 146.410156 C 249.097656 160.804688 259.136719 172.652344 271.597656 178.917969 C 280.628906 183.472656 290.210938 184.800781 299.308594 182.761719 L 299.914062 184.925781 C 292.339844 187.492188 277.601562 188.308594 275.9375 188.394531 L 275.910156 188.402344 L 275.792969 188.402344 C 274.339844 188.570312 272.871094 188.65625 271.394531 188.65625 Z M 243.105469 93.753906 C 242.789062 93.941406 242.46875 94.148438 242.160156 94.375 L 242.128906 94.398438 C 235.847656 98.628906 230.84375 104.878906 227.664062 112.484375 C 222.785156 124.148438 222.59375 138.273438 227.140625 151.238281 C 231.167969 162.71875 238.566406 172.535156 247.96875 178.886719 C 249.421875 179.871094 250.933594 180.773438 252.457031 181.578125 C 253.203125 181.972656 253.988281 182.351562 254.851562 182.746094 C 261.542969 185.769531 268.679688 186.953125 275.484375 186.183594 L 275.535156 186.167969 L 275.683594 186.160156 C 275.761719 186.160156 279.652344 185.960938 284.480469 185.457031 C 279.792969 184.734375 275.125 183.222656 270.59375 180.9375 C 257.617188 174.410156 247.171875 162.101562 241.941406 147.160156 C 236.300781 131.074219 237.246094 113.992188 244.53125 100.296875 C 247.042969 95.5625 250.222656 91.441406 253.945312 88.050781 C 251.632812 89.167969 249.019531 90.496094 246.164062 92.054688 L 246.125 92.078125 C 245.261719 92.503906 244.386719 92.988281 243.515625 93.523438 L 243.277344 93.761719 L 243.113281 93.761719 Z M 243.105469 93.753906 "/><g mask="url(#c8bb6e0252)" transform="matrix(1,0,0,1,239,78)"><g clip-path="url(#1693e3998c)"><g clip-rule="nonzero" clip-path="url(#31209f9d8f)"><path style=" stroke:none;fill-rule:nonzero;fill:#000957;fill-opacity:1;" d="M 90.179688 38.589844 C 80.324219 10.464844 53.046875 -5.578125 29.246094 2.761719 C 28.027344 3.191406 26.835938 3.675781 25.683594 4.210938 C 25.675781 4.210938 25.667969 4.214844 25.664062 4.21875 C 4.335938 14.144531 -5.355469 42.109375 3.988281 68.78125 C 13.246094 95.199219 37.875 110.953125 60.550781 105.859375 C 62.023438 105.53125 63.480469 105.113281 64.925781 104.609375 C 88.726562 96.269531 100.035156 66.707031 90.179688 38.589844 Z M 67.609375 85.433594 C 65.824219 86.5625 63.902344 87.503906 61.847656 88.222656 C 59.164062 89.164062 56.414062 89.675781 53.664062 89.785156 C 38.832031 90.402344 23.886719 79.496094 17.890625 62.386719 C 11.894531 45.273438 16.765625 27.421875 28.738281 18.644531 C 30.953125 17.015625 33.421875 15.699219 36.109375 14.757812 C 37.839844 14.15625 39.59375 13.722656 41.359375 13.46875 C 57.113281 11.167969 73.671875 22.359375 80.0625 40.597656 C 86.324219 58.460938 80.75 77.117188 67.609375 85.433594 Z M 67.609375 85.433594 "/></g></g><mask id="c8bb6e0252"><g filter="url(#01191e4d95)"><rect x="0" width="375" y="0" height="374.999991" style="fill:#000000;fill-opacity:0.5;stroke:none;"/></g></mask></g><path style=" stroke:none;fill-rule:nonzero;fill:#000957;fill-opacity:1;" d="M 290.921875 185.9375 C 282.316406 185.9375 273.582031 183.257812 265.625 178.078125 C 254.878906 171.089844 246.464844 160.105469 241.929688 147.148438 C 237.34375 134.0625 237.101562 120.109375 241.257812 107.855469 C 245.402344 95.636719 253.523438 86.179688 264.140625 81.21875 L 264.210938 81.183594 C 265.363281 80.648438 266.59375 80.144531 267.875 79.695312 C 279.699219 75.546875 292.710938 77.089844 304.511719 84.027344 C 316.25 90.925781 325.386719 102.359375 330.242188 116.210938 C 340.285156 144.875 328.648438 175.136719 304.300781 183.664062 C 302.859375 184.167969 301.34375 184.601562 299.800781 184.953125 C 296.882812 185.609375 293.910156 185.929688 290.921875 185.929688 Z M 265.339844 83.148438 L 265.144531 83.242188 C 244.300781 92.9375 235.039062 120.683594 244.058594 146.410156 C 253.085938 172.179688 276.839844 187.808594 299.308594 182.769531 C 300.765625 182.441406 302.199219 182.027344 303.558594 181.554688 C 326.734375 173.433594 337.75 144.457031 328.117188 116.964844 C 323.4375 103.609375 314.652344 92.609375 303.375 85.976562 C 292.152344 79.378906 279.8125 77.90625 268.625 81.828125 C 267.484375 82.230469 266.378906 82.675781 265.34375 83.152344 Z M 265.339844 83.148438 "/><path style=" stroke:none;fill-rule:nonzero;fill:#000957;fill-opacity:1;" d="M 303.507812 124.050781 C 297.511719 106.945312 282.574219 96.03125 267.738281 96.648438 C 255.765625 105.425781 250.894531 123.273438 256.890625 140.390625 C 262.886719 157.503906 277.828125 168.40625 292.664062 167.789062 C 304.640625 159.015625 309.503906 141.164062 303.507812 124.054688 Z M 269.199219 144.222656 C 267.410156 144.847656 265.433594 143.851562 264.78125 141.992188 C 264.125 140.128906 265.050781 138.117188 266.839844 137.488281 C 268.628906 136.859375 270.605469 137.863281 271.257812 139.71875 C 271.914062 141.578125 270.984375 143.59375 269.199219 144.222656 Z M 273.128906 132.070312 C 268.382812 133.738281 263.140625 131.089844 261.414062 126.160156 C 259.6875 121.230469 262.132812 115.890625 266.875 114.230469 C 271.621094 112.570312 276.863281 115.21875 278.589844 120.144531 C 280.316406 125.070312 277.871094 130.414062 273.128906 132.070312 Z M 273.128906 132.070312 "/><g mask="url(#53ae70e1bd)" transform="matrix(1,0,0,1,267,90)"><g clip-path="url(#86061ff35c)"><g clip-rule="nonzero" clip-path="url(#4e00679e5b)"><path style=" stroke:none;fill-rule:nonzero;fill:#000957;fill-opacity:1;" d="M 52.0625 28.601562 C 59.171875 48.890625 51.011719 70.210938 33.847656 76.226562 C 31.160156 77.167969 28.414062 77.675781 25.664062 77.789062 C 37.640625 69.015625 42.503906 51.164062 36.507812 34.054688 C 30.511719 16.945312 15.574219 6.035156 0.738281 6.652344 C 2.957031 5.023438 5.425781 3.707031 8.105469 2.765625 C 25.273438 -3.25 44.953125 8.324219 52.0625 28.605469 Z M 52.0625 28.601562 "/></g></g><mask id="53ae70e1bd"><g filter="url(#01191e4d95)"><rect x="0" width="375" y="0" height="374.999991" style="fill:#000000;fill-opacity:0.75;stroke:none;"/></g></mask></g><path style=" stroke:none;fill-rule:nonzero;fill:#000957;fill-opacity:1;" d="M 291.445312 168.9375 C 276.222656 168.9375 261.707031 157.523438 255.832031 140.757812 C 249.796875 123.53125 254.417969 105.011719 267.074219 95.734375 L 267.378906 95.519531 C 269.648438 93.898438 272.121094 92.613281 274.738281 91.703125 C 283.355469 88.683594 292.835938 89.800781 301.429688 94.851562 C 309.960938 99.863281 316.601562 108.171875 320.125 118.230469 C 323.648438 128.292969 323.644531 138.921875 320.109375 148.167969 C 316.550781 157.472656 309.839844 164.265625 301.222656 167.28125 C 298.484375 168.242188 295.617188 168.789062 292.707031 168.910156 C 292.285156 168.929688 291.863281 168.9375 291.441406 168.9375 Z M 268.117188 97.765625 C 256.46875 106.53125 252.289062 123.84375 257.957031 140.015625 C 263.511719 155.878906 277.164062 166.6875 291.441406 166.6875 C 291.835938 166.6875 292.226562 166.679688 292.617188 166.660156 C 295.308594 166.550781 297.949219 166.046875 300.476562 165.160156 C 308.464844 162.363281 314.691406 156.039062 318.007812 147.363281 C 321.355469 138.621094 321.351562 128.535156 318 118.976562 C 314.652344 109.414062 308.359375 101.539062 300.289062 96.792969 C 292.277344 92.082031 283.46875 91.03125 275.484375 93.828125 C 272.960938 94.707031 270.582031 95.960938 268.410156 97.554688 L 268.121094 97.769531 Z M 268.117188 97.765625 "/><g mask="url(#d6d21a31f9)" transform="matrix(1,0,0,1,260,113)"><g clip-path="url(#a3b5e3f4af)"><g clip-rule="nonzero" clip-path="url(#c207d8257e)"><path style=" stroke:none;fill-rule:nonzero;fill:#000957;fill-opacity:1;" d="M 13.125 19.070312 C 8.378906 20.738281 3.136719 18.089844 1.410156 13.160156 C -0.316406 8.230469 2.128906 2.890625 6.871094 1.230469 C 11.617188 -0.429688 16.859375 2.21875 18.585938 7.144531 C 20.3125 12.070312 17.867188 17.414062 13.125 19.070312 Z M 13.125 19.070312 "/></g><g clip-rule="nonzero" clip-path="url(#2f2fdd008d)"><path style=" stroke:none;fill-rule:nonzero;fill:#000957;fill-opacity:1;" d="M 9.199219 31.222656 C 7.410156 31.847656 5.433594 30.851562 4.78125 28.992188 C 4.125 27.128906 5.050781 25.117188 6.839844 24.488281 C 8.628906 23.859375 10.605469 24.863281 11.257812 26.71875 C 11.914062 28.578125 10.984375 30.59375 9.199219 31.222656 Z M 9.199219 31.222656 "/></g></g><mask id="d6d21a31f9"><g filter="url(#01191e4d95)"><rect x="0" width="375" y="0" height="374.999991" style="fill:#000000;fill-opacity:0.75;stroke:none;"/></g></mask></g><path style=" stroke:none;fill-rule:nonzero;fill:#000957;fill-opacity:1;" d="M 125.414062 231.375 L 91.28125 236.078125 L 71.285156 238.828125 C 57.847656 240.675781 44.996094 232.664062 40.742188 219.785156 L 36.738281 207.644531 C 32.609375 195.121094 37.734375 181.402344 49.074219 174.664062 L 95.21875 147.234375 C 89.457031 161.007812 88.777344 177.945312 94.558594 194.4375 C 100.464844 211.296875 111.933594 224.304688 125.410156 231.378906 Z M 125.414062 231.375 "/><g mask="url(#43d7d9c875)" transform="matrix(1,0,0,1,90,111)"><g clip-path="url(#0acdecbaf2)"><g clip-rule="nonzero" clip-path="url(#3655bca7bb)"><path style=" stroke:none;fill-rule:nonzero;fill:#000957;fill-opacity:1;" d="M 92.234375 121.914062 C 83.058594 125.023438 64.460938 125.957031 63.8125 125.992188 L 63.796875 125.992188 C 54.140625 127.125 44.339844 125.046875 35.421875 120.371094 C 21.945312 113.300781 10.476562 100.289062 4.5625 83.429688 C -1.214844 66.941406 -0.539062 50 5.222656 36.230469 C 9.042969 27.101562 15.085938 19.363281 22.96875 14.054688 C 23.421875 13.726562 23.890625 13.425781 24.367188 13.152344 C 24.417969 13.117188 24.46875 13.09375 24.519531 13.0625 C 24.523438 13.0625 24.523438 13.058594 24.527344 13.058594 C 25.613281 12.386719 26.730469 11.761719 27.878906 11.195312 C 41.21875 3.914062 50.070312 0.832031 50.613281 0.648438 C 40.726562 5.242188 32.9375 13.09375 27.761719 22.835938 C 19.609375 38.175781 17.929688 58.21875 24.753906 77.679688 C 31.132812 95.890625 43.636719 109.855469 58.285156 117.226562 C 68.980469 122.617188 80.816406 124.484375 92.238281 121.917969 Z M 92.234375 121.914062 "/></g></g><mask id="43d7d9c875"><g filter="url(#01191e4d95)"><rect x="0" width="375" y="0" height="374.999991" style="fill:#000000;fill-opacity:0.75;stroke:none;"/></g></mask></g><path style=" stroke:none;fill-rule:nonzero;fill:#000957;fill-opacity:1;" d="M 148.59375 238.421875 C 140.613281 238.421875 132.515625 236.363281 124.898438 232.367188 C 110.707031 224.925781 99.261719 211.234375 93.503906 194.804688 C 87.804688 178.53125 88.042969 161.480469 94.1875 146.796875 C 98.160156 137.289062 104.433594 129.453125 112.324219 124.136719 C 112.78125 123.804688 113.277344 123.488281 113.785156 123.191406 L 113.960938 122.980469 L 114.164062 122.964844 C 115.230469 122.316406 116.300781 121.722656 117.363281 121.195312 C 130.992188 113.757812 139.878906 110.707031 140.253906 110.582031 L 141.089844 112.667969 C 131.699219 117.035156 123.976562 124.539062 118.757812 134.363281 C 110.390625 150.105469 109.320312 169.765625 115.820312 188.308594 C 121.851562 205.53125 133.871094 219.710938 148.789062 227.21875 C 159.613281 232.675781 171.09375 234.269531 181.996094 231.824219 L 182.601562 233.988281 C 173.605469 237.03125 155.941406 238.015625 153.898438 238.121094 C 152.144531 238.324219 150.371094 238.429688 148.601562 238.429688 Z M 114.871094 125.15625 C 114.433594 125.410156 114.015625 125.683594 113.625 125.96875 L 113.589844 125.988281 C 106.058594 131.058594 100.0625 138.554688 96.253906 147.664062 C 90.414062 161.628906 90.183594 178.539062 95.621094 194.058594 C 101.199219 209.957031 112.246094 223.191406 125.9375 230.375 C 134.859375 235.054688 144.449219 236.953125 153.660156 235.875 L 153.757812 235.867188 C 154.804688 235.8125 160.054688 235.527344 166.070312 234.839844 C 159.898438 234.113281 153.738281 232.230469 147.769531 229.222656 C 132.332031 221.457031 119.910156 206.8125 113.683594 189.042969 C 106.980469 169.910156 108.101562 149.59375 116.761719 133.296875 C 120.011719 127.183594 124.195312 121.925781 129.125 117.707031 C 126.042969 119.164062 122.445312 120.972656 118.417969 123.171875 L 118.375 123.195312 C 117.347656 123.707031 116.300781 124.285156 115.261719 124.917969 L 115.078125 125.132812 L 114.867188 125.152344 Z M 114.871094 125.15625 "/><g mask="url(#259e5d74bb)" transform="matrix(1,0,0,1,110,107)"><g clip-path="url(#1e3f9c16d4)"><g clip-rule="nonzero" clip-path="url(#cce028cffc)"><path style=" stroke:none;fill-rule:nonzero;fill:#000957;fill-opacity:1;" d="M 80.652344 101.542969 C 78.527344 102.890625 76.230469 104.007812 73.777344 104.867188 C 70.574219 105.992188 67.292969 106.605469 64.015625 106.730469 C 46.320312 107.46875 28.484375 94.453125 21.335938 74.039062 C 14.183594 53.625 19.988281 32.328125 34.28125 21.855469 C 36.925781 19.914062 39.871094 18.34375 43.074219 17.21875 C 45.136719 16.496094 47.230469 15.984375 49.335938 15.679688 C 68.128906 12.929688 87.886719 26.285156 95.511719 48.050781 C 102.980469 69.359375 96.328125 91.625 80.652344 101.542969 Z M 107.585938 45.648438 C 104.046875 35.554688 98.632812 26.765625 92.003906 19.683594 C 76.621094 3.207031 54.734375 -4.054688 34.875 2.902344 C 33.421875 3.417969 32.003906 3.992188 30.628906 4.628906 C 30.621094 4.628906 30.613281 4.636719 30.601562 4.640625 C 5.15625 16.484375 -6.410156 49.847656 4.746094 81.671875 C 15.785156 113.191406 45.171875 131.988281 72.226562 125.914062 C 73.980469 125.523438 75.71875 125.023438 77.449219 124.417969 C 96.074219 117.890625 108.285156 100.480469 111.167969 79.800781 C 112.679688 68.949219 111.628906 57.195312 107.582031 45.648438 Z M 107.585938 45.648438 "/></g></g><mask id="259e5d74bb"><g filter="url(#01191e4d95)"><rect x="0" width="375" y="0" height="374.999991" style="fill:#000000;fill-opacity:0.5;stroke:none;"/></g></mask></g><path style=" stroke:none;fill-rule:nonzero;fill:#000957;fill-opacity:1;" d="M 171.929688 235.175781 C 161.710938 235.175781 151.328125 231.988281 141.871094 225.835938 C 129.097656 217.523438 119.085938 204.453125 113.6875 189.046875 C 108.234375 173.476562 107.949219 156.878906 112.886719 142.304688 C 117.804688 127.785156 127.453125 116.550781 140.054688 110.65625 L 140.269531 110.511719 L 140.367188 110.511719 C 141.699219 109.898438 143.085938 109.339844 144.5 108.84375 C 164.199219 101.9375 186.542969 108.480469 202.824219 125.914062 C 209.707031 133.273438 215.175781 142.386719 218.640625 152.277344 C 222.609375 163.597656 223.871094 175.589844 222.285156 186.957031 C 220.816406 197.476562 216.953125 207.203125 211.117188 215.089844 C 205.078125 223.246094 197.019531 229.261719 187.824219 232.484375 C 186.078125 233.097656 184.277344 233.609375 182.480469 234.015625 C 179.011719 234.792969 175.480469 235.175781 171.929688 235.175781 Z M 141.117188 112.644531 L 141.082031 112.664062 C 116.117188 124.28125 105.019531 157.507812 115.8125 188.304688 C 126.617188 219.15625 155.066406 237.867188 181.988281 231.820312 C 183.707031 231.433594 185.417969 230.949219 187.078125 230.367188 C 204.777344 224.164062 217.105469 207.820312 220.058594 186.65625 C 221.59375 175.640625 220.371094 164.007812 216.523438 153.027344 C 213.160156 143.429688 207.855469 134.589844 201.183594 127.457031 C 185.523438 110.683594 164.089844 104.367188 145.25 110.972656 C 143.835938 111.46875 142.445312 112.035156 141.117188 112.652344 Z M 172.558594 214.886719 C 154.488281 214.886719 137.253906 201.332031 130.273438 181.414062 C 123.105469 160.945312 128.589844 138.957031 143.613281 127.945312 C 146.386719 125.90625 149.445312 124.292969 152.699219 123.15625 C 154.800781 122.421875 156.980469 121.882812 159.171875 121.566406 C 168.613281 120.183594 178.582031 122.734375 187.253906 128.746094 C 195.972656 134.792969 202.832031 144 206.570312 154.675781 C 214.074219 176.078125 207.632812 199.125 191.253906 209.492188 C 189.035156 210.898438 186.644531 212.050781 184.148438 212.925781 C 180.898438 214.066406 177.5 214.714844 174.0625 214.851562 C 173.558594 214.875 173.054688 214.882812 172.558594 214.882812 Z M 164.375 123.4375 C 162.75 123.4375 161.125 123.550781 159.5 123.789062 C 157.453125 124.089844 155.414062 124.585938 153.445312 125.277344 C 150.398438 126.347656 147.542969 127.851562 144.941406 129.757812 C 130.707031 140.191406 125.550781 161.125 132.394531 180.664062 C 139.242188 200.210938 156.332031 213.34375 173.96875 212.605469 C 177.191406 212.480469 180.363281 211.871094 183.410156 210.804688 C 185.746094 209.984375 187.984375 208.90625 190.058594 207.589844 C 205.558594 197.78125 211.613281 175.839844 204.453125 155.417969 C 197.71875 136.191406 181.375 123.433594 164.375 123.433594 Z M 164.375 123.4375 "/><path style=" stroke:none;fill-rule:nonzero;fill:#000957;fill-opacity:1;" d="M 186.953125 161.550781 C 179.800781 141.136719 161.976562 128.121094 144.28125 128.851562 C 129.992188 139.324219 124.183594 160.621094 131.339844 181.035156 C 138.492188 201.453125 156.320312 214.46875 174.015625 213.730469 C 188.300781 203.261719 194.105469 181.96875 186.953125 161.550781 Z M 146.015625 185.617188 C 143.882812 186.367188 141.519531 185.171875 140.738281 182.953125 C 139.964844 180.738281 141.066406 178.328125 143.199219 177.578125 C 145.332031 176.832031 147.699219 178.027344 148.476562 180.242188 C 149.25 182.460938 148.148438 184.867188 146.015625 185.617188 Z M 150.703125 171.117188 C 145.042969 173.097656 138.789062 169.945312 136.730469 164.0625 C 134.667969 158.1875 137.585938 151.8125 143.246094 149.832031 C 148.902344 147.847656 155.160156 151.003906 157.21875 156.882812 C 159.28125 162.765625 156.363281 169.140625 150.703125 171.117188 Z M 150.703125 171.117188 "/><g mask="url(#340531de08)" transform="matrix(1,0,0,1,144,122)"><g clip-path="url(#2a47413964)"><g clip-rule="nonzero" clip-path="url(#65de338c5b)"><path style=" stroke:none;fill-rule:nonzero;fill:#000957;fill-opacity:1;" d="M 61.511719 33.050781 C 69.992188 57.257812 60.257812 82.695312 39.777344 89.871094 C 36.574219 90.992188 33.292969 91.605469 30.011719 91.738281 C 44.296875 81.269531 50.101562 59.976562 42.949219 39.558594 C 35.796875 19.144531 17.972656 6.125 0.273438 6.859375 C 2.917969 4.917969 5.863281 3.34375 9.066406 2.222656 C 29.546875 -4.953125 53.027344 8.851562 61.511719 33.054688 Z M 61.511719 33.050781 "/></g></g><mask id="340531de08"><g filter="url(#01191e4d95)"><rect x="0" width="375" y="0" height="374.999991" style="fill:#000000;fill-opacity:0.75;stroke:none;"/></g></mask></g><g mask="url(#ecaef54468)" transform="matrix(1,0,0,1,135,149)"><g clip-path="url(#fc8ebfdc70)"><g clip-rule="nonzero" clip-path="url(#0fee008060)"><path style=" stroke:none;fill-rule:nonzero;fill:#000957;fill-opacity:1;" d="M 15.699219 22.121094 C 10.039062 24.101562 3.785156 20.949219 1.726562 15.066406 C -0.335938 9.191406 2.582031 2.816406 8.242188 0.835938 C 13.898438 -1.148438 20.15625 2.007812 22.214844 7.886719 C 24.277344 13.769531 21.359375 20.144531 15.699219 22.121094 Z M 15.699219 22.121094 "/></g><path style=" stroke:none;fill-rule:nonzero;fill:#000957;fill-opacity:1;" d="M 11.011719 36.617188 C 8.878906 37.367188 6.515625 36.171875 5.734375 33.953125 C 4.960938 31.738281 6.0625 29.328125 8.195312 28.578125 C 10.328125 27.832031 12.695312 29.027344 13.472656 31.242188 C 14.25 33.460938 13.144531 35.867188 11.011719 36.617188 Z M 11.011719 36.617188 "/></g><mask id="ecaef54468"><g filter="url(#01191e4d95)"><rect x="0" width="375" y="0" height="374.999991" style="fill:#000000;fill-opacity:0.75;stroke:none;"/></g></mask></g><g mask="url(#e49da73229)" transform="matrix(1,0,0,1,71,182)"><g clip-path="url(#161ce6db3e)"><g clip-rule="nonzero" clip-path="url(#d74e70d0cf)"><path style=" stroke:none;fill-rule:nonzero;fill:#000957;fill-opacity:1;" d="M 48.921875 116.9375 C 53.449219 120.222656 58.34375 122.945312 63.46875 125.007812 C 63.460938 125.023438 63.453125 125.046875 63.445312 125.0625 L 57.183594 140.230469 C 4.28125 123.804688 0.289062 56.824219 0.289062 56.824219 L 20.285156 54.074219 C 22.066406 70.644531 28.152344 101.871094 48.925781 116.9375 Z M 48.921875 116.9375 "/></g><g clip-rule="nonzero" clip-path="url(#edcc2968f3)"><path style=" stroke:none;fill-rule:nonzero;fill:#000957;fill-opacity:1;" d="M 183.382812 1.765625 C 183.195312 24.886719 178.539062 110.355469 121.011719 136.210938 L 117.109375 122.5625 C 116.964844 122.0625 116.761719 121.589844 116.503906 121.164062 C 127.84375 114.351562 138.308594 103.132812 146.605469 86.613281 C 168.121094 43.796875 165.488281 10.699219 164.441406 2.84375 L 180.9375 0.570312 C 181.746094 0.996094 182.5625 1.390625 183.382812 1.765625 Z M 183.382812 1.765625 "/></g></g><mask id="e49da73229"><g filter="url(#01191e4d95)"><rect x="0" width="375" y="0" height="374.999991" style="fill:#000000;fill-opacity:0.5;stroke:none;"/></g></mask></g><path style=" stroke:none;fill-rule:nonzero;fill:#000957;fill-opacity:1;" d="M 128.835938 323.609375 L 127.851562 323.304688 C 115.589844 319.5 104.925781 312.675781 96.148438 303.027344 C 89.140625 295.328125 83.328125 285.828125 78.855469 274.789062 C 71.261719 256.039062 70.175781 239.0625 70.164062 238.894531 L 70.101562 237.855469 L 92.273438 234.804688 L 92.398438 235.957031 C 94.210938 252.824219 100.289062 283.3125 120.582031 298.03125 C 125.058594 301.277344 129.871094 303.949219 134.890625 305.964844 L 136.023438 306.421875 L 135.480469 307.507812 Z M 72.496094 239.796875 C 72.859375 243.71875 74.5625 258.21875 80.96875 274.011719 C 87.738281 290.703125 101.304688 312.277344 127.539062 320.847656 L 133 307.625 C 128.191406 305.589844 123.578125 302.980469 119.261719 299.855469 C 98.726562 284.960938 92.300781 254.792969 90.289062 237.347656 Z M 72.496094 239.796875 "/><path style=" stroke:none;fill-rule:nonzero;fill:#000957;fill-opacity:1;" d="M 191.289062 319.765625 L 187.027344 304.871094 C 186.910156 304.464844 186.746094 304.082031 186.539062 303.746094 L 185.953125 302.777344 L 186.921875 302.199219 C 198.851562 295.027344 208.835938 283.5625 216.597656 268.109375 C 237.71875 226.078125 235.503906 193.863281 234.324219 184.988281 L 234.179688 183.878906 L 252.140625 181.40625 L 252.457031 181.574219 C 253.203125 181.96875 253.984375 182.351562 254.851562 182.742188 L 255.515625 183.046875 L 255.507812 183.773438 C 255.421875 194.457031 254.300781 222.328125 245.777344 250.289062 C 235.234375 284.878906 217.300781 308.074219 192.472656 319.234375 Z M 188.964844 303.585938 C 189.050781 303.800781 189.128906 304.019531 189.195312 304.25 L 192.734375 316.636719 C 247.554688 290.886719 252.957031 210.03125 253.25 184.480469 C 252.71875 184.226562 252.21875 183.980469 251.734375 183.734375 L 236.695312 185.804688 C 237.894531 196.191406 239.222656 228.105469 218.613281 269.117188 C 210.847656 284.578125 200.875 296.167969 188.964844 303.585938 Z M 188.964844 303.585938 "/><g mask="url(#6071a26973)" transform="matrix(1,0,0,1,126,300)"><g clip-path="url(#99589fb813)"><g clip-rule="nonzero" clip-path="url(#8fe983d6c6)"><path style=" stroke:none;fill-rule:nonzero;fill:#000957;fill-opacity:1;" d="M 62.832031 25.800781 C 57.382812 28.03125 47.5 31.339844 34.570312 32.566406 C 22.441406 33.71875 12.210938 32.183594 5.96875 30.773438 C 2.46875 29.988281 0.523438 26.253906 1.894531 22.9375 L 2.183594 22.230469 L 8.445312 7.0625 C 8.445312 7.0625 8.457031 7.023438 8.46875 7.007812 C 9.570312 4.40625 12.390625 2.984375 15.136719 3.652344 C 21.578125 5.21875 33.324219 7.320312 42.421875 4.6875 C 47.777344 3.132812 51.726562 1.792969 54.535156 0.746094 C 57.203125 -0.25 60.105469 0.851562 61.5 3.164062 C 61.757812 3.589844 61.960938 4.0625 62.109375 4.5625 L 66.007812 18.210938 L 66.195312 18.871094 C 67.003906 21.703125 65.554688 24.679688 62.828125 25.800781 Z M 62.832031 25.800781 "/></g></g><mask id="6071a26973"><g filter="url(#01191e4d95)"><rect x="0" width="375" y="0" height="374.999991" style="fill:#000000;fill-opacity:0.75;stroke:none;"/></g></mask></g><path style=" stroke:none;fill-rule:nonzero;fill:#000957;fill-opacity:1;" d="M 151.984375 334.09375 C 143.628906 334.09375 136.605469 332.972656 131.726562 331.871094 C 129.730469 331.421875 128.050781 330.125 127.109375 328.316406 C 126.171875 326.507812 126.078125 324.394531 126.859375 322.507812 L 133.441406 306.5625 C 134.765625 303.441406 138.113281 301.757812 141.410156 302.558594 C 147.5625 304.054688 159.21875 306.179688 168.113281 303.605469 C 172.683594 302.277344 176.734375 300.960938 180.148438 299.6875 C 183.257812 298.53125 186.757812 299.746094 188.472656 302.582031 C 188.777344 303.085938 189.023438 303.648438 189.199219 304.25 L 193.289062 318.558594 C 194.253906 321.945312 192.523438 325.503906 189.265625 326.835938 C 183.261719 329.292969 173.429688 332.476562 160.683594 333.683594 C 157.664062 333.96875 154.757812 334.09375 151.992188 334.09375 Z M 135.484375 307.507812 L 128.9375 323.367188 C 128.414062 324.636719 128.476562 326.0625 129.109375 327.28125 C 129.742188 328.5 130.878906 329.371094 132.21875 329.675781 C 138.554688 331.105469 148.59375 332.570312 160.464844 331.445312 C 172.9375 330.265625 182.542969 327.15625 188.402344 324.757812 C 190.601562 323.855469 191.765625 321.457031 191.113281 319.175781 L 187.027344 304.875 C 186.910156 304.46875 186.746094 304.085938 186.539062 303.75 C 185.386719 301.835938 183.027344 301.019531 180.929688 301.804688 C 177.460938 303.09375 173.359375 304.429688 168.734375 305.769531 C 159.335938 308.492188 147.246094 306.300781 140.875 304.75 C 138.65625 304.210938 136.398438 305.347656 135.507812 307.449219 L 135.484375 307.511719 Z M 135.484375 307.507812 "/><path style=" stroke:none;fill-rule:nonzero;fill:#000957;fill-opacity:1;" d="M 77.941406 309.171875 C 77.289062 309.171875 76.640625 309.164062 75.988281 309.152344 C 75.367188 309.140625 74.875 308.628906 74.886719 308.007812 C 74.898438 307.382812 75.414062 306.90625 76.03125 306.902344 C 78.992188 306.960938 81.980469 306.886719 84.925781 306.683594 C 85.546875 306.636719 86.082031 307.109375 86.128906 307.730469 C 86.167969 308.347656 85.703125 308.882812 85.082031 308.929688 C 82.714844 309.089844 80.316406 309.171875 77.941406 309.171875 Z M 67.035156 308.589844 C 66.992188 308.589844 66.953125 308.589844 66.914062 308.582031 C 63.898438 308.261719 60.871094 307.800781 57.921875 307.214844 C 57.3125 307.09375 56.917969 306.503906 57.035156 305.890625 C 57.15625 305.28125 57.753906 304.886719 58.359375 305.007812 C 61.246094 305.578125 64.207031 306.03125 67.15625 306.34375 C 67.777344 306.414062 68.222656 306.96875 68.15625 307.582031 C 68.09375 308.160156 67.601562 308.585938 67.035156 308.585938 Z M 93.941406 307.925781 C 93.398438 307.925781 92.917969 307.53125 92.832031 306.976562 C 92.734375 306.359375 93.15625 305.785156 93.769531 305.6875 C 96.695312 305.230469 99.625 304.640625 102.492188 303.929688 C 103.09375 303.78125 103.703125 304.148438 103.851562 304.75 C 104.003906 305.355469 103.636719 305.964844 103.03125 306.113281 C 100.101562 306.835938 97.105469 307.445312 94.113281 307.914062 C 94.054688 307.917969 94 307.925781 93.9375 307.925781 Z M 111.390625 303.601562 C 110.921875 303.601562 110.484375 303.308594 110.324219 302.839844 C 110.121094 302.25 110.433594 301.613281 111.023438 301.410156 C 111.597656 301.210938 112.167969 301.007812 112.738281 300.800781 C 114.960938 299.992188 117.167969 299.097656 119.292969 298.140625 C 119.859375 297.886719 120.527344 298.140625 120.78125 298.707031 C 121.039062 299.273438 120.78125 299.941406 120.21875 300.195312 C 118.039062 301.175781 115.78125 302.089844 113.511719 302.917969 C 112.925781 303.132812 112.347656 303.335938 111.757812 303.539062 C 111.636719 303.582031 111.511719 303.601562 111.390625 303.601562 Z M 127.777344 296.214844 C 127.386719 296.214844 127.007812 296.015625 126.800781 295.652344 C 126.492188 295.109375 126.679688 294.425781 127.21875 294.117188 C 129.871094 292.589844 132.371094 290.960938 134.636719 289.269531 C 135.132812 288.898438 135.839844 289 136.210938 289.496094 C 136.582031 289.996094 136.480469 290.699219 135.980469 291.070312 C 133.640625 292.820312 131.074219 294.5 128.339844 296.070312 C 128.164062 296.171875 127.972656 296.21875 127.78125 296.21875 Z M 195.207031 290.894531 C 194.597656 290.894531 194.101562 290.410156 194.082031 289.800781 C 194.066406 289.179688 194.554688 288.660156 195.175781 288.644531 C 198.128906 288.566406 201.128906 288.40625 204.105469 288.164062 C 204.722656 288.113281 205.265625 288.578125 205.316406 289.195312 C 205.363281 289.816406 204.902344 290.359375 204.285156 290.410156 C 201.269531 290.652344 198.222656 290.816406 195.234375 290.894531 C 195.226562 290.894531 195.214844 290.894531 195.207031 290.894531 Z M 186.207031 290.886719 C 186.207031 290.886719 186.183594 290.886719 186.171875 290.886719 C 183.136719 290.796875 180.089844 290.621094 177.125 290.363281 C 176.503906 290.3125 176.046875 289.761719 176.101562 289.144531 C 176.152344 288.527344 176.695312 288.066406 177.320312 288.121094 C 180.242188 288.375 183.238281 288.550781 186.234375 288.636719 C 186.859375 288.65625 187.347656 289.175781 187.328125 289.796875 C 187.308594 290.410156 186.808594 290.886719 186.203125 290.886719 Z M 213.136719 289.453125 C 212.582031 289.453125 212.097656 289.042969 212.023438 288.476562 C 211.941406 287.863281 212.371094 287.296875 212.988281 287.214844 C 215.929688 286.820312 218.902344 286.339844 221.816406 285.792969 C 222.425781 285.675781 223.015625 286.082031 223.128906 286.6875 C 223.242188 287.300781 222.839844 287.886719 222.230469 288 C 219.28125 288.554688 216.269531 289.039062 213.289062 289.441406 C 213.234375 289.449219 213.1875 289.453125 213.136719 289.453125 Z M 168.289062 289.304688 C 168.234375 289.304688 168.175781 289.300781 168.117188 289.292969 C 164.914062 288.804688 161.992188 288.226562 159.1875 287.523438 C 158.585938 287.375 158.222656 286.761719 158.371094 286.160156 C 158.519531 285.554688 159.132812 285.1875 159.734375 285.34375 C 162.472656 286.023438 165.328125 286.589844 168.457031 287.070312 C 169.074219 287.164062 169.492188 287.738281 169.398438 288.351562 C 169.3125 288.910156 168.832031 289.308594 168.289062 289.308594 Z M 230.820312 286.125 C 230.316406 286.125 229.855469 285.78125 229.730469 285.265625 C 229.585938 284.664062 229.957031 284.054688 230.558594 283.910156 C 233.457031 283.203125 236.355469 282.414062 239.183594 281.5625 C 239.78125 281.382812 240.40625 281.71875 240.585938 282.316406 C 240.765625 282.914062 240.429688 283.539062 239.832031 283.71875 C 236.96875 284.585938 234.023438 285.382812 231.089844 286.101562 C 230.996094 286.121094 230.90625 286.132812 230.820312 286.132812 Z M 142.085938 285.390625 C 141.804688 285.390625 141.527344 285.285156 141.308594 285.078125 C 140.859375 284.648438 140.84375 283.941406 141.277344 283.488281 C 141.949219 282.785156 142.585938 282.0625 143.179688 281.324219 C 142.859375 281.144531 142.542969 280.960938 142.226562 280.773438 C 141.695312 280.457031 141.519531 279.765625 141.835938 279.234375 C 142.152344 278.703125 142.84375 278.523438 143.375 278.839844 C 143.757812 279.066406 144.144531 279.289062 144.539062 279.507812 C 145.222656 278.519531 145.832031 277.515625 146.367188 276.488281 C 146.65625 275.9375 147.335938 275.722656 147.886719 276.011719 C 148.4375 276.300781 148.652344 276.980469 148.363281 277.53125 C 147.824219 278.5625 147.214844 279.574219 146.542969 280.566406 C 148.066406 281.324219 149.65625 282.035156 151.304688 282.675781 C 151.878906 282.902344 152.167969 283.554688 151.941406 284.136719 C 151.714844 284.710938 151.0625 285 150.480469 284.773438 C 148.648438 284.054688 146.878906 283.265625 145.195312 282.402344 C 144.484375 283.304688 143.722656 284.1875 142.902344 285.042969 C 142.683594 285.273438 142.386719 285.390625 142.089844 285.390625 Z M 248.050781 280.925781 C 247.589844 280.925781 247.160156 280.640625 246.996094 280.183594 C 246.78125 279.597656 247.085938 278.953125 247.664062 278.742188 C 250.472656 277.722656 253.269531 276.613281 255.972656 275.449219 C 256.542969 275.203125 257.207031 275.46875 257.449219 276.039062 C 257.695312 276.609375 257.429688 277.273438 256.859375 277.515625 C 254.117188 278.699219 251.28125 279.824219 248.429688 280.859375 C 248.304688 280.902344 248.175781 280.925781 248.046875 280.925781 Z M 135.785156 275.34375 C 135.480469 275.34375 135.171875 275.21875 134.945312 274.96875 C 132.730469 272.496094 131.3125 269.816406 130.726562 267.011719 C 130.691406 266.839844 130.660156 266.664062 130.632812 266.488281 C 130.535156 265.875 130.957031 265.300781 131.570312 265.203125 C 132.1875 265.109375 132.761719 265.523438 132.859375 266.140625 C 132.878906 266.277344 132.902344 266.417969 132.933594 266.550781 C 133.429688 268.964844 134.671875 271.292969 136.621094 273.464844 C 137.035156 273.929688 136.996094 274.640625 136.535156 275.054688 C 136.324219 275.246094 136.050781 275.34375 135.785156 275.34375 Z M 264.574219 273.796875 C 264.160156 273.796875 263.769531 273.570312 263.570312 273.179688 C 263.289062 272.621094 263.511719 271.949219 264.0625 271.667969 C 266.734375 270.316406 269.371094 268.875 271.902344 267.386719 C 272.4375 267.074219 273.128906 267.25 273.441406 267.785156 C 273.757812 268.320312 273.582031 269.011719 273.042969 269.328125 C 270.476562 270.839844 267.792969 272.304688 265.078125 273.675781 C 264.917969 273.757812 264.742188 273.796875 264.574219 273.796875 Z M 150.011719 269.59375 C 149.976562 269.59375 149.9375 269.59375 149.902344 269.589844 C 149.28125 269.527344 148.832031 268.972656 148.890625 268.355469 C 148.945312 267.84375 148.972656 267.328125 148.984375 266.816406 C 148.984375 266.738281 148.984375 266.664062 148.984375 266.585938 C 148.984375 264.441406 148.429688 262.199219 147.417969 260.265625 C 147.128906 259.714844 147.34375 259.039062 147.894531 258.75 C 148.445312 258.460938 149.125 258.671875 149.414062 259.226562 C 150.589844 261.472656 151.234375 264.085938 151.234375 266.585938 C 151.234375 266.679688 151.234375 266.769531 151.234375 266.863281 C 151.222656 267.433594 151.191406 268.011719 151.128906 268.582031 C 151.070312 269.160156 150.582031 269.59375 150.011719 269.59375 Z M 280.066406 264.652344 C 279.707031 264.652344 279.359375 264.476562 279.136719 264.164062 C 278.785156 263.648438 278.917969 262.953125 279.429688 262.597656 C 281.898438 260.90625 284.308594 259.121094 286.597656 257.289062 C 287.082031 256.902344 287.789062 256.980469 288.179688 257.464844 C 288.566406 257.949219 288.488281 258.660156 288.003906 259.046875 C 285.675781 260.914062 283.21875 262.730469 280.707031 264.457031 C 280.511719 264.589844 280.289062 264.65625 280.070312 264.65625 Z M 133.890625 258.929688 C 133.660156 258.929688 133.425781 258.855469 133.226562 258.710938 C 132.726562 258.34375 132.617188 257.636719 132.984375 257.140625 C 134.917969 254.519531 137.558594 253.074219 140.441406 253.074219 L 140.527344 253.074219 C 140.964844 253.078125 141.410156 253.117188 141.851562 253.1875 C 142.464844 253.289062 142.878906 253.867188 142.78125 254.476562 C 142.679688 255.09375 142.097656 255.503906 141.488281 255.40625 C 141.167969 255.355469 140.832031 255.324219 140.503906 255.324219 L 140.445312 255.324219 C 138.300781 255.324219 136.300781 256.441406 134.808594 258.476562 C 134.585938 258.773438 134.246094 258.933594 133.898438 258.933594 Z M 294.101562 253.40625 C 293.800781 253.40625 293.5 253.285156 293.277344 253.046875 C 292.855469 252.59375 292.878906 251.882812 293.332031 251.457031 C 295.507812 249.417969 297.605469 247.28125 299.566406 245.105469 C 299.984375 244.644531 300.695312 244.609375 301.15625 245.023438 C 301.617188 245.441406 301.65625 246.152344 301.238281 246.613281 C 299.238281 248.832031 297.09375 251.015625 294.871094 253.097656 C 294.65625 253.300781 294.378906 253.402344 294.105469 253.402344 Z M 306.125 240.050781 C 305.890625 240.050781 305.652344 239.976562 305.449219 239.828125 C 304.957031 239.453125 304.855469 238.746094 305.230469 238.253906 C 307.019531 235.878906 308.707031 233.410156 310.246094 230.917969 C 310.574219 230.386719 311.265625 230.226562 311.796875 230.554688 C 312.324219 230.878906 312.488281 231.574219 312.160156 232.101562 C 310.582031 234.65625 308.851562 237.179688 307.027344 239.605469 C 306.804688 239.898438 306.46875 240.050781 306.125 240.050781 Z M 315.5625 224.769531 C 315.394531 224.769531 315.226562 224.734375 315.066406 224.65625 C 314.507812 224.382812 314.28125 223.707031 314.554688 223.148438 C 315.734375 220.765625 316.816406 218.308594 317.785156 215.832031 L 318.070312 215.09375 C 318.292969 214.511719 318.941406 214.226562 319.523438 214.449219 C 320.105469 214.671875 320.394531 215.320312 320.167969 215.902344 L 319.882812 216.644531 C 318.894531 219.183594 317.78125 221.703125 316.578125 224.144531 C 316.382812 224.542969 315.980469 224.769531 315.566406 224.769531 Z M 315.5625 224.769531 "/><g mask="url(#0c35489953)" transform="matrix(1,0,0,1,296,188)"><g clip-path="url(#af28704a55)"><g clip-rule="nonzero" clip-path="url(#61ca5ffe2f)"><path style=" stroke:none;fill-rule:nonzero;fill:#000957;fill-opacity:1;" d="M 33.042969 18.191406 C 34.9375 13.976562 29.292969 7.335938 20.441406 3.363281 C 11.585938 -0.613281 2.875 -0.417969 0.984375 3.796875 C -0.910156 8.011719 4.734375 14.652344 13.585938 18.625 C 22.441406 22.601562 31.152344 22.40625 33.042969 18.191406 Z M 33.042969 18.191406 "/></g></g><mask id="0c35489953"><g filter="url(#01191e4d95)"><rect x="0" width="375" y="0" height="374.999991" style="fill:#000000;fill-opacity:0.5;stroke:none;"/></g></mask></g><g mask="url(#3467e4cb66)" transform="matrix(1,0,0,1,308,195)"><g clip-path="url(#4b82c5213b)"><g clip-rule="nonzero" clip-path="url(#9b56e78a06)"><path style=" stroke:none;fill-rule:nonzero;fill:#000957;fill-opacity:1;" d="M 9.230469 32.859375 C 7.855469 32.859375 6.59375 32.535156 5.480469 31.90625 C 2.929688 30.457031 1.417969 27.53125 1.214844 23.667969 C 1.011719 19.769531 2.167969 15.390625 4.464844 11.339844 C 8.074219 4.984375 13.871094 0.714844 18.890625 0.714844 C 20.265625 0.714844 21.527344 1.03125 22.636719 1.667969 C 27.929688 4.671875 28.382812 13.894531 23.652344 22.230469 C 20.042969 28.585938 14.246094 32.859375 9.226562 32.859375 Z M 9.230469 32.859375 "/></g><g clip-rule="nonzero" clip-path="url(#38901801fc)"><path style=" stroke:none;fill-rule:nonzero;fill:#000957;fill-opacity:1;" d="M 18.894531 0.90625 C 20.238281 0.90625 21.46875 1.214844 22.550781 1.832031 C 27.753906 4.78125 28.171875 13.894531 23.492188 22.140625 C 19.914062 28.441406 14.1875 32.671875 9.230469 32.671875 C 7.886719 32.671875 6.65625 32.359375 5.574219 31.742188 C 0.371094 28.792969 -0.046875 19.679688 4.632812 11.433594 C 8.207031 5.136719 13.9375 0.90625 18.894531 0.90625 Z M 18.894531 0.53125 C 13.933594 0.53125 8.058594 4.640625 4.304688 11.25 C -0.488281 19.691406 0 29.015625 5.386719 32.070312 C 6.550781 32.734375 7.851562 33.046875 9.226562 33.046875 C 14.1875 33.046875 20.0625 28.933594 23.816406 22.324219 C 28.609375 13.882812 28.121094 4.5625 22.734375 1.503906 C 21.570312 0.839844 20.269531 0.53125 18.894531 0.53125 Z M 18.894531 0.53125 "/></g></g><mask id="3467e4cb66"><g filter="url(#01191e4d95)"><rect x="0" width="375" y="0" height="374.999991" style="fill:#000000;fill-opacity:0.5;stroke:none;"/></g></mask></g><path style=" stroke:none;fill-rule:nonzero;fill:#000957;fill-opacity:1;" d="M 331.816406 217.324219 C 336.609375 208.882812 336.121094 199.5625 330.734375 196.503906 C 325.34375 193.445312 317.09375 197.808594 312.304688 206.246094 C 307.511719 214.6875 307.996094 224.007812 313.386719 227.066406 C 318.773438 230.125 327.027344 225.761719 331.816406 217.324219 Z M 331.816406 217.324219 "/><g mask="url(#25c9543404)" transform="matrix(1,0,0,1,295,198)"><g clip-path="url(#0f07058430)"><g clip-rule="nonzero" clip-path="url(#efe7f6d717)"><path style=" stroke:none;fill-rule:nonzero;fill:#000957;fill-opacity:1;" d="M 19.460938 17.917969 C 29.019531 16.253906 36.128906 11.21875 35.339844 6.664062 C 34.546875 2.113281 26.15625 -0.230469 16.59375 1.429688 C 7.035156 3.09375 -0.078125 8.132812 0.714844 12.683594 C 1.507812 17.234375 9.898438 19.578125 19.460938 17.917969 Z M 19.460938 17.917969 "/></g></g><mask id="25c9543404"><g filter="url(#01191e4d95)"><rect x="0" width="375" y="0" height="374.999991" style="fill:#000000;fill-opacity:0.5;stroke:none;"/></g></mask></g><g mask="url(#a0093d4eff)" transform="matrix(1,0,0,1,126,21)"><g clip-path="url(#05ff2f3f78)"><g clip-rule="nonzero" clip-path="url(#7cd3dde151)"><path style=" stroke:none;fill-rule:nonzero;fill:#000957;fill-opacity:1;" d="M 8.964844 0.804688 L 93.390625 0.804688 C 97.976562 0.804688 101.699219 4.523438 101.699219 9.109375 L 101.699219 57.433594 C 101.699219 62.019531 97.976562 65.742188 93.390625 65.742188 L 79.941406 65.742188 L 79.941406 73.566406 C 79.941406 77.167969 75.6875 79.078125 72.992188 76.691406 L 60.652344 65.742188 L 8.964844 65.742188 C 4.378906 65.742188 0.660156 62.019531 0.660156 57.433594 L 0.660156 9.109375 C 0.660156 4.523438 4.378906 0.804688 8.964844 0.804688 Z M 8.964844 0.804688 "/></g></g><mask id="a0093d4eff"><g filter="url(#01191e4d95)"><rect x="0" width="375" y="0" height="374.999991" style="fill:#000000;fill-opacity:0.5;stroke:none;"/></g></mask></g><path style=" stroke:none;fill-rule:nonzero;fill:#000957;fill-opacity:1;" d="M 201.746094 99.875 C 200.480469 99.875 199.246094 99.414062 198.246094 98.53125 L 186.226562 87.863281 L 134.964844 87.863281 C 129.765625 87.863281 125.535156 83.632812 125.535156 78.429688 L 125.535156 30.109375 C 125.535156 24.910156 129.765625 20.679688 134.964844 20.679688 L 219.390625 20.679688 C 224.59375 20.679688 228.824219 24.910156 228.824219 30.109375 L 228.824219 78.433594 C 228.824219 83.636719 224.59375 87.867188 219.390625 87.867188 L 207.066406 87.867188 L 207.066406 94.566406 C 207.066406 96.679688 205.867188 98.535156 203.9375 99.398438 C 203.226562 99.71875 202.484375 99.875 201.746094 99.875 Z M 134.964844 22.925781 C 131.003906 22.925781 127.785156 26.148438 127.785156 30.105469 L 127.785156 78.429688 C 127.785156 82.390625 131.003906 85.613281 134.964844 85.613281 L 187.078125 85.613281 L 199.738281 96.847656 C 200.660156 97.667969 201.886719 97.855469 203.015625 97.347656 C 204.144531 96.84375 204.816406 95.800781 204.816406 94.566406 L 204.816406 85.617188 L 219.390625 85.617188 C 223.351562 85.617188 226.574219 82.394531 226.574219 78.433594 L 226.574219 30.109375 C 226.574219 26.152344 223.351562 22.929688 219.390625 22.929688 L 134.964844 22.929688 Z M 134.964844 22.925781 "/><path style=" stroke:none;fill-rule:nonzero;fill:#000957;fill-opacity:1;" d="M 162.976562 49.535156 C 162.976562 44.046875 164.21875 39.804688 166.699219 36.800781 C 169.183594 33.796875 172.679688 32.292969 177.195312 32.292969 C 181.710938 32.292969 185.207031 33.785156 187.675781 36.769531 C 190.148438 39.753906 191.386719 44 191.386719 49.503906 L 191.386719 56.949219 C 191.386719 62.414062 190.144531 66.648438 187.660156 69.652344 C 185.179688 72.65625 181.671875 74.160156 177.140625 74.160156 C 172.644531 74.160156 169.160156 72.667969 166.683594 69.683594 C 164.214844 66.699219 162.976562 62.453125 162.976562 56.949219 L 162.976562 49.53125 Z M 172.40625 58.378906 C 172.425781 61.308594 172.816406 63.460938 173.582031 64.832031 C 174.34375 66.203125 175.53125 66.890625 177.136719 66.890625 C 178.796875 66.890625 180.007812 66.183594 180.773438 64.773438 C 181.539062 63.363281 181.921875 61.140625 181.921875 58.097656 L 181.921875 47.691406 C 181.863281 44.96875 181.464844 42.929688 180.730469 41.589844 C 179.996094 40.246094 178.816406 39.574219 177.191406 39.574219 C 175.53125 39.574219 174.320312 40.300781 173.554688 41.742188 C 172.789062 43.191406 172.40625 45.375 172.40625 48.304688 Z M 172.40625 58.378906 "/></g></svg>