<svg xmlns="http://www.w3.org/2000/svg" xmlns:xlink="http://www.w3.org/1999/xlink" width="500" zoomAndPan="magnify" viewBox="0 0 375 374.999991" height="500" preserveAspectRatio="xMidYMid meet" version="1.0"><defs><clipPath id="7d2b28c6c1"><path d="M 15.292969 1.832031 L 359.542969 1.832031 L 359.542969 373.082031 L 15.292969 373.082031 Z M 15.292969 1.832031 " clip-rule="nonzero"/></clipPath></defs><g clip-path="url(#7d2b28c6c1)"><path fill="#000000" d="M 42.574219 354.972656 C 42.574219 361.765625 44.382812 367.652344 47.554688 373.082031 L 33.519531 373.082031 C 23.5625 373.082031 15.414062 364.933594 15.414062 354.972656 L 15.414062 19.945312 C 15.414062 9.984375 23.5625 1.832031 33.519531 1.832031 L 47.554688 1.832031 C 44.382812 7.265625 42.574219 13.152344 42.574219 19.945312 Z M 87.839844 19.945312 C 87.839844 13.152344 89.648438 7.265625 92.816406 1.832031 L 78.785156 1.832031 C 68.828125 1.832031 60.679688 9.984375 60.679688 19.945312 L 60.679688 354.972656 C 60.679688 364.933594 68.828125 373.082031 78.785156 373.082031 L 92.816406 373.082031 C 89.648438 367.652344 87.839844 361.765625 87.839844 354.972656 Z M 277.949219 14.511719 L 277.949219 65.21875 C 277.949219 75.179688 286.097656 83.328125 296.054688 83.328125 L 346.75 83.328125 Z M 359.425781 101.4375 L 359.425781 354.972656 C 359.425781 364.933594 351.277344 373.082031 341.320312 373.082031 L 124.050781 373.082031 C 114.089844 373.082031 105.945312 364.933594 105.945312 354.972656 L 105.945312 19.945312 C 105.945312 9.984375 114.089844 1.832031 124.050781 1.832031 L 259.84375 1.832031 L 259.84375 65.21875 C 259.84375 85.140625 276.136719 101.4375 296.054688 101.4375 Z M 314.160156 282.535156 C 314.160156 277.554688 310.085938 273.480469 305.105469 273.480469 L 160.261719 273.480469 C 155.28125 273.480469 151.207031 277.554688 151.207031 282.535156 C 151.207031 287.515625 155.28125 291.589844 160.261719 291.589844 L 305.105469 291.589844 C 310.085938 291.589844 314.160156 287.515625 314.160156 282.535156 Z M 314.160156 237.261719 C 314.160156 232.28125 310.085938 228.207031 305.105469 228.207031 L 160.261719 228.207031 C 155.28125 228.207031 151.207031 232.28125 151.207031 237.261719 C 151.207031 242.242188 155.28125 246.316406 160.261719 246.316406 L 305.105469 246.316406 C 310.085938 246.316406 314.160156 242.242188 314.160156 237.261719 Z M 314.160156 191.984375 C 314.160156 187.007812 310.085938 182.929688 305.105469 182.929688 L 160.261719 182.929688 C 155.28125 182.929688 151.207031 187.007812 151.207031 191.984375 C 151.207031 196.964844 155.28125 201.042969 160.261719 201.042969 L 305.105469 201.042969 C 310.085938 201.042969 314.160156 196.964844 314.160156 191.984375 Z M 314.160156 191.984375 " fill-opacity="1" fill-rule="nonzero"/></g></svg>