<svg xmlns="http://www.w3.org/2000/svg" xmlns:xlink="http://www.w3.org/1999/xlink" width="480" zoomAndPan="magnify" viewBox="0 0 360 318.749988" height="425" preserveAspectRatio="xMidYMid meet" version="1.2"><defs><clipPath id="ae289efe1d"><path d="M 2.332031 14.453125 L 297 14.453125 L 297 203 L 2.332031 203 Z M 2.332031 14.453125 "/></clipPath><clipPath id="5e69ca4a91"><path d="M 234.941406 14.554688 L 357.269531 14.554688 L 357.269531 164.734375 L 234.941406 164.734375 Z M 234.941406 14.554688 "/></clipPath><clipPath id="a7bf4772d7"><path d="M 72.140625 198.890625 L 176.929688 198.890625 L 176.929688 303.617188 L 72.140625 303.617188 Z M 72.140625 198.890625 "/></clipPath></defs><g id="eda6035d0f"><g clip-rule="nonzero" clip-path="url(#ae289efe1d)"><path style=" stroke:none;fill-rule:nonzero;fill:#004aad;fill-opacity:1;" d="M 68.105469 88.140625 C 66.902344 87.132812 66.808594 85.292969 67.953125 84.164062 C 68.953125 83.179688 70.570312 83.199219 71.648438 84.101562 L 80.390625 91.4375 C 80.726562 91.71875 81.214844 91.71875 81.554688 91.4375 L 90.296875 84.101562 C 91.371094 83.199219 92.988281 83.179688 93.988281 84.164062 C 95.132812 85.292969 95.039062 87.132812 93.835938 88.140625 L 85.976562 94.738281 C 85.542969 95.101562 85.542969 95.761719 85.976562 96.125 L 93.738281 102.636719 C 94.871094 103.589844 95.132812 105.296875 94.207031 106.453125 C 93.675781 107.117188 92.894531 107.464844 92.109375 107.464844 C 91.5 107.464844 90.886719 107.257812 90.382812 106.835938 L 81.554688 99.425781 C 81.214844 99.144531 80.726562 99.144531 80.390625 99.425781 L 71.558594 106.835938 C 71.054688 107.257812 70.441406 107.464844 69.832031 107.464844 C 69.046875 107.464844 68.265625 107.117188 67.734375 106.453125 C 66.808594 105.296875 67.070312 103.589844 68.203125 102.636719 L 75.964844 96.125 C 76.398438 95.761719 76.398438 95.101562 75.964844 94.738281 Z M 112.71875 88.214844 C 111.644531 87.316406 111.34375 85.722656 112.140625 84.570312 C 113.050781 83.242188 114.878906 83.019531 116.082031 84.027344 L 124.820312 91.359375 C 125.210938 91.6875 125.78125 91.6875 126.167969 91.359375 L 134.820312 84.101562 C 135.894531 83.199219 137.511719 83.179688 138.511719 84.164062 C 139.660156 85.292969 139.5625 87.132812 138.359375 88.140625 L 130.628906 94.628906 C 130.132812 95.046875 130.132812 95.816406 130.628906 96.234375 L 138.261719 102.636719 C 139.398438 103.589844 139.65625 105.296875 138.734375 106.453125 C 138.199219 107.117188 137.417969 107.464844 136.632812 107.464844 C 136.023438 107.464844 135.410156 107.257812 134.90625 106.835938 L 126.167969 99.5 C 125.78125 99.175781 125.210938 99.175781 124.820312 99.5 L 116.082031 106.835938 C 115.578125 107.257812 114.96875 107.464844 114.359375 107.464844 C 113.570312 107.464844 112.792969 107.117188 112.257812 106.453125 C 111.332031 105.300781 111.59375 103.589844 112.726562 102.636719 L 120.359375 96.234375 C 120.859375 95.816406 120.859375 95.046875 120.359375 94.628906 Z M 155.394531 108.035156 L 184.074219 108.035156 C 185.480469 108.035156 186.730469 109.0625 186.863281 110.457031 C 187.015625 112.058594 185.761719 113.40625 184.191406 113.40625 L 155.507812 113.40625 C 154.105469 113.40625 152.855469 112.382812 152.722656 110.984375 C 152.570312 109.382812 153.824219 108.035156 155.394531 108.035156 Z M 208.640625 108.035156 L 237.324219 108.035156 C 238.726562 108.035156 239.976562 109.0625 240.109375 110.457031 C 240.265625 112.058594 239.007812 113.40625 237.4375 113.40625 L 208.757812 113.40625 C 207.355469 113.40625 206.101562 112.382812 205.96875 110.984375 C 205.816406 109.382812 207.070312 108.035156 208.640625 108.035156 Z M 284.203125 165.769531 C 281.191406 162.777344 279.679688 158.582031 279.835938 154.339844 C 279.933594 151.664062 280.058594 149.738281 280.199219 148.605469 C 280.886719 143.199219 282.105469 138.210938 283.835938 133.777344 C 284.75 131.367188 285.921875 128.929688 287.332031 126.488281 C 288.003906 125.332031 288.359375 124.019531 288.359375 122.683594 L 288.359375 40.601562 C 288.359375 37.894531 285.714844 35.941406 283.148438 36.796875 C 278.613281 38.304688 274.578125 40.730469 270.96875 44.105469 C 266.226562 48.539062 262.59375 54.945312 260.179688 63.136719 C 257.992188 70.558594 250.910156 75.292969 243.351562 74.394531 C 237.878906 73.746094 233.117188 70.257812 230.863281 65.046875 C 229.378906 61.613281 229.234375 57.734375 230.3125 54.15625 C 233.929688 42.132812 240.027344 32.277344 248.4375 24.855469 C 251.359375 22.273438 254.53125 20.015625 257.929688 18.074219 C 259.613281 17.113281 258.941406 14.554688 257.003906 14.554688 L 49.109375 14.554688 C 34.800781 14.730469 23.210938 26.417969 23.210938 40.765625 L 23.210938 157.261719 C 23.210938 159.941406 25.386719 162.113281 28.0625 162.113281 L 271.378906 162.113281 C 272.785156 162.113281 274.035156 163.136719 274.167969 164.535156 C 274.320312 166.136719 273.0625 167.484375 271.496094 167.484375 L 20.140625 167.484375 C 15.40625 167.484375 10.957031 169.328125 7.609375 172.675781 C 4.179688 176.125 2.332031 180.726562 2.441406 185.589844 C 2.65625 195.269531 10.820312 202.890625 20.5 202.890625 L 91.742188 202.890625 C 92.601562 202.890625 93.433594 202.636719 94.160156 202.183594 C 102.992188 196.699219 113.398438 193.527344 124.539062 193.527344 C 135.675781 193.527344 146.089844 196.699219 154.917969 202.183594 C 155.644531 202.636719 156.476562 202.890625 157.335938 202.890625 L 277.273438 202.890625 C 277.976562 202.890625 278.496094 202.253906 278.378906 201.554688 C 278.226562 200.65625 278.148438 199.730469 278.148438 198.789062 C 278.148438 189.53125 285.679688 181.996094 294.9375 181.996094 C 294.941406 181.996094 294.945312 181.996094 294.949219 181.996094 C 295.589844 182 296.117188 181.496094 296.117188 180.855469 L 296.117188 171.183594 C 296.117188 170.539062 295.585938 170.027344 294.945312 170.042969 C 294.832031 170.046875 294.714844 170.050781 294.601562 170.050781 C 290.667969 170.050781 286.988281 168.53125 284.203125 165.769531 "/></g><path style=" stroke:none;fill-rule:nonzero;fill:#004aad;fill-opacity:1;" d="M 283.515625 198.789062 C 283.515625 205.085938 288.640625 210.207031 294.933594 210.207031 C 301.234375 210.207031 306.355469 205.085938 306.355469 198.789062 C 306.355469 192.492188 301.234375 187.367188 294.9375 187.367188 C 288.640625 187.367188 283.515625 192.492188 283.515625 198.789062 "/><g clip-rule="nonzero" clip-path="url(#5e69ca4a91)"><path style=" stroke:none;fill-rule:nonzero;fill:#004aad;fill-opacity:1;" d="M 340.53125 29.949219 C 329.355469 19.734375 314.082031 14.550781 295.144531 14.550781 C 277.28125 14.550781 262.761719 19.375 251.996094 28.882812 C 244.296875 35.671875 238.710938 44.769531 235.394531 55.910156 C 234.523438 58.835938 234.988281 61.976562 236.660156 64.527344 C 238.320312 67.054688 240.992188 68.707031 243.984375 69.058594 C 248.9375 69.648438 253.582031 66.519531 255.027344 61.621094 C 257.71875 52.492188 261.847656 45.28125 267.300781 40.179688 C 274.847656 33.125 284.355469 29.550781 295.554688 29.550781 C 307.144531 29.550781 317.078125 33.484375 325.085938 41.246094 C 333.113281 49.03125 337.183594 58.222656 337.183594 68.5625 C 337.183594 74.332031 335.769531 79.734375 332.980469 84.617188 C 330.234375 89.414062 324.585938 95.558594 315.703125 103.394531 C 307.269531 110.839844 301.367188 116.550781 298.167969 120.375 C 293.886719 125.523438 290.75 130.6875 288.847656 135.703125 C 287.273438 139.75 286.160156 144.308594 285.53125 149.277344 C 285.441406 149.980469 285.308594 151.523438 285.191406 154.886719 C 285.097656 157.484375 286.039062 159.9375 287.835938 161.804688 C 289.625 163.65625 292.03125 164.675781 294.601562 164.675781 C 299.46875 164.675781 303.589844 160.875 303.984375 156.015625 C 304.351562 151.453125 304.886719 147.914062 305.625 145.195312 C 306.898438 140.496094 308.890625 136.261719 311.550781 132.617188 C 314.167969 129.035156 319.46875 123.71875 327.765625 116.367188 C 339.5 105.976562 347.457031 97.09375 351.417969 89.964844 C 355.300781 82.96875 357.269531 75.214844 357.269531 66.910156 C 357.269531 52.335938 351.796875 40.246094 340.53125 29.949219 "/></g><g clip-rule="nonzero" clip-path="url(#a7bf4772d7)"><path style=" stroke:none;fill-rule:nonzero;fill:#004aad;fill-opacity:1;" d="M 104.011719 268.878906 C 94.292969 268.878906 86.390625 260.972656 86.390625 251.257812 C 86.390625 241.542969 94.292969 233.636719 104.011719 233.636719 C 113.726562 233.636719 121.628906 241.542969 121.628906 251.257812 C 121.628906 260.972656 113.726562 268.878906 104.011719 268.878906 Z M 72.179688 251.257812 C 72.179688 280.128906 95.667969 303.617188 124.539062 303.617188 C 153.410156 303.617188 176.898438 280.128906 176.898438 251.257812 C 176.898438 222.386719 153.410156 198.898438 124.539062 198.898438 C 95.667969 198.898438 72.179688 222.386719 72.179688 251.257812 "/></g><path style=" stroke:none;fill-rule:nonzero;fill:#004aad;fill-opacity:1;" d="M 179.773438 268.058594 C 179.351562 269.4375 180.402344 270.824219 181.839844 270.824219 L 207.371094 270.839844 C 209.503906 270.839844 211.503906 271.664062 213.003906 273.164062 L 221.660156 281.804688 C 222.078125 282.226562 222.761719 282.226562 223.179688 281.804688 L 242.078125 262.894531 C 244.589844 260.378906 248.679688 260.378906 251.191406 262.894531 L 267.898438 279.613281 C 268.167969 279.886719 268.488281 279.925781 268.65625 279.925781 C 268.824219 279.925781 269.144531 279.886719 269.417969 279.613281 L 295.429688 253.570312 C 295.851562 253.144531 295.851562 252.484375 295.433594 252.0625 L 280.964844 237.59375 C 280.113281 236.746094 278.976562 236.277344 277.761719 236.277344 L 214.75 236.277344 C 210.480469 236.277344 206.96875 232.804688 206.925781 228.535156 C 206.914062 227.65625 206.453125 226.859375 205.660156 226.414062 C 205.277344 226.199219 204.828125 226.109375 204.386719 226.109375 L 179.832031 226.109375 C 178.296875 226.109375 177.25 227.667969 177.839844 229.085938 C 180.691406 235.914062 182.269531 243.40625 182.269531 251.257812 C 182.269531 257.097656 181.394531 262.742188 179.773438 268.058594 "/><path style=" stroke:none;fill-rule:nonzero;fill:#004aad;fill-opacity:1;" d="M 104.011719 239.007812 C 97.257812 239.007812 91.761719 244.503906 91.761719 251.257812 C 91.761719 258.011719 97.257812 263.507812 104.011719 263.507812 C 110.765625 263.507812 116.257812 258.011719 116.257812 251.257812 C 116.257812 244.503906 110.765625 239.007812 104.011719 239.007812 "/></g></svg>