<svg width="23" height="20" viewBox="0 0 23 20" fill="none" xmlns="http://www.w3.org/2000/svg">
<mask id="path-1-inside-1_307_1230" fill="white">
<path d="M14.2973 9.16888C14.2797 8.42271 13.9777 7.71296 13.4553 7.19057C12.9329 6.66818 12.2314 6.37435 11.5 6.37158L14.2973 9.16888Z"/>
</mask>
<path d="M14.2973 9.16888C14.2797 8.42271 13.9777 7.71296 13.4553 7.19057C12.9329 6.66818 12.2314 6.37435 11.5 6.37158L14.2973 9.16888Z" fill="#0D99FF" fill-opacity="0.3"/>
<path d="M14.2973 9.16888L13.5902 9.87599L15.3557 11.6415L15.297 9.14537L14.2973 9.16888ZM11.5 6.37158L11.5038 5.37159L9.0766 5.36239L10.7929 7.07869L11.5 6.37158ZM14.2973 9.16888L15.297 9.14537C15.2735 8.14514 14.8686 7.18971 14.1624 6.48346L13.4553 7.19057L12.7482 7.89768C13.0867 8.23621 13.286 8.70028 13.2976 9.19239L14.2973 9.16888ZM13.4553 7.19057L14.1624 6.48346C13.4555 5.77658 12.5021 5.37537 11.5038 5.37159L11.5 6.37158L11.4962 7.37157C11.9607 7.37333 12.4103 7.55978 12.7482 7.89768L13.4553 7.19057ZM11.5 6.37158L10.7929 7.07869L13.5902 9.87599L14.2973 9.16888L15.0044 8.46177L12.2071 5.66448L11.5 6.37158Z" fill="#000957" mask="url(#path-1-inside-1_307_1230)"/>
<path d="M21.1318 18.4395L20.6885 18.8828L17.1787 15.5771L16.916 15.3301L16.5986 15.501C15.1305 16.293 13.4987 16.7282 11.835 16.7734L11.502 16.7773H11.5C7.65938 16.7773 4.90767 14.8586 3.09766 12.9062C2.19284 11.9303 1.53065 10.9523 1.09473 10.2188C0.877129 9.85259 0.716563 9.54869 0.611328 9.33789C0.589768 9.2947 0.571617 9.25478 0.554688 9.21973C1.49138 7.33485 2.80134 5.65997 4.40625 4.29785L4.83203 3.93555L4.42578 3.55273L1.86719 1.14062L2.31055 0.697266L21.1318 18.4395ZM6.58203 6.42969C6.15389 7.16941 5.90116 7.99615 5.83984 8.8457L5.8252 9.21094V9.21484C5.82525 10.6275 6.3506 11.9858 7.29297 13.0283L7.4873 13.2334C8.485 14.2325 9.816 14.821 11.2188 14.8906L11.5 14.8975C12.5983 14.8979 13.673 14.578 14.5918 13.9756L15.1211 13.6279L14.6602 13.1934L12.8896 11.5234L12.6572 11.3047L12.3613 11.4219C12.0472 11.547 11.7106 11.6033 11.374 11.5869L11.2305 11.5752C10.8946 11.5382 10.5708 11.4302 10.2812 11.2578L10.1592 11.1797C9.87982 10.9893 9.64489 10.7414 9.46973 10.4531L9.39844 10.3271C9.21899 9.98646 9.12499 9.6069 9.125 9.22168C9.12861 8.9756 9.16977 8.73131 9.24805 8.49805L9.35059 8.19531L9.11719 7.97559L7.3584 6.31641L6.89844 5.88379L6.58203 6.42969ZM11.4971 1.65137H11.5C15.3406 1.65137 18.0923 3.5711 19.9023 5.52344C20.8069 6.49922 21.4694 7.47653 21.9053 8.20996C22.123 8.57625 22.2834 8.88096 22.3887 9.0918C22.4103 9.13504 22.4284 9.17488 22.4453 9.20996C21.7021 10.7186 20.7212 12.0965 19.54 13.291L16.9199 10.8555C17.0874 10.3252 17.1745 9.77229 17.1748 9.21484L17.168 8.93262C17.0983 7.52825 16.5103 6.19549 15.5127 5.19629C14.515 4.19707 13.1841 3.60774 11.7812 3.53809L11.5 3.53125H11.4961C10.824 3.53636 10.1593 3.66336 9.53418 3.90527L7.81152 2.29785C8.90144 1.89728 10.051 1.67952 11.2139 1.6543L11.4971 1.65137Z" fill="#0D99FF" fill-opacity="0.3" stroke="#000957"/>
</svg>
