<svg width="24" height="28" viewBox="0 0 24 28" fill="none" xmlns="http://www.w3.org/2000/svg">
<path d="M12 1.5C12.4543 1.5 12.8369 1.63259 13.1836 1.9043L13.1895 1.90918L22.1895 8.85156L22.1982 8.8584C22.4426 9.0428 22.6369 9.27777 22.7832 9.57812C22.929 9.87744 23.0007 10.1896 23 10.5264V24.4141C23 25.004 22.8066 25.4806 22.4014 25.8975C21.9969 26.3135 21.5473 26.5007 21.001 26.5H16.5C16.3365 26.5 16.2427 26.4546 16.1504 26.3594C16.0787 26.2853 16.0296 26.2038 16.0098 26.0859L16 25.9551V18.2432C16 17.5625 15.7659 16.9402 15.2842 16.4463C14.8027 15.9528 14.1861 15.7019 13.502 15.7002H10.5C9.81363 15.7002 9.19555 15.9512 8.71387 16.4482C8.2953 16.8803 8.06403 17.4091 8.01172 17.9893L8 18.2402V25.957C8 26.1505 7.94578 26.2624 7.85059 26.3604C7.75707 26.4564 7.66283 26.5004 7.50195 26.5H3C2.45134 26.5 2.00174 26.3121 1.59863 25.8975C1.24519 25.5339 1.05295 25.1235 1.00977 24.6299L1 24.4131V10.5283C1.00004 10.1909 1.0726 9.87808 1.21875 9.57812C1.36542 9.27713 1.55906 9.04177 1.80273 8.85742H1.80371L1.81055 8.85156L10.8105 1.90918L10.8164 1.9043C11.1631 1.63259 11.5457 1.5 12 1.5Z" stroke="#000957" stroke-width="2"/>
</svg>
