<svg width="24" height="27" viewBox="0 0 24 27" fill="none" xmlns="http://www.w3.org/2000/svg">
<path d="M0 23.9143V10.0286C0 9.54 0.1065 9.07714 0.3195 8.64C0.5325 8.20286 0.826 7.84285 1.2 7.56L10.2 0.617143C10.725 0.205714 11.325 0 12 0C12.675 0 13.275 0.205714 13.8 0.617143L22.8 7.56C23.175 7.84285 23.469 8.20286 23.682 8.64C23.895 9.07714 24.001 9.54 24 10.0286V23.9143C24 24.7629 23.706 25.4895 23.118 26.0943C22.53 26.6991 21.824 27.001 21 27H16.5C16.075 27 15.719 26.8519 15.432 26.5557C15.145 26.2594 15.001 25.8933 15 25.4571V17.7429C15 17.3057 14.856 16.9395 14.568 16.6443C14.28 16.3491 13.924 16.201 13.5 16.2H10.5C10.075 16.2 9.719 16.3481 9.432 16.6443C9.145 16.9406 9.001 17.3067 9 17.7429V25.4571C9 25.8943 8.856 26.261 8.568 26.5572C8.28 26.8534 7.924 27.001 7.5 27H3C2.175 27 1.469 26.6981 0.881999 26.0943C0.295 25.4906 0.001 24.7639 0 23.9143Z" fill="white"/>
</svg>
