<svg width="24" height="25" viewBox="0 0 24 25" fill="none" xmlns="http://www.w3.org/2000/svg">
<mask id="path-1-inside-1_472_5153" fill="white">
<path d="M15.0849 16.2184L15.433 16.7457C15.5514 16.9266 15.4999 17.1699 15.318 17.2885C15.1361 17.4063 14.8934 17.3553 14.7733 17.1744L14.3182 16.4866L13.4653 16.1372C13.2643 16.0548 13.1684 15.8271 13.2513 15.6272C13.3329 15.427 13.5629 15.3319 13.7638 15.4143L14.4856 15.7079L15.2042 14.9788L14.7795 14.0594C14.6708 13.8385 14.7682 13.5936 14.9839 13.5112L15.789 13.1952L15.581 11.17L14.4557 11.3847C14.3615 11.4036 14.2607 11.3881 14.1728 11.3337L12.6525 10.3882L12.4626 10.8169L13.0648 11.494C13.1161 11.5512 13.1465 11.6194 13.159 11.6896L13.7578 12.7413C13.8648 12.9301 13.7994 13.1688 13.6107 13.2747C13.4209 13.3812 13.181 13.3164 13.0745 13.1269L12.6052 12.3052L11.5087 12.9536C11.3205 13.0635 11.0789 13.0012 10.9691 12.8152C10.8586 12.6291 10.921 12.3893 11.1079 12.2783L12.1621 11.6576L11.7278 11.17C11.6128 11.059 11.5744 10.8843 11.6416 10.732L12.1029 9.68968L12.6379 7.34173L12.0696 6.89406C10.6213 8.12948 8.76427 8.90335 6.84522 9.21171L6.79115 11.7675C8.17857 11.426 9.28708 12.9347 8.54285 14.142C8.43243 14.3216 8.28899 14.4773 8.11994 14.5993V14.8281C8.53061 14.9233 8.91966 15.079 9.28252 15.2903C9.35282 15.2651 9.44361 15.2237 9.53809 15.1603C9.40405 14.2072 10.1432 13.3464 11.1222 13.3464C12.5435 13.3464 13.2587 15.0634 12.2543 16.0624C11.8923 16.4229 11.3746 16.5865 10.8731 16.5092L10.7104 16.6726C10.9531 17.0572 11.129 17.4779 11.2326 17.9245H11.4623C12.0403 17.1367 13.1884 17.0399 13.8879 17.7359C14.1531 17.9998 14.3256 18.3554 14.3526 18.7504C16.3115 17.534 17.0908 16.2694 17.2906 14.0616L16.2062 13.9982C16.1428 13.9937 16.0836 13.9758 16.0306 13.9444L15.6601 14.0888L16.0335 14.8992C16.1021 15.0499 16.0671 15.2214 15.9569 15.3347L15.0849 16.2184ZM5.8238 16.5231C7.09965 16.5231 7.75252 18.1705 6.8603 19.1505C5.95357 20.1436 4.37576 19.4493 4.37576 18.0703C4.37576 17.246 4.99647 16.5231 5.8238 16.5231ZM6.27745 17.5173C5.8588 17.0583 5.16438 17.4012 5.16438 18.0697C5.16438 18.7383 5.8588 19.0817 6.27745 18.6222C6.5518 18.3229 6.5518 17.8174 6.27745 17.5173ZM10.1218 18.7561C10.5353 19.4677 10.2191 20.3639 9.50053 20.775C8.78049 21.1898 7.84445 21.0149 7.43093 20.3033C7.0174 19.5917 7.33359 18.6955 8.0522 18.2827C8.77281 17.8701 9.70828 18.0445 10.1218 18.7561ZM9.4863 19.6444C9.67783 19.0486 9.02155 18.6312 8.44723 18.9597C7.8675 19.293 7.90934 20.0634 8.52208 20.1968C8.92308 20.2826 9.36022 20.032 9.4863 19.6444ZM10.0885 17.1631C9.8631 17.325 9.66844 17.5043 9.49313 17.7033C9.35111 17.867 9.1018 17.8826 8.93901 17.7396C8.77622 17.5986 8.75858 17.3508 8.9023 17.1883C9.03976 17.0308 9.19743 16.8757 9.38099 16.7216C9.55346 16.5786 9.74215 16.4419 9.95275 16.313L10.4687 15.7997V15.8014C10.5695 15.7 10.7229 15.6586 10.868 15.7062C11.3937 15.8758 11.9316 15.4853 11.9316 14.9374C11.9316 14.2196 11.0567 13.8586 10.547 14.3657C10.3347 14.577 10.2502 14.9009 10.3427 15.1676C10.3956 15.3089 10.3651 15.4726 10.2513 15.5856C9.94165 15.8939 9.55858 16.0273 9.38441 16.0732C9.19117 16.2003 8.99024 16.3147 8.78561 16.4161C8.56021 16.5271 8.32599 16.6239 8.08493 16.7069C7.87888 16.7771 7.65519 16.6672 7.58518 16.462C7.51488 16.257 7.62701 16.0344 7.83249 15.965C8.02403 15.8999 8.21386 15.822 8.39913 15.7314C8.20446 15.6552 7.90137 15.5677 7.68906 15.5425C7.48784 15.5253 7.32961 15.3565 7.32961 15.1521V14.3816C7.32961 14.2386 7.40958 14.1018 7.54533 14.0319C8.04054 13.7824 8.13901 13.1264 7.75138 12.7401C7.24224 12.2336 6.36567 12.594 6.36567 13.3118C6.36567 13.6103 6.53643 13.8963 6.79855 14.0251C6.93259 14.0885 7.02537 14.2233 7.02537 14.381V15.1515C7.02537 15.3435 6.88336 15.5117 6.68698 15.5391C6.40922 15.5805 6.14112 15.6535 5.88869 15.7583C5.63795 15.8614 5.40316 15.9936 5.188 16.1505C5.03318 16.2839 4.7981 16.2776 4.65182 16.1298L4.10425 15.585C4.0035 15.4837 3.96224 15.3324 4.00834 15.1866C4.1791 14.6656 3.79005 14.1287 3.23566 14.1287C2.5142 14.1287 2.15304 15.0006 2.66219 15.5072C2.87279 15.7167 3.19837 15.8025 3.46817 15.7107C3.60848 15.6581 3.77469 15.6864 3.88853 15.7997L4.43609 16.3461H4.43439C4.57014 16.4812 4.59091 16.697 4.47252 16.8561C4.16629 17.265 3.90418 17.8401 3.84413 18.3515C3.82648 18.5517 3.65686 18.7091 3.45138 18.7091H2.67699V18.7074C2.53327 18.7074 2.3941 18.6295 2.32551 18.4945C2.07307 18.0021 1.41508 17.9038 1.02689 18.2895C0.517739 18.796 0.880033 19.6667 1.60035 19.6667C1.90231 19.6667 2.18805 19.4985 2.31925 19.238C2.38158 19.1047 2.51847 19.0124 2.67699 19.0124H3.45081C3.64406 19.0124 3.81311 19.1534 3.84071 19.3507C3.89023 19.7033 4.01119 20.0227 4.168 20.3387C4.38202 20.1577 4.57669 19.9604 4.75883 19.7429C4.89629 19.5775 5.14361 19.5552 5.31123 19.6919C5.47744 19.8304 5.50106 20.0765 5.36246 20.2432C5.20309 20.4321 5.03034 20.6131 4.84677 20.7835C4.69963 20.9186 4.54481 21.0474 4.38373 21.1663C4.37576 21.1791 4.28611 21.5203 3.88682 21.9193H3.88511C3.78436 22.0198 3.63096 22.0606 3.48582 22.0147C2.96187 21.8448 2.42227 22.2322 2.42227 22.7835C2.42227 23.5013 3.29884 23.8603 3.80798 23.354C4.01859 23.1442 4.10311 22.8206 4.01233 22.5521C3.95825 22.4125 3.98813 22.2472 4.10197 22.1339L4.64954 21.5894H4.65125C4.66576 21.5747 4.68341 21.5608 4.70077 21.5478C5.36474 21.0777 6.13316 20.7487 6.93316 20.5963C7.14718 20.555 7.35323 20.6949 7.3945 20.9078C7.43434 21.1208 7.29517 21.326 7.08115 21.3651C6.59107 21.4588 6.11352 21.6302 5.67467 21.8655C5.95756 22.0051 6.35514 22.1401 6.66422 22.1772C6.86543 22.1945 7.02366 22.3633 7.02366 22.5677V23.3382C7.02366 23.4812 6.9454 23.6196 6.80794 23.6879C6.31274 23.939 6.21427 24.5934 6.60189 24.9793C7.11274 25.4859 7.9876 25.1257 7.9876 24.4079C7.9876 24.1092 7.81684 23.8235 7.55672 23.6947C7.42239 23.6324 7.32847 23.4962 7.32847 23.3387V22.5683H7.33018C7.33018 22.376 7.47048 22.2089 7.66686 22.1806C7.94633 22.1407 8.21272 22.0662 8.46516 21.9615C8.7176 21.8584 8.95239 21.7261 9.16584 21.5707C9.32066 21.4373 9.55574 21.4436 9.70202 21.5899L10.2496 22.1345C10.3515 22.2358 10.3933 22.389 10.3455 22.5334C10.1764 23.0547 10.5641 23.5916 11.1182 23.5916C11.8396 23.5916 12.2025 22.7195 11.6928 22.2129C11.4805 22.0034 11.1549 21.9193 10.8851 22.0096C10.7448 22.0634 10.5803 22.0337 10.4665 21.9204L9.91718 21.3759L9.91889 21.3742C9.78313 21.2391 9.76406 21.0233 9.88075 20.8659C10.1759 20.4703 10.4474 19.8814 10.51 19.3714C10.5274 19.1715 10.697 19.0138 10.9025 19.0138H11.6769C11.8206 19.0138 11.958 19.0919 12.0286 19.2284C12.2791 19.7194 12.9371 19.8191 13.3252 19.4337C13.8361 18.9254 13.4738 18.0553 12.7518 18.0553C12.4515 18.0553 12.1644 18.2249 12.0346 18.4837C11.9711 18.6171 11.8354 18.7108 11.6769 18.7108H10.9025V18.7091C10.7092 18.7091 10.5402 18.5678 10.5126 18.3724C10.4525 17.9432 10.3042 17.5317 10.0885 17.1631ZM14.0052 19.8522C13.9667 19.8981 13.9266 19.9431 13.8851 19.9856C13.6022 20.2653 13.2143 20.4429 12.7868 20.4514C12.7293 20.4766 12.651 20.5117 12.5517 20.5561C12.2611 20.685 12.1123 20.7863 11.9114 20.7006L11.0681 20.3223C10.9722 20.5768 10.8512 20.8178 10.7069 21.048L10.8697 21.21C11.668 21.0862 12.4407 21.5735 12.6599 22.3519C15.5485 21.0638 17.3111 19.9233 18.3649 18.6145C19.4057 17.3228 19.7714 15.8334 19.8739 13.8351L19.2031 13.6576L18.082 13.9908C17.983 15.2393 17.726 16.2765 17.1352 17.2089C16.515 18.1864 15.5394 19.0262 14.0052 19.8522ZM12.6621 23.2088C12.3383 24.3748 10.8581 24.7732 9.98776 23.9076C9.62376 23.5454 9.46211 23.0307 9.54037 22.5351L9.37587 22.3715C8.98967 22.613 8.56647 22.788 8.11766 22.8911V23.1196C8.90799 23.6947 9.00703 24.8383 8.30749 25.5326C7.30143 26.5333 5.57733 25.82 5.57733 24.4062C5.57733 23.8917 5.82607 23.4166 6.23504 23.1196V22.8911C5.78794 22.788 5.36474 22.613 4.97683 22.3715L4.81404 22.5351C4.96374 23.4962 4.22151 24.3748 3.23338 24.3748C1.81238 24.3748 1.0969 22.6563 2.10295 21.6571C2.4624 21.298 2.97155 21.1377 3.46647 21.2094C3.63552 20.9902 3.53534 21.0154 3.68077 21.1029C3.44398 20.6753 3.24021 20.2656 3.12523 19.7973H2.89556C2.31754 20.5836 1.16776 20.6804 0.469926 19.9861C-0.53613 18.9855 0.181059 17.2684 1.60035 17.2684C2.11747 17.2684 2.59702 17.5179 2.89556 17.9245H3.12523C3.22883 17.4779 3.40471 17.0572 3.64747 16.6726L3.48297 16.5092C2.51704 16.6582 1.63365 15.9214 1.63365 14.9386C1.63365 13.9713 2.49428 13.2294 3.45537 13.3611C3.40243 11.6313 3.5083 9.26154 3.53534 7.29813C3.53705 7.10133 3.68504 6.9388 3.87714 6.9153C6.81363 6.52737 9.67498 5.35425 11.8004 3.38574C11.9518 3.24444 12.1869 3.24614 12.3366 3.38574C12.4532 3.49362 12.5713 3.57007 12.6098 3.72241L13.461 7.07726C13.4784 7.1472 13.4749 7.21686 13.4559 7.28227L12.9208 9.63135L14.4585 10.5873L15.8553 10.3206C16.0836 10.2764 16.3027 10.4366 16.3218 10.6841L16.5836 13.2351L17.6614 13.2982L19.0841 12.8741C19.1624 12.8517 19.2435 12.8534 19.3158 12.8775L20.3807 13.1603C20.5689 13.2099 20.689 13.3857 20.6733 13.5718C20.5837 15.886 20.1972 17.5935 18.9788 19.1058C17.802 20.5655 15.8605 21.808 12.6621 23.2088ZM4.25566 13.7114C4.69337 14.0732 4.90084 14.6359 4.81461 15.1855L4.9774 15.3475C5.33941 15.1218 5.73557 14.9536 6.15222 14.8488L6.1027 14.4912C6.0899 14.4671 5.57733 14.0704 5.57733 13.313C5.57733 12.8964 5.73671 12.5173 6.00025 12.2341C6.00196 11.6576 6.0159 11.0446 6.03241 10.384C6.04351 9.89921 6.05603 9.38811 6.06457 8.8688C6.0677 8.67031 6.21597 8.50948 6.40637 8.48597V8.48427C8.40539 8.22207 10.3549 7.423 11.7998 6.08423C11.9512 5.94293 12.1863 5.94463 12.336 6.08423C12.3613 6.1083 12.3872 6.1318 12.4125 6.15445L11.9447 4.30515C9.83237 6.1032 7.11616 7.21856 4.31372 7.64273C4.27985 9.61181 4.1791 12.0487 4.25566 13.7114ZM21.81 12.5994L24.0421 14.1007C24.2595 14.2485 24.2883 14.5741 24.0421 14.752L21.8976 16.4005C21.6472 16.5942 21.2653 16.4257 21.2653 16.0859L21.1964 12.9313C21.1884 12.6136 21.5479 12.4247 21.8083 12.5994H21.81ZM23.151 14.4487L21.9981 13.672L22.0328 15.3084L23.151 14.4487ZM22.0798 10.3979L25.5715 10.0949C25.8795 10.068 26.1285 10.4063 25.9276 10.7127L24.3964 13.2495C24.2573 13.4797 23.9334 13.5038 23.7612 13.3022L21.8148 11.0435C21.6059 10.8002 21.7653 10.427 22.0804 10.4001V10.3979H22.0798ZM24.8708 10.9432L22.9117 11.1128L24.004 12.3822L24.8708 10.9432ZM15.616 2.82905C16.8728 3.64228 18.3655 4.15394 19.8727 4.35102C20.0739 4.37792 20.2191 4.54951 20.2157 4.74489L20.2461 6.2445C20.2714 7.2834 20.2942 8.2031 20.2703 9.02737L21.2286 8.74138V8.74308C21.2957 8.72241 21.3689 8.71901 21.4426 8.73855L22.0465 8.89882C22.0786 7.18033 21.9987 5.34066 21.9665 3.50948C19.8349 3.18724 17.761 2.46717 15.9612 1.3538C15.7953 1.25073 15.696 1.19636 15.6279 1.15983L15.616 2.82905ZM19.4786 9.14658C19.5218 7.98903 19.4609 6.41609 19.435 5.07845C18.0188 4.84485 16.6918 4.39378 15.4814 3.66974L15.0644 5.49809L16.6024 6.45403L17.9992 6.1856V6.1873C18.2246 6.14426 18.4398 6.30509 18.464 6.5319L18.7275 9.10184L19.4786 9.14658ZM15.5027 0.0991241C15.9962 0.538868 15.8013 0.332729 16.3764 0.688659C18.1745 1.80034 20.2692 2.50257 22.4042 2.78204C22.6034 2.80724 22.7489 2.97884 22.746 3.17592C22.7591 3.94922 22.7765 4.69279 22.7938 5.39163C22.8277 6.81846 22.8673 8.08417 22.8175 9.41841C22.8098 9.67099 22.567 9.84598 22.326 9.78368L21.3487 9.52488L19.9658 9.93602C19.9146 9.95188 19.8636 9.95528 19.8124 9.95075L18.3484 9.86495C18.1475 9.85221 17.991 9.69194 17.9779 9.49628L17.7254 7.03564L16.6001 7.25197C16.4982 7.27123 16.3989 7.25027 16.3172 7.1993L14.4124 6.01599C14.259 5.92056 14.1938 5.73963 14.2417 5.57426L14.8308 2.99328L14.8481 0.389927C14.8498 0.0498546 15.254 -0.123438 15.5027 0.100823V0.0991241Z"/>
</mask>
<path d="M15.0849 16.2184L15.433 16.7457C15.5514 16.9266 15.4999 17.1699 15.318 17.2885C15.1361 17.4063 14.8934 17.3553 14.7733 17.1744L14.3182 16.4866L13.4653 16.1372C13.2643 16.0548 13.1684 15.8271 13.2513 15.6272C13.3329 15.427 13.5629 15.3319 13.7638 15.4143L14.4856 15.7079L15.2042 14.9788L14.7795 14.0594C14.6708 13.8385 14.7682 13.5936 14.9839 13.5112L15.789 13.1952L15.581 11.17L14.4557 11.3847C14.3615 11.4036 14.2607 11.3881 14.1728 11.3337L12.6525 10.3882L12.4626 10.8169L13.0648 11.494C13.1161 11.5512 13.1465 11.6194 13.159 11.6896L13.7578 12.7413C13.8648 12.9301 13.7994 13.1688 13.6107 13.2747C13.4209 13.3812 13.181 13.3164 13.0745 13.1269L12.6052 12.3052L11.5087 12.9536C11.3205 13.0635 11.0789 13.0012 10.9691 12.8152C10.8586 12.6291 10.921 12.3893 11.1079 12.2783L12.1621 11.6576L11.7278 11.17C11.6128 11.059 11.5744 10.8843 11.6416 10.732L12.1029 9.68968L12.6379 7.34173L12.0696 6.89406C10.6213 8.12948 8.76427 8.90335 6.84522 9.21171L6.79115 11.7675C8.17857 11.426 9.28708 12.9347 8.54285 14.142C8.43243 14.3216 8.28899 14.4773 8.11994 14.5993V14.8281C8.53061 14.9233 8.91966 15.079 9.28252 15.2903C9.35282 15.2651 9.44361 15.2237 9.53809 15.1603C9.40405 14.2072 10.1432 13.3464 11.1222 13.3464C12.5435 13.3464 13.2587 15.0634 12.2543 16.0624C11.8923 16.4229 11.3746 16.5865 10.8731 16.5092L10.7104 16.6726C10.9531 17.0572 11.129 17.4779 11.2326 17.9245H11.4623C12.0403 17.1367 13.1884 17.0399 13.8879 17.7359C14.1531 17.9998 14.3256 18.3554 14.3526 18.7504C16.3115 17.534 17.0908 16.2694 17.2906 14.0616L16.2062 13.9982C16.1428 13.9937 16.0836 13.9758 16.0306 13.9444L15.6601 14.0888L16.0335 14.8992C16.1021 15.0499 16.0671 15.2214 15.9569 15.3347L15.0849 16.2184ZM5.8238 16.5231C7.09965 16.5231 7.75252 18.1705 6.8603 19.1505C5.95357 20.1436 4.37576 19.4493 4.37576 18.0703C4.37576 17.246 4.99647 16.5231 5.8238 16.5231ZM6.27745 17.5173C5.8588 17.0583 5.16438 17.4012 5.16438 18.0697C5.16438 18.7383 5.8588 19.0817 6.27745 18.6222C6.5518 18.3229 6.5518 17.8174 6.27745 17.5173ZM10.1218 18.7561C10.5353 19.4677 10.2191 20.3639 9.50053 20.775C8.78049 21.1898 7.84445 21.0149 7.43093 20.3033C7.0174 19.5917 7.33359 18.6955 8.0522 18.2827C8.77281 17.8701 9.70828 18.0445 10.1218 18.7561ZM9.4863 19.6444C9.67783 19.0486 9.02155 18.6312 8.44723 18.9597C7.8675 19.293 7.90934 20.0634 8.52208 20.1968C8.92308 20.2826 9.36022 20.032 9.4863 19.6444ZM10.0885 17.1631C9.8631 17.325 9.66844 17.5043 9.49313 17.7033C9.35111 17.867 9.1018 17.8826 8.93901 17.7396C8.77622 17.5986 8.75858 17.3508 8.9023 17.1883C9.03976 17.0308 9.19743 16.8757 9.38099 16.7216C9.55346 16.5786 9.74215 16.4419 9.95275 16.313L10.4687 15.7997V15.8014C10.5695 15.7 10.7229 15.6586 10.868 15.7062C11.3937 15.8758 11.9316 15.4853 11.9316 14.9374C11.9316 14.2196 11.0567 13.8586 10.547 14.3657C10.3347 14.577 10.2502 14.9009 10.3427 15.1676C10.3956 15.3089 10.3651 15.4726 10.2513 15.5856C9.94165 15.8939 9.55858 16.0273 9.38441 16.0732C9.19117 16.2003 8.99024 16.3147 8.78561 16.4161C8.56021 16.5271 8.32599 16.6239 8.08493 16.7069C7.87888 16.7771 7.65519 16.6672 7.58518 16.462C7.51488 16.257 7.62701 16.0344 7.83249 15.965C8.02403 15.8999 8.21386 15.822 8.39913 15.7314C8.20446 15.6552 7.90137 15.5677 7.68906 15.5425C7.48784 15.5253 7.32961 15.3565 7.32961 15.1521V14.3816C7.32961 14.2386 7.40958 14.1018 7.54533 14.0319C8.04054 13.7824 8.13901 13.1264 7.75138 12.7401C7.24224 12.2336 6.36567 12.594 6.36567 13.3118C6.36567 13.6103 6.53643 13.8963 6.79855 14.0251C6.93259 14.0885 7.02537 14.2233 7.02537 14.381V15.1515C7.02537 15.3435 6.88336 15.5117 6.68698 15.5391C6.40922 15.5805 6.14112 15.6535 5.88869 15.7583C5.63795 15.8614 5.40316 15.9936 5.188 16.1505C5.03318 16.2839 4.7981 16.2776 4.65182 16.1298L4.10425 15.585C4.0035 15.4837 3.96224 15.3324 4.00834 15.1866C4.1791 14.6656 3.79005 14.1287 3.23566 14.1287C2.5142 14.1287 2.15304 15.0006 2.66219 15.5072C2.87279 15.7167 3.19837 15.8025 3.46817 15.7107C3.60848 15.6581 3.77469 15.6864 3.88853 15.7997L4.43609 16.3461H4.43439C4.57014 16.4812 4.59091 16.697 4.47252 16.8561C4.16629 17.265 3.90418 17.8401 3.84413 18.3515C3.82648 18.5517 3.65686 18.7091 3.45138 18.7091H2.67699V18.7074C2.53327 18.7074 2.3941 18.6295 2.32551 18.4945C2.07307 18.0021 1.41508 17.9038 1.02689 18.2895C0.517739 18.796 0.880033 19.6667 1.60035 19.6667C1.90231 19.6667 2.18805 19.4985 2.31925 19.238C2.38158 19.1047 2.51847 19.0124 2.67699 19.0124H3.45081C3.64406 19.0124 3.81311 19.1534 3.84071 19.3507C3.89023 19.7033 4.01119 20.0227 4.168 20.3387C4.38202 20.1577 4.57669 19.9604 4.75883 19.7429C4.89629 19.5775 5.14361 19.5552 5.31123 19.6919C5.47744 19.8304 5.50106 20.0765 5.36246 20.2432C5.20309 20.4321 5.03034 20.6131 4.84677 20.7835C4.69963 20.9186 4.54481 21.0474 4.38373 21.1663C4.37576 21.1791 4.28611 21.5203 3.88682 21.9193H3.88511C3.78436 22.0198 3.63096 22.0606 3.48582 22.0147C2.96187 21.8448 2.42227 22.2322 2.42227 22.7835C2.42227 23.5013 3.29884 23.8603 3.80798 23.354C4.01859 23.1442 4.10311 22.8206 4.01233 22.5521C3.95825 22.4125 3.98813 22.2472 4.10197 22.1339L4.64954 21.5894H4.65125C4.66576 21.5747 4.68341 21.5608 4.70077 21.5478C5.36474 21.0777 6.13316 20.7487 6.93316 20.5963C7.14718 20.555 7.35323 20.6949 7.3945 20.9078C7.43434 21.1208 7.29517 21.326 7.08115 21.3651C6.59107 21.4588 6.11352 21.6302 5.67467 21.8655C5.95756 22.0051 6.35514 22.1401 6.66422 22.1772C6.86543 22.1945 7.02366 22.3633 7.02366 22.5677V23.3382C7.02366 23.4812 6.9454 23.6196 6.80794 23.6879C6.31274 23.939 6.21427 24.5934 6.60189 24.9793C7.11274 25.4859 7.9876 25.1257 7.9876 24.4079C7.9876 24.1092 7.81684 23.8235 7.55672 23.6947C7.42239 23.6324 7.32847 23.4962 7.32847 23.3387V22.5683H7.33018C7.33018 22.376 7.47048 22.2089 7.66686 22.1806C7.94633 22.1407 8.21272 22.0662 8.46516 21.9615C8.7176 21.8584 8.95239 21.7261 9.16584 21.5707C9.32066 21.4373 9.55574 21.4436 9.70202 21.5899L10.2496 22.1345C10.3515 22.2358 10.3933 22.389 10.3455 22.5334C10.1764 23.0547 10.5641 23.5916 11.1182 23.5916C11.8396 23.5916 12.2025 22.7195 11.6928 22.2129C11.4805 22.0034 11.1549 21.9193 10.8851 22.0096C10.7448 22.0634 10.5803 22.0337 10.4665 21.9204L9.91718 21.3759L9.91889 21.3742C9.78313 21.2391 9.76406 21.0233 9.88075 20.8659C10.1759 20.4703 10.4474 19.8814 10.51 19.3714C10.5274 19.1715 10.697 19.0138 10.9025 19.0138H11.6769C11.8206 19.0138 11.958 19.0919 12.0286 19.2284C12.2791 19.7194 12.9371 19.8191 13.3252 19.4337C13.8361 18.9254 13.4738 18.0553 12.7518 18.0553C12.4515 18.0553 12.1644 18.2249 12.0346 18.4837C11.9711 18.6171 11.8354 18.7108 11.6769 18.7108H10.9025V18.7091C10.7092 18.7091 10.5402 18.5678 10.5126 18.3724C10.4525 17.9432 10.3042 17.5317 10.0885 17.1631ZM14.0052 19.8522C13.9667 19.8981 13.9266 19.9431 13.8851 19.9856C13.6022 20.2653 13.2143 20.4429 12.7868 20.4514C12.7293 20.4766 12.651 20.5117 12.5517 20.5561C12.2611 20.685 12.1123 20.7863 11.9114 20.7006L11.0681 20.3223C10.9722 20.5768 10.8512 20.8178 10.7069 21.048L10.8697 21.21C11.668 21.0862 12.4407 21.5735 12.6599 22.3519C15.5485 21.0638 17.3111 19.9233 18.3649 18.6145C19.4057 17.3228 19.7714 15.8334 19.8739 13.8351L19.2031 13.6576L18.082 13.9908C17.983 15.2393 17.726 16.2765 17.1352 17.2089C16.515 18.1864 15.5394 19.0262 14.0052 19.8522ZM12.6621 23.2088C12.3383 24.3748 10.8581 24.7732 9.98776 23.9076C9.62376 23.5454 9.46211 23.0307 9.54037 22.5351L9.37587 22.3715C8.98967 22.613 8.56647 22.788 8.11766 22.8911V23.1196C8.90799 23.6947 9.00703 24.8383 8.30749 25.5326C7.30143 26.5333 5.57733 25.82 5.57733 24.4062C5.57733 23.8917 5.82607 23.4166 6.23504 23.1196V22.8911C5.78794 22.788 5.36474 22.613 4.97683 22.3715L4.81404 22.5351C4.96374 23.4962 4.22151 24.3748 3.23338 24.3748C1.81238 24.3748 1.0969 22.6563 2.10295 21.6571C2.4624 21.298 2.97155 21.1377 3.46647 21.2094C3.63552 20.9902 3.53534 21.0154 3.68077 21.1029C3.44398 20.6753 3.24021 20.2656 3.12523 19.7973H2.89556C2.31754 20.5836 1.16776 20.6804 0.469926 19.9861C-0.53613 18.9855 0.181059 17.2684 1.60035 17.2684C2.11747 17.2684 2.59702 17.5179 2.89556 17.9245H3.12523C3.22883 17.4779 3.40471 17.0572 3.64747 16.6726L3.48297 16.5092C2.51704 16.6582 1.63365 15.9214 1.63365 14.9386C1.63365 13.9713 2.49428 13.2294 3.45537 13.3611C3.40243 11.6313 3.5083 9.26154 3.53534 7.29813C3.53705 7.10133 3.68504 6.9388 3.87714 6.9153C6.81363 6.52737 9.67498 5.35425 11.8004 3.38574C11.9518 3.24444 12.1869 3.24614 12.3366 3.38574C12.4532 3.49362 12.5713 3.57007 12.6098 3.72241L13.461 7.07726C13.4784 7.1472 13.4749 7.21686 13.4559 7.28227L12.9208 9.63135L14.4585 10.5873L15.8553 10.3206C16.0836 10.2764 16.3027 10.4366 16.3218 10.6841L16.5836 13.2351L17.6614 13.2982L19.0841 12.8741C19.1624 12.8517 19.2435 12.8534 19.3158 12.8775L20.3807 13.1603C20.5689 13.2099 20.689 13.3857 20.6733 13.5718C20.5837 15.886 20.1972 17.5935 18.9788 19.1058C17.802 20.5655 15.8605 21.808 12.6621 23.2088ZM4.25566 13.7114C4.69337 14.0732 4.90084 14.6359 4.81461 15.1855L4.9774 15.3475C5.33941 15.1218 5.73557 14.9536 6.15222 14.8488L6.1027 14.4912C6.0899 14.4671 5.57733 14.0704 5.57733 13.313C5.57733 12.8964 5.73671 12.5173 6.00025 12.2341C6.00196 11.6576 6.0159 11.0446 6.03241 10.384C6.04351 9.89921 6.05603 9.38811 6.06457 8.8688C6.0677 8.67031 6.21597 8.50948 6.40637 8.48597V8.48427C8.40539 8.22207 10.3549 7.423 11.7998 6.08423C11.9512 5.94293 12.1863 5.94463 12.336 6.08423C12.3613 6.1083 12.3872 6.1318 12.4125 6.15445L11.9447 4.30515C9.83237 6.1032 7.11616 7.21856 4.31372 7.64273C4.27985 9.61181 4.1791 12.0487 4.25566 13.7114ZM21.81 12.5994L24.0421 14.1007C24.2595 14.2485 24.2883 14.5741 24.0421 14.752L21.8976 16.4005C21.6472 16.5942 21.2653 16.4257 21.2653 16.0859L21.1964 12.9313C21.1884 12.6136 21.5479 12.4247 21.8083 12.5994H21.81ZM23.151 14.4487L21.9981 13.672L22.0328 15.3084L23.151 14.4487ZM22.0798 10.3979L25.5715 10.0949C25.8795 10.068 26.1285 10.4063 25.9276 10.7127L24.3964 13.2495C24.2573 13.4797 23.9334 13.5038 23.7612 13.3022L21.8148 11.0435C21.6059 10.8002 21.7653 10.427 22.0804 10.4001V10.3979H22.0798ZM24.8708 10.9432L22.9117 11.1128L24.004 12.3822L24.8708 10.9432ZM15.616 2.82905C16.8728 3.64228 18.3655 4.15394 19.8727 4.35102C20.0739 4.37792 20.2191 4.54951 20.2157 4.74489L20.2461 6.2445C20.2714 7.2834 20.2942 8.2031 20.2703 9.02737L21.2286 8.74138V8.74308C21.2957 8.72241 21.3689 8.71901 21.4426 8.73855L22.0465 8.89882C22.0786 7.18033 21.9987 5.34066 21.9665 3.50948C19.8349 3.18724 17.761 2.46717 15.9612 1.3538C15.7953 1.25073 15.696 1.19636 15.6279 1.15983L15.616 2.82905ZM19.4786 9.14658C19.5218 7.98903 19.4609 6.41609 19.435 5.07845C18.0188 4.84485 16.6918 4.39378 15.4814 3.66974L15.0644 5.49809L16.6024 6.45403L17.9992 6.1856V6.1873C18.2246 6.14426 18.4398 6.30509 18.464 6.5319L18.7275 9.10184L19.4786 9.14658ZM15.5027 0.0991241C15.9962 0.538868 15.8013 0.332729 16.3764 0.688659C18.1745 1.80034 20.2692 2.50257 22.4042 2.78204C22.6034 2.80724 22.7489 2.97884 22.746 3.17592C22.7591 3.94922 22.7765 4.69279 22.7938 5.39163C22.8277 6.81846 22.8673 8.08417 22.8175 9.41841C22.8098 9.67099 22.567 9.84598 22.326 9.78368L21.3487 9.52488L19.9658 9.93602C19.9146 9.95188 19.8636 9.95528 19.8124 9.95075L18.3484 9.86495C18.1475 9.85221 17.991 9.69194 17.9779 9.49628L17.7254 7.03564L16.6001 7.25197C16.4982 7.27123 16.3989 7.25027 16.3172 7.1993L14.4124 6.01599C14.259 5.92056 14.1938 5.73963 14.2417 5.57426L14.8308 2.99328L14.8481 0.389927C14.8498 0.0498546 15.254 -0.123438 15.5027 0.100823V0.0991241Z" fill="#0D99FF" fill-opacity="0.3" stroke="#000957" mask="url(#path-1-inside-1_472_5153)"/>
</svg>
