<svg width="266" height="374" viewBox="0 0 266 374" fill="none" xmlns="http://www.w3.org/2000/svg">
<mask id="mask0_53_31" style="mask-type:luminance" maskUnits="userSpaceOnUse" x="56" y="221" width="152" height="153">
<path d="M56.9609 221.248H207.31V373.671H56.9609V221.248Z" fill="white"/>
</mask>
<g mask="url(#mask0_53_31)">
<path d="M132.136 373.412C129.441 369.054 125.18 365.922 121.395 362.347C116.194 357.432 113.747 351.486 114.304 344.341C114.358 343.688 114.304 343.04 114.304 342.138C113.31 343.078 112.505 343.861 111.663 344.59C106.122 349.461 99.6954 351.146 92.4318 349.979C88.646 349.364 84.8441 348.851 81.0205 349.785C80.4265 349.942 79.8162 350.055 79.0331 350.244C80.4481 346.539 80.6587 342.845 80.1997 339.081C79.9512 337.035 79.8378 334.972 79.7028 332.925C79.341 327.098 81.6308 322.28 85.4003 318.014C85.7784 317.577 86.1834 317.139 86.6046 316.734C87.0205 316.351 87.5011 316.01 87.9602 315.665C87.8845 315.53 87.8089 315.395 87.7279 315.265C87.1393 315.319 86.5668 315.379 85.9728 315.433C79.719 316.199 74.3131 314.309 69.7983 309.989C67.9244 308.191 66.342 306.09 64.522 304.216C62.135 301.732 59.6508 299.339 57.2206 296.931C57.145 297.006 57.0478 297.082 56.9722 297.179C56.9938 297.103 56.9722 296.99 57.01 296.952C61.2332 294.462 64.2952 290.736 67.4113 287.085C72.6876 280.891 79.2816 278.196 87.3877 279.325C87.5011 279.347 87.6145 279.266 87.9602 279.19C87.5767 278.752 87.3121 278.347 86.9827 278.023C83.7154 274.816 81.1177 271.203 80.0862 266.634C79.2978 263.113 79.6056 259.575 80.0268 256.081C80.4859 252.198 80.5831 248.359 79.395 244.573C79.3572 244.422 79.341 244.249 79.3194 244.076C80.9449 244.303 82.4949 244.746 84.061 244.724C86.8314 244.708 89.6235 244.573 92.3561 244.189C100.214 243.098 107.056 244.994 112.603 250.843C113.04 251.302 113.515 251.723 113.974 252.144C114.055 252.22 114.207 252.182 114.417 252.22C114.358 251.053 114.282 249.941 114.244 248.834C113.996 243.061 115.967 238.108 119.92 233.923C120.952 232.832 122.064 231.784 123.209 230.791C126.498 227.902 129.803 225.034 132.406 221.248C132.881 221.88 133.227 222.452 133.686 222.911C136.305 225.514 138.903 228.15 141.619 230.672C144.449 233.291 147.16 235.97 148.77 239.561C150.336 243.061 150.892 246.711 150.395 250.535C150.314 251.145 150.298 251.761 150.26 252.393C150.433 252.544 150.622 252.679 150.795 252.83C151.022 252.393 151.178 251.874 151.518 251.529C155.115 247.667 159.322 244.746 164.69 244.227C167.671 243.941 170.75 244.152 173.752 244.422C177.5 244.746 181.21 245.183 184.899 244.13C184.991 244.092 185.126 244.168 185.396 244.227C185.163 245.296 184.742 246.35 184.726 247.403C184.667 250.594 184.494 253.802 184.877 256.962C185.623 263.307 185.012 269.253 180.94 274.432C179.887 275.788 178.629 276.992 177.462 278.256C177.192 278.542 176.944 278.828 176.62 279.174C178.472 279.174 180.157 279.136 181.821 279.174C186.94 279.325 191.32 281.274 194.895 284.909C197.574 287.642 200.036 290.585 202.731 293.301C204.108 294.695 205.772 295.786 207.397 297.082C206.344 297.908 205.199 298.632 204.281 299.571C201.414 302.531 198.643 305.571 195.851 308.628C190.802 314.153 184.591 316.372 177.192 315.303C177.079 315.281 176.944 315.319 176.544 315.341C176.928 315.778 177.176 316.102 177.479 316.388C182.452 320.941 185.336 326.444 185.109 333.308C185.05 335.161 184.839 336.997 184.613 338.833C184.132 342.635 184.208 346.383 185.623 350.071C183.657 349.823 181.783 349.348 179.925 349.407C176.906 349.461 173.887 349.747 170.885 350.152C163.335 351.146 157.065 348.64 151.767 343.364C151.367 342.964 151.081 342.408 150.735 341.933C150.584 342.025 150.411 342.122 150.26 342.219C150.298 342.943 150.298 343.672 150.374 344.379C151.043 350.59 149.32 356.055 145.119 360.662C143.704 362.212 142.078 363.567 140.588 365.063C137.812 367.774 135.004 370.566 132.136 373.412ZM84.0988 248.969C84.115 249.158 84.1366 249.525 84.1744 249.887C84.4066 252.22 84.7307 254.553 84.8603 256.902C84.9791 259.214 84.8225 261.53 84.9197 263.842C85.1087 268.313 86.5668 272.175 90.6172 274.605C92.9124 275.982 95.4506 276.533 98.1077 276.382C99.1824 276.306 99.7926 276.706 100.311 277.624C102.142 280.913 104.631 283.624 107.553 285.957C107.764 286.113 108.034 286.189 108.261 286.302C108.163 286.416 108.088 286.513 107.996 286.626C103.767 286.324 99.6576 286.896 95.7585 288.522C94.6297 288.981 93.9817 288.884 93.0636 288.004C88.9538 284.142 84.2122 282.382 78.7631 284.85C76.6623 285.806 74.81 287.372 73.0116 288.846C70.4086 290.985 67.9838 293.318 65.4401 295.516C64.7327 296.126 63.8524 296.585 62.9775 297.179C63.2637 297.449 63.4744 297.66 63.6796 297.827C66.6282 300.333 69.5715 302.839 72.5148 305.323C73.6435 306.279 74.6912 307.31 75.8955 308.153C78.8981 310.254 82.2032 311.307 85.9134 310.486C89.0132 309.816 91.4219 308.018 93.4254 305.668C93.9979 304.999 94.4569 305.015 95.2616 305.226C97.9024 305.895 100.559 306.527 103.233 306.927C104.896 307.175 106.619 306.965 108.568 306.965C108.109 307.348 107.861 307.559 107.629 307.769C104.685 310.329 102.104 313.218 100.252 316.658C99.7332 317.614 99.1608 318.052 98.1077 317.901C97.7458 317.841 97.3462 317.884 96.9844 317.901C91.5137 318.073 86.9827 321.416 85.5677 326.601C85.0925 328.318 85.0169 330.154 84.9413 331.953C84.7685 335.317 84.7685 338.682 84.6118 342.046C84.5578 343.094 84.25 344.147 84.0394 345.313C84.5362 345.313 84.8225 345.335 85.0925 345.313C87.3121 345.162 89.5263 344.952 91.7621 344.854C94.9538 344.719 98.1671 344.854 101.343 344.547C105.107 344.206 108.109 342.349 110.059 339.022C111.414 336.71 111.814 334.151 111.836 331.51C111.836 330.84 111.933 330.365 112.657 330.019C116.232 328.34 119.137 325.818 121.643 322.793C121.87 322.529 122.118 322.28 122.485 321.897C122.502 322.259 122.539 322.41 122.523 322.567C122.026 326.466 122.404 330.305 123.706 334.016C124.187 335.393 124.089 336.273 122.998 337.402C119.672 340.917 117.954 345.065 119.348 349.979C120.266 353.225 122.404 355.715 124.662 358.161C126.881 360.57 128.982 363.092 131.105 365.598C131.58 366.149 131.925 366.818 132.385 367.526C132.617 367.261 132.768 367.126 132.881 366.975C134.372 365.041 135.808 363.07 137.396 361.218C139.151 359.171 141.139 357.34 142.84 355.256C144.622 353.074 145.767 350.552 145.978 347.684C146.302 343.25 144.33 339.789 141.312 336.808C140.798 336.289 140.566 335.89 140.815 335.182C142.343 330.9 142.764 326.466 142.23 321.686C144.541 324.705 147.009 327.249 150.147 328.815C152.437 329.965 152.971 331.569 153.182 333.902C153.603 338.568 155.898 342.16 160.445 343.764C162.395 344.455 164.539 344.719 166.602 344.838C170.426 345.065 174.249 345.006 178.094 345.124C178.894 345.141 179.714 345.335 180.632 345.448C180.578 344.854 180.519 344.433 180.481 344.034C180.271 341.852 179.947 339.692 179.849 337.515C179.736 335.069 179.909 332.622 179.774 330.192C179.563 325.969 177.938 322.432 174.325 320.023C171.9 318.397 169.124 317.922 166.278 317.938C165.571 317.938 164.998 317.922 164.615 317.139C162.741 313.429 160.03 310.41 156.876 307.753C156.644 307.542 156.298 307.461 156.012 307.332C156.125 307.213 156.222 307.121 156.336 307.002C156.795 307.002 157.254 306.965 157.713 307.002C161.499 307.332 165.187 306.738 168.746 305.458C169.853 305.053 170.501 305.172 171.306 306.068C174.001 309.071 177.29 310.945 181.497 310.75C184.764 310.599 187.48 309.163 189.867 307.062C192.676 304.578 195.392 302.018 198.222 299.55C199.194 298.707 200.323 298.021 201.392 297.255C201.279 297.082 201.225 296.968 201.127 296.914C197.455 294.695 194.415 291.73 191.417 288.689C188.836 286.076 185.795 284.121 181.972 283.834C177.651 283.51 174.233 285.422 171.268 288.311C170.598 288.959 170.123 288.959 169.297 288.673C167.444 288.041 165.533 287.409 163.599 287.107C161.31 286.724 158.955 286.664 156.568 286.454C156.854 286.205 157.14 285.919 157.448 285.67C160.046 283.548 162.265 281.048 163.929 278.158C164.728 276.743 165.608 276.344 167.196 276.382C170.809 276.457 174.076 275.366 176.62 272.618C178.742 270.301 179.698 267.509 179.812 264.452C179.963 260.493 179.963 256.54 180.098 252.582C180.136 251.302 180.465 250.038 180.67 248.661C179.142 248.872 177.824 249.158 176.507 249.196C172.796 249.331 169.086 249.314 165.398 249.466C161.061 249.655 157.329 251.107 154.883 254.953C153.355 257.34 153.052 260.078 152.933 262.81C152.896 263.572 152.647 263.977 151.977 264.376C149.704 265.791 147.446 267.26 145.248 268.81C144.255 269.518 143.418 270.436 142.343 271.392C142.575 267.681 142.516 264.204 141.295 260.936C140.663 259.214 140.852 258.166 142.154 256.805C145.286 253.538 146.739 249.579 145.616 244.994C144.908 242.143 143.207 239.853 141.312 237.649C138.406 234.306 135.576 230.92 132.73 227.556C132.633 227.442 132.482 227.388 132.536 227.442C130.246 230.137 128.01 232.757 125.753 235.376C124.278 237.099 122.653 238.724 121.335 240.555C117.933 245.259 118.008 250.692 121.432 255.336C122.275 256.481 123.819 257.377 124.089 258.582C124.354 259.808 123.247 261.26 123.036 262.654C122.615 265.521 122.388 268.427 122.043 271.505C121.929 271.332 121.816 270.992 121.584 270.76C119.137 268.216 116.383 266.078 113.175 264.603C112.084 264.106 111.609 263.496 111.76 262.33C111.798 262.081 111.76 261.833 111.738 261.568C111.301 254.434 106.883 250.097 101.073 249.676C95.4938 249.277 89.8719 249.196 84.0988 248.969Z" fill="#577BC1"/>
</g>
<path d="M166.375 273.379C166.775 270.247 167.175 267.185 167.596 263.993C167.806 263.939 168.168 263.858 168.535 263.766C169.929 263.399 170.696 262.33 170.577 260.861C170.463 259.521 169.643 258.641 168.363 258.528C166.775 258.371 165.511 259.062 165.284 260.477C165.112 261.568 164.636 261.779 163.643 261.833C161.137 261.984 158.653 262.33 156.125 262.6C155.056 259.619 157.41 254.607 160.791 253.214C162.206 252.641 163.772 252.236 165.284 252.16C168.935 251.95 172.607 251.988 176.258 251.896C176.944 251.874 177.387 251.95 177.349 252.809C177.252 256.67 177.349 260.553 177.079 264.414C176.679 270.549 172.78 273.741 166.375 273.379Z" fill="#FFEB00"/>
<path d="M166.3 320.941C172.78 320.692 176.734 324.154 177.117 330.365C177.328 333.978 177.29 337.591 177.29 341.225C177.29 341.565 176.809 342.181 176.561 342.181C172.24 342.138 167.866 342.348 163.583 341.852C157.999 341.203 156.147 337.229 155.861 332.638C155.823 331.915 156.26 331.682 156.914 331.758C159.414 332.006 161.92 332.217 164.426 332.525C164.712 332.563 165.095 333.043 165.171 333.384C165.495 334.971 166.451 335.792 168.055 335.792C169.454 335.792 170.41 334.993 170.62 333.691C170.825 332.255 170.123 330.921 168.671 330.592C167.504 330.327 167.423 329.717 167.348 328.739C167.175 326.563 166.813 324.403 166.527 322.242C166.489 321.821 166.392 321.438 166.3 320.941Z" fill="#FFEB00"/>
<path d="M98.151 273.325C92.1835 273.725 87.9603 270.609 87.5769 264.49C87.3501 260.628 87.4797 256.751 87.4419 252.868C87.4419 252.198 87.6741 251.853 88.3978 251.896C92.7181 252.063 97.0763 251.988 101.381 252.409C106.29 252.89 108.795 257.361 108.72 261.66C108.698 262.465 108.336 262.616 107.575 262.524C105.334 262.238 103.082 262.006 100.824 261.833C100.041 261.779 99.5066 261.719 99.3931 260.704C99.2365 259.213 97.9566 258.414 96.3527 258.528C95.0133 258.625 94.1331 259.538 94.0197 260.915C93.9062 262.276 94.9161 263.48 96.3149 263.804C96.6551 263.879 97.1357 264.263 97.1951 264.549C97.5948 267.282 97.9026 270.036 98.2266 272.785C98.2428 272.92 98.1888 273.093 98.151 273.325Z" fill="#FFEB00"/>
<path d="M108.757 331.645C108.968 337.515 106.289 341.452 100.883 341.911C96.7142 342.273 92.491 342.16 88.284 342.181C88.0194 342.181 87.501 341.641 87.501 341.355C87.5604 337.072 87.4632 332.774 87.8466 328.513C88.2084 324.495 91.3623 321.649 95.3371 321.13C98.2425 320.752 98.1885 320.752 97.7673 323.598C97.4973 325.472 97.3623 327.346 97.2327 329.236C97.1948 329.906 97.1138 330.268 96.3146 330.403C94.7862 330.689 93.8303 332.088 93.9816 333.54C94.1166 334.836 95.0887 335.738 96.428 335.814C98.1075 335.89 99.0472 335.069 99.4306 333.27C99.4847 332.984 99.8141 332.547 100.041 332.525C101.494 332.39 102.984 332.412 104.437 332.277C105.852 332.125 107.267 331.855 108.757 331.645Z" fill="#FFEB00"/>
<path d="M160.866 325.737C157.313 325.548 154.558 324.284 152.015 322.507C147.43 319.278 144.292 314.806 141.522 310.064C139.858 307.197 138.233 304.308 136.742 301.672C140.798 304.254 145.194 306.873 149.396 309.778C153.738 312.776 157.426 316.469 159.532 321.438C160.083 322.739 160.391 324.133 160.866 325.737Z" fill="#FFEB00"/>
<path d="M170.907 296.952C167.656 299.398 164.291 300.484 160.656 300.754C155.515 301.137 150.525 300.236 145.632 298.691C142.478 297.697 139.265 296.914 136.479 296.147C138.79 295.651 141.598 294.905 144.466 294.484C148.943 293.814 153.452 293.166 157.962 292.896C161.191 292.707 164.426 293.355 167.385 294.846C168.536 295.402 169.605 296.147 170.907 296.952Z" fill="#FFEB00"/>
<path d="M127.718 302.342C124.586 307.251 121.659 312.322 118.278 317.042C115.411 321.076 111.587 324.133 106.597 325.359C105.911 325.526 105.204 325.607 104.496 325.699C104.383 325.72 104.264 325.645 104.037 325.607C104.188 323.101 105.182 320.903 106.462 318.84C108.606 315.341 111.511 312.511 114.838 310.199C118.926 307.348 123.171 304.713 127.356 301.996C127.454 302.11 127.589 302.228 127.718 302.342Z" fill="#FFEB00"/>
<path d="M127.989 296.185C123.495 297.39 118.851 298.745 114.169 299.858C108.568 301.175 102.925 301.521 97.4434 299.204C96.2553 298.707 95.186 297.946 93.8467 297.179C94.5163 296.623 94.916 296.223 95.3966 295.915C98.7395 293.701 102.525 292.994 106.446 292.858C111.738 292.686 116.901 293.701 122.043 294.884C124.068 295.343 126.136 295.786 127.989 296.185Z" fill="#FFEB00"/>
<path d="M128.221 290.849C124.721 287.733 120.115 286.61 116.291 284.12C112.813 281.868 109.524 279.422 106.981 276.095C105.544 274.221 104.551 272.158 104.038 269.863C103.789 268.713 103.962 268.545 105.145 268.713C110.61 269.518 114.72 272.671 118.316 276.571C121.584 280.108 124.279 284.083 126.612 288.29C127.108 289.17 127.681 289.991 128.221 290.849Z" fill="#FFEB00"/>
<path d="M160.813 268.545C160.581 269.517 160.489 270.301 160.24 271.03C158.69 275.771 155.477 279.228 151.465 281.922C148.575 283.872 145.421 285.406 142.403 287.161C140.318 288.365 138.255 289.629 136.532 290.639C137.758 288.651 139.227 286.167 140.815 283.759C144.044 278.828 147.695 274.297 152.804 271.165C155.153 269.69 157.735 268.848 160.813 268.545Z" fill="#FFEB00"/>
<path d="M132.579 337.342C129.976 334.016 129.004 330.635 128.718 327.022C128.237 321.092 129.614 315.416 131.045 309.74C131.623 307.445 132.023 305.096 132.309 303.681C133.168 307.31 134.296 311.82 135.274 316.372C136.343 321.476 136.802 326.617 135.155 331.704C134.545 333.54 133.551 335.258 132.579 337.342Z" fill="#FFEB00"/>
<path d="M132.271 256.805C134.448 259.575 135.484 262.427 135.922 265.505C136.608 270.301 135.943 274.983 134.696 279.611C133.859 282.689 133.038 285.768 132.287 288.538C131.375 284.79 130.17 280.74 129.403 276.608C128.372 271.068 128.064 265.467 130.494 260.132C130.953 259.062 131.58 258.069 132.271 256.805Z" fill="#FFEB00"/>
<circle cx="135.765" cy="152.997" r="15.1456" stroke="white" stroke-width="6"/>
<path d="M106.329 230.929C96.768 236.9 88.9627 240.958 82.679 243.444C77.4385 245.518 73.4152 246.434 70.411 246.537C67.4345 246.639 65.6807 245.943 64.6191 245.03C63.5505 244.112 62.7543 242.607 62.4422 240.231C62.1276 237.836 62.3413 234.785 63.0971 231.167C64.6073 223.936 68.1462 215.064 72.8198 205.925C82.2031 187.576 95.68 169.065 104.992 161.518C107.332 159.621 109.105 158.674 110.263 158.403C110.797 158.278 111.023 158.34 111.062 158.353C111.081 158.36 111.096 158.367 111.119 158.386C111.146 158.408 111.211 158.467 111.297 158.601C111.725 159.266 112.228 160.995 112.062 164.612C111.903 168.097 111.149 172.869 109.617 179.158L108.938 181.947L111.695 182.748C114.48 183.557 117.066 184.397 119.47 185.26C110.024 191.421 100.984 198.334 93.7153 204.873C87.787 210.207 82.8933 215.417 79.9309 219.869C78.4634 222.075 77.3272 224.303 76.8889 226.409C76.4362 228.584 76.6766 231.039 78.5676 232.889C80.2835 234.567 82.792 235.154 85.4088 235.239C88.112 235.328 91.4956 234.899 95.5739 233.975C98.6673 233.274 102.24 232.268 106.329 230.929ZM162.446 228.877C162.194 228.207 161.958 227.51 161.737 226.784C160.869 223.939 160.276 220.985 159.429 217.531C157.772 210.775 155.359 203.121 148.613 195.881C144.763 191.75 139.588 187.845 132.52 184.289C135.145 182.781 137.762 181.364 140.341 180.064C147.794 176.306 154.779 173.594 160.601 172.423C166.568 171.223 170.567 171.785 172.817 173.519C175.68 175.725 177.114 178.035 177.733 180.375C178.367 182.771 178.219 185.482 177.421 188.567C175.774 194.935 171.751 201.702 168.053 209.101C166.263 212.682 164.585 216.372 163.53 220.001C162.683 222.912 162.203 225.91 162.446 228.877Z" stroke="white" stroke-width="6"/>
<mask id="mask1_53_31" style="mask-type:luminance" maskUnits="userSpaceOnUse" x="0" y="0" width="266" height="312">
<path d="M0 0H265.667V311.969H0V0Z" fill="white"/>
</mask>
<g mask="url(#mask1_53_31)">
<path d="M235.797 144.533C210.707 114.96 188.493 83.3647 169.155 49.7413L145.387 6.32734C144.771 5.20062 144.017 4.17472 143.122 3.25557C142.233 2.33641 141.236 1.54771 140.133 0.895402C139.03 0.237167 137.862 -0.255029 136.623 -0.593042C135.383 -0.936986 134.126 -1.10303 132.845 -1.10303C131.564 -1.10303 130.301 -0.936986 129.068 -0.593042C127.828 -0.255029 126.66 0.237167 125.557 0.895402C124.454 1.54771 123.452 2.33641 122.563 3.25557C121.673 4.17472 120.92 5.20062 120.303 6.32734L95.7883 51.0459C76.7528 84.1475 54.8472 115.227 30.0773 144.29C28.1323 146.692 26.2762 149.165 24.5031 151.697C22.73 154.235 21.0518 156.826 19.4566 159.477C17.8614 162.128 16.367 164.832 14.9557 167.583C13.5502 170.335 12.2397 173.134 11.03 175.98C9.81431 178.827 8.69946 181.709 7.68542 184.632C6.67138 187.55 5.75815 190.503 4.94573 193.486C4.13924 196.475 3.43357 199.481 2.8287 202.511C2.22384 205.548 1.72571 208.596 1.33433 211.667C0.942944 214.733 0.658301 217.811 0.474469 220.895C0.296566 223.984 0.219475 227.074 0.255057 230.169C0.290636 233.259 0.427029 236.348 0.676091 239.426C0.919224 242.51 1.27503 245.581 1.73164 248.641C2.18826 251.701 2.75161 254.737 3.42171 257.756C4.08587 260.774 4.85678 263.769 5.73443 266.734C6.60615 269.705 7.58461 272.634 8.65795 275.534C9.73722 278.434 10.9114 281.292 12.1863 284.109C13.7756 287.803 15.5427 291.409 17.4878 294.931C19.4329 298.454 21.5499 301.87 23.827 305.179C26.1101 308.493 28.5474 311.684 31.1447 314.756C33.7362 317.833 36.4759 320.769 39.3638 323.574C42.2458 326.373 45.2642 329.029 48.4071 331.538C51.556 334.04 54.8116 336.388 58.1917 338.571C61.5659 340.759 65.0409 342.775 68.6168 344.619C72.1926 346.458 75.8455 348.124 79.5874 349.607C88.0674 353.028 96.7964 355.62 105.769 357.381C114.741 359.136 123.802 360.038 132.946 360.079C136.047 360.079 139.149 359.972 142.25 359.759C145.346 359.545 148.435 359.219 151.507 358.786C154.585 358.353 157.639 357.814 160.675 357.167C163.711 356.521 166.724 355.768 169.706 354.908C172.689 354.048 175.642 353.082 178.56 352.014C181.472 350.947 184.348 349.779 187.182 348.509C190.017 347.24 192.804 345.871 195.538 344.4C198.277 342.935 200.958 341.376 203.585 339.721C206.212 338.067 208.78 336.317 211.282 334.485C213.791 332.647 216.228 330.725 218.594 328.715C220.96 326.711 223.261 324.623 225.479 322.453C227.702 320.282 229.843 318.035 231.907 315.716C233.971 313.398 235.951 311.008 237.849 308.547C239.74 306.086 241.549 303.56 243.269 300.974C244.983 298.389 246.607 295.744 248.137 293.04C249.673 290.342 251.102 287.59 252.443 284.785C253.777 281.98 255.016 279.14 256.155 276.246C257.288 273.358 258.325 270.428 259.256 267.469C260.187 264.504 261.012 261.516 261.729 258.491C262.453 255.473 263.063 252.431 263.567 249.365C264.077 246.305 264.475 243.227 264.759 240.132C265.05 237.042 265.228 233.941 265.299 230.839C265.37 227.732 265.329 224.631 265.18 221.529C265.032 218.428 264.777 215.332 264.41 212.249C264.048 209.165 263.573 206.099 262.992 203.051C262.411 199.997 261.717 196.973 260.923 193.972C260.128 190.972 259.227 188.001 258.224 185.059C257.222 182.124 256.113 179.224 254.904 176.36C253.694 173.502 252.389 170.685 250.984 167.921C249.572 165.152 248.072 162.436 246.471 159.774C244.876 157.111 243.186 154.508 241.407 151.964C239.622 149.42 237.754 146.941 235.797 144.533ZM191.09 313.611C187.425 316.054 183.618 318.26 179.675 320.229C175.737 322.198 171.687 323.918 167.536 325.388C163.379 326.859 159.151 328.069 154.846 329.011C150.546 329.96 146.2 330.636 141.811 331.045C137.423 331.461 133.029 331.597 128.623 331.461C124.217 331.33 119.841 330.921 115.488 330.251C111.129 329.575 106.836 328.632 102.596 327.428C98.3619 326.218 94.2109 324.754 90.1547 323.034C84.4204 320.763 78.9647 317.952 73.7818 314.607C68.599 311.257 63.7956 307.438 59.3659 303.145C54.9361 298.851 50.9689 294.166 47.4583 289.09C43.9537 284.014 40.9768 278.647 38.5277 272.984C36.4936 268.531 34.7739 263.959 33.3744 259.268C31.9749 254.577 30.9016 249.816 30.1544 244.977C29.4132 240.138 29.004 235.269 28.9328 230.377C28.8617 225.484 29.1226 220.604 29.7274 215.747C30.3264 210.891 31.2633 206.099 32.5264 201.367C33.7895 196.641 35.3729 192.021 37.2764 187.508C39.174 182.996 41.38 178.643 43.8825 174.433C46.3909 170.228 49.1721 166.214 52.2261 162.395C78.1226 131.979 101.001 99.447 120.872 64.8036L132.827 42.981L144.041 63.4753C164.203 98.6228 187.39 131.659 213.589 162.578C217.319 167.127 220.628 171.96 223.522 177.077C226.416 182.195 228.847 187.526 230.822 193.071C232.79 198.609 234.273 204.279 235.263 210.072C236.248 215.872 236.734 221.713 236.71 227.59C236.71 231.818 236.455 236.028 235.939 240.227C235.429 244.425 234.658 248.57 233.638 252.674C232.618 256.777 231.349 260.804 229.843 264.753C228.331 268.697 226.582 272.54 224.601 276.275C222.62 280.011 220.42 283.611 218.001 287.08C215.581 290.543 212.96 293.852 210.132 296.995C207.309 300.144 204.302 303.103 201.118 305.884C197.934 308.665 194.589 311.239 191.09 313.611Z" fill="white"/>
</g>
</svg>
