<svg width="500" height="500" viewBox="0 0 500 500" fill="none" xmlns="http://www.w3.org/2000/svg">
<g clip-path="url(#clip0_17_219)">
<path d="M500 0H0V500H500V0Z" fill="#000957"/>
<mask id="mask0_17_219" style="mask-type:luminance" maskUnits="userSpaceOnUse" x="179" y="270" width="152" height="153">
<path d="M179.961 270.248H330.31V422.671H179.961V270.248Z" fill="white"/>
</mask>
<g mask="url(#mask0_17_219)">
<path d="M255.136 422.412C252.441 418.054 248.18 414.922 244.395 411.347C239.194 406.432 236.747 400.486 237.304 393.341C237.358 392.688 237.304 392.04 237.304 391.138C236.31 392.078 235.505 392.861 234.663 393.59C229.122 398.461 222.695 400.146 215.432 398.979C211.646 398.364 207.844 397.851 204.021 398.785C203.426 398.942 202.816 399.055 202.033 399.244C203.448 395.539 203.659 391.845 203.2 388.081C202.951 386.035 202.838 383.972 202.703 381.925C202.341 376.098 204.631 371.28 208.4 367.014C208.778 366.577 209.183 366.139 209.605 365.734C210.02 365.351 210.501 365.01 210.96 364.665C210.885 364.53 210.809 364.395 210.728 364.265C210.139 364.319 209.567 364.379 208.973 364.433C202.719 365.199 197.313 363.309 192.798 358.989C190.924 357.191 189.342 355.09 187.522 353.216C185.135 350.732 182.651 348.339 180.221 345.931C180.145 346.006 180.048 346.082 179.972 346.179C179.994 346.103 179.972 345.99 180.01 345.952C184.233 343.463 187.295 339.736 190.411 336.085C195.688 329.891 202.282 327.196 210.388 328.325C210.501 328.347 210.615 328.266 210.96 328.19C210.577 327.753 210.312 327.347 209.983 327.023C206.715 323.816 204.118 320.203 203.086 315.634C202.298 312.113 202.606 308.575 203.027 305.081C203.486 301.198 203.583 297.359 202.395 293.573C202.357 293.422 202.341 293.249 202.319 293.076C203.945 293.303 205.495 293.746 207.061 293.724C209.831 293.708 212.624 293.573 215.356 293.189C223.214 292.098 230.056 293.994 235.603 299.843C236.04 300.302 236.515 300.723 236.974 301.144C237.055 301.22 237.207 301.182 237.417 301.22C237.358 300.053 237.282 298.941 237.244 297.834C236.996 292.061 238.967 287.108 242.92 282.923C243.952 281.832 245.064 280.784 246.209 279.791C249.498 276.902 252.803 274.034 255.406 270.248C255.881 270.88 256.227 271.452 256.686 271.911C259.305 274.515 261.903 277.15 264.619 279.672C267.449 282.291 270.16 284.97 271.77 288.561C273.336 292.061 273.892 295.711 273.395 299.535C273.314 300.145 273.298 300.761 273.26 301.393C273.433 301.544 273.622 301.679 273.795 301.83C274.022 301.393 274.178 300.874 274.518 300.529C278.115 296.667 282.322 293.746 287.69 293.227C290.671 292.941 293.75 293.152 296.752 293.422C300.5 293.746 304.21 294.183 307.899 293.13C307.991 293.092 308.126 293.168 308.396 293.227C308.163 294.296 307.742 295.35 307.726 296.403C307.667 299.594 307.494 302.802 307.877 305.962C308.623 312.307 308.012 318.253 303.94 323.432C302.887 324.788 301.629 325.992 300.462 327.256C300.192 327.542 299.944 327.828 299.62 328.174C301.472 328.174 303.157 328.136 304.821 328.174C309.94 328.325 314.32 330.275 317.895 333.909C320.574 336.642 323.036 339.585 325.731 342.301C327.108 343.695 328.772 344.786 330.397 346.082C329.344 346.908 328.199 347.632 327.281 348.571C324.414 351.531 321.643 354.571 318.851 357.628C313.802 363.153 307.591 365.372 300.192 364.303C300.079 364.281 299.944 364.319 299.544 364.341C299.928 364.778 300.176 365.102 300.479 365.388C305.452 369.941 308.336 375.444 308.109 382.308C308.05 384.161 307.839 385.997 307.613 387.833C307.132 391.635 307.208 395.383 308.623 399.071C306.657 398.823 304.783 398.348 302.925 398.407C299.906 398.461 296.887 398.747 293.885 399.152C286.335 400.146 280.065 397.64 274.767 392.364C274.367 391.964 274.081 391.408 273.735 390.933C273.584 391.025 273.411 391.122 273.26 391.219C273.298 391.943 273.298 392.672 273.374 393.379C274.043 399.59 272.32 405.055 268.119 409.662C266.704 411.212 265.078 412.567 263.588 414.063C260.812 416.774 258.004 419.566 255.136 422.412ZM207.099 297.969C207.115 298.158 207.137 298.525 207.174 298.887C207.407 301.22 207.731 303.553 207.86 305.902C207.979 308.214 207.822 310.53 207.92 312.842C208.109 317.313 209.567 321.175 213.617 323.605C215.912 324.982 218.451 325.533 221.108 325.382C222.182 325.306 222.793 325.706 223.311 326.624C225.142 329.913 227.631 332.624 230.553 334.957C230.764 335.113 231.034 335.189 231.261 335.302C231.163 335.416 231.088 335.513 230.996 335.626C226.767 335.324 222.658 335.896 218.758 337.522C217.63 337.981 216.982 337.884 216.064 337.004C211.954 333.142 207.212 331.382 201.763 333.85C199.662 334.806 197.81 336.372 196.012 337.846C193.409 339.985 190.984 342.318 188.44 344.516C187.733 345.126 186.852 345.585 185.978 346.179C186.264 346.449 186.474 346.66 186.68 346.827C189.628 349.333 192.571 351.839 195.515 354.323C196.643 355.279 197.691 356.31 198.895 357.153C201.898 359.254 205.203 360.307 208.913 359.486C212.013 358.816 214.422 357.018 216.425 354.669C216.998 353.999 217.457 354.015 218.262 354.226C220.902 354.895 223.559 355.527 226.233 355.927C227.896 356.175 229.619 355.965 231.568 355.965C231.109 356.348 230.861 356.559 230.629 356.769C227.685 359.329 225.104 362.218 223.252 365.659C222.733 366.614 222.161 367.052 221.108 366.901C220.746 366.841 220.346 366.884 219.984 366.901C214.514 367.073 209.983 370.416 208.568 375.601C208.092 377.318 208.017 379.154 207.941 380.953C207.768 384.317 207.768 387.682 207.612 391.046C207.558 392.094 207.25 393.147 207.039 394.313C207.536 394.313 207.822 394.335 208.092 394.313C210.312 394.162 212.526 393.952 214.762 393.854C217.954 393.719 221.167 393.854 224.343 393.547C228.107 393.206 231.109 391.349 233.059 388.022C234.414 385.711 234.814 383.151 234.836 380.51C234.836 379.84 234.933 379.365 235.657 379.019C239.232 377.34 242.137 374.818 244.643 371.793C244.87 371.529 245.118 371.28 245.485 370.897C245.502 371.259 245.539 371.41 245.523 371.567C245.026 375.466 245.404 379.306 246.706 383.016C247.187 384.393 247.089 385.273 245.998 386.402C242.672 389.917 240.954 394.065 242.348 398.979C243.266 402.225 245.404 404.715 247.662 407.161C249.881 409.57 251.982 412.092 254.105 414.598C254.58 415.149 254.925 415.818 255.385 416.526C255.617 416.261 255.768 416.126 255.881 415.975C257.372 414.041 258.808 412.07 260.396 410.218C262.151 408.171 264.139 406.34 265.84 404.256C267.622 402.074 268.767 399.552 268.978 396.684C269.302 392.25 267.33 388.789 264.312 385.808C263.798 385.289 263.566 384.89 263.815 384.182C265.343 379.9 265.764 375.466 265.23 370.686C267.541 373.705 270.009 376.249 273.147 377.815C275.437 378.965 275.971 380.569 276.182 382.902C276.603 387.568 278.898 391.16 283.445 392.764C285.395 393.455 287.539 393.719 289.602 393.838C293.426 394.065 297.249 394.006 301.094 394.124C301.894 394.141 302.714 394.335 303.632 394.448C303.578 393.854 303.519 393.433 303.481 393.034C303.271 390.852 302.947 388.692 302.849 386.515C302.736 384.069 302.909 381.622 302.774 379.192C302.563 374.969 300.938 371.432 297.325 369.023C294.9 367.397 292.124 366.922 289.278 366.938C288.571 366.938 287.998 366.922 287.615 366.139C285.741 362.429 283.03 359.41 279.876 356.753C279.644 356.542 279.298 356.461 279.012 356.332C279.125 356.213 279.222 356.121 279.336 356.002C279.795 356.002 280.254 355.965 280.713 356.002C284.499 356.332 288.187 355.738 291.746 354.458C292.853 354.053 293.501 354.172 294.306 355.068C297.001 358.071 300.29 359.945 304.497 359.75C307.764 359.599 310.48 358.163 312.867 356.062C315.676 353.578 318.392 351.018 321.222 348.55C322.194 347.707 323.323 347.021 324.392 346.255C324.279 346.082 324.225 345.968 324.127 345.914C320.455 343.695 317.415 340.73 314.417 337.689C311.836 335.076 308.795 333.121 304.972 332.834C300.651 332.51 297.233 334.422 294.268 337.311C293.598 337.959 293.123 337.959 292.297 337.673C290.444 337.041 288.533 336.409 286.599 336.107C284.31 335.724 281.955 335.664 279.568 335.454C279.854 335.205 280.14 334.919 280.448 334.671C283.046 332.548 285.265 330.048 286.929 327.158C287.728 325.744 288.608 325.344 290.196 325.382C293.809 325.457 297.076 324.366 299.62 321.618C301.742 319.301 302.698 316.509 302.812 313.452C302.963 309.493 302.963 305.54 303.098 301.582C303.136 300.302 303.465 299.038 303.67 297.661C302.142 297.872 300.824 298.158 299.507 298.196C295.796 298.331 292.086 298.314 288.398 298.466C284.061 298.655 280.329 300.107 277.883 303.953C276.355 306.34 276.052 309.078 275.933 311.81C275.896 312.572 275.647 312.977 274.978 313.376C272.704 314.791 270.446 316.26 268.248 317.81C267.255 318.518 266.418 319.436 265.343 320.392C265.575 316.682 265.516 313.204 264.295 309.936C263.663 308.214 263.853 307.166 265.154 305.805C268.286 302.538 269.739 298.579 268.616 293.994C267.908 291.143 266.207 288.853 264.312 286.649C261.406 283.307 258.576 279.92 255.73 276.556C255.633 276.442 255.482 276.388 255.536 276.442C253.246 279.137 251.01 281.757 248.753 284.376C247.278 286.099 245.653 287.724 244.335 289.555C240.933 294.259 241.008 299.692 244.432 304.336C245.275 305.481 246.819 306.377 247.089 307.582C247.354 308.808 246.247 310.26 246.036 311.654C245.615 314.521 245.388 317.427 245.043 320.505C244.929 320.332 244.816 319.992 244.584 319.76C242.137 317.216 239.383 315.078 236.175 313.603C235.084 313.106 234.609 312.496 234.76 311.33C234.798 311.081 234.76 310.833 234.738 310.568C234.301 303.434 229.883 299.098 224.073 298.676C218.494 298.277 212.872 298.196 207.099 297.969Z" fill="#577BC1"/>
</g>
<path d="M289.375 322.379C289.775 319.247 290.175 316.185 290.596 312.993C290.806 312.939 291.168 312.858 291.535 312.766C292.929 312.399 293.696 311.33 293.577 309.861C293.463 308.521 292.643 307.641 291.363 307.528C289.775 307.371 288.511 308.062 288.284 309.477C288.112 310.568 287.636 310.779 286.643 310.833C284.137 310.984 281.653 311.33 279.125 311.6C278.056 308.619 280.41 303.607 283.791 302.214C285.206 301.641 286.772 301.236 288.284 301.161C291.935 300.95 295.607 300.988 299.258 300.896C299.944 300.874 300.387 300.95 300.349 301.809C300.252 305.67 300.349 309.553 300.079 313.414C299.679 319.549 295.78 322.741 289.375 322.379Z" fill="#FFEB00"/>
<path d="M289.3 369.941C295.78 369.692 299.734 373.154 300.117 379.365C300.328 382.978 300.29 386.591 300.29 390.225C300.29 390.565 299.809 391.181 299.561 391.181C295.24 391.138 290.866 391.348 286.583 390.852C280.999 390.204 279.147 386.229 278.861 381.638C278.823 380.915 279.26 380.682 279.914 380.758C282.414 381.007 284.92 381.217 287.426 381.525C287.712 381.563 288.095 382.043 288.171 382.384C288.495 383.971 289.451 384.792 291.055 384.792C292.454 384.792 293.41 383.993 293.62 382.691C293.825 381.255 293.123 379.921 291.671 379.592C290.504 379.327 290.423 378.717 290.348 377.739C290.175 375.563 289.813 373.403 289.527 371.242C289.489 370.821 289.392 370.438 289.3 369.941Z" fill="#FFEB00"/>
<path d="M221.151 322.325C215.183 322.725 210.96 319.609 210.577 313.49C210.35 309.628 210.48 305.751 210.442 301.868C210.442 301.198 210.674 300.853 211.398 300.896C215.718 301.063 220.076 300.988 224.381 301.409C229.29 301.89 231.795 306.361 231.72 310.66C231.698 311.465 231.336 311.616 230.575 311.524C228.334 311.238 226.082 311.006 223.824 310.833C223.041 310.779 222.507 310.719 222.393 309.704C222.237 308.214 220.957 307.414 219.353 307.528C218.013 307.625 217.133 308.538 217.02 309.915C216.906 311.276 217.916 312.48 219.315 312.804C219.655 312.88 220.136 313.263 220.195 313.549C220.595 316.282 220.903 319.036 221.227 321.785C221.243 321.92 221.189 322.093 221.151 322.325Z" fill="#FFEB00"/>
<path d="M231.757 380.645C231.968 386.515 229.289 390.452 223.883 390.911C219.714 391.273 215.491 391.16 211.284 391.181C211.019 391.181 210.501 390.641 210.501 390.355C210.56 386.072 210.463 381.774 210.847 377.513C211.208 373.495 214.362 370.649 218.337 370.13C221.243 369.752 221.189 369.752 220.767 372.598C220.497 374.472 220.362 376.346 220.233 378.236C220.195 378.906 220.114 379.268 219.315 379.403C217.786 379.689 216.83 381.088 216.982 382.54C217.117 383.837 218.089 384.738 219.428 384.814C221.108 384.89 222.047 384.069 222.431 382.27C222.485 381.984 222.814 381.547 223.041 381.525C224.494 381.39 225.984 381.412 227.437 381.277C228.852 381.126 230.267 380.855 231.757 380.645Z" fill="#FFEB00"/>
<path d="M283.866 374.737C280.313 374.548 277.558 373.284 275.015 371.507C270.43 368.278 267.292 363.806 264.522 359.064C262.858 356.197 261.233 353.308 259.742 350.672C263.798 353.254 268.194 355.873 272.396 358.778C276.738 361.776 280.426 365.469 282.532 370.438C283.083 371.739 283.391 373.133 283.866 374.737Z" fill="#FFEB00"/>
<path d="M293.907 345.952C290.656 348.399 287.291 349.484 283.656 349.754C278.515 350.137 273.525 349.236 268.632 347.691C265.478 346.697 262.265 345.914 259.479 345.147C261.79 344.651 264.598 343.905 267.466 343.484C271.943 342.814 276.452 342.166 280.962 341.896C284.191 341.707 287.426 342.355 290.385 343.846C291.536 344.402 292.605 345.147 293.907 345.952Z" fill="#FFEB00"/>
<path d="M250.718 351.342C247.586 356.251 244.659 361.322 241.278 366.042C238.411 370.076 234.587 373.133 229.597 374.359C228.911 374.526 228.204 374.607 227.496 374.699C227.383 374.72 227.264 374.645 227.037 374.607C227.188 372.101 228.182 369.903 229.462 367.84C231.606 364.341 234.511 361.511 237.838 359.199C241.926 356.348 246.171 353.713 250.356 350.996C250.454 351.11 250.589 351.228 250.718 351.342Z" fill="#FFEB00"/>
<path d="M250.989 345.185C246.495 346.39 241.851 347.745 237.169 348.858C231.568 350.175 225.925 350.521 220.443 348.204C219.255 347.707 218.186 346.946 216.847 346.179C217.516 345.623 217.916 345.223 218.397 344.915C221.74 342.701 225.525 341.994 229.446 341.859C234.738 341.686 239.901 342.701 245.043 343.884C247.068 344.343 249.136 344.786 250.989 345.185Z" fill="#FFEB00"/>
<path d="M251.221 339.85C247.721 336.733 243.115 335.61 239.291 333.121C235.813 330.869 232.524 328.422 229.981 325.095C228.544 323.221 227.551 321.158 227.038 318.863C226.789 317.713 226.962 317.546 228.145 317.713C233.61 318.518 237.72 321.672 241.316 325.571C244.584 329.108 247.279 333.083 249.612 337.29C250.108 338.17 250.681 338.991 251.221 339.85Z" fill="#FFEB00"/>
<path d="M283.813 317.545C283.581 318.518 283.489 319.301 283.24 320.03C281.69 324.771 278.477 328.228 274.465 330.922C271.575 332.872 268.421 334.406 265.403 336.161C263.318 337.365 261.255 338.629 259.532 339.639C260.758 337.651 262.227 335.167 263.815 332.759C267.044 327.828 270.695 323.297 275.804 320.165C278.153 318.69 280.735 317.848 283.813 317.545Z" fill="#FFEB00"/>
<path d="M255.579 386.342C252.976 383.016 252.004 379.635 251.718 376.022C251.237 370.092 252.614 364.416 254.045 358.74C254.623 356.445 255.023 354.096 255.309 352.681C256.168 356.31 257.296 360.82 258.274 365.372C259.343 370.476 259.802 375.617 258.155 380.704C257.545 382.54 256.551 384.258 255.579 386.342Z" fill="#FFEB00"/>
<path d="M255.271 305.805C257.448 308.575 258.484 311.427 258.922 314.505C259.608 319.301 258.943 323.983 257.696 328.611C256.859 331.689 256.038 334.768 255.287 337.538C254.375 333.79 253.17 329.74 252.403 325.608C251.372 320.068 251.064 314.467 253.494 309.132C253.953 308.062 254.58 307.069 255.271 305.805Z" fill="#FFEB00"/>
<circle cx="258.765" cy="201.997" r="15.1456" stroke="white" stroke-width="6"/>
<path d="M229.329 279.929C219.768 285.9 211.963 289.958 205.679 292.444C200.438 294.518 196.415 295.434 193.411 295.537C190.434 295.639 188.681 294.943 187.619 294.03C186.55 293.112 185.754 291.607 185.442 289.231C185.128 286.836 185.341 283.785 186.097 280.167C187.607 272.936 191.146 264.064 195.82 254.925C205.203 236.576 218.68 218.065 227.992 210.518C230.332 208.621 232.105 207.674 233.263 207.403C233.797 207.278 234.023 207.34 234.062 207.353C234.081 207.36 234.096 207.367 234.119 207.386C234.146 207.408 234.211 207.467 234.297 207.601C234.725 208.266 235.228 209.995 235.062 213.612C234.903 217.097 234.149 221.869 232.617 228.158L231.938 230.947L234.695 231.748C237.48 232.557 240.066 233.397 242.47 234.26C233.024 240.421 223.984 247.334 216.715 253.873C210.787 259.207 205.893 264.417 202.931 268.869C201.463 271.075 200.327 273.303 199.889 275.409C199.436 277.584 199.677 280.039 201.568 281.889C203.283 283.567 205.792 284.154 208.409 284.239C211.112 284.328 214.496 283.899 218.574 282.975C221.667 282.274 225.24 281.268 229.329 279.929ZM285.446 277.877C285.194 277.207 284.958 276.51 284.737 275.784C283.869 272.939 283.276 269.985 282.429 266.531C280.772 259.775 278.359 252.121 271.613 244.881C267.763 240.75 262.588 236.845 255.52 233.289C258.145 231.781 260.762 230.364 263.341 229.064C270.794 225.306 277.779 222.594 283.601 221.423C289.568 220.223 293.567 220.785 295.817 222.519C298.68 224.725 300.114 227.035 300.733 229.375C301.367 231.771 301.219 234.482 300.421 237.567C298.774 243.935 294.751 250.702 291.053 258.101C289.263 261.682 287.585 265.372 286.53 269.001C285.683 271.912 285.203 274.91 285.446 277.877Z" stroke="white" stroke-width="6"/>
<mask id="mask1_17_219" style="mask-type:luminance" maskUnits="userSpaceOnUse" x="123" y="49" width="266" height="312">
<path d="M123 49H388.667V360.969H123V49Z" fill="white"/>
</mask>
<g mask="url(#mask1_17_219)">
<path d="M358.797 193.533C333.707 163.96 311.493 132.365 292.155 98.7413L268.387 55.3274C267.771 54.2007 267.017 53.1748 266.122 52.2556C265.233 51.3364 264.236 50.5477 263.133 49.8954C262.03 49.2372 260.862 48.745 259.623 48.407C258.383 48.0631 257.126 47.897 255.845 47.897C254.564 47.897 253.301 48.0631 252.068 48.407C250.828 48.745 249.66 49.2372 248.557 49.8954C247.454 50.5477 246.452 51.3364 245.563 52.2556C244.673 53.1748 243.92 54.2007 243.303 55.3274L218.788 100.046C199.753 133.148 177.847 164.227 153.077 193.29C151.132 195.692 149.276 198.165 147.503 200.697C145.73 203.235 144.052 205.826 142.457 208.477C140.861 211.128 139.367 213.832 137.956 216.583C136.55 219.335 135.24 222.134 134.03 224.98C132.814 227.827 131.699 230.709 130.685 233.632C129.671 236.55 128.758 239.503 127.946 242.486C127.139 245.475 126.434 248.481 125.829 251.511C125.224 254.548 124.726 257.596 124.334 260.667C123.943 263.733 123.658 266.811 123.474 269.895C123.297 272.984 123.219 276.074 123.255 279.169C123.291 282.259 123.427 285.348 123.676 288.426C123.919 291.51 124.275 294.582 124.732 297.641C125.188 300.701 125.752 303.738 126.422 306.756C127.086 309.774 127.857 312.769 128.734 315.734C129.606 318.705 130.585 321.634 131.658 324.534C132.737 327.434 133.911 330.292 135.186 333.109C136.776 336.804 138.543 340.409 140.488 343.931C142.433 347.454 144.55 350.87 146.827 354.179C149.11 357.494 151.547 360.684 154.145 363.756C156.736 366.833 159.476 369.769 162.364 372.574C165.246 375.373 168.264 378.029 171.407 380.538C174.556 383.04 177.812 385.388 181.192 387.571C184.566 389.759 188.041 391.775 191.617 393.619C195.193 395.458 198.846 397.124 202.587 398.607C211.067 402.028 219.796 404.62 228.769 406.381C237.741 408.136 246.802 409.038 255.946 409.079C259.047 409.079 262.149 408.972 265.25 408.759C268.346 408.545 271.435 408.219 274.507 407.786C277.585 407.353 280.639 406.814 283.675 406.167C286.711 405.521 289.724 404.768 292.706 403.908C295.689 403.048 298.642 402.082 301.56 401.014C304.472 399.947 307.348 398.779 310.182 397.509C313.017 396.24 315.804 394.871 318.538 393.4C321.277 391.935 323.958 390.376 326.585 388.721C329.212 387.067 331.78 385.317 334.282 383.485C336.791 381.647 339.228 379.725 341.594 377.715C343.96 375.711 346.261 373.623 348.479 371.453C350.702 369.282 352.843 367.035 354.907 364.716C356.971 362.398 358.951 360.008 360.849 357.547C362.74 355.086 364.549 352.56 366.269 349.974C367.983 347.389 369.607 344.744 371.137 342.04C372.673 339.342 374.102 336.59 375.443 333.785C376.777 330.98 378.016 328.14 379.155 325.246C380.288 322.358 381.325 319.428 382.256 316.469C383.187 313.504 384.012 310.516 384.729 307.491C385.453 304.473 386.063 301.431 386.567 298.365C387.077 295.305 387.475 292.227 387.759 289.132C388.05 286.042 388.228 282.941 388.299 279.839C388.37 276.732 388.329 273.631 388.18 270.529C388.032 267.428 387.777 264.332 387.41 261.249C387.048 258.165 386.573 255.099 385.992 252.051C385.411 248.997 384.717 245.973 383.923 242.972C383.128 239.972 382.227 237.001 381.224 234.059C380.222 231.124 379.113 228.224 377.904 225.36C376.694 222.502 375.389 219.685 373.984 216.921C372.572 214.152 371.072 211.436 369.471 208.774C367.876 206.111 366.186 203.508 364.407 200.964C362.622 198.42 360.754 195.941 358.797 193.533ZM314.09 362.611C310.425 365.054 306.618 367.26 302.675 369.229C298.737 371.198 294.687 372.918 290.536 374.388C286.379 375.859 282.151 377.069 277.846 378.011C273.546 378.96 269.2 379.636 264.811 380.046C260.423 380.461 256.029 380.597 251.623 380.461C247.217 380.33 242.841 379.921 238.488 379.251C234.129 378.575 229.836 377.632 225.596 376.428C221.362 375.218 217.211 373.754 213.155 372.034C207.42 369.763 201.965 366.952 196.782 363.607C191.599 360.257 186.796 356.438 182.366 352.145C177.936 347.851 173.969 343.166 170.458 338.09C166.954 333.014 163.977 327.647 161.528 321.984C159.494 317.531 157.774 312.959 156.374 308.268C154.975 303.577 153.902 298.816 153.154 293.977C152.413 289.138 152.004 284.269 151.933 279.377C151.862 274.485 152.123 269.604 152.727 264.747C153.326 259.891 154.263 255.099 155.526 250.367C156.79 245.641 158.373 241.021 160.276 236.508C162.174 231.996 164.38 227.643 166.882 223.433C169.391 219.228 172.172 215.214 175.226 211.395C201.123 180.979 224.001 148.447 243.872 113.804L255.827 91.9811L267.041 112.475C287.203 147.623 310.39 180.659 336.589 211.578C340.319 216.127 343.628 220.96 346.522 226.077C349.416 231.195 351.847 236.526 353.822 242.071C355.79 247.61 357.273 253.279 358.263 259.072C359.248 264.872 359.734 270.713 359.71 276.59C359.71 280.818 359.455 285.028 358.939 289.227C358.429 293.425 357.658 297.57 356.638 301.674C355.618 305.777 354.349 309.804 352.843 313.753C351.331 317.697 349.582 321.54 347.601 325.275C345.62 329.011 343.42 332.611 341.001 336.08C338.581 339.543 335.96 342.852 333.132 345.995C330.309 349.144 327.302 352.103 324.118 354.884C320.934 357.665 317.589 360.239 314.09 362.611Z" fill="white"/>
</g>
</g>
<defs>
<clipPath id="clip0_17_219">
<rect width="500" height="500" fill="white"/>
</clipPath>
</defs>
</svg>
