<svg width="26" height="26" viewBox="0 0 26 26" fill="none" xmlns="http://www.w3.org/2000/svg">
<g clip-path="url(#clip0_472_5169)">
<mask id="mask0_472_5169" style="mask-type:luminance" maskUnits="userSpaceOnUse" x="11" y="0" width="4" height="12">
<path d="M14.3794 1.15997V10.9822H11.6206V1.15997H14.3794Z" fill="white" stroke="white" stroke-width="0.5"/>
</mask>
<g mask="url(#mask0_472_5169)">
<path d="M13 1.46564C12.4186 1.46564 11.9434 1.94085 11.9434 2.52228C11.9435 3.10356 12.4187 3.57794 13 3.57794C13.5812 3.57778 14.0555 3.10346 14.0557 2.52228C14.0557 1.94095 13.5813 1.4658 13 1.46564ZM12.8467 3.88165L12.6611 3.83185C12.0789 3.67766 11.6378 3.14746 11.6377 2.52228C11.6377 1.77364 12.2514 1.15997 13 1.15997C13.7485 1.16014 14.3613 1.77374 14.3613 2.52228C14.3612 3.1474 13.921 3.6776 13.3389 3.83185L13.1523 3.88165V10.8397C13.1484 10.8418 13.1446 10.8443 13.1406 10.8465C13.0999 10.8691 13.056 10.8942 13.0078 10.9227C13.0054 10.9239 13.0024 10.9253 13 10.9266L12.9922 10.9227C12.9439 10.894 12.9002 10.8692 12.8594 10.8465C12.855 10.8441 12.851 10.8411 12.8467 10.8387V3.88165Z" fill="#0D99FF" fill-opacity="0.3" stroke="#000957" stroke-width="0.5"/>
</g>
<path d="M14.4258 13.4727C14.7858 13.8537 15.0407 14.2892 15.1357 14.8408L15.1689 15.1143C15.217 15.882 14.8476 16.4968 14.3066 17.0273C14.2395 16.9792 14.1663 16.9259 14.0977 16.877C14.0827 16.8662 14.0682 16.8551 14.0537 16.8447C14.5268 16.377 14.9029 15.8249 14.8613 15.1406C14.823 14.5107 14.5423 14.0311 14.1416 13.6289C14.1814 13.6067 14.2226 13.584 14.2637 13.5615C14.3024 13.5403 14.3403 13.5194 14.376 13.5C14.3931 13.4906 14.4098 13.4814 14.4258 13.4727Z" fill="#0D99FF" fill-opacity="0.3" stroke="#000957" stroke-width="0.5"/>
<path d="M9.78809 6.91705C9.99193 6.87351 10.2011 6.93377 10.3369 7.08307L10.3379 7.08405C10.8096 7.59353 11.7407 8.95231 10.8018 10.8116L10.709 10.9971L10.873 11.1231C11.1297 11.3193 11.4172 11.5028 11.7158 11.6807C11.6253 11.742 11.5365 11.8047 11.4502 11.8702C11.1496 11.6888 10.8703 11.5026 10.623 11.3028L10.3506 11.0655L10.1709 10.8839C9.31285 9.95023 9.01687 8.62594 9.3916 7.30573C9.44178 7.12969 9.56685 6.99412 9.7207 6.93658L9.78809 6.91705ZM9.65527 7.39264C9.35472 8.48819 9.54536 9.61878 10.2021 10.4727L10.4639 10.8126L10.6309 10.4171C11.2242 9.01031 10.6889 7.94121 10.0791 7.28815L9.77441 6.961L9.65527 7.39264Z" fill="#0D99FF" fill-opacity="0.3" stroke="#000957" stroke-width="0.5"/>
<path d="M12.9995 14.3459C13.0551 14.391 13.1046 14.4349 13.1528 14.4797V15.8967C13.1028 15.9459 13.0524 15.9925 12.9995 16.0392C12.9469 15.9926 12.897 15.9458 12.8472 15.8967V14.4797C12.8952 14.435 12.9442 14.3908 12.9995 14.3459Z" fill="#0D99FF" fill-opacity="0.3" stroke="#000957" stroke-width="0.5"/>
<mask id="mask1_472_5169" style="mask-type:luminance" maskUnits="userSpaceOnUse" x="12" y="19" width="2" height="7">
<path d="M13.2007 19.594V24.8401H12.7993V19.594H13.2007Z" fill="white" stroke="white" stroke-width="0.5"/>
</mask>
<g mask="url(#mask1_472_5169)">
<path d="M13.0942 19.7716C13.1163 19.7916 13.1361 19.8103 13.1528 19.8263V24.6866C13.1528 24.77 13.0838 24.8398 13.0005 24.84C12.917 24.84 12.8472 24.7701 12.8472 24.6866V19.8263C12.864 19.8103 12.8836 19.7917 12.9058 19.7716C12.9347 19.7454 12.9678 19.7197 12.9995 19.6925C13.0314 19.7199 13.0651 19.7452 13.0942 19.7716Z" fill="#0D99FF" fill-opacity="0.3" stroke="#000957" stroke-width="0.5"/>
</g>
<path d="M11.9194 18.8647C11.8966 18.8872 11.8754 18.9088 11.856 18.9282L11.8501 18.935C11.2848 19.5436 10.9902 20.3379 11.0786 21.1039V21.1049C11.1213 21.5312 11.2849 21.9318 11.5415 22.2895V22.7846C10.9957 22.1984 10.8148 21.6039 10.77 21.1557V21.1528C10.6788 20.3307 10.9872 19.4569 11.6255 18.7582C11.637 18.7468 11.6595 18.7248 11.689 18.6967C11.7659 18.7527 11.8426 18.8088 11.9194 18.8647Z" fill="#0D99FF" fill-opacity="0.3" stroke="#000957" stroke-width="0.5"/>
<path d="M15.6636 7.08307C15.7994 6.93371 16.0085 6.87341 16.2124 6.91705L16.2153 6.91803C16.4169 6.95854 16.5692 7.10386 16.6274 7.32135L16.6284 7.32526C17.0277 8.73258 16.6655 10.1267 15.6675 11.087L15.6646 11.0909C15.1716 11.5838 14.4841 11.9475 13.7866 12.337C13.1689 12.6758 12.5325 13.0221 12.0444 13.4493C11.5796 13.8561 11.2305 14.3523 11.1509 15.0069L11.1382 15.1407C11.0918 15.7611 11.3839 16.2688 11.7827 16.6944C12.1787 17.1169 12.7109 17.4902 13.1978 17.838L13.1997 17.8399C13.6725 18.1687 14.0861 18.452 14.3638 18.7667L14.3696 18.7735C15.009 19.4508 15.3217 20.326 15.23 21.1729C15.1692 21.6241 14.9857 22.2142 14.4595 22.795V22.3077C14.7154 21.9505 14.8788 21.5507 14.9214 21.1251L14.9204 21.1241C15.0089 20.3577 14.7152 19.5637 14.1499 18.9551H14.1509L14.144 18.9493L13.9087 18.7354C13.8231 18.6637 13.7306 18.5916 13.6343 18.5186L13.0249 18.0762C12.4847 17.689 11.9107 17.2827 11.48 16.7921C11.055 16.3079 10.7869 15.7609 10.8315 15.0919V15.0899C10.8771 14.3257 11.2377 13.7525 11.7583 13.2745C12.2864 12.7896 12.9637 12.4158 13.6245 12.0499H13.6255C14.1664 11.7494 14.6866 11.4582 15.1265 11.1231L15.2915 10.9971L15.1978 10.8116C14.259 8.9524 15.1899 7.59351 15.6616 7.08405L15.6636 7.08307ZM15.9204 7.28815C15.3107 7.94125 14.7761 9.01027 15.3696 10.4171L15.5396 10.8204L15.8003 10.4688C16.4317 9.61905 16.6458 8.4916 16.3442 7.39264L16.2261 6.961L15.9204 7.28815Z" fill="#0D99FF" fill-opacity="0.3" stroke="#000957" stroke-width="0.5"/>
<path d="M0.73291 4.4516C0.99933 4.71802 1.32962 5.0273 1.72217 5.33734L1.79053 5.39105H1.87646C2.06645 5.39105 4.55511 5.49519 6.70459 4.58734C6.78075 4.55694 6.87547 4.59976 6.90381 4.67035C6.93409 4.74655 6.89191 4.84049 6.82178 4.86859L6.81982 4.86957C5.52521 5.39928 4.1046 5.5981 3.11182 5.65765L2.15479 5.71527L3.01709 6.13226C4.2765 6.74109 5.87956 6.99341 7.68408 6.16156L7.68506 6.16254C7.79152 6.12375 7.87021 6.15905 7.91162 6.22797C7.94451 6.33304 7.90585 6.40881 7.8335 6.44672C7.2337 6.71697 6.65449 6.87226 6.11377 6.94965L5.85986 6.98578L5.90186 7.23773C5.92487 7.37565 5.99614 7.75707 6.31982 8.13324C6.62277 8.48521 7.12597 8.80522 7.95166 8.94379C7.96298 9.05237 7.97847 9.16033 7.99561 9.26703C7.21158 9.15485 6.61759 8.88412 6.20459 8.47113L6.20166 8.46722L6.03076 8.28363C5.67578 7.85219 5.60737 7.41848 5.59229 7.23676L5.57373 7.01117L5.34717 7.00726L5.1333 6.99945C3.22603 6.89204 1.71394 5.79864 0.848145 4.98578L0.506348 4.64691L0.502441 4.64301L0.45166 4.58441C0.352776 4.45108 0.324949 4.27782 0.383301 4.10199L0.73291 4.4516ZM7.88721 2.06195C8.13303 1.94777 8.40382 1.93605 8.63525 2.02875C8.87388 2.12413 9.0855 2.33583 9.18115 2.57465L9.18311 2.57855C9.55302 3.45505 10.2513 4.57855 11.5405 4.86371V5.17719C11.0098 5.07221 9.75989 4.64799 8.99463 2.9184L8.8999 2.69281C8.76598 2.33556 8.34524 2.17131 8.01123 2.33832C5.19415 3.66622 2.35314 3.96514 0.899902 4.02484L0.405762 4.04437C0.490732 3.85584 0.673166 3.73397 0.899902 3.7182L0.900879 3.71918C2.30637 3.6581 5.12415 3.37188 7.88721 2.06195Z" fill="#0D99FF" fill-opacity="0.3" stroke="#000957" stroke-width="0.5"/>
<path d="M25.6055 4.07172C25.6882 4.28478 25.6425 4.49645 25.4971 4.64203L25.4932 4.64691C24.7006 5.47884 22.9473 6.96864 20.6523 7.00726L20.4268 7.01117L20.4082 7.23676C20.391 7.44442 20.3026 7.98065 19.7979 8.46722L19.7949 8.47113C19.3819 8.88409 18.788 9.15488 18.0039 9.26703C18.021 9.16033 18.0365 9.05238 18.0479 8.94379C18.8739 8.80522 19.3777 8.48533 19.6807 8.13324C20.0042 7.75712 20.0746 7.37563 20.0977 7.23773L20.1396 6.98578L19.8867 6.94965C19.3456 6.87223 18.7653 6.71731 18.165 6.44672C18.0938 6.40889 18.0554 6.33342 18.0869 6.22992C18.1279 6.15975 18.2071 6.1226 18.3145 6.16156C20.1194 6.99398 21.7228 6.74121 22.9824 6.13226L23.8457 5.71527L22.8887 5.65765C21.8959 5.59814 20.4745 5.39936 19.1797 4.86957L19.1777 4.86859C19.1251 4.84738 19.0882 4.78904 19.0859 4.72894L19.0957 4.67035C19.1236 4.60063 19.2163 4.55821 19.292 4.58636C20.3613 5.03277 21.5165 5.23284 22.4238 5.31976C23.3287 5.40645 24.0051 5.38258 24.127 5.37054L24.2002 5.36273L24.2578 5.31781C24.6507 5.00774 24.9805 4.69769 25.2471 4.43109L25.6055 4.07172ZM17.3652 2.02875C17.5965 1.93625 17.8667 1.94793 18.1123 2.06195V2.06293C20.8754 3.37281 23.6736 3.65812 25.0996 3.71918V3.7182C25.3187 3.73336 25.4955 3.84814 25.584 4.02582L25.0801 4.00531C23.6257 3.9456 20.7809 3.64598 17.9619 2.31586C17.6285 2.15342 17.2114 2.3176 17.0791 2.67426C16.3414 4.60705 15.011 5.06707 14.459 5.17719V4.86371C15.7484 4.57864 16.4474 3.45511 16.8174 2.57855L16.8184 2.57465C16.914 2.33591 17.1257 2.12417 17.3643 2.02875H17.3652Z" fill="#0D99FF" fill-opacity="0.3" stroke="#000957" stroke-width="0.5"/>
</g>
<defs>
<clipPath id="clip0_472_5169">
<rect width="26" height="26" fill="white"/>
</clipPath>
</defs>
</svg>
