<svg width="28" height="22" viewBox="0 0 28 22" fill="none" xmlns="http://www.w3.org/2000/svg">
<path d="M14 8.5V13.5V8.5ZM11.7484 9.75L16.2516 12.25L11.7484 9.75ZM16.2516 9.75L11.7471 12.25L16.2516 9.75ZM7.1516 8.5V13.5V8.5ZM4.9 9.75L9.4032 12.25L4.9 9.75ZM9.4032 9.75L4.9 12.25L9.4032 9.75ZM20.8484 8.5V13.5V8.5ZM18.5968 9.75L23.1 12.25L18.5968 9.75ZM23.1 9.75L18.5955 12.25L23.1 9.75ZM27 11C27 15.7137 27 18.0712 25.4764 19.535C23.9528 20.9987 21.5023 21 16.6 21H11.4C6.4977 21 4.0459 21 2.5236 19.535C1.0013 18.07 1 15.7137 1 11C1 6.28625 1 3.92875 2.5236 2.465C4.0472 1.00125 6.4977 1 11.4 1H16.6C21.5023 1 23.9541 1 25.4764 2.465C26.3266 3.28125 26.7023 4.375 26.8674 6" fill="#0D99FF" fill-opacity="0.3"/>
<path d="M14 8.5V13.5M11.7484 9.75L16.2516 12.25M16.2516 9.75L11.7471 12.25M7.1516 8.5V13.5M4.9 9.75L9.4032 12.25M9.4032 9.75L4.9 12.25M20.8484 8.5V13.5M18.5968 9.75L23.1 12.25M23.1 9.75L18.5955 12.25M27 11C27 15.7137 27 18.0712 25.4764 19.535C23.9528 20.9987 21.5023 21 16.6 21H11.4C6.4977 21 4.0459 21 2.5236 19.535C1.0013 18.07 1 15.7137 1 11C1 6.28625 1 3.92875 2.5236 2.465C4.0472 1.00125 6.4977 1 11.4 1H16.6C21.5023 1 23.9541 1 25.4764 2.465C26.3266 3.28125 26.7023 4.375 26.8674 6" stroke="#000957" stroke-width="1.5" stroke-linecap="round"/>
</svg>
