<svg xmlns="http://www.w3.org/2000/svg" xmlns:xlink="http://www.w3.org/1999/xlink" width="500" zoomAndPan="magnify" viewBox="0 0 375 374.999991" height="500" preserveAspectRatio="xMidYMid meet" version="1.2"><defs><clipPath id="7d9e600ce3"><path d="M 3.53125 45 L 217 45 L 217 275 L 3.53125 275 Z M 3.53125 45 "/></clipPath></defs><g id="f8a7034098"><path style=" stroke:none;fill-rule:evenodd;fill:#000000;fill-opacity:1;" d="M 279.71875 211.367188 C 242.625 211.367188 212.550781 241.4375 212.550781 278.535156 C 212.550781 315.632812 242.625 345.707031 279.71875 345.707031 C 316.816406 345.707031 346.890625 315.632812 346.890625 278.535156 C 346.890625 241.4375 316.816406 211.367188 279.71875 211.367188 Z M 188.84375 278.535156 C 188.84375 228.347656 229.53125 187.65625 279.71875 187.65625 C 329.910156 187.65625 370.597656 228.347656 370.597656 278.535156 C 370.597656 328.726562 329.910156 369.414062 279.71875 369.414062 C 229.53125 369.414062 188.84375 328.726562 188.84375 278.535156 Z M 188.84375 278.535156 "/><path style=" stroke:none;fill-rule:evenodd;fill:#000000;fill-opacity:1;" d="M 279.71875 227.171875 C 286.265625 227.171875 291.574219 232.476562 291.574219 239.023438 L 291.574219 273.625 L 311.808594 293.859375 C 316.4375 298.492188 316.4375 305.996094 311.808594 310.625 C 307.179688 315.253906 299.675781 315.253906 295.046875 310.625 L 271.339844 286.917969 C 269.117188 284.695312 267.867188 281.679688 267.867188 278.535156 L 267.867188 239.023438 C 267.867188 232.476562 273.175781 227.171875 279.71875 227.171875 Z M 279.71875 227.171875 "/><g clip-rule="nonzero" clip-path="url(#7d9e600ce3)"><path style=" stroke:none;fill-rule:evenodd;fill:#000000;fill-opacity:1;" d="M 109.820312 69.121094 C 89.753906 69.121094 74.257812 84.675781 74.257812 102.925781 C 74.257812 121.179688 89.753906 136.730469 109.820312 136.730469 C 129.886719 136.730469 145.378906 121.179688 145.378906 102.925781 C 145.378906 84.675781 129.886719 69.121094 109.820312 69.121094 Z M 50.550781 102.925781 C 50.550781 70.746094 77.511719 45.414062 109.820312 45.414062 C 142.128906 45.414062 169.085938 70.746094 169.085938 102.925781 C 169.085938 135.109375 142.128906 160.4375 109.820312 160.4375 C 77.511719 160.4375 50.550781 135.109375 50.550781 102.925781 Z M 26.84375 210.042969 L 26.84375 250.878906 L 192.792969 250.878906 L 192.792969 210.042969 C 141.53125 181.300781 78.109375 181.300781 26.84375 210.042969 Z M 13.371094 190.429688 C 72.789062 156.226562 146.851562 156.226562 206.265625 190.429688 C 212.476562 194.003906 216.5 200.621094 216.5 207.996094 L 216.5 251.316406 C 216.5 264.585938 205.460938 274.585938 192.792969 274.585938 L 26.84375 274.585938 C 14.175781 274.585938 3.136719 264.585938 3.136719 251.316406 L 3.136719 207.996094 C 3.136719 200.621094 7.164062 194.003906 13.371094 190.429688 Z M 13.371094 190.429688 "/></g><path style=" stroke:none;fill-rule:evenodd;fill:#000000;fill-opacity:1;" d="M 204.648438 29.609375 C 195.296875 29.609375 186.867188 33.027344 180.5625 38.550781 C 178.363281 40.476562 176.429688 42.65625 174.804688 45.027344 C 171.109375 50.429688 163.734375 51.816406 158.332031 48.121094 C 152.925781 44.425781 151.542969 37.050781 155.238281 31.644531 C 158 27.605469 161.265625 23.9375 164.941406 20.71875 C 175.480469 11.484375 189.433594 5.902344 204.648438 5.902344 C 236.957031 5.902344 263.917969 31.234375 263.917969 63.414062 C 263.917969 95.597656 236.957031 120.925781 204.648438 120.925781 C 201.222656 120.925781 197.851562 120.644531 194.566406 120.097656 C 188.109375 119.019531 183.746094 112.914062 184.820312 106.457031 C 185.894531 100 192.003906 95.636719 198.460938 96.710938 C 200.464844 97.042969 202.53125 97.21875 204.648438 97.21875 C 224.714844 97.21875 240.210938 81.667969 240.210938 63.414062 C 240.210938 45.164062 224.714844 29.609375 204.648438 29.609375 Z M 192.796875 137.121094 C 192.796875 130.574219 198.105469 125.265625 204.648438 125.265625 C 237.992188 125.265625 271.371094 133.804688 301.097656 150.917969 C 307.304688 154.492188 311.332031 161.109375 311.332031 168.484375 L 311.332031 176.046875 C 311.332031 182.59375 306.023438 187.898438 299.476562 187.898438 C 292.933594 187.898438 287.625 182.59375 287.625 176.046875 L 287.625 170.53125 C 262.011719 156.171875 233.347656 148.972656 204.648438 148.972656 C 198.105469 148.972656 192.796875 143.667969 192.796875 137.121094 Z M 192.796875 137.121094 "/></g></svg>