<svg width="17" height="19" viewBox="0 0 17 19" fill="none" xmlns="http://www.w3.org/2000/svg">
<path d="M14.9722 1.81465H14.0833V0.0146484H12.3056V1.81465H5.19444V0.0146484H3.41667V1.81465H2.52778C1.54111 1.81465 0.75 2.61565 0.75 3.61465V16.2146C0.75 16.692 0.937301 17.1499 1.2707 17.4874C1.6041 17.825 2.05628 18.0146 2.52778 18.0146H14.9722C15.95 18.0146 16.75 17.2046 16.75 16.2146V3.61465C16.75 3.13726 16.5627 2.67942 16.2293 2.34186C15.8959 2.00429 15.4437 1.81465 14.9722 1.81465ZM14.9722 16.2146H2.52778V6.31465H14.9722V16.2146ZM8.75 8.11465V9.91465H12.3056V12.6146H8.75V14.4146L5.19444 11.2646L8.75 8.11465Z" fill="white"/>
</svg>
