<svg xmlns="http://www.w3.org/2000/svg" xmlns:xlink="http://www.w3.org/1999/xlink" width="480" zoomAndPan="magnify" viewBox="0 0 360 318.749988" height="425" preserveAspectRatio="xMidYMid meet" version="1.2"><defs><clipPath id="c0d500d6ab"><path d="M 133 2.105469 L 227 2.105469 L 227 79 L 133 79 Z M 133 2.105469 "/></clipPath><clipPath id="fa7766e3b9"><path d="M 57.695312 218 L 301.988281 218 L 301.988281 315.980469 L 57.695312 315.980469 Z M 57.695312 218 "/></clipPath></defs><g id="ed36062762"><g clip-rule="nonzero" clip-path="url(#c0d500d6ab)"><path style=" stroke:none;fill-rule:evenodd;fill:#404040;fill-opacity:1;" d="M 179.773438 2.105469 C 205.464844 2.105469 226.300781 22.917969 226.300781 48.59375 L 226.300781 78.335938 L 203.796875 78.335938 L 203.796875 49.3125 C 203.796875 36.058594 193.039062 25.3125 179.773438 25.3125 C 166.507812 25.3125 155.75 36.058594 155.75 49.3125 L 155.75 78.335938 L 133.25 78.335938 L 133.25 48.59375 C 133.25 22.917969 154.082031 2.105469 179.773438 2.105469 Z M 179.773438 2.105469 "/></g><path style=" stroke:none;fill-rule:evenodd;fill:#404040;fill-opacity:1;" d="M 179.84375 97.929688 C 152.035156 97.929688 129.503906 120.488281 129.503906 148.3125 C 129.503906 176.140625 152.035156 198.699219 179.84375 198.699219 C 207.648438 198.699219 230.179688 176.140625 230.179688 148.3125 C 230.179688 120.488281 207.648438 97.929688 179.84375 97.929688 Z M 129.9375 77.519531 L 229.730469 77.519531 C 243.945312 77.519531 255.464844 89.050781 255.464844 103.269531 L 255.464844 207.601562 L 104.222656 207.601562 L 104.222656 103.269531 C 104.222656 89.050781 115.738281 77.519531 129.9375 77.519531 Z M 129.9375 77.519531 "/><g clip-rule="nonzero" clip-path="url(#fa7766e3b9)"><path style=" stroke:none;fill-rule:evenodd;fill:#004aad;fill-opacity:1;" d="M 92.460938 243.5625 C 92.011719 243.507812 91.566406 243.515625 91.117188 243.59375 C 90.519531 243.695312 89.9375 243.914062 89.394531 244.257812 C 87.238281 245.640625 86.601562 248.515625 87.984375 250.683594 L 95.742188 262.839844 L 81.324219 262.839844 C 78.746094 262.839844 76.671875 264.921875 76.671875 267.488281 C 76.671875 270.058594 78.746094 272.140625 81.324219 272.140625 L 95.742188 272.140625 L 87.984375 284.296875 C 86.601562 286.460938 87.238281 289.339844 89.394531 290.722656 C 91.566406 292.101562 94.441406 291.46875 95.824219 289.304688 L 104.222656 276.132812 L 112.628906 289.304688 C 114.015625 291.46875 116.890625 292.101562 119.046875 290.722656 C 121.21875 289.339844 121.855469 286.460938 120.472656 284.296875 L 112.710938 272.140625 L 127.132812 272.140625 C 129.695312 272.140625 131.785156 270.058594 131.785156 267.488281 C 131.785156 264.921875 129.695312 262.839844 127.132812 262.839844 L 112.710938 262.839844 L 120.472656 250.683594 C 121.855469 248.515625 121.21875 245.640625 119.046875 244.257812 C 116.890625 242.875 114.015625 243.511719 112.628906 245.675781 L 104.222656 258.847656 L 95.824219 245.675781 C 95.039062 244.457031 93.789062 243.726562 92.460938 243.5625 Z M 168.082031 243.5625 C 167.632812 243.507812 167.1875 243.515625 166.738281 243.59375 C 166.140625 243.695312 165.558594 243.914062 165.015625 244.257812 C 162.847656 245.640625 162.207031 248.515625 163.59375 250.683594 L 171.351562 262.839844 L 156.933594 262.839844 C 154.367188 262.839844 152.292969 264.921875 152.292969 267.488281 C 152.292969 270.058594 154.367188 272.140625 156.933594 272.140625 L 171.351562 272.140625 L 163.59375 284.296875 C 162.207031 286.460938 162.847656 289.339844 165.015625 290.722656 C 167.171875 292.101562 170.046875 291.46875 171.433594 289.304688 L 179.84375 276.132812 L 188.25 289.304688 C 189.636719 291.46875 192.511719 292.101562 194.667969 290.722656 C 196.839844 289.339844 197.476562 286.460938 196.09375 284.296875 L 188.332031 272.140625 L 202.753906 272.140625 C 205.316406 272.140625 207.390625 270.058594 207.390625 267.488281 C 207.390625 264.921875 205.316406 262.839844 202.753906 262.839844 L 188.332031 262.839844 L 196.09375 250.683594 C 197.476562 248.515625 196.839844 245.640625 194.667969 244.257812 C 192.511719 242.875 189.636719 243.511719 188.25 245.675781 L 179.84375 258.847656 L 171.433594 245.675781 C 170.660156 244.457031 169.410156 243.726562 168.082031 243.5625 Z M 243.6875 243.5625 C 243.253906 243.507812 242.792969 243.515625 242.347656 243.59375 C 241.761719 243.695312 241.167969 243.914062 240.636719 244.257812 C 238.46875 245.640625 237.828125 248.515625 239.214844 250.683594 L 246.972656 262.839844 L 232.554688 262.839844 C 229.988281 262.839844 227.898438 264.921875 227.898438 267.488281 C 227.898438 270.058594 229.988281 272.140625 232.554688 272.140625 L 246.972656 272.140625 L 239.214844 284.296875 C 237.828125 286.460938 238.46875 289.339844 240.636719 290.722656 C 242.792969 292.101562 245.667969 291.46875 247.054688 289.304688 L 255.464844 276.132812 L 263.859375 289.304688 C 265.242188 291.46875 268.117188 292.101562 270.289062 290.722656 C 272.445312 289.339844 273.082031 286.460938 271.699219 284.296875 L 263.941406 272.140625 L 278.359375 272.140625 C 280.9375 272.140625 283.011719 270.058594 283.011719 267.488281 C 283.011719 264.921875 280.9375 262.839844 278.359375 262.839844 L 263.941406 262.839844 L 271.699219 250.683594 C 273.082031 248.515625 272.445312 245.640625 270.289062 244.257812 C 268.117188 242.875 265.242188 243.511719 263.859375 245.675781 L 255.464844 258.847656 L 247.054688 245.675781 C 246.28125 244.457031 245.019531 243.726562 243.6875 243.5625 Z M 70.5 218.996094 L 289.183594 218.996094 C 296.25 218.996094 301.988281 224.730469 301.988281 231.804688 L 301.988281 303.175781 C 301.988281 310.25 296.25 315.980469 289.183594 315.980469 L 70.5 315.980469 C 63.433594 315.980469 57.695312 310.25 57.695312 303.175781 L 57.695312 231.804688 C 57.695312 224.730469 63.433594 218.996094 70.5 218.996094 Z M 70.5 218.996094 "/></g><path style=" stroke:none;fill-rule:evenodd;fill:#004aad;fill-opacity:1;" d="M 197.679688 115.109375 C 199.847656 114.941406 201.910156 116.308594 202.535156 118.472656 L 206.117188 130.964844 C 206.738281 133.128906 205.722656 135.378906 203.796875 136.382812 L 203.703125 136.417969 L 203.390625 136.621094 C 203.117188 136.761719 202.820312 136.878906 202.519531 136.96875 L 190.015625 140.550781 C 187.53125 141.261719 184.941406 139.832031 184.238281 137.355469 C 183.53125 134.878906 184.957031 132.296875 187.4375 131.585938 L 190.339844 130.753906 L 189.433594 130.316406 C 185.539062 128.667969 181.117188 128.125 176.640625 129.003906 C 164.988281 131.300781 157.324219 142.417969 159.222656 154.039062 C 161.230469 166.269531 173.101562 174.464844 185.253906 172.003906 C 192.511719 170.535156 198.207031 165.632812 200.988281 159.332031 L 200.988281 159.328125 C 201.597656 157.949219 202.820312 156.941406 204.296875 156.648438 C 207.921875 155.9375 210.835938 159.582031 209.359375 162.957031 C 205.410156 171.945312 197.273438 178.921875 186.910156 180.96875 C 167.757812 184.742188 149.242188 170.054688 149.808594 149.261719 C 150.136719 137.605469 157.136719 127.101562 167.78125 122.332031 C 176.273438 118.53125 185.078125 118.703125 192.578125 121.753906 L 193.933594 122.367188 L 193.554688 121.042969 C 192.851562 118.570312 194.273438 115.988281 196.757812 115.277344 C 197.070312 115.1875 197.378906 115.132812 197.679688 115.109375 Z M 197.679688 115.109375 "/></g></svg>