<svg xmlns="http://www.w3.org/2000/svg" xmlns:xlink="http://www.w3.org/1999/xlink" width="480" zoomAndPan="magnify" viewBox="0 0 360 318.749988" height="425" preserveAspectRatio="xMidYMid meet" version="1.2"><defs><clipPath id="5049d3c8ad"><path d="M 1.597656 1.589844 L 358.320312 1.589844 L 358.320312 317 L 1.597656 317 Z M 1.597656 1.589844 "/></clipPath></defs><g id="5e31c1e2ba"><g clip-rule="nonzero" clip-path="url(#5049d3c8ad)"><path style=" stroke:none;fill-rule:nonzero;fill:#004aad;fill-opacity:1;" d="M 317.691406 189.191406 L 317.691406 126.855469 C 335.503906 120.917969 347.96875 104.292969 347.96875 84.703125 L 347.96875 45.519531 C 347.96875 21.179688 328.378906 1.589844 304.039062 1.589844 L 55.878906 1.589844 C 31.539062 1.589844 11.949219 21.179688 11.949219 45.519531 L 11.949219 84.703125 C 11.949219 104.292969 25.007812 120.917969 42.226562 126.855469 L 42.226562 189.191406 C 19.667969 189.785156 1.855469 208.1875 1.855469 230.746094 L 1.855469 275.273438 C 1.855469 298.425781 20.257812 316.832031 43.414062 316.832031 L 316.503906 316.832031 C 339.660156 316.832031 358.0625 298.425781 358.0625 275.273438 L 358.0625 230.746094 C 358.0625 208.1875 340.25 189.785156 317.691406 189.191406 Z M 23.820312 84.703125 L 23.820312 45.519531 C 23.820312 27.710938 38.070312 13.460938 55.878906 13.460938 L 304.039062 13.460938 C 321.847656 13.460938 336.097656 27.710938 336.097656 45.519531 L 336.097656 84.703125 C 336.097656 102.511719 321.847656 116.761719 304.039062 116.761719 L 229.234375 116.761719 C 220.921875 116.761719 213.796875 119.730469 207.863281 125.667969 C 203.113281 130.417969 198.957031 135.164062 195.394531 140.507812 C 194.207031 142.289062 193.019531 144.664062 191.832031 147.039062 C 188.269531 153.570312 182.332031 163.660156 177.585938 163.660156 C 175.210938 163.660156 172.835938 161.882812 171.054688 160.101562 C 166.898438 155.945312 164.523438 150.601562 161.554688 144.664062 C 159.179688 139.320312 156.210938 133.976562 152.648438 129.230469 L 150.273438 128.042969 C 144.339844 120.917969 136.027344 116.761719 127.121094 116.761719 L 55.878906 116.761719 C 38.070312 116.761719 23.820312 102.511719 23.820312 84.703125 Z M 305.820312 128.636719 L 305.820312 189.191406 L 54.097656 189.191406 L 54.097656 128.636719 C 54.691406 128.636719 55.285156 128.636719 55.878906 128.636719 L 126.527344 128.636719 C 131.871094 128.636719 137.214844 131.011719 140.777344 135.164062 L 141.964844 136.945312 C 144.933594 140.507812 147.308594 145.257812 149.679688 150.007812 C 152.648438 156.539062 156.210938 163.070312 161.554688 168.410156 C 166.304688 173.160156 171.648438 175.535156 176.398438 175.535156 C 188.269531 175.535156 195.394531 163.070312 201.332031 152.976562 C 202.519531 150.601562 203.707031 148.820312 204.894531 147.039062 C 207.863281 142.882812 211.425781 138.726562 215.578125 133.976562 C 219.140625 130.417969 223.890625 128.636719 228.640625 128.636719 L 303.445312 128.636719 C 304.632812 128.636719 305.226562 128.636719 305.820312 128.636719 Z M 346.1875 274.679688 C 346.1875 291.300781 333.128906 304.363281 316.503906 304.363281 L 43.414062 304.363281 C 26.789062 304.363281 13.730469 291.300781 13.730469 274.679688 L 13.730469 230.152344 C 13.730469 213.53125 26.789062 200.46875 43.414062 200.46875 L 316.503906 200.46875 C 333.128906 200.46875 346.1875 213.53125 346.1875 230.152344 Z M 212.609375 253.902344 C 212.609375 257.464844 210.238281 259.835938 206.675781 259.835938 L 194.207031 259.835938 L 203.113281 268.742188 C 205.488281 271.117188 205.488281 274.679688 203.113281 277.054688 C 201.925781 278.242188 200.144531 278.835938 198.957031 278.835938 C 197.769531 278.835938 195.988281 278.242188 194.800781 277.054688 L 185.894531 268.148438 L 185.894531 280.617188 C 185.894531 284.179688 183.519531 286.554688 179.957031 286.554688 C 176.398438 286.554688 174.023438 284.179688 174.023438 280.617188 L 174.023438 268.148438 L 165.117188 277.054688 C 163.929688 278.242188 162.148438 278.835938 160.960938 278.835938 C 159.773438 278.835938 157.992188 278.242188 156.804688 277.054688 C 154.429688 274.679688 154.429688 271.117188 156.804688 268.742188 L 165.710938 259.835938 L 153.242188 259.835938 C 149.679688 259.835938 147.308594 257.464844 147.308594 253.902344 C 147.308594 250.339844 149.679688 247.964844 153.242188 247.964844 L 165.710938 247.964844 L 156.804688 239.058594 C 154.429688 236.683594 154.429688 233.121094 156.804688 230.746094 C 159.179688 228.371094 162.742188 228.371094 165.117188 230.746094 L 174.023438 239.652344 L 174.023438 227.183594 C 174.023438 223.625 176.398438 221.25 179.957031 221.25 C 183.519531 221.25 185.894531 223.625 185.894531 227.183594 L 185.894531 239.652344 L 194.800781 230.746094 C 197.175781 228.371094 200.738281 228.371094 203.113281 230.746094 C 205.488281 233.121094 205.488281 236.683594 203.113281 239.058594 L 194.207031 247.964844 L 206.675781 247.964844 C 210.238281 247.964844 212.609375 250.339844 212.609375 253.902344 Z M 299.882812 253.902344 C 299.882812 257.464844 297.507812 259.835938 293.945312 259.835938 L 281.476562 259.835938 L 290.382812 268.742188 C 292.757812 271.117188 292.757812 274.679688 290.382812 277.054688 C 289.195312 278.242188 287.414062 278.835938 286.226562 278.835938 C 285.039062 278.835938 283.257812 278.242188 282.070312 277.054688 L 273.167969 268.148438 L 273.167969 280.617188 C 273.167969 284.179688 270.792969 286.554688 267.230469 286.554688 C 263.667969 286.554688 261.292969 284.179688 261.292969 280.617188 L 261.292969 268.148438 L 252.386719 277.054688 C 251.199219 278.242188 249.417969 278.835938 248.230469 278.835938 C 247.042969 278.835938 245.261719 278.242188 244.074219 277.054688 C 241.703125 274.679688 241.703125 271.117188 244.074219 268.742188 L 252.980469 259.835938 L 240.515625 259.835938 C 236.953125 259.835938 234.578125 257.464844 234.578125 253.902344 C 234.578125 250.339844 236.953125 247.964844 240.515625 247.964844 L 252.980469 247.964844 L 244.074219 239.058594 C 241.703125 236.683594 241.703125 233.121094 244.074219 230.746094 C 246.449219 228.371094 250.011719 228.371094 252.386719 230.746094 L 261.292969 239.652344 L 261.292969 227.183594 C 261.292969 223.625 263.667969 221.25 267.230469 221.25 C 270.792969 221.25 273.167969 223.625 273.167969 227.183594 L 273.167969 239.652344 L 282.070312 230.746094 C 284.445312 228.371094 288.007812 228.371094 290.382812 230.746094 C 292.757812 233.121094 292.757812 236.683594 290.382812 239.058594 L 281.476562 247.964844 L 293.945312 247.964844 C 297.507812 247.964844 299.882812 250.339844 299.882812 253.902344 Z M 125.339844 253.902344 C 125.339844 257.464844 122.964844 259.835938 119.402344 259.835938 L 106.9375 259.835938 L 115.84375 268.742188 C 118.214844 271.117188 118.214844 274.679688 115.84375 277.054688 C 114.65625 278.242188 112.875 278.835938 111.6875 278.835938 C 110.5 278.835938 108.71875 278.242188 107.53125 277.054688 L 98.625 268.148438 L 98.625 280.617188 C 98.625 284.179688 96.25 286.554688 92.6875 286.554688 C 89.125 286.554688 86.75 284.179688 86.75 280.617188 L 86.75 268.148438 L 77.847656 277.054688 C 76.660156 278.242188 74.878906 278.835938 73.691406 278.835938 C 72.503906 278.835938 70.722656 278.242188 69.535156 277.054688 C 67.160156 274.679688 67.160156 271.117188 69.535156 268.742188 L 78.441406 259.835938 L 65.972656 259.835938 C 62.410156 259.835938 60.035156 257.464844 60.035156 253.902344 C 60.035156 250.339844 62.410156 247.964844 65.972656 247.964844 L 78.441406 247.964844 L 69.535156 239.058594 C 67.160156 236.683594 67.160156 233.121094 69.535156 230.746094 C 71.910156 228.371094 75.472656 228.371094 77.847656 230.746094 L 86.75 239.652344 L 86.75 227.183594 C 86.75 223.625 89.125 221.25 92.6875 221.25 C 96.25 221.25 98.625 223.625 98.625 227.183594 L 98.625 239.652344 L 107.53125 230.746094 C 109.90625 228.371094 113.46875 228.371094 115.839844 230.746094 C 118.214844 233.121094 118.214844 236.683594 115.839844 239.058594 L 106.9375 247.964844 L 119.402344 247.964844 C 122.371094 247.964844 125.339844 250.339844 125.339844 253.902344 Z M 155.617188 47.894531 C 155.617188 44.332031 157.992188 41.957031 161.554688 41.957031 L 198.363281 41.957031 C 201.925781 41.957031 204.300781 44.332031 204.300781 47.894531 C 204.300781 51.457031 201.925781 53.832031 198.363281 53.832031 L 185.894531 53.832031 L 185.894531 87.671875 C 185.894531 91.234375 183.519531 93.609375 179.957031 93.609375 C 176.398438 93.609375 174.023438 91.234375 174.023438 87.671875 L 174.023438 53.832031 L 161.554688 53.832031 C 157.992188 53.832031 155.617188 50.863281 155.617188 47.894531 Z M 106.34375 90.640625 L 119.996094 90.640625 C 130.089844 90.640625 137.808594 82.921875 137.808594 72.828125 L 137.808594 56.800781 C 137.808594 46.707031 130.089844 38.988281 119.996094 38.988281 L 106.34375 38.988281 C 96.25 38.988281 88.53125 46.707031 88.53125 56.800781 L 88.53125 72.828125 C 88.53125 82.328125 96.25 90.640625 106.34375 90.640625 Z M 100.40625 56.207031 C 100.40625 52.644531 102.78125 50.269531 106.34375 50.269531 L 119.996094 50.269531 C 123.558594 50.269531 125.933594 52.644531 125.933594 56.207031 L 125.933594 72.234375 C 125.933594 75.796875 123.558594 78.171875 119.996094 78.171875 L 106.34375 78.171875 C 102.78125 78.171875 100.40625 75.796875 100.40625 72.234375 Z M 225.078125 92.421875 C 225.078125 95.984375 227.453125 98.359375 231.015625 98.359375 C 234.578125 98.359375 236.953125 95.984375 236.953125 92.421875 L 236.953125 84.703125 C 238.734375 85.296875 240.515625 85.890625 242.890625 85.890625 L 254.167969 85.890625 C 264.261719 85.890625 271.980469 78.171875 271.980469 68.078125 L 271.980469 54.425781 C 271.980469 44.332031 264.261719 36.613281 254.167969 36.613281 L 242.890625 36.613281 C 233.390625 36.613281 226.265625 43.738281 225.078125 52.644531 C 225.078125 52.644531 225.078125 53.238281 225.078125 53.238281 Z M 236.953125 54.425781 C 236.953125 51.457031 239.328125 48.488281 242.890625 48.488281 L 254.167969 48.488281 C 257.730469 48.488281 260.105469 50.863281 260.105469 54.425781 L 260.105469 68.078125 C 260.105469 71.640625 257.730469 74.015625 254.167969 74.015625 L 242.890625 74.015625 C 239.921875 74.015625 236.953125 71.640625 236.953125 68.078125 Z M 236.953125 54.425781 "/></g></g></svg>