<svg width="27" height="27" viewBox="0 0 27 27" fill="none" xmlns="http://www.w3.org/2000/svg">
<mask id="path-1-inside-1_472_5165" fill="white">
<path d="M0.0422254 18.8307C0.0842233 18.8874 0.14877 18.9173 0.214445 18.9173C0.258698 18.9173 0.303514 18.9037 0.341848 18.8753L25.2593 0.386382C25.3542 0.315916 25.374 0.181748 25.3035 0.0864781C25.233 -0.00851024 25.0989 -0.0282407 25.0039 0.0422254L21.8963 2.34787C21.4868 1.9465 20.2015 0.900502 18.267 1.30723C16.6579 1.64575 15.8512 3.00434 15.2621 3.99622C15.0149 4.41253 14.8012 4.77191 14.6132 4.90072C14.3359 5.0907 13.9503 5.24826 13.5421 5.41512C12.9347 5.66344 12.2461 5.94503 11.6494 6.42786C10.8571 7.06882 10.3667 8.27802 10.1775 8.81919C10.1344 8.78875 10.0921 8.75775 10.0507 8.72533C9.78967 8.52183 9.28965 7.95472 8.39134 6.40841C7.46401 4.81278 5.53182 4.12644 3.79638 4.77613C2.04008 5.43401 1.02171 7.30897 1.42759 9.13742C2.03586 11.8783 2.66582 13.7188 3.30002 14.6081C3.52382 14.9221 3.80399 15.2305 4.13321 15.5281L0.0864782 18.5308C-0.00851023 18.6016 -0.0282407 18.7357 0.0422254 18.8307ZM6.08963 9.16194C6.04735 9.06188 6.04764 8.95139 6.09076 8.85076C6.13445 8.74929 6.21535 8.67206 6.31851 8.63316C6.52089 8.55762 6.74384 8.65261 6.82699 8.84992C7.39551 10.2012 8.07537 11.2317 8.89926 11.9919L8.25013 12.4733C7.38678 11.6404 6.67845 10.5555 6.08963 9.16194ZM11.9192 6.76102C12.4668 6.31793 13.1244 6.04903 13.7045 5.8117C14.1343 5.6361 14.5402 5.47008 14.8553 5.25418C15.1214 5.07209 15.3461 4.69383 15.6305 4.21523C16.179 3.29156 16.9302 2.02655 18.3553 1.72665C20.0225 1.37601 21.1477 2.23118 21.5474 2.60691L12.0807 9.63125C11.6269 9.51512 11.0603 9.33078 10.5516 9.05145C10.6998 8.61146 11.1694 7.36759 11.9192 6.76102ZM3.64897 14.3595C3.05677 13.5291 2.43357 11.6911 1.84588 9.04469C1.48594 7.4234 2.38931 5.76097 3.94662 5.17751C5.4856 4.60138 7.19877 5.20936 8.02069 6.62375C8.7696 7.913 9.36406 8.73379 9.78742 9.06357C10.3413 9.49511 11.0465 9.77669 11.6446 9.95483L9.25018 11.7314C8.44518 11.0093 7.78054 10.0106 7.22217 8.68362C7.04938 8.27351 6.58656 8.07507 6.16799 8.23207C5.95462 8.3124 5.78719 8.47194 5.69728 8.68165C5.60765 8.89051 5.6068 9.12023 5.69502 9.32881C6.2954 10.7494 7.01866 11.8656 7.90118 12.7326L4.48441 15.2677C4.14984 14.9731 3.8691 14.6682 3.64897 14.3595ZM26.9578 7.30643C26.8873 7.21144 26.7531 7.19143 26.6582 7.26218L0.577769 26.6136C0.48278 26.6843 0.46305 26.8185 0.533516 26.9135C0.575514 26.9701 0.640061 27 0.705735 27C0.749988 27 0.794804 26.9865 0.833138 26.9577L4.95062 23.9029C5.07238 24.3403 5.32071 24.7597 5.67135 25.1104C6.19956 25.6383 6.86702 25.9134 7.4781 25.9134C7.93021 25.9134 8.3516 25.7629 8.66193 25.4523C9.39224 24.722 9.23891 23.3803 8.32003 22.4617C8.10525 22.2469 7.86144 22.0694 7.60212 21.9355L9.31135 20.6671C9.0929 21.2813 9.08388 21.898 9.29444 22.4611C9.60223 23.2839 10.3371 23.8854 11.3639 24.1546C11.745 24.2546 12.15 24.3043 12.5669 24.3043C13.2434 24.3043 13.9514 24.1735 14.64 23.9161C15.7528 23.5001 16.6863 22.8008 17.269 21.947C17.8674 21.0701 18.0275 20.1341 17.7199 19.3113C17.5114 18.7532 17.1055 18.2972 16.5454 17.977C16.6598 17.7949 16.7546 17.5964 16.8278 17.3839C17.1018 16.5874 17.0043 15.7576 16.6007 15.2581L19.0743 13.4229C18.1098 15.5958 18.4655 17.9026 19.9895 18.7822C20.3974 19.0179 20.8554 19.1354 21.3411 19.1354C21.4935 19.1354 21.6489 19.1225 21.8061 19.0991C21.7168 19.5142 21.7128 19.9283 21.7949 20.31C21.2782 20.2705 20.7176 20.3494 20.1716 20.5422C19.443 20.7998 18.8217 21.2319 18.4226 21.7585C18.0038 22.3118 17.875 22.9051 18.0604 23.4296C18.3206 24.1656 19.1603 24.5884 20.1682 24.5881C20.5981 24.5881 21.0583 24.5111 21.5172 24.3491C22.2458 24.0914 22.8671 23.6596 23.2659 23.1328C23.6056 22.6847 23.7544 22.21 23.7 21.7669C24.4864 21.6285 25.2294 20.9281 25.564 19.9768C25.9696 18.8245 25.6795 17.6399 24.9092 17.1317C25.118 16.8695 25.3108 16.5874 25.4842 16.2875C26.1328 15.164 26.4349 13.9271 26.3351 12.8045C26.2328 11.6539 25.7224 10.7581 24.8973 10.2818C24.5571 10.0853 24.1749 9.97033 23.7688 9.93961L26.9135 7.60605C27.0085 7.53559 27.0282 7.40142 26.9578 7.30643ZM8.01702 22.7647C8.76848 23.5164 8.92209 24.5861 8.35893 25.1493C7.79576 25.7122 6.72608 25.5588 5.97435 24.8071C5.63189 24.4643 5.4047 24.0486 5.32522 23.6247L7.21005 22.2261C7.50262 22.343 7.7797 22.5274 8.01702 22.7647ZM17.3183 19.4613C17.5759 20.1499 17.4327 20.947 16.9149 21.7055C16.3816 22.4868 15.5205 23.1294 14.4898 23.5147C13.4593 23.9001 12.3876 23.9801 11.4724 23.74C10.5843 23.5071 9.95344 22.9998 9.69581 22.3112C9.44185 21.6313 9.57884 20.8461 10.0803 20.0966L12.59 18.234C14.6673 17.4851 16.7844 18.0325 17.3183 19.4613ZM16.4225 17.2444C16.3549 17.4414 16.2658 17.6235 16.1573 17.7884C16.0025 17.7241 15.8396 17.6683 15.6677 17.6224C15.0025 17.4448 14.2626 17.4225 13.5131 17.5494L16.2554 15.5146C16.5744 15.8934 16.6489 16.5865 16.4225 17.2444ZM22.9246 22.8741C22.5753 23.3346 22.0249 23.7152 21.3743 23.9452C20.0622 24.4088 18.7569 24.1134 18.4646 23.287C18.3288 22.9025 18.4353 22.4518 18.7642 22.0175C19.1135 21.5566 19.664 21.1764 20.3145 20.9464C20.7238 20.8018 21.1395 20.7282 21.5313 20.7282C21.7624 20.7282 21.9851 20.7539 22.1934 20.8055C22.7222 20.9365 23.0883 21.2204 23.2242 21.6046C23.3601 21.9887 23.2535 22.4397 22.9246 22.8741ZM25.1598 19.8347C24.8689 20.6609 24.2355 21.2624 23.5839 21.3517C23.3739 20.8841 22.9218 20.5442 22.2963 20.3894C22.2828 20.3861 22.2692 20.3832 22.2557 20.3801C22.1311 19.9647 22.137 19.4728 22.2729 18.9984C22.4781 18.9395 22.6853 18.8626 22.893 18.7662C23.5241 18.473 24.1157 18.0252 24.6293 17.4612C25.2731 17.8411 25.5079 18.8451 25.1598 19.8347ZM24.6831 10.653C25.3836 11.0575 25.8185 11.8349 25.9081 12.8425C26.0003 13.8781 25.7178 15.0256 25.113 16.0733C24.5078 17.1212 23.6554 17.9395 22.7126 18.3775C21.7951 18.8037 20.9042 18.8158 20.2037 18.4113C18.7318 17.5615 18.539 15.1299 19.7742 12.9911C19.8043 12.9384 19.8365 12.8859 19.8686 12.8335L23.1667 10.3864C23.7231 10.3094 24.2465 10.401 24.6831 10.653ZM7.04093 20.2961C7.14494 20.3522 7.27516 20.3133 7.33097 20.209C7.38706 20.1048 7.34816 19.9748 7.24387 19.9187L3.61571 17.9677C3.5427 17.9285 3.45335 17.935 3.38655 17.9846C3.31975 18.0339 3.28762 18.1176 3.30425 18.1991L4.11996 22.2368C4.14054 22.3385 4.22989 22.4087 4.32967 22.4087C4.34376 22.4087 4.35814 22.4073 4.37251 22.4045C4.48836 22.3811 4.56334 22.2678 4.53994 22.1519L4.19635 20.45L5.51181 19.4739L7.04093 20.2961ZM4.10249 19.9858L3.8147 18.5613L5.09465 19.2496L4.10249 19.9858ZM7.8713 19.5667L5.64936 16.5722C5.5789 16.4772 5.59891 16.343 5.6939 16.2725C5.78888 16.2018 5.92305 16.2218 5.99352 16.3168L8.08777 19.1391L9.24455 18.2808C9.33954 18.2103 9.47398 18.2304 9.54445 18.3253C9.61492 18.4203 9.5949 18.5545 9.49992 18.625L8.17121 19.6109C8.134 19.6386 8.08918 19.6532 8.04352 19.6532C8.03309 19.6532 8.02238 19.6524 8.01195 19.651C7.95586 19.6425 7.90513 19.6123 7.8713 19.5667ZM10.0741 17.9321L7.85213 14.9379C7.78167 14.8429 7.8014 14.7085 7.89639 14.638C7.99138 14.5675 8.12582 14.5873 8.19629 14.6825L10.2905 17.5048L11.4473 16.6466C11.5423 16.5758 11.6765 16.5958 11.7469 16.6908C11.8174 16.7858 11.7977 16.9203 11.7027 16.9907L10.3737 17.9767C10.3368 18.0043 10.2917 18.019 10.246 18.019C10.2356 18.019 10.2252 18.0181 10.2147 18.0167C10.1584 18.0083 10.1079 17.9778 10.0741 17.9321ZM12.214 16.3444L9.99205 13.3499C9.92159 13.2549 9.94132 13.1207 10.0363 13.0503L11.3653 12.0643C11.4603 11.9936 11.5945 12.0136 11.6652 12.1086C11.7357 12.2035 11.7157 12.3377 11.6207 12.4085L10.4639 13.2667L11.3194 14.4196L12.4761 13.5616C12.5711 13.4908 12.7056 13.5108 12.776 13.6058C12.8465 13.7008 12.8265 13.835 12.7315 13.9054L11.5747 14.764L12.4305 15.9171L13.5872 15.0585C13.6822 14.9881 13.8164 15.0081 13.8869 15.1031C13.9576 15.1981 13.9376 15.3322 13.8426 15.4027L12.5136 16.3889C12.4767 16.4163 12.4319 16.4309 12.3859 16.4309C12.3755 16.4309 12.3651 16.4301 12.3546 16.4287C12.2983 16.4205 12.2478 16.3901 12.214 16.3444ZM16.1068 13.5751C16.1378 13.5909 16.1708 13.5982 16.2035 13.5982C16.2816 13.5982 16.3571 13.5554 16.3949 13.4809C16.4482 13.3752 16.4062 13.2464 16.3005 13.1929L14.7031 12.3839C15.0014 11.9885 15.0191 11.4281 14.7093 11.0104C14.3325 10.5028 13.6129 10.3962 13.1055 10.7728L12.3067 11.3656C12.2611 11.3994 12.2309 11.4501 12.2224 11.5062C12.2143 11.5626 12.2284 11.6198 12.2625 11.6655L14.4844 14.6597C14.5264 14.7164 14.591 14.7462 14.6566 14.7462C14.7009 14.7462 14.7457 14.7327 14.784 14.7042C14.879 14.6338 14.899 14.4993 14.8286 14.4043L13.8451 13.0793L14.3655 12.6931L16.1068 13.5751ZM13.5898 12.7351L12.7343 11.582L13.3609 11.1172C13.6786 10.8813 14.1293 10.9481 14.3652 11.2658C14.6008 11.5837 14.5343 12.0344 14.2164 12.2701L13.5898 12.7351ZM16.7399 12.4668C16.2726 12.3293 15.8365 12.0124 15.5121 11.5755C14.8291 10.655 14.857 9.47312 15.5741 8.94096C15.9529 8.65994 16.4668 8.60357 16.9843 8.78594C17.0962 8.82511 17.1545 8.94744 17.1153 9.05906C17.0759 9.17068 16.9535 9.22959 16.8419 9.19013C16.4611 9.05596 16.0919 9.09063 15.8295 9.28512C15.3021 9.67663 15.3142 10.5893 15.8562 11.3202C16.1254 11.6829 16.4823 11.9442 16.8608 12.0556C17.2179 12.1607 17.55 12.1181 17.796 11.9355C18.0446 11.7511 18.1833 11.4335 18.1819 11.0575L17.6094 10.286L16.8721 10.8331C16.7768 10.9039 16.6427 10.8839 16.5722 10.7889C16.5017 10.6939 16.5217 10.5597 16.6167 10.489L17.5263 9.81418C17.6213 9.74343 17.7555 9.76344 17.8259 9.85843L18.937 11.3557C19.0075 11.4507 18.9875 11.5848 18.8925 11.6556C18.8542 11.6841 18.8093 11.6976 18.7651 11.6976C18.6994 11.6976 18.6349 11.6677 18.5929 11.6111L18.5452 11.5468C18.459 11.8481 18.2902 12.1026 18.0514 12.2796C17.818 12.4527 17.5379 12.5412 17.2351 12.5412C17.075 12.5412 16.909 12.5167 16.7399 12.4668ZM20.5933 9.60757C20.1259 9.46974 19.6899 9.1532 19.3657 8.71631C18.6828 7.79575 18.7104 6.61389 19.4278 6.08173C19.8063 5.80071 20.3204 5.74434 20.8379 5.9267C20.9495 5.96588 21.0082 6.08821 20.9687 6.19983C20.9293 6.31145 20.8069 6.37008 20.6953 6.3309C20.3145 6.19673 19.9455 6.23112 19.6831 6.42589C19.1555 6.8174 19.1676 7.73007 19.7096 8.46095C19.9791 8.82342 20.3356 9.08471 20.7145 9.19633C21.0713 9.30146 21.4033 9.2589 21.6494 9.07626C21.9118 8.88149 22.0522 8.53846 22.0342 8.13483C22.0288 8.01673 22.1204 7.91638 22.2385 7.91131C22.3583 7.90511 22.457 7.99756 22.4623 8.11566C22.4868 8.66389 22.2836 9.13939 21.9051 9.42041C21.6714 9.59348 21.3912 9.68198 21.0885 9.68198C20.9287 9.68198 20.7624 9.65746 20.5933 9.60757ZM19.5569 10.896L17.3349 7.90173C17.2644 7.80646 17.2842 7.67229 17.3792 7.60182C17.4742 7.53108 17.6086 7.55109 17.6791 7.64608L19.901 10.6406C19.9715 10.7356 19.9515 10.8698 19.8565 10.9405C19.8181 10.969 19.7733 10.9825 19.7291 10.9825C19.6634 10.9825 19.5988 10.9526 19.5569 10.896ZM13.101 19.7998C12.1461 20.1569 11.5764 20.9137 11.8042 21.5228C11.9203 21.8334 12.2177 22.0457 12.6419 22.1206C12.7509 22.1401 12.8657 22.1497 12.984 22.1497C13.2811 22.1497 13.6013 22.0894 13.9134 21.9727C14.35 21.8095 14.7254 21.553 14.9703 21.2503C15.2412 20.9154 15.3263 20.56 15.2102 20.2496C14.9825 19.6402 14.056 19.4429 13.101 19.7998ZM14.8088 20.3996C14.8909 20.6192 14.7364 20.8579 14.6372 20.9805C14.4396 21.2246 14.1293 21.4343 13.7634 21.5713C13.3973 21.7083 13.0255 21.7534 12.7163 21.6987C12.5607 21.6711 12.2876 21.5924 12.2055 21.3729C12.0843 21.0487 12.484 20.4881 13.251 20.2012C13.5286 20.0974 13.7933 20.0523 14.0238 20.0523C14.4309 20.0523 14.7316 20.193 14.8088 20.3996ZM21.1838 16.7136C21.2788 16.7686 21.3816 16.7943 21.4899 16.7943C22.0931 16.7943 22.8645 16.0008 23.3953 15.0817C24.0213 13.9973 24.328 12.7112 23.7031 12.3504C23.0782 11.9893 22.1176 12.8983 21.4919 13.9827C21.1711 14.5379 20.9521 15.1115 20.8751 15.5972C20.7872 16.1516 20.8968 16.5482 21.1838 16.7136ZM21.2985 15.6643C21.3675 15.2291 21.568 14.7079 21.8628 14.1969C22.433 13.2095 23.0934 12.6996 23.3964 12.6996C23.4325 12.6996 23.4635 12.7069 23.4889 12.7216C23.7256 12.8583 23.6622 13.762 23.0241 14.8672C22.3859 15.9723 21.6348 16.4791 21.398 16.3427C21.3106 16.2923 21.232 16.0842 21.2985 15.6643Z"/>
</mask>
<path d="M0.0422254 18.8307C0.0842233 18.8874 0.14877 18.9173 0.214445 18.9173C0.258698 18.9173 0.303514 18.9037 0.341848 18.8753L25.2593 0.386382C25.3542 0.315916 25.374 0.181748 25.3035 0.0864781C25.233 -0.00851024 25.0989 -0.0282407 25.0039 0.0422254L21.8963 2.34787C21.4868 1.9465 20.2015 0.900502 18.267 1.30723C16.6579 1.64575 15.8512 3.00434 15.2621 3.99622C15.0149 4.41253 14.8012 4.77191 14.6132 4.90072C14.3359 5.0907 13.9503 5.24826 13.5421 5.41512C12.9347 5.66344 12.2461 5.94503 11.6494 6.42786C10.8571 7.06882 10.3667 8.27802 10.1775 8.81919C10.1344 8.78875 10.0921 8.75775 10.0507 8.72533C9.78967 8.52183 9.28965 7.95472 8.39134 6.40841C7.46401 4.81278 5.53182 4.12644 3.79638 4.77613C2.04008 5.43401 1.02171 7.30897 1.42759 9.13742C2.03586 11.8783 2.66582 13.7188 3.30002 14.6081C3.52382 14.9221 3.80399 15.2305 4.13321 15.5281L0.0864782 18.5308C-0.00851023 18.6016 -0.0282407 18.7357 0.0422254 18.8307ZM6.08963 9.16194C6.04735 9.06188 6.04764 8.95139 6.09076 8.85076C6.13445 8.74929 6.21535 8.67206 6.31851 8.63316C6.52089 8.55762 6.74384 8.65261 6.82699 8.84992C7.39551 10.2012 8.07537 11.2317 8.89926 11.9919L8.25013 12.4733C7.38678 11.6404 6.67845 10.5555 6.08963 9.16194ZM11.9192 6.76102C12.4668 6.31793 13.1244 6.04903 13.7045 5.8117C14.1343 5.6361 14.5402 5.47008 14.8553 5.25418C15.1214 5.07209 15.3461 4.69383 15.6305 4.21523C16.179 3.29156 16.9302 2.02655 18.3553 1.72665C20.0225 1.37601 21.1477 2.23118 21.5474 2.60691L12.0807 9.63125C11.6269 9.51512 11.0603 9.33078 10.5516 9.05145C10.6998 8.61146 11.1694 7.36759 11.9192 6.76102ZM3.64897 14.3595C3.05677 13.5291 2.43357 11.6911 1.84588 9.04469C1.48594 7.4234 2.38931 5.76097 3.94662 5.17751C5.4856 4.60138 7.19877 5.20936 8.02069 6.62375C8.7696 7.913 9.36406 8.73379 9.78742 9.06357C10.3413 9.49511 11.0465 9.77669 11.6446 9.95483L9.25018 11.7314C8.44518 11.0093 7.78054 10.0106 7.22217 8.68362C7.04938 8.27351 6.58656 8.07507 6.16799 8.23207C5.95462 8.3124 5.78719 8.47194 5.69728 8.68165C5.60765 8.89051 5.6068 9.12023 5.69502 9.32881C6.2954 10.7494 7.01866 11.8656 7.90118 12.7326L4.48441 15.2677C4.14984 14.9731 3.8691 14.6682 3.64897 14.3595ZM26.9578 7.30643C26.8873 7.21144 26.7531 7.19143 26.6582 7.26218L0.577769 26.6136C0.48278 26.6843 0.46305 26.8185 0.533516 26.9135C0.575514 26.9701 0.640061 27 0.705735 27C0.749988 27 0.794804 26.9865 0.833138 26.9577L4.95062 23.9029C5.07238 24.3403 5.32071 24.7597 5.67135 25.1104C6.19956 25.6383 6.86702 25.9134 7.4781 25.9134C7.93021 25.9134 8.3516 25.7629 8.66193 25.4523C9.39224 24.722 9.23891 23.3803 8.32003 22.4617C8.10525 22.2469 7.86144 22.0694 7.60212 21.9355L9.31135 20.6671C9.0929 21.2813 9.08388 21.898 9.29444 22.4611C9.60223 23.2839 10.3371 23.8854 11.3639 24.1546C11.745 24.2546 12.15 24.3043 12.5669 24.3043C13.2434 24.3043 13.9514 24.1735 14.64 23.9161C15.7528 23.5001 16.6863 22.8008 17.269 21.947C17.8674 21.0701 18.0275 20.1341 17.7199 19.3113C17.5114 18.7532 17.1055 18.2972 16.5454 17.977C16.6598 17.7949 16.7546 17.5964 16.8278 17.3839C17.1018 16.5874 17.0043 15.7576 16.6007 15.2581L19.0743 13.4229C18.1098 15.5958 18.4655 17.9026 19.9895 18.7822C20.3974 19.0179 20.8554 19.1354 21.3411 19.1354C21.4935 19.1354 21.6489 19.1225 21.8061 19.0991C21.7168 19.5142 21.7128 19.9283 21.7949 20.31C21.2782 20.2705 20.7176 20.3494 20.1716 20.5422C19.443 20.7998 18.8217 21.2319 18.4226 21.7585C18.0038 22.3118 17.875 22.9051 18.0604 23.4296C18.3206 24.1656 19.1603 24.5884 20.1682 24.5881C20.5981 24.5881 21.0583 24.5111 21.5172 24.3491C22.2458 24.0914 22.8671 23.6596 23.2659 23.1328C23.6056 22.6847 23.7544 22.21 23.7 21.7669C24.4864 21.6285 25.2294 20.9281 25.564 19.9768C25.9696 18.8245 25.6795 17.6399 24.9092 17.1317C25.118 16.8695 25.3108 16.5874 25.4842 16.2875C26.1328 15.164 26.4349 13.9271 26.3351 12.8045C26.2328 11.6539 25.7224 10.7581 24.8973 10.2818C24.5571 10.0853 24.1749 9.97033 23.7688 9.93961L26.9135 7.60605C27.0085 7.53559 27.0282 7.40142 26.9578 7.30643ZM8.01702 22.7647C8.76848 23.5164 8.92209 24.5861 8.35893 25.1493C7.79576 25.7122 6.72608 25.5588 5.97435 24.8071C5.63189 24.4643 5.4047 24.0486 5.32522 23.6247L7.21005 22.2261C7.50262 22.343 7.7797 22.5274 8.01702 22.7647ZM17.3183 19.4613C17.5759 20.1499 17.4327 20.947 16.9149 21.7055C16.3816 22.4868 15.5205 23.1294 14.4898 23.5147C13.4593 23.9001 12.3876 23.9801 11.4724 23.74C10.5843 23.5071 9.95344 22.9998 9.69581 22.3112C9.44185 21.6313 9.57884 20.8461 10.0803 20.0966L12.59 18.234C14.6673 17.4851 16.7844 18.0325 17.3183 19.4613ZM16.4225 17.2444C16.3549 17.4414 16.2658 17.6235 16.1573 17.7884C16.0025 17.7241 15.8396 17.6683 15.6677 17.6224C15.0025 17.4448 14.2626 17.4225 13.5131 17.5494L16.2554 15.5146C16.5744 15.8934 16.6489 16.5865 16.4225 17.2444ZM22.9246 22.8741C22.5753 23.3346 22.0249 23.7152 21.3743 23.9452C20.0622 24.4088 18.7569 24.1134 18.4646 23.287C18.3288 22.9025 18.4353 22.4518 18.7642 22.0175C19.1135 21.5566 19.664 21.1764 20.3145 20.9464C20.7238 20.8018 21.1395 20.7282 21.5313 20.7282C21.7624 20.7282 21.9851 20.7539 22.1934 20.8055C22.7222 20.9365 23.0883 21.2204 23.2242 21.6046C23.3601 21.9887 23.2535 22.4397 22.9246 22.8741ZM25.1598 19.8347C24.8689 20.6609 24.2355 21.2624 23.5839 21.3517C23.3739 20.8841 22.9218 20.5442 22.2963 20.3894C22.2828 20.3861 22.2692 20.3832 22.2557 20.3801C22.1311 19.9647 22.137 19.4728 22.2729 18.9984C22.4781 18.9395 22.6853 18.8626 22.893 18.7662C23.5241 18.473 24.1157 18.0252 24.6293 17.4612C25.2731 17.8411 25.5079 18.8451 25.1598 19.8347ZM24.6831 10.653C25.3836 11.0575 25.8185 11.8349 25.9081 12.8425C26.0003 13.8781 25.7178 15.0256 25.113 16.0733C24.5078 17.1212 23.6554 17.9395 22.7126 18.3775C21.7951 18.8037 20.9042 18.8158 20.2037 18.4113C18.7318 17.5615 18.539 15.1299 19.7742 12.9911C19.8043 12.9384 19.8365 12.8859 19.8686 12.8335L23.1667 10.3864C23.7231 10.3094 24.2465 10.401 24.6831 10.653ZM7.04093 20.2961C7.14494 20.3522 7.27516 20.3133 7.33097 20.209C7.38706 20.1048 7.34816 19.9748 7.24387 19.9187L3.61571 17.9677C3.5427 17.9285 3.45335 17.935 3.38655 17.9846C3.31975 18.0339 3.28762 18.1176 3.30425 18.1991L4.11996 22.2368C4.14054 22.3385 4.22989 22.4087 4.32967 22.4087C4.34376 22.4087 4.35814 22.4073 4.37251 22.4045C4.48836 22.3811 4.56334 22.2678 4.53994 22.1519L4.19635 20.45L5.51181 19.4739L7.04093 20.2961ZM4.10249 19.9858L3.8147 18.5613L5.09465 19.2496L4.10249 19.9858ZM7.8713 19.5667L5.64936 16.5722C5.5789 16.4772 5.59891 16.343 5.6939 16.2725C5.78888 16.2018 5.92305 16.2218 5.99352 16.3168L8.08777 19.1391L9.24455 18.2808C9.33954 18.2103 9.47398 18.2304 9.54445 18.3253C9.61492 18.4203 9.5949 18.5545 9.49992 18.625L8.17121 19.6109C8.134 19.6386 8.08918 19.6532 8.04352 19.6532C8.03309 19.6532 8.02238 19.6524 8.01195 19.651C7.95586 19.6425 7.90513 19.6123 7.8713 19.5667ZM10.0741 17.9321L7.85213 14.9379C7.78167 14.8429 7.8014 14.7085 7.89639 14.638C7.99138 14.5675 8.12582 14.5873 8.19629 14.6825L10.2905 17.5048L11.4473 16.6466C11.5423 16.5758 11.6765 16.5958 11.7469 16.6908C11.8174 16.7858 11.7977 16.9203 11.7027 16.9907L10.3737 17.9767C10.3368 18.0043 10.2917 18.019 10.246 18.019C10.2356 18.019 10.2252 18.0181 10.2147 18.0167C10.1584 18.0083 10.1079 17.9778 10.0741 17.9321ZM12.214 16.3444L9.99205 13.3499C9.92159 13.2549 9.94132 13.1207 10.0363 13.0503L11.3653 12.0643C11.4603 11.9936 11.5945 12.0136 11.6652 12.1086C11.7357 12.2035 11.7157 12.3377 11.6207 12.4085L10.4639 13.2667L11.3194 14.4196L12.4761 13.5616C12.5711 13.4908 12.7056 13.5108 12.776 13.6058C12.8465 13.7008 12.8265 13.835 12.7315 13.9054L11.5747 14.764L12.4305 15.9171L13.5872 15.0585C13.6822 14.9881 13.8164 15.0081 13.8869 15.1031C13.9576 15.1981 13.9376 15.3322 13.8426 15.4027L12.5136 16.3889C12.4767 16.4163 12.4319 16.4309 12.3859 16.4309C12.3755 16.4309 12.3651 16.4301 12.3546 16.4287C12.2983 16.4205 12.2478 16.3901 12.214 16.3444ZM16.1068 13.5751C16.1378 13.5909 16.1708 13.5982 16.2035 13.5982C16.2816 13.5982 16.3571 13.5554 16.3949 13.4809C16.4482 13.3752 16.4062 13.2464 16.3005 13.1929L14.7031 12.3839C15.0014 11.9885 15.0191 11.4281 14.7093 11.0104C14.3325 10.5028 13.6129 10.3962 13.1055 10.7728L12.3067 11.3656C12.2611 11.3994 12.2309 11.4501 12.2224 11.5062C12.2143 11.5626 12.2284 11.6198 12.2625 11.6655L14.4844 14.6597C14.5264 14.7164 14.591 14.7462 14.6566 14.7462C14.7009 14.7462 14.7457 14.7327 14.784 14.7042C14.879 14.6338 14.899 14.4993 14.8286 14.4043L13.8451 13.0793L14.3655 12.6931L16.1068 13.5751ZM13.5898 12.7351L12.7343 11.582L13.3609 11.1172C13.6786 10.8813 14.1293 10.9481 14.3652 11.2658C14.6008 11.5837 14.5343 12.0344 14.2164 12.2701L13.5898 12.7351ZM16.7399 12.4668C16.2726 12.3293 15.8365 12.0124 15.5121 11.5755C14.8291 10.655 14.857 9.47312 15.5741 8.94096C15.9529 8.65994 16.4668 8.60357 16.9843 8.78594C17.0962 8.82511 17.1545 8.94744 17.1153 9.05906C17.0759 9.17068 16.9535 9.22959 16.8419 9.19013C16.4611 9.05596 16.0919 9.09063 15.8295 9.28512C15.3021 9.67663 15.3142 10.5893 15.8562 11.3202C16.1254 11.6829 16.4823 11.9442 16.8608 12.0556C17.2179 12.1607 17.55 12.1181 17.796 11.9355C18.0446 11.7511 18.1833 11.4335 18.1819 11.0575L17.6094 10.286L16.8721 10.8331C16.7768 10.9039 16.6427 10.8839 16.5722 10.7889C16.5017 10.6939 16.5217 10.5597 16.6167 10.489L17.5263 9.81418C17.6213 9.74343 17.7555 9.76344 17.8259 9.85843L18.937 11.3557C19.0075 11.4507 18.9875 11.5848 18.8925 11.6556C18.8542 11.6841 18.8093 11.6976 18.7651 11.6976C18.6994 11.6976 18.6349 11.6677 18.5929 11.6111L18.5452 11.5468C18.459 11.8481 18.2902 12.1026 18.0514 12.2796C17.818 12.4527 17.5379 12.5412 17.2351 12.5412C17.075 12.5412 16.909 12.5167 16.7399 12.4668ZM20.5933 9.60757C20.1259 9.46974 19.6899 9.1532 19.3657 8.71631C18.6828 7.79575 18.7104 6.61389 19.4278 6.08173C19.8063 5.80071 20.3204 5.74434 20.8379 5.9267C20.9495 5.96588 21.0082 6.08821 20.9687 6.19983C20.9293 6.31145 20.8069 6.37008 20.6953 6.3309C20.3145 6.19673 19.9455 6.23112 19.6831 6.42589C19.1555 6.8174 19.1676 7.73007 19.7096 8.46095C19.9791 8.82342 20.3356 9.08471 20.7145 9.19633C21.0713 9.30146 21.4033 9.2589 21.6494 9.07626C21.9118 8.88149 22.0522 8.53846 22.0342 8.13483C22.0288 8.01673 22.1204 7.91638 22.2385 7.91131C22.3583 7.90511 22.457 7.99756 22.4623 8.11566C22.4868 8.66389 22.2836 9.13939 21.9051 9.42041C21.6714 9.59348 21.3912 9.68198 21.0885 9.68198C20.9287 9.68198 20.7624 9.65746 20.5933 9.60757ZM19.5569 10.896L17.3349 7.90173C17.2644 7.80646 17.2842 7.67229 17.3792 7.60182C17.4742 7.53108 17.6086 7.55109 17.6791 7.64608L19.901 10.6406C19.9715 10.7356 19.9515 10.8698 19.8565 10.9405C19.8181 10.969 19.7733 10.9825 19.7291 10.9825C19.6634 10.9825 19.5988 10.9526 19.5569 10.896ZM13.101 19.7998C12.1461 20.1569 11.5764 20.9137 11.8042 21.5228C11.9203 21.8334 12.2177 22.0457 12.6419 22.1206C12.7509 22.1401 12.8657 22.1497 12.984 22.1497C13.2811 22.1497 13.6013 22.0894 13.9134 21.9727C14.35 21.8095 14.7254 21.553 14.9703 21.2503C15.2412 20.9154 15.3263 20.56 15.2102 20.2496C14.9825 19.6402 14.056 19.4429 13.101 19.7998ZM14.8088 20.3996C14.8909 20.6192 14.7364 20.8579 14.6372 20.9805C14.4396 21.2246 14.1293 21.4343 13.7634 21.5713C13.3973 21.7083 13.0255 21.7534 12.7163 21.6987C12.5607 21.6711 12.2876 21.5924 12.2055 21.3729C12.0843 21.0487 12.484 20.4881 13.251 20.2012C13.5286 20.0974 13.7933 20.0523 14.0238 20.0523C14.4309 20.0523 14.7316 20.193 14.8088 20.3996ZM21.1838 16.7136C21.2788 16.7686 21.3816 16.7943 21.4899 16.7943C22.0931 16.7943 22.8645 16.0008 23.3953 15.0817C24.0213 13.9973 24.328 12.7112 23.7031 12.3504C23.0782 11.9893 22.1176 12.8983 21.4919 13.9827C21.1711 14.5379 20.9521 15.1115 20.8751 15.5972C20.7872 16.1516 20.8968 16.5482 21.1838 16.7136ZM21.2985 15.6643C21.3675 15.2291 21.568 14.7079 21.8628 14.1969C22.433 13.2095 23.0934 12.6996 23.3964 12.6996C23.4325 12.6996 23.4635 12.7069 23.4889 12.7216C23.7256 12.8583 23.6622 13.762 23.0241 14.8672C22.3859 15.9723 21.6348 16.4791 21.398 16.3427C21.3106 16.2923 21.232 16.0842 21.2985 15.6643Z" fill="#0D99FF" fill-opacity="0.3" stroke="#000957" stroke-width="0.6" mask="url(#path-1-inside-1_472_5165)"/>
</svg>
