<svg width="24" height="16" viewBox="0 0 24 16" fill="none" xmlns="http://www.w3.org/2000/svg">
<path d="M12 15.5C17.1748 15.5 21.5963 12.3964 23.4561 8C21.5963 3.60363 17.1748 0.5 12 0.5C6.82509 0.5 2.40259 3.60344 0.542969 8C2.40259 12.3966 6.82509 15.5 12 15.5ZM12 13.833C10.5229 13.833 9.10062 13.2956 8.00781 12.3281L7.79395 12.1289C6.67605 11.0359 6.0459 9.55077 6.0459 8C6.0459 6.54619 6.59954 5.15051 7.58984 4.08105L7.79395 3.87109C8.91143 2.77861 10.4245 2.16699 12 2.16699C13.4771 2.16699 14.8994 2.70443 15.9922 3.67188L16.2061 3.87109C17.3239 4.96415 17.9541 6.44923 17.9541 8C17.9541 9.45381 17.4005 10.8495 16.4102 11.9189L16.2061 12.1289C15.0886 13.2214 13.5755 13.833 12 13.833ZM12 10.7002C12.6467 10.7002 13.2685 10.4801 13.7617 10.085L13.9648 9.90527C14.4836 9.39802 14.7725 8.71237 14.7725 8C14.7725 7.37665 14.5513 6.77375 14.1484 6.29297L13.9648 6.09473C13.4457 5.5871 12.739 5.2998 12 5.2998C11.3533 5.2998 10.7315 5.51988 10.2383 5.91504L10.0352 6.09473C9.51643 6.60198 9.22754 7.28763 9.22754 8C9.22754 8.62335 9.44865 9.22625 9.85156 9.70703L10.0352 9.90527C10.5543 10.4129 11.261 10.7002 12 10.7002Z" fill="#0D99FF" fill-opacity="0.3" stroke="#000957"/>
</svg>
