<svg width="12" height="13" viewBox="0 0 12 13" fill="none" xmlns="http://www.w3.org/2000/svg">
<g clip-path="url(#clip0_1146_3902)">
<path d="M4.29362 4.16778L5.59262 1.55178C5.63043 1.47607 5.68859 1.41239 5.76056 1.36789C5.83254 1.32338 5.91549 1.2998 6.00012 1.2998C6.08474 1.2998 6.1677 1.32338 6.23967 1.36789C6.31165 1.41239 6.36981 1.47607 6.40762 1.55178L7.70662 4.16778L10.6106 4.58978C10.6944 4.60139 10.7732 4.63632 10.8381 4.69058C10.9029 4.74484 10.9512 4.81624 10.9774 4.89664C11.0037 4.97703 11.0068 5.06318 10.9864 5.14525C10.966 5.22732 10.9229 5.302 10.8621 5.36078L8.76112 7.39577L9.25712 10.2708C9.32062 10.6398 8.93062 10.9208 8.59712 10.7468L6.00012 9.38877L3.40262 10.7468C3.06962 10.9213 2.67962 10.6398 2.74312 10.2703L3.23912 7.39528L1.13812 5.36028C1.07761 5.30146 1.03482 5.22685 1.0146 5.14493C0.994384 5.06301 0.997555 4.97706 1.02375 4.89685C1.04995 4.81664 1.09813 4.74539 1.1628 4.69119C1.22748 4.637 1.30606 4.60203 1.38962 4.59028L4.29362 4.16778Z" fill="#FFEB00" stroke="#FFEB00" stroke-width="1.5" stroke-linecap="round" stroke-linejoin="round"/>
</g>
<defs>
<clipPath id="clip0_1146_3902">
<rect width="12" height="12" fill="white" transform="translate(0 0.0498047)"/>
</clipPath>
</defs>
</svg>
