<svg width="26" height="31" viewBox="0 0 26 31" fill="none" xmlns="http://www.w3.org/2000/svg">
<mask id="mask0_472_5157" style="mask-type:luminance" maskUnits="userSpaceOnUse" x="0" y="0" width="26" height="31">
<path d="M25.167 0.5V29.6201H0.5V0.5H25.167Z" fill="white" stroke="white"/>
</mask>
<g mask="url(#mask0_472_5157)">
<mask id="path-2-inside-1_472_5157" fill="white">
<path d="M16.9707 5.48454H14.8713V3.43718C14.8713 3.20155 14.6753 3.01042 14.4338 3.01042H11.2305C10.989 3.01042 10.793 3.20155 10.793 3.43718V5.48454H8.69395C8.45204 5.48454 8.25642 5.67567 8.25642 5.9113V9.03501C8.25642 9.27064 8.45204 9.46177 8.69395 9.46177H10.793V11.5088C10.793 11.7444 10.989 11.9356 11.2305 11.9356H14.4338C14.6753 11.9356 14.8713 11.7444 14.8713 11.5088V9.46177H16.9707C17.2123 9.46177 17.4082 9.27064 17.4082 9.03501V5.9113C17.4082 5.67567 17.2123 5.48454 16.9707 5.48454ZM16.5331 8.60825H14.4338C14.1922 8.60825 13.9962 8.79938 13.9962 9.03501V11.0821H11.6681V9.03501C11.6681 8.79938 11.4724 8.60825 11.2305 8.60825H9.13148V6.33806H11.2305C11.4724 6.33806 11.6681 6.14693 11.6681 5.9113V3.86394H13.9962V5.9113C13.9962 6.14693 14.1922 6.33806 14.4338 6.33806H16.5331V8.60825ZM24.9576 6.6691C24.5043 6.22697 23.8997 5.98366 23.255 5.98366C22.6107 5.98366 22.0061 6.22697 21.5528 6.6691L20.4936 7.7019C20.4959 7.62571 20.4975 7.54919 20.4975 7.473C20.4975 3.35106 17.059 -0.00219727 12.8323 -0.00219727C8.60566 -0.00219727 5.16676 3.35106 5.16676 7.473C5.16676 11.5949 8.60566 14.9485 12.8323 14.9485C12.9104 14.9485 12.9886 14.9469 13.0667 14.9443L8.90533 19.0029C8.73432 19.1694 8.73432 19.4396 8.90533 19.6064L9.1712 19.8657L0.132652 28.6801C-0.0383578 28.8469 -0.0383578 29.1171 0.132652 29.2836C0.685724 29.823 1.69406 30.116 2.77427 30.116C4.0058 30.1156 5.33088 29.7353 6.181 28.9061L9.21157 25.9508C9.36945 25.7968 9.37503 25.6524 9.41114 24.7121C9.42099 24.4573 9.43182 24.1765 9.4456 23.9944L11.4252 22.0639L11.691 22.3232C11.7731 22.4032 11.8844 22.448 12.0006 22.448C12.1164 22.448 12.2277 22.4032 12.3098 22.3232L24.9572 9.98938C25.4105 9.54725 25.66 8.95785 25.66 8.32908C25.66 7.7003 25.4105 7.11091 24.9576 6.6691ZM12.8323 14.095C9.08816 14.095 6.04183 11.1243 6.04183 7.473C6.04183 3.82168 9.08816 0.851324 12.8323 0.851324C16.5765 0.851324 19.6225 3.82168 19.6225 7.473C19.6225 7.87094 19.5857 8.26857 19.5138 8.65723L14.0464 13.989C13.648 14.0591 13.2403 14.095 12.8323 14.095ZM8.71627 23.4988C8.64898 23.5644 8.60533 23.6499 8.5922 23.7418C8.56561 23.9281 8.5515 24.2934 8.53673 24.6801C8.52721 24.9238 8.51408 25.2692 8.49865 25.4389L5.56228 28.3026C4.42824 29.4087 2.17918 29.4593 1.11505 28.9288L9.78992 20.4689L10.8065 21.4604L8.71627 23.4988ZM12.0006 21.4178L9.83358 19.3045L10.8642 18.2992L13.0312 20.4125L12.0006 21.4178ZM24.3385 9.38589L13.6503 19.8094L11.4833 17.696L22.1715 7.27226C22.4594 6.99181 22.8444 6.83718 23.255 6.83718C23.666 6.83718 24.0507 6.99181 24.3385 7.27226C24.6264 7.55303 24.7849 7.92825 24.7849 8.32908C24.7849 8.72991 24.6264 9.10512 24.3385 9.38589ZM23.4933 8.09665C23.6643 8.26345 23.6643 8.53365 23.4933 8.70013L19.1009 12.9837C19.0156 13.067 18.9036 13.1086 18.7917 13.1086C18.6795 13.1086 18.5675 13.067 18.4822 12.9837C18.3112 12.8169 18.3112 12.5467 18.4822 12.3803L22.8746 8.09665C23.0453 7.93017 23.3223 7.93017 23.4933 8.09665Z"/>
</mask>
<path d="M16.9707 5.48454H14.8713V3.43718C14.8713 3.20155 14.6753 3.01042 14.4338 3.01042H11.2305C10.989 3.01042 10.793 3.20155 10.793 3.43718V5.48454H8.69395C8.45204 5.48454 8.25642 5.67567 8.25642 5.9113V9.03501C8.25642 9.27064 8.45204 9.46177 8.69395 9.46177H10.793V11.5088C10.793 11.7444 10.989 11.9356 11.2305 11.9356H14.4338C14.6753 11.9356 14.8713 11.7444 14.8713 11.5088V9.46177H16.9707C17.2123 9.46177 17.4082 9.27064 17.4082 9.03501V5.9113C17.4082 5.67567 17.2123 5.48454 16.9707 5.48454ZM16.5331 8.60825H14.4338C14.1922 8.60825 13.9962 8.79938 13.9962 9.03501V11.0821H11.6681V9.03501C11.6681 8.79938 11.4724 8.60825 11.2305 8.60825H9.13148V6.33806H11.2305C11.4724 6.33806 11.6681 6.14693 11.6681 5.9113V3.86394H13.9962V5.9113C13.9962 6.14693 14.1922 6.33806 14.4338 6.33806H16.5331V8.60825ZM24.9576 6.6691C24.5043 6.22697 23.8997 5.98366 23.255 5.98366C22.6107 5.98366 22.0061 6.22697 21.5528 6.6691L20.4936 7.7019C20.4959 7.62571 20.4975 7.54919 20.4975 7.473C20.4975 3.35106 17.059 -0.00219727 12.8323 -0.00219727C8.60566 -0.00219727 5.16676 3.35106 5.16676 7.473C5.16676 11.5949 8.60566 14.9485 12.8323 14.9485C12.9104 14.9485 12.9886 14.9469 13.0667 14.9443L8.90533 19.0029C8.73432 19.1694 8.73432 19.4396 8.90533 19.6064L9.1712 19.8657L0.132652 28.6801C-0.0383578 28.8469 -0.0383578 29.1171 0.132652 29.2836C0.685724 29.823 1.69406 30.116 2.77427 30.116C4.0058 30.1156 5.33088 29.7353 6.181 28.9061L9.21157 25.9508C9.36945 25.7968 9.37503 25.6524 9.41114 24.7121C9.42099 24.4573 9.43182 24.1765 9.4456 23.9944L11.4252 22.0639L11.691 22.3232C11.7731 22.4032 11.8844 22.448 12.0006 22.448C12.1164 22.448 12.2277 22.4032 12.3098 22.3232L24.9572 9.98938C25.4105 9.54725 25.66 8.95785 25.66 8.32908C25.66 7.7003 25.4105 7.11091 24.9576 6.6691ZM12.8323 14.095C9.08816 14.095 6.04183 11.1243 6.04183 7.473C6.04183 3.82168 9.08816 0.851324 12.8323 0.851324C16.5765 0.851324 19.6225 3.82168 19.6225 7.473C19.6225 7.87094 19.5857 8.26857 19.5138 8.65723L14.0464 13.989C13.648 14.0591 13.2403 14.095 12.8323 14.095ZM8.71627 23.4988C8.64898 23.5644 8.60533 23.6499 8.5922 23.7418C8.56561 23.9281 8.5515 24.2934 8.53673 24.6801C8.52721 24.9238 8.51408 25.2692 8.49865 25.4389L5.56228 28.3026C4.42824 29.4087 2.17918 29.4593 1.11505 28.9288L9.78992 20.4689L10.8065 21.4604L8.71627 23.4988ZM12.0006 21.4178L9.83358 19.3045L10.8642 18.2992L13.0312 20.4125L12.0006 21.4178ZM24.3385 9.38589L13.6503 19.8094L11.4833 17.696L22.1715 7.27226C22.4594 6.99181 22.8444 6.83718 23.255 6.83718C23.666 6.83718 24.0507 6.99181 24.3385 7.27226C24.6264 7.55303 24.7849 7.92825 24.7849 8.32908C24.7849 8.72991 24.6264 9.10512 24.3385 9.38589ZM23.4933 8.09665C23.6643 8.26345 23.6643 8.53365 23.4933 8.70013L19.1009 12.9837C19.0156 13.067 18.9036 13.1086 18.7917 13.1086C18.6795 13.1086 18.5675 13.067 18.4822 12.9837C18.3112 12.8169 18.3112 12.5467 18.4822 12.3803L22.8746 8.09665C23.0453 7.93017 23.3223 7.93017 23.4933 8.09665Z" fill="#0D99FF" fill-opacity="0.3"/>
<path d="M14.8713 5.48454H13.8713V6.48454H14.8713V5.48454ZM10.793 5.48454V6.48454H11.793V5.48454H10.793ZM10.793 9.46177H11.793V8.46177H10.793V9.46177ZM14.8713 9.46177V8.46177H13.8713V9.46177H14.8713ZM16.5331 8.60825V9.60825H17.5331V8.60825H16.5331ZM13.9962 11.0821V12.0821H14.9962V11.0821H13.9962ZM11.6681 11.0821H10.6681V12.0821H11.6681V11.0821ZM9.13148 8.60825H8.13148V9.60825H9.13148V8.60825ZM9.13148 6.33806V5.33806H8.13148V6.33806H9.13148ZM11.6681 3.86394V2.86394H10.6681V3.86394H11.6681ZM13.9962 3.86394H14.9962V2.86394H13.9962V3.86394ZM16.5331 6.33806H17.5331V5.33806H16.5331V6.33806ZM21.5528 6.6691L22.2509 7.38507L22.251 7.38496L21.5528 6.6691ZM20.4936 7.7019L19.494 7.67176L19.4194 10.146L21.1917 8.41788L20.4936 7.7019ZM13.0667 14.9443L13.7649 15.6602L15.6103 13.8604L13.0339 13.9449L13.0667 14.9443ZM8.90533 19.0029L9.60288 19.7194L9.60354 19.7188L8.90533 19.0029ZM8.90533 19.6064L9.60357 18.8905H9.60357L8.90533 19.6064ZM9.1712 19.8657L9.86937 20.5816L10.6034 19.8658L9.86944 19.1498L9.1712 19.8657ZM0.132652 28.6801L-0.565522 27.9642L-0.565587 27.9642L0.132652 28.6801ZM0.132652 29.2836L0.83089 28.5677L0.830202 28.567L0.132652 29.2836ZM2.77427 30.116V31.116L2.77453 31.116L2.77427 30.116ZM6.181 28.9061L5.48284 28.1902L5.48276 28.1902L6.181 28.9061ZM9.21157 25.9508L9.90973 26.6667L9.90981 26.6667L9.21157 25.9508ZM9.41114 24.7121L8.41189 24.6735L8.41188 24.6738L9.41114 24.7121ZM9.4456 23.9944L8.74743 23.2784L8.47696 23.5422L8.44845 23.9189L9.4456 23.9944ZM11.4252 22.0639L12.1234 21.348L11.4252 20.667L10.727 21.3479L11.4252 22.0639ZM11.691 22.3232L10.9928 23.039V23.039L11.691 22.3232ZM12.3098 22.3232L11.6116 21.6072L11.6115 21.6073L12.3098 22.3232ZM24.9572 9.98938L25.6554 10.7053L25.6555 10.7052L24.9572 9.98938ZM19.5138 8.65723L20.212 9.37316L20.4394 9.15141L20.4971 8.8391L19.5138 8.65723ZM14.0464 13.989L14.2197 14.9739L14.5237 14.9204L14.7446 14.7049L14.0464 13.989ZM8.71627 23.4988L8.01809 22.7828L8.01803 22.7829L8.71627 23.4988ZM8.5922 23.7418L7.60225 23.6003L7.60223 23.6005L8.5922 23.7418ZM8.53673 24.6801L9.53596 24.7192L9.536 24.7183L8.53673 24.6801ZM8.49865 25.4389L9.19685 26.1548L9.46112 25.897L9.49454 25.5294L8.49865 25.4389ZM5.56228 28.3026L4.86408 27.5867L4.86404 27.5868L5.56228 28.3026ZM1.11505 28.9288L0.416869 28.2129L-0.590925 29.1957L0.6689 29.8238L1.11505 28.9288ZM9.78992 20.4689L10.4882 19.753L9.78997 19.072L9.09174 19.7529L9.78992 20.4689ZM10.8065 21.4604L11.5046 22.1763L12.2387 21.4604L11.5047 20.7445L10.8065 21.4604ZM12.0006 21.4178L11.3024 22.1337L12.0006 22.8146L12.6988 22.1337L12.0006 21.4178ZM9.83358 19.3045L9.13534 18.5886L8.40134 19.3045L9.13539 20.0204L9.83358 19.3045ZM10.8642 18.2992L11.5624 17.5833L10.8642 16.9023L10.166 17.5833L10.8642 18.2992ZM13.0312 20.4125L13.7295 21.1284L14.4635 20.4125L13.7294 19.6966L13.0312 20.4125ZM24.3385 9.38589L25.0367 10.1018L25.0368 10.1018L24.3385 9.38589ZM13.6503 19.8094L12.9521 20.5253L13.6503 21.2062L14.3485 20.5253L13.6503 19.8094ZM11.4833 17.696L10.7851 16.9801L10.051 17.696L10.7851 18.412L11.4833 17.696ZM22.1715 7.27226L21.4737 6.556L21.4733 6.55635L22.1715 7.27226ZM24.3385 7.27226L25.0368 6.5564L25.0363 6.556L24.3385 7.27226ZM23.4933 8.09665L24.1916 7.38078L24.1909 7.38011L23.4933 8.09665ZM23.4933 8.70013L22.7958 7.9836L22.7951 7.98421L23.4933 8.70013ZM19.1009 12.9837L18.4027 12.2678L18.4027 12.2679L19.1009 12.9837ZM18.4822 12.9837L19.1804 12.2679L18.4822 12.9837ZM18.4822 12.3803L19.1797 13.0968L19.1804 13.0962L18.4822 12.3803ZM22.8746 8.09665L23.5728 8.81257L23.5728 8.81251L22.8746 8.09665ZM16.9707 5.48454V4.48454H14.8713V5.48454V6.48454H16.9707V5.48454ZM14.8713 5.48454H15.8713V3.43718H14.8713H13.8713V5.48454H14.8713ZM14.8713 3.43718H15.8713C15.8713 2.62591 15.204 2.01042 14.4338 2.01042V3.01042V4.01042C14.1467 4.01042 13.8713 3.77719 13.8713 3.43718H14.8713ZM14.4338 3.01042V2.01042H11.2305V3.01042V4.01042H14.4338V3.01042ZM11.2305 3.01042V2.01042C10.4603 2.01042 9.793 2.62591 9.793 3.43718H10.793H11.793C11.793 3.77719 11.5176 4.01042 11.2305 4.01042V3.01042ZM10.793 3.43718H9.793V5.48454H10.793H11.793V3.43718H10.793ZM10.793 5.48454V4.48454H8.69395V5.48454V6.48454H10.793V5.48454ZM8.69395 5.48454V4.48454C7.92291 4.48454 7.25642 5.10051 7.25642 5.9113H8.25642H9.25642C9.25642 6.25083 8.98117 6.48454 8.69395 6.48454V5.48454ZM8.25642 5.9113H7.25642V9.03501H8.25642H9.25642V5.9113H8.25642ZM8.25642 9.03501H7.25642C7.25642 9.8458 7.92291 10.4618 8.69395 10.4618V9.46177V8.46177C8.98117 8.46177 9.25642 8.69548 9.25642 9.03501H8.25642ZM8.69395 9.46177V10.4618H10.793V9.46177V8.46177H8.69395V9.46177ZM10.793 9.46177H9.793V11.5088H10.793H11.793V9.46177H10.793ZM10.793 11.5088H9.793C9.793 12.3201 10.4603 12.9356 11.2305 12.9356V11.9356V10.9356C11.5176 10.9356 11.793 11.1688 11.793 11.5088H10.793ZM11.2305 11.9356V12.9356H14.4338V11.9356V10.9356H11.2305V11.9356ZM14.4338 11.9356V12.9356C15.204 12.9356 15.8713 12.3201 15.8713 11.5088H14.8713H13.8713C13.8713 11.1688 14.1467 10.9356 14.4338 10.9356V11.9356ZM14.8713 11.5088H15.8713V9.46177H14.8713H13.8713V11.5088H14.8713ZM14.8713 9.46177V10.4618H16.9707V9.46177V8.46177H14.8713V9.46177ZM16.9707 9.46177V10.4618C17.7409 10.4618 18.4082 9.84628 18.4082 9.03501H17.4082H16.4082C16.4082 8.695 16.6836 8.46177 16.9707 8.46177V9.46177ZM17.4082 9.03501H18.4082V5.9113H17.4082H16.4082V9.03501H17.4082ZM17.4082 5.9113H18.4082C18.4082 5.10003 17.7409 4.48454 16.9707 4.48454V5.48454V6.48454C16.6836 6.48454 16.4082 6.25131 16.4082 5.9113H17.4082ZM16.5331 8.60825V7.60825H14.4338V8.60825V9.60825H16.5331V8.60825ZM14.4338 8.60825V7.60825C13.6635 7.60825 12.9962 8.22374 12.9962 9.03501H13.9962H14.9962C14.9962 9.37502 14.7208 9.60825 14.4338 9.60825V8.60825ZM13.9962 9.03501H12.9962V11.0821H13.9962H14.9962V9.03501H13.9962ZM13.9962 11.0821V10.0821H11.6681V11.0821V12.0821H13.9962V11.0821ZM11.6681 11.0821H12.6681V9.03501H11.6681H10.6681V11.0821H11.6681ZM11.6681 9.03501H12.6681C12.6681 8.22422 12.0016 7.60825 11.2305 7.60825V8.60825V9.60825C10.9433 9.60825 10.6681 9.37454 10.6681 9.03501H11.6681ZM11.2305 8.60825V7.60825H9.13148V8.60825V9.60825H11.2305V8.60825ZM9.13148 8.60825H10.1315V6.33806H9.13148H8.13148V8.60825H9.13148ZM9.13148 6.33806V7.33806H11.2305V6.33806V5.33806H9.13148V6.33806ZM11.2305 6.33806V7.33806C12.0016 7.33806 12.6681 6.72209 12.6681 5.9113H11.6681H10.6681C10.6681 5.57177 10.9433 5.33806 11.2305 5.33806V6.33806ZM11.6681 5.9113H12.6681V3.86394H11.6681H10.6681V5.9113H11.6681ZM11.6681 3.86394V4.86394H13.9962V3.86394V2.86394H11.6681V3.86394ZM13.9962 3.86394H12.9962V5.9113H13.9962H14.9962V3.86394H13.9962ZM13.9962 5.9113H12.9962C12.9962 6.72257 13.6635 7.33806 14.4338 7.33806V6.33806V5.33806C14.7208 5.33806 14.9962 5.57129 14.9962 5.9113H13.9962ZM14.4338 6.33806V7.33806H16.5331V6.33806V5.33806H14.4338V6.33806ZM16.5331 6.33806H15.5331V8.60825H16.5331H17.5331V6.33806H16.5331ZM24.9576 6.6691L25.6558 5.95323C25.0119 5.32517 24.1551 4.98366 23.255 4.98366V5.98366V6.98366C23.6442 6.98366 23.9967 7.12877 24.2593 7.38496L24.9576 6.6691ZM23.255 5.98366V4.98366C22.3552 4.98366 21.4984 5.32522 20.8546 5.95323L21.5528 6.6691L22.251 7.38496C22.5138 7.12872 22.8662 6.98366 23.255 6.98366V5.98366ZM21.5528 6.6691L20.8547 5.95312L19.7955 6.98593L20.4936 7.7019L21.1917 8.41788L22.2509 7.38507L21.5528 6.6691ZM20.4936 7.7019L21.4931 7.73204C21.4956 7.65051 21.4975 7.56305 21.4975 7.473H20.4975H19.4975C19.4975 7.53533 19.4962 7.6009 19.494 7.67176L20.4936 7.7019ZM20.4975 7.473H21.4975C21.4975 2.77525 17.5874 -1.0022 12.8323 -1.0022V-0.00219727V0.997803C16.5305 0.997803 19.4975 3.92687 19.4975 7.473H20.4975ZM12.8323 -0.00219727V-1.0022C8.07725 -1.0022 4.16676 2.7752 4.16676 7.473H5.16676H6.16676C6.16676 3.92692 9.13406 0.997803 12.8323 0.997803V-0.00219727ZM5.16676 7.473H4.16676C4.16676 12.1707 8.07719 15.9485 12.8323 15.9485V14.9485V13.9485C9.13412 13.9485 6.16676 11.0191 6.16676 7.473H5.16676ZM12.8323 14.9485V15.9485C12.9239 15.9485 13.0133 15.9466 13.0994 15.9438L13.0667 14.9443L13.0339 13.9449C12.9638 13.9472 12.8969 13.9485 12.8323 13.9485V14.9485ZM13.0667 14.9443L12.3685 14.2285L8.20712 18.287L8.90533 19.0029L9.60354 19.7188L13.7649 15.6602L13.0667 14.9443ZM8.90533 19.0029L8.20778 18.2864C7.63312 18.8458 7.63412 19.7634 8.2071 20.3222L8.90533 19.6064L9.60357 18.8905C9.83452 19.1158 9.83553 19.4929 9.60288 19.7194L8.90533 19.0029ZM8.90533 19.6064L8.20709 20.3222L8.47296 20.5816L9.1712 19.8657L9.86944 19.1498L9.60357 18.8905L8.90533 19.6064ZM9.1712 19.8657L8.47303 19.1498L-0.565522 27.9642L0.132652 28.6801L0.830825 29.396L9.86937 20.5816L9.1712 19.8657ZM0.132652 28.6801L-0.565587 27.9642C-1.13856 28.5231 -1.13956 29.4407 -0.564899 30.0001L0.132652 29.2836L0.830202 28.567C1.06285 28.7935 1.06184 29.1707 0.83089 29.3959L0.132652 28.6801ZM0.132652 29.2836L-0.565587 29.9994C0.25454 30.7994 1.57231 31.116 2.77427 31.116V30.116V29.116C1.8158 29.116 1.11691 28.8467 0.83089 28.5677L0.132652 29.2836ZM2.77427 30.116L2.77453 31.116C4.17024 31.1156 5.78309 30.6911 6.87924 29.622L6.181 28.9061L5.48276 28.1902C4.87866 28.7795 3.84136 29.1157 2.77401 29.116L2.77427 30.116ZM6.181 28.9061L6.87916 29.622L9.90973 26.6667L9.21157 25.9508L8.51341 25.2349L5.48284 28.1902L6.181 28.9061ZM9.21157 25.9508L9.90981 26.6667C10.0105 26.5685 10.123 26.4347 10.2104 26.2476C10.2905 26.0759 10.3261 25.9088 10.3462 25.773C10.382 25.5314 10.3936 25.1876 10.4104 24.7505L9.41114 24.7121L8.41188 24.6738C8.40273 24.9119 8.39594 25.088 8.38841 25.2263C8.38068 25.3682 8.37356 25.4411 8.36784 25.4796C8.36234 25.5167 8.36461 25.4734 8.39817 25.4015C8.43896 25.3141 8.49159 25.2561 8.51334 25.2349L9.21157 25.9508ZM9.41114 24.7121L10.4104 24.7507C10.4206 24.4876 10.4307 24.2291 10.4428 24.0698L9.4456 23.9944L8.44845 23.9189C8.43293 24.124 8.42141 24.427 8.41189 24.6735L9.41114 24.7121ZM9.4456 23.9944L10.1438 24.7103L12.1234 22.7798L11.4252 22.0639L10.727 21.3479L8.74743 23.2784L9.4456 23.9944ZM11.4252 22.0639L10.7269 22.7797L10.9928 23.039L11.691 22.3232L12.3893 21.6073L12.1234 21.348L11.4252 22.0639ZM11.691 22.3232L10.9928 23.039C11.2649 23.3044 11.6281 23.448 12.0006 23.448V22.448V21.448C12.1407 21.448 12.2813 21.502 12.3893 21.6073L11.691 22.3232ZM12.0006 22.448V23.448C12.3731 23.448 12.7362 23.3042 13.008 23.039L12.3098 22.3232L11.6115 21.6073C11.7192 21.5023 11.8597 21.448 12.0006 21.448V22.448ZM12.3098 22.3232L13.0079 23.0391L25.6554 10.7053L24.9572 9.98938L24.2591 9.27345L11.6116 21.6072L12.3098 22.3232ZM24.9572 9.98938L25.6555 10.7052C26.3002 10.0764 26.66 9.2295 26.66 8.32908H25.66H24.66C24.66 8.6862 24.5209 9.01811 24.259 9.27351L24.9572 9.98938ZM25.66 8.32908H26.66C26.66 7.42875 26.3003 6.58183 25.6558 5.95323L24.9576 6.6691L24.2593 7.38496C24.5208 7.63998 24.66 7.97185 24.66 8.32908H25.66ZM12.8323 14.095V13.095C9.6166 13.095 7.04183 10.5485 7.04183 7.473H6.04183H5.04183C5.04183 11.7001 8.55971 15.095 12.8323 15.095V14.095ZM6.04183 7.473H7.04183C7.04183 4.39757 9.61654 1.85132 12.8323 1.85132V0.851324V-0.148676C8.55978 -0.148676 5.04183 3.24579 5.04183 7.473H6.04183ZM12.8323 0.851324V1.85132C16.048 1.85132 18.6225 4.39751 18.6225 7.473H19.6225H20.6225C20.6225 3.24585 17.1049 -0.148676 12.8323 -0.148676V0.851324ZM19.6225 7.473H18.6225C18.6225 7.80964 18.5913 8.1464 18.5305 8.47537L19.5138 8.65723L20.4971 8.8391C20.5801 8.39074 20.6225 7.93224 20.6225 7.473H19.6225ZM19.5138 8.65723L18.8156 7.9413L13.3483 13.2731L14.0464 13.989L14.7446 14.7049L20.212 9.37316L19.5138 8.65723ZM14.0464 13.989L13.8732 13.0041C13.5317 13.0642 13.182 13.095 12.8323 13.095V14.095V15.095C13.2986 15.095 13.7642 15.054 14.2197 14.9739L14.0464 13.989ZM8.71627 23.4988L8.01803 22.7829C7.79505 23.0004 7.64703 23.2869 7.60225 23.6003L8.5922 23.7418L9.58214 23.8832C9.56362 24.0128 9.50292 24.1284 9.41451 24.2146L8.71627 23.4988ZM8.5922 23.7418L7.60223 23.6005C7.5663 23.8523 7.55102 24.2868 7.53746 24.642L8.53673 24.6801L9.536 24.7183C9.55198 24.2999 9.56493 24.0039 9.58217 23.883L8.5922 23.7418ZM8.53673 24.6801L7.53749 24.6411C7.52733 24.9011 7.51519 25.2116 7.50276 25.3483L8.49865 25.4389L9.49454 25.5294C9.51296 25.3268 9.52708 24.9465 9.53596 24.7192L8.53673 24.6801ZM8.49865 25.4389L7.80045 24.723L4.86408 27.5867L5.56228 28.3026L6.26048 29.0185L9.19685 26.1548L8.49865 25.4389ZM5.56228 28.3026L4.86404 27.5868C4.51647 27.9258 3.91954 28.163 3.21189 28.2345C2.49951 28.3065 1.87498 28.1903 1.56121 28.0339L1.11505 28.9288L0.6689 29.8238C1.41925 30.1979 2.45132 30.3216 3.41301 30.2244C4.37943 30.1267 5.47404 29.7856 6.26052 29.0185L5.56228 28.3026ZM1.11505 28.9288L1.81324 29.6448L10.4881 21.1848L9.78992 20.4689L9.09174 19.7529L0.416869 28.2129L1.11505 28.9288ZM9.78992 20.4689L9.09168 21.1847L10.1082 22.1762L10.8065 21.4604L11.5047 20.7445L10.4882 19.753L9.78992 20.4689ZM10.8065 21.4604L10.1083 20.7444L8.01809 22.7828L8.71627 23.4988L9.41445 24.2147L11.5046 22.1763L10.8065 21.4604ZM12.0006 21.4178L12.6988 20.7019L10.5318 18.5886L9.83358 19.3045L9.13539 20.0204L11.3024 22.1337L12.0006 21.4178ZM9.83358 19.3045L10.5318 20.0203L11.5625 19.0151L10.8642 18.2992L10.166 17.5833L9.13534 18.5886L9.83358 19.3045ZM10.8642 18.2992L10.166 19.0151L12.333 21.1284L13.0312 20.4125L13.7294 19.6966L11.5624 17.5833L10.8642 18.2992ZM13.0312 20.4125L12.333 19.6966L11.3023 20.7019L12.0006 21.4178L12.6988 22.1337L13.7295 21.1284L13.0312 20.4125ZM24.3385 9.38589L23.6403 8.66997L12.9521 19.0934L13.6503 19.8094L14.3485 20.5253L25.0367 10.1018L24.3385 9.38589ZM13.6503 19.8094L14.3485 19.0934L12.1815 16.9801L11.4833 17.696L10.7851 18.412L12.9521 20.5253L13.6503 19.8094ZM11.4833 17.696L12.1815 18.4119L22.8697 7.98817L22.1715 7.27226L21.4733 6.55635L10.7851 16.9801L11.4833 17.696ZM22.1715 7.27226L22.8694 7.98852C22.9661 7.89431 23.0989 7.83718 23.255 7.83718V6.83718V5.83718C22.5899 5.83718 21.9527 6.0893 21.4737 6.556L22.1715 7.27226ZM23.255 6.83718V7.83718C23.4114 7.83718 23.5439 7.89424 23.6407 7.98852L24.3385 7.27226L25.0363 6.556C24.5574 6.08938 23.9205 5.83718 23.255 5.83718V6.83718ZM24.3385 7.27226L23.6403 7.98813C23.736 8.08146 23.7849 8.19889 23.7849 8.32908H24.7849H25.7849C25.7849 7.65761 25.5168 7.0246 25.0368 6.5564L24.3385 7.27226ZM24.7849 8.32908H23.7849C23.7849 8.45927 23.736 8.57669 23.6403 8.67003L24.3385 9.38589L25.0368 10.1018C25.5168 9.63355 25.7849 9.00054 25.7849 8.32908H24.7849ZM23.4933 8.09665L22.7951 8.81251C22.5641 8.58725 22.5631 8.21008 22.7958 7.9836L23.4933 8.70013L24.1909 9.41667C24.7655 8.85723 24.7645 7.93965 24.1916 7.38078L23.4933 8.09665ZM23.4933 8.70013L22.7951 7.98421L18.4027 12.2678L19.1009 12.9837L19.7991 13.6997L24.1915 9.41605L23.4933 8.70013ZM19.1009 12.9837L18.4027 12.2679C18.5143 12.159 18.6573 12.1086 18.7917 12.1086V13.1086V14.1086C19.15 14.1086 19.5169 13.9749 19.7991 13.6996L19.1009 12.9837ZM18.7917 13.1086V12.1086C18.9254 12.1086 19.0685 12.1588 19.1804 12.2679L18.4822 12.9837L17.7839 13.6996C18.0665 13.9752 18.4335 14.1086 18.7917 14.1086V13.1086ZM18.4822 12.9837L19.1804 12.2679C19.4114 12.4931 19.4124 12.8703 19.1797 13.0968L18.4822 12.3803L17.7846 11.6637C17.21 12.2232 17.211 13.1407 17.7839 13.6996L18.4822 12.9837ZM18.4822 12.3803L19.1804 13.0962L23.5728 8.81257L22.8746 8.09665L22.1764 7.38073L17.784 11.6643L18.4822 12.3803ZM22.8746 8.09665L23.5728 8.81251C23.3547 9.02524 23.0126 9.02429 22.7958 8.81318L23.4933 8.09665L24.1909 7.38011C23.632 6.83605 22.7358 6.83509 22.1764 7.38078L22.8746 8.09665Z" fill="#000957" mask="url(#path-2-inside-1_472_5157)"/>
</g>
</svg>
