<svg width="24" height="24" viewBox="0 0 24 24" fill="none" xmlns="http://www.w3.org/2000/svg">
<path d="M12.0723 14.75C12.0874 14.75 12.1017 14.7507 12.1152 14.7529V14.7539L19.3926 16.0332H19.3936L19.4248 16.0391C20.6807 16.3293 21.8728 17.0881 22.1084 18.4453L22.1123 18.4697V18.4688L22.2217 19.3047V19.3125L22.2266 19.3447C22.4443 21.0013 21.1479 22.2462 19.5176 22.249C19.498 22.2485 19.4784 22.2479 19.459 22.2451L19.4238 22.2402H4.48828C2.90631 22.2402 1.63648 21.0693 1.75781 19.4873L1.77344 19.333L1.8877 18.4639L1.89062 18.4512L1.88965 18.4502C2.12174 17.1124 3.33703 16.3088 4.58008 16.0391L4.5791 16.0381L4.59766 16.0342L11.875 14.7549L11.9375 14.75H12.0723ZM12 1.75C13.3054 1.75001 14.5604 2.23638 15.5234 3.1084L15.7119 3.28809C16.6965 4.27265 17.25 5.60762 17.25 7C17.25 8.39238 16.6965 9.72735 15.7119 10.7119C14.7274 11.6965 13.3924 12.25 12 12.25C10.6076 12.25 9.27265 11.6965 8.28809 10.7119C7.30352 9.72735 6.75 8.39239 6.75 7C6.75 5.69463 7.23637 4.43963 8.1084 3.47656L8.28809 3.28809C9.27265 2.30353 10.6076 1.75 12 1.75Z" fill="#0D99FF" fill-opacity="0.3" stroke="#000957"/>
</svg>
