<svg width="60" height="41" viewBox="0 0 60 41" fill="none" xmlns="http://www.w3.org/2000/svg">
<mask id="mask0_1220_8832" style="mask-type:luminance" maskUnits="userSpaceOnUse" x="0" y="0" width="60" height="41">
<path d="M0 0.208008H60V40.1704H0V0.208008Z" fill="white"/>
</mask>
<g mask="url(#mask0_1220_8832)">
<path d="M55.8556 10.9426C54.2687 10.5983 52.7244 11.0701 51.4906 12.2189C48.5312 10.1795 46.2325 10.1558 43.8069 10.137C42.9237 10.1295 42.0112 10.122 41.0394 10.012C40.5337 9.80701 39.9813 9.52701 39.3988 9.21826C39.4787 8.92514 39.5125 8.62764 39.5 8.32389C39.4931 8.15139 39.4269 8.00514 39.3013 7.88639C39.1575 7.75014 35.7206 4.55827 30.3519 5.53515C30.3125 5.54202 30.275 5.5539 30.2362 5.5614L29.6931 4.26202C29.6106 4.0664 29.5194 3.87515 29.4187 3.6889C29.3181 3.50203 29.2081 3.32078 29.09 3.14515C28.9712 2.96953 28.8444 2.80015 28.7094 2.6364C28.5744 2.47328 28.4312 2.31703 28.2806 2.16765C28.1306 2.01828 27.9731 1.8764 27.8088 1.74265C27.6444 1.6089 27.4737 1.48328 27.2969 1.36578C27.12 1.2489 26.9381 1.14078 26.7506 1.0414C26.5637 0.94203 26.3719 0.85203 26.1756 0.771405C25.9794 0.690781 25.78 0.620156 25.5769 0.558906C25.3737 0.498281 25.1681 0.447031 24.96 0.406406C24.7519 0.365781 24.5425 0.335156 24.3319 0.315156C24.1206 0.294531 23.9087 0.285156 23.6969 0.285156C23.485 0.285781 23.2738 0.297031 23.0625 0.318281C22.8512 0.339531 22.6419 0.370781 22.4344 0.412656C22.2262 0.454531 22.0212 0.506406 21.8181 0.568281C21.6156 0.630155 21.4163 0.70203 21.2206 0.78328L17.8475 2.19265C17.5238 2.32828 17.3181 2.59328 17.2213 2.94953C13.055 4.47702 11.3187 6.2314 8.75313 8.83452C8.185 9.41139 7.59687 10.0083 6.92312 10.6626C4.37313 13.142 1.9075 13.5158 0.655625 13.5158C0.65 13.5158 0.645625 13.5158 0.639375 13.5158C0.55625 13.5183 0.47625 13.5358 0.4 13.5689C0.32375 13.6026 0.25625 13.6489 0.198125 13.7083C0.14 13.7676 0.095625 13.8364 0.06375 13.9133C0.0325 13.9901 0.0168749 14.0708 0.0168749 14.1539C0.01625 14.237 0.0318749 14.317 0.063125 14.3945C0.0943751 14.4714 0.139375 14.5401 0.1975 14.5995C0.255625 14.6595 0.3225 14.7058 0.39875 14.7395C0.475 14.7726 0.555 14.7908 0.638125 14.7926H0.655625C2.10312 14.7926 4.94062 14.372 7.81437 11.5783C8.49687 10.9145 9.09 10.3126 9.66313 9.73076C12.1094 7.24889 13.6587 5.68015 17.2838 4.28827C17.3438 4.51827 17.4194 4.74265 17.51 4.96202C17.6181 5.2239 17.7469 5.47452 17.8962 5.71515C14.1681 7.39514 11.7312 9.81201 9.7475 11.7833C9.43875 12.0895 9.14125 12.3851 8.85063 12.6658C5.59437 15.8126 2.30875 16.2858 0.639375 16.2883H0.63875C0.596875 16.2883 0.555 16.2926 0.51375 16.3008C0.4725 16.3089 0.433125 16.3214 0.394375 16.337C0.355625 16.3533 0.31875 16.3726 0.28375 16.3964C0.24875 16.4195 0.216875 16.4458 0.186875 16.4757C0.1575 16.5051 0.130625 16.5376 0.1075 16.5726C0.0843751 16.6076 0.065 16.6445 0.04875 16.6833C0.0325 16.722 0.020625 16.762 0.0125 16.8026C0.004375 16.8439 0 16.8857 0 16.9276C0 16.9695 0.004375 17.0107 0.0125 17.052C0.020625 17.0933 0.033125 17.1332 0.04875 17.172C0.065 17.2107 0.085 17.2476 0.108125 17.282C0.13125 17.317 0.158125 17.3495 0.1875 17.3789C0.2175 17.4089 0.249375 17.4351 0.284375 17.4582C0.319375 17.4814 0.35625 17.5014 0.395 17.517C0.43375 17.5332 0.47375 17.5451 0.515 17.5532C0.555625 17.562 0.5975 17.5657 0.639375 17.5657H0.64C2.50187 17.5632 6.15937 17.0439 9.73875 13.5845C10.0331 13.3001 10.335 13.0008 10.6475 12.6901C12.6419 10.7089 15.1131 8.26077 18.9081 6.67077C19.0375 6.72514 19.1725 6.75264 19.3131 6.75264C19.4537 6.75264 19.5887 6.72514 19.7181 6.67077L23.0912 5.2614C23.1894 5.22015 23.2913 5.18952 23.3956 5.16827C23.5 5.14765 23.6056 5.1364 23.7119 5.1364C23.8188 5.1364 23.9244 5.1464 24.0287 5.16702C24.1337 5.18702 24.235 5.21765 24.3337 5.25827C24.4325 5.2989 24.5262 5.34827 24.615 5.40702C24.7037 5.4664 24.7856 5.53327 24.8612 5.60827C24.9375 5.68327 25.005 5.76515 25.0644 5.85327C25.1237 5.94202 25.1744 6.03515 25.2156 6.1339L25.9194 7.81764C24.2381 9.50764 23.3612 11.9314 23.6344 14.6508C23.6494 14.807 23.6825 14.9589 23.7331 15.107C23.7837 15.2558 23.8512 15.3958 23.935 15.5283C24.0194 15.6608 24.1175 15.782 24.2294 15.8914C24.3419 16.0008 24.465 16.0958 24.6 16.1764C24.6006 16.4083 24.6169 16.6395 24.6475 16.8695C24.6219 17.2589 24.7463 17.6357 24.8681 18.0014C25.1038 18.7126 25.1712 19.0632 24.8306 19.437C24.2612 20.0614 22.8756 20.6895 21.2144 21.077C20.9287 21.1426 20.6388 21.1751 20.3456 21.1745C20.0519 21.1739 19.7625 21.1401 19.4769 21.0732C19.1912 21.007 18.9163 20.9089 18.6531 20.7795C18.39 20.6501 18.1444 20.4932 17.9169 20.3076C16.4644 19.1195 14.8662 17.9114 12.7194 17.3451C12.6794 17.3339 12.6381 17.3276 12.5962 17.3251C12.5544 17.3226 12.5125 17.3239 12.4706 17.3295C12.4294 17.3351 12.3888 17.3445 12.3494 17.3582C12.3094 17.372 12.2712 17.3895 12.235 17.4107C12.1987 17.4314 12.165 17.4557 12.1337 17.4839C12.1025 17.5114 12.0737 17.542 12.0487 17.5757C12.0231 17.6089 12.0012 17.6445 11.9831 17.682C11.9644 17.7195 11.95 17.7589 11.9394 17.7995C11.9288 17.8401 11.9219 17.8814 11.9194 17.9232C11.9169 17.9651 11.9181 18.0064 11.9237 18.0482C11.9294 18.0895 11.9394 18.1301 11.9525 18.1701C11.9662 18.2095 11.9837 18.2476 12.005 18.2839C12.0256 18.3201 12.0506 18.3539 12.0781 18.3851C12.1056 18.4164 12.1362 18.4451 12.17 18.4707C12.2031 18.4957 12.2387 18.5176 12.2762 18.5364C12.3144 18.5545 12.3531 18.5689 12.3938 18.5801C14.2925 19.0814 15.7637 20.197 17.1075 21.2964C17.5669 21.6701 18.0756 21.9564 18.6337 22.1545C19.1919 22.3526 19.7669 22.452 20.3594 22.452C20.7463 22.452 21.1281 22.4082 21.5044 22.3207C23.4612 21.8645 25.0181 21.127 25.7744 20.2976C26.655 19.332 26.3094 18.2889 26.08 17.5989C25.9987 17.3526 25.9056 17.0726 25.9237 16.9414C25.9319 16.8814 25.9312 16.8214 25.9225 16.7614C25.9087 16.6683 25.9069 16.582 25.9 16.4926C26.1319 16.4795 26.3569 16.4308 26.5737 16.347C26.7906 16.2633 26.9894 16.1476 27.1694 16.0014C27.1769 15.9951 27.1862 15.9889 27.1931 15.9826C27.5969 18.1114 28.9075 23.252 32.6737 27.9395L31.1312 28.4739C31.1125 28.4801 31.0938 28.4876 31.0756 28.4957C30.085 28.9457 29.6225 30.0357 29.3919 30.8251C28.7463 30.627 28.0987 30.5063 27.5387 30.5063C26.9112 30.5045 23.6787 30.6076 21.4056 33.2738C19.32 35.7207 15.3237 37.2001 12.4931 37.5382C12.4125 37.5482 12.3362 37.5726 12.265 37.6113C12.1931 37.6501 12.1312 37.7007 12.0794 37.7632C12.0269 37.8257 11.9881 37.8951 11.9625 37.9726C11.9375 38.0501 11.9269 38.1288 11.9319 38.2101C11.9362 38.2913 11.9562 38.3688 11.9906 38.4426C12.025 38.5163 12.0719 38.5813 12.1306 38.637C12.19 38.6932 12.2575 38.7357 12.3331 38.7663C12.4087 38.7963 12.4869 38.8113 12.5681 38.8113C12.5938 38.8113 12.6194 38.8101 12.645 38.807C15.8169 38.4276 20.0569 36.8257 22.3781 34.1026C24.2837 31.8676 27.0094 31.787 27.5456 31.7838C28.3456 31.7838 29.4513 32.1176 30.3231 32.5857C31.2287 33.1382 32.3331 34.027 33.49 34.9613C36.3419 37.2645 39.8831 40.1245 43.1437 40.1245C43.1775 40.1245 43.2119 40.1238 43.2463 40.1232C46.1769 40.0688 50.0863 39.337 52.2456 36.1932C56.8169 34.8126 59.0162 30.3832 58.7806 22.9957C58.3937 17.7476 58.8094 16.5126 58.9625 16.2445C59.0931 16.282 59.4269 16.3764 59.7169 16.1326C59.8269 16.0395 60.005 15.8276 59.9606 15.4476C59.7069 13.2651 58.0194 11.4126 55.8556 10.9426ZM38.795 10.3445C39.3962 10.6733 40.0131 10.9689 40.6469 11.2308C40.6981 11.2514 40.7512 11.2645 40.8056 11.2708C41.8787 11.3989 42.8537 11.4064 43.7969 11.4145C46.0769 11.432 48.0644 11.4489 50.6437 13.1845C50.5238 13.3508 50.4069 13.522 50.2962 13.7045C50.2169 13.8364 50.1169 14.0045 49.9994 14.2026C49.0075 15.877 46.3706 20.3257 44.3406 21.8295C42.8469 22.9364 40.8337 22.9464 39.3638 22.9539C39.1481 22.9551 38.945 22.9564 38.7575 22.9601C38.5562 22.9645 38.3631 23.0064 38.1781 23.0857C37.8231 22.192 37.5206 21.302 37.2644 20.4364C36.9425 19.3476 36.6931 18.2995 36.4987 17.3326C36.1519 15.6401 35.9306 13.9314 35.8344 12.207C37.0812 11.7214 38.14 11.1295 38.795 10.3445ZM22.5987 4.08202L20.4906 4.96327L19.7269 5.28202L19.3237 5.45015C19.2206 5.36202 19.1313 5.26077 19.0562 5.14702C18.9094 4.93515 18.7869 4.70952 18.6887 4.47077C18.6131 4.29077 18.5513 4.10577 18.5037 3.9164C18.4487 3.72452 18.4269 3.52953 18.4381 3.33078L18.5581 3.28015L19.4819 2.89453L21.7131 1.96203C21.87 1.89703 22.03 1.83953 22.1931 1.78953C22.3556 1.74015 22.5206 1.69828 22.6875 1.66453C22.8544 1.6314 23.0225 1.60578 23.1912 1.5889C23.3606 1.57203 23.5306 1.56328 23.7006 1.56265C23.8713 1.56203 24.0406 1.57015 24.21 1.5864C24.3794 1.60265 24.5481 1.62703 24.715 1.66015C24.8819 1.69265 25.0469 1.73328 25.21 1.78265C25.3731 1.8314 25.5331 1.88828 25.6906 1.95265C25.8481 2.01765 26.0019 2.08953 26.1519 2.16953C26.3025 2.2489 26.4487 2.33578 26.5906 2.43015C26.7325 2.5239 26.8694 2.62515 27.0012 2.73265C27.1331 2.84015 27.2594 2.95328 27.38 3.07328C27.5012 3.19328 27.6156 3.3189 27.7244 3.45015C27.8325 3.58078 27.9344 3.71702 28.0294 3.85827C28.125 3.99952 28.2125 4.14452 28.2937 4.29452C28.3744 4.44452 28.4481 4.59765 28.5138 4.75452L28.9925 5.89952L29.23 6.46764C29.2312 6.47514 29.23 6.48452 29.2312 6.49264C29.2569 6.69327 29.03 7.11764 28.4137 7.38139C27.9712 7.57139 27.5256 7.63014 27.2781 7.52889C27.2681 7.52452 27.2575 7.51889 27.2475 7.51327C27.1881 7.48639 27.1462 7.44202 27.1219 7.38139L26.9419 6.95139L26.3944 5.64077C26.3575 5.55265 26.3169 5.46702 26.2712 5.3839C26.2262 5.30015 26.1775 5.2189 26.1244 5.14015C26.0712 5.0614 26.0144 4.98577 25.9537 4.91202C25.8931 4.8389 25.8294 4.7689 25.7619 4.70202C25.6944 4.63515 25.6237 4.57202 25.55 4.51202C25.4762 4.45202 25.4 4.39577 25.3212 4.34327C25.2419 4.29077 25.16 4.24202 25.0763 4.19765C24.9925 4.15327 24.9062 4.11265 24.8188 4.0764C24.7306 4.04077 24.6412 4.0089 24.5506 3.9814C24.4594 3.95452 24.3675 3.9314 24.2744 3.91327C24.1806 3.89515 24.0869 3.8814 23.9925 3.87202C23.8981 3.86327 23.8031 3.8589 23.7081 3.8589C23.6131 3.85952 23.5187 3.8639 23.4237 3.8739C23.3294 3.88327 23.2356 3.89702 23.1425 3.91577C23.0494 3.93452 22.9575 3.95827 22.8669 3.98577C22.7756 4.01327 22.6862 4.04577 22.5987 4.08202ZM26.3594 15.0139C26.2644 15.092 26.1575 15.1483 26.04 15.1833C25.82 15.2489 25.6038 15.2383 25.3906 15.1526C25.2587 15.1014 25.1488 15.0201 25.0619 14.9083C24.975 14.7964 24.9231 14.6701 24.9062 14.5295C24.9062 14.527 24.9056 14.5258 24.905 14.5233C24.67 12.1801 25.3894 10.1358 26.805 8.71514C27.0556 8.81264 27.315 8.86014 27.5837 8.85701C28.0487 8.84702 28.4931 8.74701 28.9169 8.55639C29.7787 8.18702 30.3569 7.51202 30.4856 6.81389C30.5175 6.80764 30.5475 6.79827 30.58 6.79202C31.1619 6.68577 31.7487 6.63202 32.34 6.63139C32.8431 6.63264 33.3425 6.67327 33.8387 6.75264C34.335 6.83202 34.8225 6.94889 35.3006 7.10389C35.7787 7.25889 36.2425 7.45014 36.6906 7.67702C37.1394 7.90389 37.5675 8.16452 37.975 8.45827C38.0675 8.52514 38.1494 8.58764 38.2137 8.63827C38.1662 9.04076 37.9662 9.39826 37.6381 9.72576C36.7637 10.5995 34.9512 11.2551 32.4831 11.932C29.5431 12.7376 27.53 14.0526 26.3594 15.0139ZM32.1025 24.9401C30.4556 22.3282 29.4963 19.7295 28.9544 17.8207C28.7006 16.9414 28.4981 16.0501 28.3469 15.1476C29.735 14.2526 31.2262 13.592 32.8213 13.1639C33.415 13.0014 34.005 12.8308 34.5762 12.6489C34.6769 14.3476 35.1444 19.2764 37.2769 24.2539C37.2625 24.3326 37.255 24.412 37.2531 24.4914C37.2537 24.6476 37.2769 24.8001 37.3237 24.9495C37.3706 25.0982 37.4387 25.237 37.5275 25.3651C37.6169 25.4939 37.7231 25.6057 37.8469 25.7014C37.97 25.797 38.105 25.872 38.2519 25.927C38.7944 26.1264 40.0925 26.687 40.4319 27.5876C40.59 28.0076 40.5244 28.4739 40.2313 29.012C39.8812 29.6539 38.87 29.7526 38.4512 29.7657C36.5525 29.8245 34.7769 28.7482 34.2162 27.7207C34.0875 27.4845 33.97 27.1514 34.1406 26.9032C34.1644 26.8689 34.1844 26.832 34.2006 26.7939C34.2175 26.7551 34.23 26.7151 34.2388 26.6745C34.2475 26.6332 34.2519 26.592 34.2525 26.5495C34.2531 26.5076 34.25 26.4664 34.2419 26.4251C34.2344 26.3839 34.2231 26.3439 34.2075 26.3045C34.1919 26.2657 34.1725 26.2289 34.15 26.1932C34.1269 26.1582 34.1006 26.1257 34.0719 26.0957C34.0425 26.0657 34.0106 26.0389 33.9756 26.0151C33.9412 25.9914 33.905 25.9707 33.8662 25.9545C33.8275 25.9376 33.7881 25.9251 33.7469 25.9164C33.7056 25.9076 33.6644 25.9032 33.6225 25.9026C33.5806 25.902 33.5387 25.9057 33.4975 25.9132C33.4562 25.9207 33.4162 25.9326 33.3775 25.9482C33.3381 25.9632 33.3013 25.9826 33.2663 26.0057C33.2313 26.0282 33.1981 26.0545 33.1681 26.0839C33.1381 26.1132 33.1112 26.1451 33.0875 26.1795C33.0619 26.2164 33.0412 26.2551 33.0187 26.2939C32.6912 25.8439 32.3875 25.3914 32.1025 24.9395V24.9401ZM58.2019 15.1895C57.6056 15.6708 57.0569 16.9858 57.5056 23.0632C57.725 29.977 55.8181 33.8907 51.6744 35.0282C51.5169 35.0713 51.3937 35.1613 51.3056 35.2995C49.4831 38.1407 45.9037 38.7963 43.2225 38.8457C40.3975 38.8995 37.0131 36.1645 34.2925 33.9676C33.4231 33.2651 32.6169 32.6145 31.8769 32.0845C31.8625 32.0701 31.8494 32.0545 31.8325 32.042C31.5869 31.8532 31.3281 31.6845 31.0569 31.5351C30.9 31.4376 30.745 31.3463 30.5956 31.2651C30.7531 30.6957 31.045 29.9314 31.5806 29.6695L33.5556 28.9857C34.5362 30.1164 36.3806 31.1051 38.4894 31.042C39.2831 31.0182 40.7106 30.8013 41.3531 29.6226C41.8281 28.7507 41.92 27.9151 41.6275 27.137C41.1656 25.9107 39.8363 25.1864 38.9394 24.8232C38.8494 24.6376 38.7625 24.4514 38.6781 24.2645C38.7119 24.2476 38.7481 24.2389 38.7862 24.2376C38.9669 24.2332 39.1625 24.2326 39.3706 24.2314C40.9237 24.2239 43.2712 24.212 45.1012 22.8564C47.3381 21.1995 49.9731 16.7526 51.0987 14.8539C51.2137 14.6595 51.3112 14.4945 51.39 14.3645C52.4356 12.632 53.9656 11.8408 55.5844 12.1914C56.9931 12.497 58.1687 13.6289 58.5687 14.992C58.4338 15.0339 58.3112 15.1001 58.2019 15.1895Z" fill="white"/>
</g>
</svg>
