<svg width="56" height="61" viewBox="0 0 56 61" fill="none" xmlns="http://www.w3.org/2000/svg">
<path d="M23.879 5.73473C16.0904 2.16514 8.03014 -1.52914 3.19278 9.22324C-1.80534 20.334 9.02314 31.8018 9.05421 31.8352L8.55298 32.3108L9.05556 31.8345C9.19269 31.9817 9.25417 32.1738 9.24065 32.3605C9.25214 33.1298 9.25484 33.959 9.25754 34.8263C9.28254 42.9882 9.31766 54.6604 17.4833 57.8457C23.1103 60.041 22.7388 56.9668 22.7381 56.9586L23.4224 56.8878L22.7361 56.9586C22.7334 56.9314 22.732 56.9041 22.7327 56.8769C22.7334 47.71 23.9567 41.8272 25.5259 39.2183C26.2501 38.0137 27.0945 37.4148 27.9868 37.4189C28.8778 37.423 29.7209 38.0287 30.4457 39.2319C32.0284 41.8606 33.268 47.772 33.268 56.8878C33.268 56.9252 33.2646 56.962 33.2592 56.9975C33.2383 57.3463 33.2572 59.898 38.5174 57.8457C46.6823 54.6604 46.7175 42.9882 46.7425 34.8263C46.7452 33.9365 46.7479 33.0862 46.76 32.2999L47.4477 32.3108L46.7573 32.2999C46.7607 32.1037 46.8445 31.9272 46.9762 31.8032C47.5916 31.1375 57.6608 20.0124 52.8072 9.22324C47.9699 -1.52914 39.9096 2.16514 32.121 5.73473C31.3549 6.08562 30.5916 6.43584 29.8229 6.77583C31.3225 7.32704 32.7755 7.73926 34.1502 7.89529C35.9241 8.09629 37.571 7.86804 39.0227 6.94685C39.3442 6.74244 39.7691 6.83988 39.9718 7.1642C40.1738 7.48784 40.0772 7.91641 39.7563 8.12082C38.0074 9.23073 36.066 9.51077 33.9989 9.27639C30.6943 8.90096 26.8182 7.08176 23.879 5.73473ZM24.4451 4.4681C25.6536 5.02204 26.856 5.57325 28.0003 6.05428C29.144 5.57325 30.3464 5.02204 31.5549 4.4681C39.9583 0.616427 48.6548 -3.36947 54.063 8.65227C59.049 19.7365 49.5742 30.9699 48.1306 32.5867C48.1212 33.2987 48.1192 34.0475 48.1165 34.8263C48.0908 43.38 48.0536 55.613 39.0132 59.1396C31.7542 61.972 31.8467 57.4669 31.8879 56.8789C31.8872 48.0336 30.7382 42.3866 29.2703 39.9494C28.8123 39.189 28.3725 38.8075 27.9814 38.8054C27.593 38.8034 27.1553 39.1795 26.7007 39.9358C25.2469 42.3539 24.1128 47.9764 24.1121 56.8789C24.1533 57.4669 24.2465 61.972 16.9868 59.1396C7.94637 55.613 7.90922 43.38 7.88355 34.8263C7.88085 34.0475 7.87882 33.2994 7.86936 32.5867C6.42579 30.9699 -3.04896 19.7365 1.937 8.65227C7.34516 -3.36947 16.0417 0.616427 24.4451 4.4681Z" fill="white"/>
</svg>
