<svg width="70" height="67" viewBox="0 0 70 67" fill="none" xmlns="http://www.w3.org/2000/svg">
<path fill-rule="evenodd" clip-rule="evenodd" d="M24.7826 52.0899C20.5979 52.0899 16.7404 51.1053 13.7042 49.1361C12.1042 48.0279 10.1342 47.7816 8.82168 48.4794C7.91871 48.9714 7.46723 49.8743 7.46723 51.0641C7.46723 51.5156 7.09809 51.8847 6.6466 51.8847H0.820622C0.369135 51.8847 0 51.5156 0 51.0641V41.8321C0 38.6312 2.33834 34.8155 5.04654 33.667C6.60615 32.9691 8.16504 33.2559 9.3548 34.4464C10.2989 35.3082 11.9402 36.0465 14.5249 34.5692C14.566 34.528 14.6072 34.528 14.6484 34.528C16.3301 33.8309 17.3154 34.4464 18.0949 34.9383C18.7515 35.3082 19.2434 35.6362 20.2692 35.431C22.5671 34.9795 26.6702 33.667 28.3115 30.0558C29.7887 26.7321 28.9269 22.1363 25.6444 16.4742C25.029 15.7352 19.9001 9.21139 19.9001 1.1691C19.9001 0.71761 20.2692 0.389648 20.7207 0.389648H27.204C27.6555 0.389648 28.0247 0.71761 28.0247 1.1691C28.0247 3.467 28.1475 5.55974 28.3115 7.81647L28.3938 8.71873C28.4762 9.99084 28.8453 10.8526 29.5019 11.3453C30.4454 12.0424 31.8403 11.8784 32.8661 11.6321C38.8567 10.1144 47.638 12.7814 50.5513 19.0177C53.0544 24.393 53.5463 29.6043 51.9462 34.4876C51.8234 34.9383 51.3719 35.1847 50.9205 35.0207C50.5101 34.8979 50.2638 34.4464 50.3866 33.9949C51.8234 29.4815 51.3719 24.6805 49.0741 19.7156C46.4887 14.2175 38.6516 11.8784 33.2764 13.2322C31.3072 13.7248 29.6659 13.5197 28.5166 12.6991C27.4504 11.8784 26.8349 10.5651 26.7526 8.80108L26.7114 7.93928C26.5474 5.92888 26.3834 4.0413 26.3834 2.0309H21.5825C21.9105 9.3342 26.8754 15.4073 26.9577 15.4896C26.9577 15.5301 26.9989 15.5301 27.0401 15.5713C30.6093 21.8083 31.5535 26.8961 29.7887 30.7124C27.8607 35.0207 23.1826 36.5392 20.5567 37.0311C18.9155 37.3598 17.9713 36.7443 17.2331 36.334C16.5764 35.9237 16.2073 35.6773 15.3043 36.0053C11.5299 38.1804 9.10847 36.4568 8.24739 35.595C7.5084 34.8979 6.6466 34.7744 5.662 35.1847C3.56927 36.0877 1.64124 39.2466 1.64124 41.7909V50.2435H5.86716C6.07231 48.8074 6.85176 47.7 8.04224 47.0433C9.88864 46.058 12.4733 46.3455 14.6072 47.7404C20.1876 51.4332 29.3784 51.3104 37.503 47.4536C37.9133 47.2485 38.406 47.4536 38.57 47.8639C38.7751 48.2743 38.6111 48.7258 38.2008 48.9309C33.7278 51.0229 29.0916 52.0899 24.7826 52.0899Z" fill="white"/>
<path fill-rule="evenodd" clip-rule="evenodd" d="M26.0146 44.909C25.6447 44.909 25.2756 44.909 24.8653 44.8679C24.4138 44.8267 24.0858 44.4164 24.127 43.9656C24.1675 43.5141 24.5778 43.1854 25.0293 43.2266C33.0715 44.0061 38.0776 34.9792 38.1188 34.8975C42.0579 28.045 36.929 20.6998 36.8467 20.6182C36.6003 20.2483 36.6827 19.7152 37.0518 19.4689C37.421 19.2225 37.9136 19.3049 38.2011 19.674C38.4467 20.0027 44.0271 27.9627 39.5549 35.677C39.3497 36.0461 34.4671 44.909 26.0146 44.909Z" fill="white"/>
<path fill-rule="evenodd" clip-rule="evenodd" d="M53.4647 66.328C44.3555 66.328 36.9287 58.9012 36.9287 49.7919C36.9287 40.6834 44.3555 33.2559 53.4647 33.2559C62.6143 33.2559 69.9999 40.6834 69.9999 49.7919C69.9999 58.9012 62.6143 66.328 53.4647 66.328ZM53.4647 34.8978C45.2577 34.8978 38.57 41.5857 38.57 49.7919C38.57 57.9989 45.2577 64.6868 53.4647 64.6868C61.7121 64.6868 68.3587 57.9989 68.3587 49.7919C68.3587 41.5857 61.7121 34.8978 53.4647 34.8978Z" fill="white"/>
<path fill-rule="evenodd" clip-rule="evenodd" d="M56.8697 60.4196H50.0995C49.6481 60.4196 49.2789 60.0504 49.2789 59.5989V54.0185H43.6986C43.2471 54.0185 42.8779 53.6494 42.8779 53.1979V46.3865C42.8779 45.9351 43.2471 45.5659 43.6986 45.5659H49.2789V40.0267C49.2789 39.5752 49.6481 39.2061 50.0995 39.2061H56.8697C57.3212 39.2061 57.6903 39.5752 57.6903 40.0267V45.5659H63.2707C63.7222 45.5659 64.0913 45.9351 64.0913 46.3865V53.1979C64.0913 53.6494 63.7222 54.0185 63.2707 54.0185H57.6903V59.5989C57.6903 60.0504 57.3212 60.4196 56.8697 60.4196ZM50.9202 58.7783H56.0491V53.1979C56.0491 52.7464 56.4182 52.3773 56.8697 52.3773H62.45V47.2072H56.8697C56.4182 47.2072 56.0491 46.838 56.0491 46.3865V40.8473H50.9202V46.3865C50.9202 46.838 50.551 47.2072 50.0995 47.2072H44.5192V52.3773H50.0995C50.551 52.3773 50.9202 52.7464 50.9202 53.1979V58.7783Z" fill="white"/>
</svg>
