<svg width="56" height="63" viewBox="0 0 56 63" fill="none" xmlns="http://www.w3.org/2000/svg">
<path d="M6.35555 41.9873C6.10587 41.9873 5.8515 41.9271 5.61721 41.8033C3.01192 40.4136 0.762751 39.2134 0.52043 36.9823C0.313587 35.0531 1.66041 33.0797 5.33606 29.9436C7.63142 27.9856 8.2245 26.6964 8.52105 25.5932C8.74396 24.7578 9.60882 24.2598 10.4402 24.488C11.2776 24.713 11.7736 25.5738 11.5454 26.4092C10.9697 28.5533 9.72127 30.3231 7.3737 32.328C3.80248 35.3751 3.61103 36.4026 3.6358 36.6449C3.70006 37.2279 5.82472 38.3606 7.09256 39.0366C7.85835 39.4443 8.14485 40.3942 7.73585 41.158C7.45671 41.6848 6.91584 41.9873 6.35555 41.9873Z" fill="white"/>
<path d="M49.273 62.2673H24.328L23.8547 61.6736C23.7791 61.5785 22.0072 59.3454 20.1249 56.6919C19.8263 56.2729 18.3938 56.5734 17.134 56.8372C15.0053 57.281 12.3552 57.8393 9.92796 56.5232C6.85744 54.8598 7.06495 52.6347 7.21824 51.0101C7.32468 49.8956 7.41237 48.9357 6.74163 47.7548C6.29716 46.9737 5.91962 46.1637 5.62107 45.3477C5.32252 44.5351 5.73888 43.6341 6.54952 43.3355C7.3635 43.037 8.26518 43.4513 8.56373 44.264C8.80605 44.9193 9.10795 45.5726 9.46875 46.2065C10.6281 48.2455 10.4615 50.0114 10.339 51.3006C10.2037 52.7452 10.1723 53.0859 11.4267 53.7647C12.8398 54.5325 14.6987 54.1409 16.4921 53.7667C18.6964 53.3055 21.1952 52.782 22.682 54.8752C23.9498 56.6665 25.1962 58.2951 25.8475 59.1285H47.3713C46.7989 56.1236 45.7701 50.2885 45.7701 47.139C45.7701 44.4541 47.0955 41.7089 48.4992 38.801C49.5133 36.6958 50.5656 34.5189 51.0971 32.3574C52.8161 25.3475 54.1228 15.1761 45.667 7.82347C41.3173 4.03738 35.5631 2.58346 29.4723 3.73682C23.2268 4.91964 17.7251 8.7633 15.1077 13.773C13.0975 17.6167 12.5145 20.228 12.2313 22.0735C12.0995 22.9284 11.3009 23.5194 10.4441 23.3842C9.58924 23.2523 9.00151 22.4517 9.13339 21.5969C9.45536 19.5124 10.1067 16.5738 12.3304 12.3225C15.3775 6.48201 21.724 2.01581 28.8873 0.660288C35.8409 -0.653733 42.7049 1.09874 47.722 5.46252C58.595 14.9224 55.2414 28.6102 54.1402 33.1098C53.5317 35.5886 52.4051 37.9174 51.32 40.1699C50.077 42.7438 48.9042 45.175 48.9042 47.1423C48.9042 51.0971 50.7946 60.2919 50.812 60.385L51.1996 62.2673H49.273Z" fill="#737373"/>
<path d="M39.0678 40.3398C37.9051 40.3398 36.6855 40.0031 35.8152 39.2273C35.1311 38.6208 34.1056 37.2365 34.8828 34.7939C35.1445 33.9698 36.0288 33.5127 36.8541 33.7744C37.6802 34.0361 38.134 34.9184 37.8723 35.7437C37.5851 36.6528 37.8562 36.8583 37.9473 36.9246C38.3723 37.2425 39.2037 37.2539 39.6844 37.1394C39.677 35.2611 39.768 31.7428 42.1598 28.9842C43.0501 27.9587 43.2362 25.8862 42.5768 24.3687C42.0614 23.1879 41.1871 22.5674 39.9755 22.5232C39.1261 22.4978 38.4868 22.6993 38.0095 23.1611C36.9452 24.1826 36.901 26.162 36.901 26.1808C36.901 27.0476 36.1968 27.7492 35.3306 27.7492C34.4637 27.7492 33.7622 27.0476 33.7622 26.1808C33.7622 25.8454 33.8184 22.8412 35.8306 20.9026C36.9224 19.8496 38.3897 19.3302 40.09 19.3904C42.5012 19.4795 44.4551 20.8404 45.4478 23.1203C46.5992 25.7664 46.2096 29.0967 44.5234 31.0372C42.7883 33.0414 42.8078 35.8696 42.8151 37.3878L42.8191 37.7057C42.8191 38.1536 42.6605 39.2641 41.1905 39.9194C40.5954 40.1905 39.8457 40.3398 39.0678 40.3398Z" fill="white"/>
<path d="M10.3646 38.2316C13.5456 37.105 26.8425 34.8853 34.5017 57.3509H31.549C31.549 57.3509 22.2772 46.253 12.342 45.8132C10.301 45.7242 11.5843 43.4034 11.4176 41.7205C11.2697 40.199 9.2173 38.6386 10.3646 38.2316Z" fill="white"/>
</svg>
