<svg width="60" height="62" viewBox="0 0 60 62" fill="none" xmlns="http://www.w3.org/2000/svg">
<path d="M58.4352 29.5785C56.8798 26.8843 54.3682 24.9572 51.3638 24.1529C50.0366 23.7972 48.6837 23.6799 47.3546 23.7934C46.433 22.9416 45.4787 22.2546 44.5136 21.7509C42.2071 20.5442 39.6039 20.6255 37.3692 21.9746C36.6623 22.4033 36.0509 22.9256 35.5459 23.521V16.7079C35.5459 15.1641 36.2477 13.833 37.5223 12.9601C40.2114 11.1131 41.8168 8.07861 41.8168 4.84286V1.3623C41.8168 0.897675 41.4406 0.521484 40.9766 0.521484H30.0748C29.6102 0.521484 29.234 0.897675 29.234 1.3623V5.53052C29.234 7.29419 27.7991 8.72845 26.0354 8.72845C24.2717 8.72845 22.8368 7.29419 22.8368 5.53052V1.3623C22.8368 0.897675 22.4606 0.521484 21.9967 0.521484H11.0948C10.6302 0.521484 10.254 0.897675 10.254 1.3623V4.84286C10.254 8.07989 11.8613 11.1144 14.553 12.9608C15.8251 13.8317 16.5249 15.1621 16.5249 16.7079V23.521C16.0199 22.9256 15.4085 22.4033 14.701 21.9739C12.4689 20.6243 9.86629 20.5429 7.56236 21.7503C6.47609 22.3162 5.40199 23.1147 4.36955 24.1228C1.17802 27.2355 -0.385056 32.1125 0.0808563 37.5048C0.568558 43.1559 3.21342 48.4034 6.81895 50.8733C9.08442 52.4255 11.8901 52.5876 14.3248 51.3078C15.1893 50.8515 15.9295 50.2523 16.5256 49.546V61.14C16.5256 61.604 16.9017 61.9802 17.3657 61.9802H34.7057C35.1697 61.9802 35.5459 61.604 35.5459 61.14V49.546C36.1419 50.2523 36.8821 50.8515 37.7479 51.3084C38.8361 51.8807 39.9993 52.1646 41.1548 52.1646C42.5833 52.1646 44.0002 51.7314 45.2519 50.8733C46.6015 49.9492 47.8141 48.6578 48.86 47.0319C50.673 46.9557 52.4937 46.4551 54.1702 45.4874C56.8651 43.9314 58.7921 41.4205 59.5977 38.4161C60.4033 35.411 59.9906 32.2727 58.4352 29.5785ZM18.2059 19.4399H33.8649V24.7348H18.2059V19.4399ZM18.2059 28.1987V26.4158H33.8649V29.0594C33.8649 30.4257 32.7536 31.537 31.3879 31.537H20.6829C19.3172 31.537 18.2059 30.4257 18.2059 29.0594V28.1987ZM15.5034 11.5746C13.2693 10.0422 11.935 7.52554 11.935 4.84286V2.20248H21.1565V5.53052C21.1565 8.22089 23.345 10.4095 26.0354 10.4095C28.7258 10.4095 30.915 8.22089 30.915 5.53052V2.20248H40.1358V4.84286C40.1358 7.5249 38.8034 10.0416 36.5719 11.5739C34.8262 12.7691 33.8649 14.5924 33.8649 16.7079V17.7596H18.2059V16.7079C18.2059 14.5905 17.2459 12.7679 15.5034 11.5746ZM33.8649 44.8683V44.967H18.2059V42.6529C18.2059 41.2891 19.3172 40.1797 20.6835 40.1797H31.3879C32.7536 40.1797 33.8649 41.2891 33.8649 42.6529V44.8683ZM33.8649 46.648V51.9423H18.2059V46.648H33.8649ZM18.2059 60.2992V53.6233H33.8649V60.2992H18.2059ZM44.3021 49.4864C42.5339 50.6977 40.43 50.8195 38.5311 49.821C36.6341 48.8206 35.5459 47.0153 35.5459 44.8683V42.6324H35.5453C35.5344 40.3509 33.6739 38.4981 31.3879 38.4981H20.6829C18.3905 38.4981 16.5249 40.3618 16.5249 42.6529V44.8683C16.5249 47.0153 15.4374 48.8199 13.541 49.8203C11.6409 50.8195 9.53688 50.6977 7.76872 49.4864C4.56181 47.2895 2.20149 42.5298 1.75481 37.3599C1.33311 32.4714 2.71355 28.0853 5.54298 25.3257C6.45814 24.4323 7.39894 23.7312 8.34038 23.2403C10.1393 22.2976 12.0888 22.3585 13.8301 23.4114C15.5681 24.4656 16.5249 26.1659 16.5249 28.1987V29.0594C16.5249 31.3524 18.3905 33.2173 20.6829 33.2173H31.3879C33.6739 33.2173 35.5344 31.3633 35.5453 29.0799H35.5459V28.1987C35.5459 26.1659 36.5034 24.4656 38.2395 23.4127C39.9833 22.3597 41.9347 22.2989 43.7356 23.2409C44.2284 23.4979 44.7206 23.8139 45.2083 24.1837C44.2822 24.4445 43.3818 24.8226 42.5263 25.3167C39.832 26.8721 37.9056 29.3837 37.1007 32.3881C36.2957 35.3925 36.7097 38.5295 38.2651 41.2224C40.1518 44.4902 43.394 46.4987 46.8765 46.9473C46.0952 47.9977 45.2333 48.8488 44.3021 49.4864ZM57.9744 37.9809C57.2848 40.5514 55.6352 42.7003 53.33 44.0314C48.5722 46.7769 42.4679 45.1394 39.7205 40.3816C38.3894 38.0777 38.0357 35.3937 38.7246 32.8232C39.4129 30.2527 41.0619 28.1038 43.3671 26.7728C44.9032 25.8858 46.6079 25.4327 48.3351 25.4327C49.2003 25.4327 50.0706 25.5468 50.9287 25.7762C53.4999 26.4651 55.6487 28.1141 56.9798 30.4193C58.3102 32.7239 58.664 35.4098 57.9744 37.9809ZM53.4197 32.7482H51.0043V30.3289C51.0043 29.8643 50.6281 29.4881 50.1641 29.4881H46.5368C46.0722 29.4881 45.696 29.8643 45.696 30.3289V32.7482H43.2767C42.8127 32.7482 42.4365 33.1244 42.4365 33.5884V37.2157C42.4365 37.6797 42.8127 38.0559 43.2767 38.0559H45.696V40.472C45.696 40.936 46.0722 41.3122 46.5368 41.3122H50.1641C50.6281 41.3122 51.0043 40.936 51.0043 40.472V38.0559H53.4197C53.8844 38.0559 54.2606 37.6797 54.2606 37.2157V33.5884C54.2606 33.1244 53.8844 32.7482 53.4197 32.7482ZM52.5796 36.3755H50.1635C49.6995 36.3755 49.3233 36.7517 49.3233 37.2157V39.6318H47.377V37.2157C47.377 36.7517 47.0008 36.3755 46.5368 36.3755H44.1175V34.4292H46.5368C47.0008 34.4292 47.377 34.053 47.377 33.5884V31.1691H49.3233V33.5884C49.3233 34.053 49.6995 34.4292 50.1635 34.4292H52.5796V36.3755Z" fill="white"/>
</svg>
