<svg width="60" height="50" viewBox="0 0 60 50" fill="none" xmlns="http://www.w3.org/2000/svg">
<mask id="mask0_1222_9104" style="mask-type:luminance" maskUnits="userSpaceOnUse" x="0" y="0" width="60" height="50">
<path d="M0 0.833008H60V49.8845H0V0.833008Z" fill="white"/>
</mask>
<g mask="url(#mask0_1222_9104)">
<path fill-rule="evenodd" clip-rule="evenodd" d="M35.1634 32.3215C32.3142 35.1695 27.678 35.1695 24.8281 32.3215C21.9788 29.4716 21.9788 24.8348 24.8281 21.9856C27.678 19.1357 32.3129 19.1357 35.1634 21.9856C38.0126 24.8348 38.0126 29.4716 35.1634 32.3215ZM36.4461 20.7035C32.8893 17.1467 27.1022 17.1467 23.5454 20.7035C19.9886 24.259 19.9886 30.0474 23.5454 33.6042C27.1015 37.1598 32.89 37.1598 36.4461 33.6042C40.0029 30.0474 40.0029 24.259 36.4461 20.7035ZM46.7086 38.0517C51.0414 35.3734 54.9003 31.6253 57.9294 27.1532C55.8283 24.0474 53.368 21.328 50.5954 19.0426C50.3819 19.8686 49.6338 20.4811 48.7413 20.4811H44.7031C43.6459 20.4811 42.7863 19.6215 42.7863 18.5643V14.5901H38.8133C37.7561 14.5901 36.8959 13.7305 36.8959 12.6745V12.209C34.6357 11.6959 32.3173 11.4355 29.9957 11.4355C18.97 11.4355 8.82027 17.1549 2.0614 27.1532C8.82027 37.1509 18.97 42.8709 29.9957 42.8709C33.0692 42.8709 36.111 42.4174 39.0534 41.5242C38.9343 41.0054 38.9843 40.4923 39.2054 40.0096L37.5648 38.3677C32.2388 41.9759 25.0384 41.3234 20.4307 36.7176C15.1446 31.4328 15.1471 22.8724 20.4307 17.5888C25.7174 12.3021 34.2734 12.3033 39.5601 17.5888C44.1653 22.1921 44.8177 29.4013 41.2096 34.721L42.8522 36.3635C43.7181 35.9657 44.7772 36.1209 45.4898 36.8329L46.7086 38.0517ZM50.736 45.3939L48.2358 47.8935C48.0325 48.0962 47.6892 48.0962 47.4871 47.8935L40.9575 41.3658C40.7529 41.16 40.7523 40.8217 40.9575 40.6165L43.4577 38.1156C43.6611 37.9123 44.005 37.9136 44.2077 38.1156L50.736 44.6439C50.94 44.8466 50.94 45.19 50.736 45.3939ZM39.5601 36.7176C39.7413 36.5365 39.9155 36.3515 40.0846 36.1621L41.4649 37.543L40.3849 38.623L39.0052 37.2427C39.194 37.0736 39.3783 36.8982 39.5601 36.7176ZM38.2768 35.4349C42.8553 30.8595 42.8534 23.4469 38.2768 18.8703C33.7014 14.2949 26.2894 14.2949 21.7141 18.8703C17.1368 23.4476 17.1362 30.8589 21.7141 35.4349C26.2932 40.0122 33.6982 40.0134 38.2768 35.4349ZM38.7101 8.63506C38.7101 8.58121 38.7582 8.53244 38.8133 8.53244H43.694C44.1938 8.53244 44.6005 8.12703 44.6005 7.62534V2.74591C44.6005 2.68953 44.648 2.64329 44.7031 2.64329H48.7413C48.7971 2.64329 48.8446 2.69017 48.8446 2.74591V7.62534C48.8446 8.12703 49.2506 8.53244 49.751 8.53244H54.6317C54.6862 8.53244 54.7343 8.58058 54.7343 8.63506V12.6745C54.7343 12.7284 54.6862 12.7765 54.6317 12.7765H49.751C49.2506 12.7765 48.8446 13.1832 48.8446 13.6843V18.565C48.8446 18.6194 48.7964 18.6676 48.7413 18.6676H44.7031C44.648 18.6676 44.6005 18.6194 44.6005 18.565V13.6843C44.6005 13.1832 44.1938 12.7765 43.694 12.7765H38.8133C38.7582 12.7765 38.7101 12.7284 38.7101 12.6745V8.63506ZM59.7778 26.6566C57.239 22.7837 54.1712 19.4632 50.6581 16.7774V14.5907H54.6317C55.6889 14.5907 56.5485 13.7305 56.5485 12.6745V8.63442C56.5485 7.57847 55.6889 6.71825 54.6317 6.71825H50.6581V2.74591C50.6581 1.68932 49.7985 0.829102 48.7413 0.829102H44.7031C43.6459 0.829102 42.7863 1.68869 42.7863 2.74591V6.71888H38.8133C37.7561 6.71888 36.8959 7.57847 36.8959 8.63506V10.353C28.7244 8.60212 20.3629 9.99633 13.0568 14.2727C8.04177 17.2081 3.59941 21.4902 0.213643 26.6566C0.0153743 26.9581 0.0153743 27.3477 0.213643 27.6505C6.95161 37.9376 17.7519 44.6857 29.9957 44.6857C33.436 44.6857 36.8389 44.1479 40.1188 43.0907L46.2044 49.1769C47.1191 50.0916 48.6045 50.0909 49.5185 49.1769L52.0188 46.6767C52.9335 45.762 52.9335 44.2753 52.0188 43.3618L48.0255 39.368C52.5933 36.468 56.6391 32.4368 59.7778 27.6505C59.9761 27.3477 59.9761 26.9575 59.7778 26.6566Z" fill="white"/>
</g>
</svg>
