<svg width="91" height="54" viewBox="0 0 91 54" fill="none" xmlns="http://www.w3.org/2000/svg">
<mask id="mask0_1220_8773" style="mask-type:luminance" maskUnits="userSpaceOnUse" x="0" y="0" width="91" height="54">
<path d="M90.667 0.694336H0.666992V53.2144H90.667V0.694336Z" fill="white"/>
</mask>
<g mask="url(#mask0_1220_8773)">
<path d="M84.4824 29.9267C83.3168 32.2062 82.9069 35.0422 83.3168 38.131C83.5367 39.8221 84.0415 42.2906 84.5773 44.3905C84.6403 44.6218 84.8499 44.79 85.0915 44.7797H85.1018C85.428 44.7694 85.6593 44.4545 85.5747 44.1386C85.0285 42.0067 84.5453 39.5692 84.3357 38.0041C83.9569 35.1268 84.3244 32.5004 85.396 30.4098C85.6066 30.0113 85.8482 29.6118 86.0794 29.2235C86.2364 28.9603 86.4047 28.6877 86.5513 28.4245C86.8878 27.837 87.2347 27.2486 87.5703 26.6808L87.6436 26.5549C88.0224 25.9251 88.358 25.2529 88.6522 24.5385C89.5349 22.4903 90.1121 20.0322 90.3959 17.2065C90.6272 14.8856 90.4693 12.7114 89.9231 10.7364C89.346 8.63551 88.3373 6.81848 86.9301 5.32669C85.4177 3.72962 83.4634 2.52171 81.1002 1.7556C78.9673 1.05154 76.4885 0.694336 73.7371 0.694336C73.2324 0.694336 72.7182 0.704676 72.2031 0.726296C69.0522 0.872937 65.9529 1.7556 63.2326 3.29909C60.5648 4.81156 58.3276 6.91248 56.7728 9.36026C55.4916 11.3662 55.1551 13.2049 54.6719 15.7467C54.6089 16.0719 54.546 16.3981 54.483 16.744C54.3674 17.3748 54.4097 18.0262 54.6193 18.625L54.8082 19.1814C54.9135 19.4757 54.8712 19.8009 54.7142 20.0745L51.2794 25.6515C51.2371 25.7145 50.9119 26.2719 51.0689 26.8284C51.1319 27.038 51.3001 27.3426 51.7306 27.5428C52.5607 27.9207 53.2854 28.2356 53.559 28.3409L53.6003 28.3512L53.6219 28.3832C53.6633 28.4461 53.7376 28.6031 53.7582 28.8974C53.7789 29.2019 53.7159 29.5281 53.5796 29.8223L53.2544 30.5471C53.1801 30.704 53.1595 30.8826 53.2018 31.0406C53.2431 31.2615 53.401 31.5764 53.8316 31.8913L53.9679 31.9862L53.8522 32.0906C53.496 32.4167 53.3484 32.7946 53.3907 33.2148C53.401 33.3304 53.4537 33.4564 53.527 33.5513L54.2311 34.496C54.357 34.6643 54.4097 34.8852 54.3674 35.0845L54.0308 36.9964C54.0205 37.0905 53.9152 38.5512 54.7979 39.6115C55.3234 40.2423 56.0688 40.5995 57.0351 40.6832C57.3397 40.7142 57.6762 40.7255 58.0231 40.7255C59.3879 40.7255 61.111 40.5046 63.0126 40.1051L63.1273 40.1267C63.1386 40.1474 63.1489 40.1577 63.1593 40.1897C63.6321 41.3656 64.0523 43.099 64.2515 44.6434C64.2835 44.8953 64.5035 45.0843 64.7667 45.0843H64.777C65.0816 45.0843 65.3231 44.8107 65.2808 44.5062C65.0609 42.8367 64.6191 41.0197 64.1256 39.8005C64.1152 39.7798 64.1049 39.7591 64.0936 39.7375C63.8633 39.244 63.3059 38.9817 62.771 39.0974L62.2559 39.213C60.6485 39.5279 59.1887 39.7065 58.0231 39.7065C57.7072 39.7065 57.4026 39.6961 57.1197 39.6642C56.426 39.6012 55.9325 39.37 55.5856 38.9601C55.0395 38.2984 55.0498 37.332 55.0602 37.1431V37.1328L55.3863 35.2734C55.47 34.7903 55.3544 34.2761 55.0602 33.8766L54.42 33.0042L54.483 32.9309C54.5037 32.9102 54.5253 32.8783 54.5563 32.8576L55.6279 31.8706L54.4407 31.0406C54.3993 31.0086 54.357 30.9776 54.3251 30.9456L54.2517 30.8826L54.5356 30.2528C54.7349 29.8007 54.8298 29.3072 54.7979 28.824C54.7669 28.4245 54.6719 28.0889 54.5037 27.8257L54.3044 27.5212L53.9679 27.3849C53.3381 27.1226 52.7289 26.8594 52.1725 26.5972C52.1612 26.5868 52.1405 26.5868 52.1405 26.5765L52.0568 26.5342L52.0775 26.4392C52.0879 26.3659 52.1301 26.2606 52.1725 26.1977L55.6176 20.6206C55.9428 20.0848 56.0161 19.4437 55.8169 18.8449L55.6279 18.2884C55.4803 17.8579 55.4493 17.3851 55.533 16.9442C55.596 16.5974 55.6589 16.2608 55.7219 15.9356C56.1947 13.4145 56.4993 11.7554 57.6762 9.91674C59.1464 7.6062 61.2473 5.63125 63.7684 4.20244C66.3525 2.74261 69.2937 1.8919 72.2764 1.7556C72.7812 1.73398 73.285 1.72364 73.7578 1.72364C76.4049 1.72364 78.7681 2.06017 80.7957 2.73227C82.9802 3.45702 84.7973 4.56998 86.1941 6.04109C87.4659 7.40598 88.39 9.07638 88.9258 11.009C89.44 12.858 89.5875 14.9063 89.3666 17.1012C89.094 19.8225 88.5366 22.1857 87.7282 24.1287C87.4443 24.8008 87.1294 25.4315 86.7826 26.0087L86.7092 26.1347C86.3624 26.7128 86.0052 27.3012 85.6696 27.9C85.5324 28.1519 85.3857 28.3935 85.2278 28.6558L85.2174 28.6774C84.9655 29.076 84.7136 29.4961 84.4824 29.9267ZM1.24853 10.7364C1.82663 8.63551 2.83432 6.81848 4.25278 5.33703C5.76526 3.7409 7.71859 2.53299 10.0827 1.76594C12.2043 1.05154 14.6831 0.694336 17.4354 0.694336C17.9393 0.694336 18.4544 0.704676 18.9686 0.726296C22.1204 0.872937 25.2187 1.7556 27.9391 3.29909C30.6078 4.81156 32.845 6.91248 34.3988 9.36026C35.681 11.3662 36.0166 13.2049 36.4997 15.7467C36.5627 16.0719 36.6257 16.3981 36.6887 16.744C36.8043 17.3748 36.7629 18.0262 36.5524 18.625L36.3634 19.1814C36.2581 19.4757 36.3004 19.8009 36.4584 20.0745L39.8931 25.6515C39.9345 25.7145 40.2607 26.2719 40.1028 26.8284C40.0398 27.038 39.8715 27.3426 39.441 27.5428C38.611 27.9207 37.8862 28.2356 37.6136 28.3409L37.5713 28.3512L37.5506 28.3832C37.5083 28.4461 37.435 28.6031 37.4143 28.8974C37.3927 29.2019 37.4557 29.5281 37.592 29.8223L37.9182 30.5471C37.9915 30.704 38.0122 30.8826 37.9708 31.0406C37.9285 31.2615 37.7706 31.5764 37.3401 31.8913L37.2038 31.9862L37.3194 32.0906C37.6766 32.4167 37.8232 32.7946 37.7819 33.2148C37.7706 33.3304 37.7189 33.4564 37.6446 33.5513L36.9415 34.496C36.8156 34.6643 36.7629 34.8852 36.8043 35.0845L37.1408 36.9964C37.1511 37.0905 37.2564 38.5512 36.3738 39.6115C35.8492 40.2423 35.1029 40.5995 34.1365 40.6832C33.832 40.7142 33.4955 40.7255 33.1495 40.7255C31.7837 40.7255 30.0607 40.5046 28.16 40.1051L28.0444 40.1267C28.034 40.1474 28.0237 40.1577 28.0124 40.1897C27.5405 41.3656 27.1203 43.099 26.9201 44.6434C26.8891 44.8953 26.6682 45.0843 26.4059 45.0843H26.3956C26.091 45.0843 25.8494 44.8107 25.8908 44.5062C26.1117 42.8367 26.5526 41.0197 27.0461 39.8005C27.0574 39.7798 27.0677 39.7591 27.078 39.7375C27.3093 39.244 27.8658 38.9817 28.4016 39.0974L28.9157 39.213C30.5232 39.5279 31.983 39.7065 33.1495 39.7065C33.4644 39.7065 33.769 39.6961 34.0529 39.6642C34.7457 39.6012 35.2392 39.37 35.586 38.9601C36.1322 38.2984 36.1218 37.332 36.1115 37.1431V37.1328L35.7853 35.2734C35.7017 34.7903 35.8173 34.2761 36.1115 33.8766L36.7526 33.0042L36.6887 32.9309C36.668 32.9102 36.6473 32.8783 36.6153 32.8576L35.5437 31.8706L36.731 31.0406C36.7733 31.0086 36.8156 30.9776 36.8466 30.9456L36.9199 30.8826L36.637 30.2528C36.4367 29.8007 36.3427 29.3072 36.3738 28.824C36.4057 28.4245 36.4997 28.0889 36.668 27.8257L36.8673 27.5212L37.2038 27.3849C37.8345 27.1226 38.4437 26.8594 39.0001 26.5972C39.0105 26.5868 39.0312 26.5868 39.0312 26.5765L39.1158 26.5342L39.0941 26.4392C39.0838 26.3659 39.0424 26.2606 39.0001 26.1977L35.555 20.6206C35.2288 20.0848 35.1555 19.4437 35.3548 18.8449L35.5437 18.2884C35.6913 17.8579 35.7223 17.3851 35.6387 16.9442C35.5757 16.5974 35.5127 16.2608 35.4497 15.9356C34.9769 13.4145 34.6723 11.7554 33.4955 9.91674C32.0253 7.6062 29.9244 5.63125 27.4033 4.20244C24.8192 2.74261 21.8789 1.8919 18.8953 1.7556C18.3914 1.73398 17.8866 1.72364 17.4138 1.72364C14.7677 1.72364 12.4036 2.06017 10.3769 2.73227C8.19141 3.45702 6.37438 4.56998 4.97753 6.04109C3.68597 7.40598 2.76099 9.07638 2.22519 11.009C1.71101 12.858 1.56343 14.9063 1.78433 17.1012C2.05693 19.8225 2.61436 22.1857 3.42276 24.1287C3.70664 24.8008 4.02155 25.4315 4.36841 26.0087L4.44173 26.1347C4.78859 26.7128 5.14579 27.3012 5.48138 27.9C5.61861 28.1519 5.76526 28.3935 5.92318 28.6558L5.93352 28.6774C6.1751 29.076 6.42702 29.4858 6.64793 29.9267C7.82388 32.1958 8.23372 35.0318 7.82388 38.131C7.60391 39.8221 7.09913 42.2906 6.56332 44.3915C6.50034 44.6218 6.29073 44.79 6.04914 44.7797H6.0388C5.71262 44.7694 5.48138 44.4545 5.56598 44.1386C6.11212 42.0067 6.59528 39.5692 6.80491 38.0041C7.18373 35.1268 6.81525 32.5004 5.74458 30.4098C5.53402 30.0113 5.29243 29.6118 5.0612 29.2235C4.90421 28.9603 4.73595 28.6877 4.58931 28.4245C4.25278 27.837 3.90592 27.2486 3.57034 26.6808L3.49608 26.5549C3.1182 25.9251 2.78262 25.2529 2.4884 24.5385C1.63769 22.5006 1.05959 20.0322 0.775703 17.2168C0.544464 14.8856 0.702385 12.7114 1.24853 10.7364ZM11.5425 11.965C11.5425 11.997 11.5425 12.028 11.5425 12.0496V12.0703C11.5425 12.1643 11.5425 12.2696 11.5529 12.3645C11.5529 12.3749 11.5529 12.3955 11.5529 12.4059C11.5529 12.5112 11.5632 12.6164 11.5736 12.7217C11.5736 12.7424 11.5736 12.7631 11.5848 12.7847C11.5952 12.889 11.6055 12.9943 11.6262 13.0996C11.6262 13.1306 11.6375 13.1522 11.6375 13.1729C11.6478 13.2152 11.6478 13.2679 11.6582 13.3092C11.6685 13.3619 11.6788 13.4248 11.6892 13.4878C11.7108 13.5828 11.7315 13.6664 11.7522 13.7614C11.7634 13.7924 11.7738 13.8347 11.7841 13.8666C11.8264 14.0029 11.8678 14.1392 11.9101 14.2756C11.9308 14.3282 11.942 14.3705 11.9627 14.4231C12.005 14.5491 12.0577 14.6751 12.1094 14.801C12.131 14.8537 12.1517 14.9063 12.1723 14.9589C12.225 15.0746 12.288 15.1902 12.3406 15.3058C12.3622 15.3472 12.3829 15.3895 12.4139 15.4318C12.4769 15.5361 12.5408 15.6517 12.6038 15.757C12.6348 15.8096 12.6668 15.8519 12.6978 15.9046C12.7608 16.0089 12.8341 16.1039 12.9084 16.1979C12.9497 16.2505 12.992 16.3031 13.0343 16.3661C13.1077 16.4611 13.181 16.5447 13.2543 16.6397C13.2966 16.6923 13.3389 16.7337 13.3802 16.776C13.4545 16.8596 13.5382 16.9442 13.6218 17.0279C13.6641 17.0702 13.7168 17.1228 13.7591 17.1642C13.8427 17.2385 13.9273 17.3118 14.011 17.3851C14.074 17.4377 14.1473 17.5007 14.2103 17.5534C14.2949 17.6267 14.3889 17.6897 14.4735 17.7526C14.5365 17.8053 14.6098 17.8476 14.6728 17.8889C14.7038 17.9106 14.7461 17.9312 14.778 17.9529V35.4417C14.778 45.2422 22.7502 53.2144 32.5508 53.2144H57.0981C66.8986 53.2144 74.8708 45.2422 74.8708 35.4417L74.9554 21.6809C76.2789 21.5343 77.6025 21.3247 78.9044 21.0304C79.0416 20.9985 79.1779 20.9675 79.3039 20.9355C80.3228 21.0304 81.3841 20.7466 82.3608 20.1055C83.4108 19.423 84.3141 18.3618 84.8292 17.1858C85.1761 16.3981 85.6593 14.8856 84.9975 13.5724C84.6713 12.9313 84.1355 12.4698 83.5057 12.1859C84.8706 10.085 85.2278 8.37231 84.566 7.10142C83.9466 5.90479 82.5704 5.49495 82.0036 5.48461C80.9216 5.46299 79.9553 6.07211 79.2305 6.61826C79.0519 6.74422 78.8837 6.88146 78.7051 7.01776C78.3798 6.4923 77.8017 6.04109 77.0037 5.67355C76.3203 5.35771 75.6068 5.13775 74.8821 5.00145C74.8078 4.7702 74.7242 4.52862 74.6189 4.29738C74.2617 3.45702 73.7785 2.93155 73.191 2.74261C72.361 2.46907 71.5103 2.90053 71.0271 3.45702C70.6379 3.90822 70.3757 4.507 70.2178 5.32669C69.6406 5.52597 69.0728 5.77789 68.5474 6.08245C67.7183 5.66227 66.6147 5.68389 65.7743 6.23003C65.607 6.33532 65.4594 6.45094 65.3128 6.58724C64.5881 6.8918 63.9893 7.37496 63.5898 7.99443C63.4535 8.20499 63.3379 8.43623 63.2429 8.67781C62.9073 8.88743 62.5708 9.12901 62.2559 9.40256C61.5941 9.99006 60.7745 10.946 60.6485 12.1436C60.5442 13.1945 61.142 14.4965 62.3085 14.7597C62.6864 14.8433 63.0643 14.8114 63.4215 14.6957C63.5061 14.99 63.6105 15.2635 63.7374 15.5258C63.0229 16.6707 62.7814 17.606 62.9806 18.467C63.2542 19.7276 64.3878 20.4627 65.6174 20.8302C67.3507 21.7552 69.462 21.8915 71.0374 21.8915C71.0478 21.8915 71.0581 21.8915 71.0685 21.8915C72.235 21.8915 73.3903 21.8285 74.5456 21.7232L74.4506 35.452C74.4506 45.042 66.657 52.8365 57.0671 52.8365H32.5084C22.9185 52.8365 15.124 45.042 15.124 35.452V18.1944C15.2086 18.2461 15.3026 18.2884 15.3975 18.3307C15.4924 18.3834 15.5968 18.4247 15.6917 18.467C15.7857 18.5093 15.891 18.5507 15.986 18.593C16.0799 18.625 16.1749 18.6663 16.2689 18.6983C16.3638 18.7293 16.4691 18.7613 16.5744 18.7923C16.6581 18.8139 16.7417 18.8346 16.8367 18.8562C16.9419 18.8769 17.0359 18.9079 17.1412 18.9192C17.2672 18.9399 17.4035 18.9605 17.5294 18.9822C17.6347 18.9925 17.74 19.0028 17.8453 19.0132C17.9712 19.0235 18.0972 19.0348 18.2128 19.0348C18.2965 19.0348 18.3811 19.0348 18.4648 19.0348C18.4854 19.0348 18.507 19.0348 18.5277 19.0348C18.633 19.0348 18.727 19.0348 18.822 19.0235C18.9272 19.0132 19.0316 19.0132 19.1369 19.0028C19.2948 18.9925 19.4414 18.9709 19.5993 18.9399C19.7037 18.9192 19.809 18.9079 19.9039 18.8872C19.9039 18.8872 19.9039 18.8872 19.9142 18.8872C20.0609 18.8562 20.1981 18.8242 20.3448 18.7819C20.3871 18.7716 20.4294 18.7613 20.4707 18.7406C20.607 18.6983 20.7443 18.656 20.8702 18.6033C20.9125 18.593 20.9436 18.5723 20.9858 18.562C21.1118 18.5093 21.2378 18.467 21.3534 18.4041C21.3844 18.3937 21.4164 18.373 21.4474 18.3618C21.563 18.3091 21.6786 18.2461 21.7943 18.1832C21.8366 18.1625 21.8789 18.1418 21.9099 18.1202C22.0152 18.0572 22.1204 17.9942 22.2248 17.9312C22.2671 17.9002 22.3094 17.8786 22.3507 17.8476C22.4457 17.7846 22.551 17.7113 22.645 17.637C22.6769 17.6163 22.7192 17.5844 22.7502 17.5637C22.8452 17.4904 22.9288 17.4171 23.0238 17.3428C23.0651 17.3118 23.0971 17.2798 23.1394 17.2385C23.2231 17.1642 23.3067 17.0805 23.3913 17.0072C23.4327 16.9649 23.475 16.9226 23.5173 16.8709C23.5906 16.7863 23.6743 16.713 23.7372 16.6293C23.7795 16.587 23.8115 16.5447 23.8425 16.5024C23.9158 16.4188 23.9788 16.3351 24.0427 16.2402C24.0634 16.2091 24.0841 16.1772 24.1057 16.1462C24.1687 16.0616 24.2317 15.9676 24.2947 15.883C24.3154 15.8519 24.336 15.82 24.3473 15.7993C24.399 15.7044 24.462 15.6207 24.5146 15.5258C24.5363 15.4947 24.5466 15.4628 24.5673 15.4318C24.6199 15.3368 24.6726 15.2428 24.7149 15.1479C24.7252 15.1159 24.7459 15.0952 24.7562 15.0642C24.7985 14.9693 24.8408 14.8743 24.8822 14.77C24.9038 14.7277 24.9141 14.6957 24.9245 14.6544C24.9668 14.5594 24.9978 14.4542 25.0401 14.3602C25.0608 14.3179 25.0721 14.2756 25.0824 14.2342C25.1134 14.1289 25.1454 14.034 25.1764 13.9296C25.1877 13.8873 25.198 13.8563 25.2084 13.814C25.2394 13.7087 25.261 13.6147 25.2817 13.5094C25.292 13.4671 25.3024 13.4145 25.3136 13.3722C25.3343 13.2679 25.355 13.1626 25.3653 13.0573C25.3766 13.0047 25.387 12.9417 25.387 12.889C25.3973 12.7847 25.4076 12.6794 25.418 12.5741C25.418 12.5215 25.4293 12.4801 25.4293 12.4275C25.4396 12.3222 25.4396 12.2066 25.4396 12.1013V12.06C25.4396 12.0177 25.4396 11.9754 25.4396 11.934C25.4396 11.8287 25.4293 11.7131 25.4293 11.6078C25.4293 11.5345 25.418 11.4715 25.4076 11.3982C25.3973 11.2826 25.387 11.1773 25.3653 11.0617C25.355 10.9987 25.3447 10.9357 25.3343 10.8727C25.3136 10.7571 25.292 10.6415 25.2713 10.5362C25.261 10.4732 25.2394 10.4102 25.229 10.3473C25.2187 10.3266 25.2187 10.2946 25.2084 10.2739C25.1877 10.179 25.1557 10.0953 25.1238 10.0013C25.1238 9.99006 25.1238 9.97972 25.1134 9.96938C25.0927 9.89606 25.0608 9.82274 25.0401 9.74848C25.0091 9.64414 24.9668 9.5492 24.9245 9.45426C24.8822 9.34992 24.8408 9.24464 24.7882 9.1497C24.7459 9.05569 24.6932 8.96075 24.6519 8.86675C24.5992 8.77181 24.5569 8.67781 24.5043 8.59321C24.4517 8.49921 24.399 8.41461 24.336 8.33095C24.2843 8.25763 24.242 8.18337 24.1894 8.11005C24.1264 8.02639 24.0738 7.94179 24.0005 7.85813C23.9158 7.75285 23.8322 7.64756 23.7485 7.54322C23.6855 7.45862 23.6113 7.3853 23.538 7.31198C23.4543 7.21704 23.3697 7.13338 23.2757 7.04972C23.2024 6.97546 23.1178 6.90214 23.0445 6.83916C22.9711 6.77618 22.8865 6.7132 22.8132 6.65022C22.7296 6.58724 22.645 6.51392 22.5613 6.46128C22.4353 6.36634 22.3094 6.28267 22.1834 6.19807C22.0885 6.13509 21.9945 6.08245 21.8995 6.03075C21.7736 5.95649 21.6476 5.89351 21.5217 5.83053C21.4164 5.77789 21.3214 5.73653 21.2171 5.69423C21.1118 5.65193 21.0169 5.61057 20.9125 5.56827C20.8072 5.52597 20.6916 5.48461 20.576 5.45265C20.4077 5.40001 20.2395 5.34737 20.0609 5.31635C19.9349 5.28439 19.8193 5.26371 19.6933 5.24303C19.526 5.21107 19.3681 5.19039 19.1998 5.16877C19.0532 5.15843 18.916 5.14809 18.7693 5.13775C18.6744 5.13775 18.57 5.12741 18.4751 5.12741C18.4224 5.12741 18.3698 5.12741 18.3284 5.12741C18.1386 5.12741 17.9609 5.13775 17.771 5.15843C17.4665 5.19039 17.1722 5.24303 16.8893 5.30601C15.7754 5.56827 14.7677 6.09373 13.9273 6.80814C13.7798 6.9341 13.6435 7.0704 13.5072 7.2067C13.3596 7.35428 13.2233 7.51126 13.087 7.66918C13.024 7.74251 12.9714 7.81583 12.9187 7.88915C12.8134 8.02639 12.7185 8.16269 12.6348 8.29899C12.6038 8.35163 12.5615 8.40427 12.5295 8.46725C12.4562 8.59321 12.3829 8.71917 12.3096 8.84513C12.2776 8.89777 12.2466 8.96075 12.225 9.01339C12.162 9.12901 12.1094 9.25498 12.0577 9.3706C12.036 9.4129 12.0154 9.46554 12.005 9.5069C11.9627 9.62252 11.9204 9.73814 11.8791 9.85376C11.8678 9.88572 11.8574 9.91674 11.8471 9.9487C11.8161 10.0643 11.7738 10.1687 11.7418 10.2843C11.7315 10.3266 11.7211 10.3576 11.7108 10.3999C11.6788 10.5052 11.6582 10.6208 11.6375 10.7364C11.6262 10.7674 11.6262 10.8097 11.6159 10.8408C11.5952 10.946 11.5848 11.0617 11.5632 11.1669C11.5632 11.1876 11.5529 11.2092 11.5529 11.2299C11.5425 11.3352 11.5322 11.4396 11.5219 11.5552C11.5219 11.5871 11.5219 11.6078 11.5219 11.6398C11.5425 11.7554 11.5425 11.8597 11.5425 11.965ZM82.3081 12.921C82.3608 13.1419 82.3918 13.3619 82.4021 13.5931C82.3185 15.0012 81.7516 16.2721 80.806 17.1228C80.5221 17.3748 80.2176 17.5957 79.9027 17.7846C80.8586 17.0382 82.3504 15.5577 81.856 13.8037C81.6887 13.2049 81.2995 12.7001 80.8793 12.2592C81.2469 12.1963 81.636 12.1756 82.0139 12.2066C82.1399 12.4172 82.2451 12.6691 82.3081 12.921ZM82.2451 11.8287C82.1399 11.6708 82.0346 11.5242 81.9086 11.3879C82.0139 11.4715 82.1088 11.5552 82.2028 11.6398C82.2245 11.7028 82.2451 11.7657 82.2451 11.8287C82.2555 11.8287 82.2555 11.8287 82.2451 11.8287ZM79.1356 10.7674C79.2305 10.7468 79.3358 10.7261 79.4402 10.7148C80.3022 10.6208 81.1839 11.0617 81.7516 11.7968C81.7197 11.7968 81.699 11.7968 81.667 11.7968C81.2892 11.7968 80.9113 11.8391 80.5541 11.9227C80.2176 11.5975 79.724 11.1566 79.1356 10.7674ZM80.1236 12.0496C78.6524 12.5431 77.4549 13.5724 76.2996 14.5594C76.121 14.7174 75.9424 14.864 75.7638 15.0219C75.7224 15.0642 75.6698 15.0952 75.6275 15.1375C75.8164 14.801 75.9847 14.4654 76.1426 14.1289C76.7621 12.8157 77.5395 11.4715 78.6741 10.946C79.2512 11.2826 79.756 11.7028 80.1236 12.0496ZM79.1676 17.8372C78.9156 18.0046 78.6421 18.1728 78.3582 18.3204C78.2012 18.3307 78.0433 18.3307 77.8854 18.3091C76.9933 18.2255 76.1313 17.732 75.4169 16.9339C75.3436 16.713 75.2806 16.4921 75.228 16.2825C75.2073 16.1875 75.1866 16.0822 75.165 15.9882C75.4592 15.7673 75.7431 15.5361 76.0157 15.3161C76.1943 15.1686 76.3729 15.0116 76.5515 14.8537C77.6861 13.877 78.863 12.8787 80.2702 12.4059C80.3228 12.3852 80.3755 12.3749 80.4385 12.3542C80.8793 12.8054 81.3098 13.3092 81.4781 13.908C82.0139 15.789 79.8397 17.3851 79.1676 17.8372ZM77.4549 18.6456C77.0977 18.7086 76.7405 18.7613 76.3945 18.7923C76.1633 18.4877 75.964 18.1728 75.7958 17.8372C76.3099 18.2461 76.8674 18.5197 77.4549 18.6456ZM75.9217 18.8139C75.5955 18.7509 75.2806 18.6456 74.9761 18.4877L74.9864 17.0279C75.008 17.0599 75.0391 17.0909 75.0607 17.1228C75.2806 17.7423 75.5749 18.3091 75.9217 18.8139ZM75.0607 11.934C76.1313 11.7338 77.109 11.2506 77.8544 10.5578L77.8647 10.5475C77.9907 10.5992 78.1166 10.6518 78.2426 10.7148C77.14 11.3559 76.3842 12.6794 75.7741 13.9606C75.5645 14.4128 75.3229 14.8743 75.0494 15.3161C75.0287 15.1159 75.008 14.9063 74.9977 14.707V14.5491H74.9864C74.9554 13.6777 74.9977 12.8054 75.0607 11.934ZM75.291 7.343C76.2366 7.21704 77.1926 7.26968 78.096 7.51126C77.7284 7.80549 77.3505 8.11005 76.9614 8.39393C76.4049 8.21533 75.8587 8.06775 75.3126 7.96341C75.3126 7.75285 75.3023 7.54322 75.291 7.343ZM75.3126 8.35163C75.7224 8.43623 76.1313 8.54057 76.5515 8.66653C76.153 8.92973 75.7328 9.17132 75.291 9.36026C75.2806 9.36026 75.2806 9.36026 75.2703 9.3706C75.291 9.03407 75.3126 8.69849 75.3126 8.35163ZM77.0244 8.81411C77.4549 8.96075 77.8967 9.12901 78.3375 9.31796C78.1796 9.60184 77.9907 9.8641 77.7811 10.085C77.3609 9.93742 76.9191 9.85376 76.4679 9.85376C76.0787 9.85376 75.6801 9.91674 75.2806 10.0747C75.26 10.085 75.2393 10.085 75.2177 10.0953C75.228 9.99006 75.2393 9.89606 75.2393 9.79078C75.3023 9.7701 75.3756 9.73814 75.4386 9.71746C76.0054 9.48622 76.5308 9.17132 77.0244 8.81411ZM75.4282 10.4422C76.1107 10.1687 76.8147 10.2006 77.4662 10.3999C76.7931 10.978 75.9744 11.3559 75.102 11.5345C75.1237 11.3456 75.134 11.1566 75.1547 10.978C75.165 10.8304 75.1754 10.6941 75.197 10.5578C75.26 10.5052 75.3436 10.4732 75.4282 10.4422ZM78.3479 7.1644C77.5291 6.92282 76.6465 6.82882 75.7328 6.90214C75.5749 6.91248 75.4169 6.9341 75.26 6.95478C75.2177 6.43966 75.134 5.91513 75.008 5.41035C75.6378 5.53631 76.2573 5.74687 76.8457 6.01947C77.5602 6.34566 78.064 6.72354 78.3479 7.1644ZM78.5058 8.97109C78.1383 8.81411 77.7811 8.66653 77.4135 8.54057C77.7594 8.28865 78.0856 8.01605 78.4109 7.75285C78.4532 7.72183 78.4955 7.67952 78.5368 7.64756C78.5472 7.64756 78.5688 7.65884 78.5791 7.65884C78.7154 8.09971 78.6628 8.55091 78.5058 8.97109ZM79.7447 10.0013C80.0606 10.1687 80.3539 10.3369 80.6377 10.5052C80.3228 10.3896 79.9976 10.3266 79.6714 10.3266C79.5877 10.3266 79.4928 10.3266 79.4091 10.3369C79.1572 10.3689 78.926 10.4206 78.7051 10.5052C78.5368 10.4102 78.3582 10.3266 78.1796 10.2429C78.3798 10.0117 78.5584 9.75976 78.7051 9.47588C79.0416 9.64414 79.3875 9.81146 79.7447 10.0013ZM78.8527 9.12901C79.0096 8.71917 79.083 8.27831 79.02 7.83745C79.4721 8.03673 79.9027 8.28865 80.2909 8.60355C81.0476 9.192 81.6257 10.022 81.9932 10.9564C81.4151 10.5052 80.7327 10.0747 79.9233 9.65448C79.5661 9.46554 79.2089 9.28694 78.8527 9.12901ZM83.1485 12.0177C82.9699 11.8184 82.7706 11.6182 82.56 11.4292C82.2132 10.179 81.5101 9.06603 80.5437 8.29899C80.0493 7.91077 79.5031 7.59586 78.9044 7.36462C79.0942 7.21704 79.2832 7.0704 79.4721 6.92282C80.1339 6.42932 81.0053 5.87283 81.9509 5.87283C81.9613 5.87283 81.9819 5.87283 81.9932 5.87283C82.466 5.88317 83.6843 6.25071 84.2201 7.28002C84.8076 8.40427 84.4401 10.0427 83.1485 12.0177ZM84.7136 16.3981C84.8602 15.2005 84.503 13.8666 83.7153 12.7321C84.1045 12.984 84.4297 13.3205 84.6506 13.751C85.0915 14.6328 84.9448 15.6414 84.7136 16.3981ZM78.8414 20.4627C78.0123 20.2634 77.3186 19.8112 76.7724 19.2341C77.1823 19.1918 77.5705 19.0865 77.938 18.9399C78.3479 18.8449 78.7474 18.7293 79.1253 18.5827C80.0183 18.3411 80.8897 17.763 81.5834 16.9226C82.4134 15.9149 82.8439 14.7174 82.7913 13.5931C82.8016 13.4042 82.8016 13.2256 82.8016 13.0366C82.7913 12.795 82.7706 12.5535 82.7387 12.3119C82.812 12.3326 82.875 12.3542 82.9379 12.3749C83.0959 12.5535 83.2425 12.7424 83.3694 12.9313C84.3357 14.3075 84.6083 15.9779 84.0829 17.2911C83.4737 18.8139 81.8983 19.8855 79.2728 20.536C79.1356 20.5257 78.989 20.4946 78.8414 20.4627ZM74.9657 21.2824L74.9761 19.2341C75.291 19.2341 75.6172 19.2237 75.9424 19.2021C76.0477 19.2125 76.153 19.2341 76.2573 19.2341C76.8561 19.9372 77.5921 20.4627 78.3902 20.7259C77.2556 20.9778 76.1107 21.1564 74.9657 21.2824ZM64.9556 17.4481C64.997 17.4171 65.0496 17.3851 65.0919 17.3541C65.3231 17.5534 65.5647 17.7216 65.8166 17.8683C66.6777 18.3618 67.676 18.562 68.5474 18.7086C70.0711 18.9605 71.6146 19.1288 73.1487 19.2021C73.0011 19.612 72.4973 19.8329 72.1194 19.9692C70.5543 20.5473 68.8519 20.7992 67.1825 20.7043C66.7303 20.6836 66.2368 20.599 65.7743 20.473C65.3438 20.2427 64.9453 19.9588 64.5777 19.612C64.3775 19.423 64.1152 19.1288 64.0626 18.7923C64.01 18.2461 64.5251 17.763 64.9556 17.4481ZM74.3989 8.20499C74.5352 8.67781 74.5559 9.13935 74.5033 9.60184C73.7371 9.7701 72.9071 9.75976 72.2031 9.48622C72.0564 9.24464 71.9088 9.01339 71.7519 8.79249C72.0771 8.54057 72.424 8.32061 72.7915 8.12039C73.317 8.12039 73.8528 8.14201 74.3989 8.20499ZM73.6422 7.75285C73.8105 7.68986 73.9787 7.63722 74.146 7.58458C74.1883 7.65884 74.2203 7.73217 74.2513 7.80549C74.0417 7.77447 73.8415 7.76319 73.6422 7.75285ZM71.9305 9.80112C72.1504 10.1903 72.3187 10.5578 72.4446 10.852C72.5396 11.072 72.6232 11.2929 72.6966 11.5242C71.8045 11.3352 70.9745 10.9357 70.3024 10.3162C70.5543 9.95904 70.8485 9.62252 71.1634 9.31796C71.3843 9.51724 71.6466 9.67516 71.9305 9.80112ZM71.1634 8.77181C71.1314 8.72951 71.0901 8.68815 71.0581 8.64585C70.9951 8.56219 70.9322 8.47759 70.8795 8.38359H70.8899C70.9951 8.49921 71.1004 8.62517 71.1944 8.74079C71.1944 8.75113 71.1841 8.76147 71.1634 8.77181ZM68.8002 9.192C68.8632 9.27566 68.9365 9.36026 68.9995 9.43358C69.0418 9.48622 69.0728 9.52852 69.1151 9.58116C69.0202 9.78044 68.9159 9.95904 68.8002 10.1273C68.5586 10.4845 68.2541 10.7994 67.9382 11.104C67.9486 10.7045 67.9909 10.3162 68.0755 9.9487C68.1065 9.82274 68.1385 9.69584 68.1798 9.56988C68.38 9.43358 68.5793 9.30762 68.8002 9.192ZM68.4327 8.95041C68.443 8.91939 68.4637 8.89777 68.474 8.86675C68.4844 8.87709 68.506 8.88743 68.5163 8.89777C68.4957 8.91939 68.4637 8.94007 68.4327 8.95041ZM67.7183 8.44657C67.8649 8.50955 68.0125 8.58287 68.1488 8.65619C68.0332 8.86675 67.9382 9.09799 67.8546 9.31796C67.1721 9.80112 66.5837 10.3896 66.1212 11.0513C65.9642 11.2722 65.827 11.5025 65.6907 11.7234C65.4284 10.4629 65.9116 9.192 66.6993 8.17303C67.0349 8.22567 67.3818 8.30933 67.7183 8.44657ZM66.9935 7.83745C67.0246 7.79515 67.0669 7.76319 67.0979 7.72183C67.2558 7.79515 67.4137 7.87881 67.5604 7.97375C67.3714 7.92111 67.1825 7.86847 66.9935 7.83745ZM69.5457 11.5975C69.6923 11.2826 69.8606 10.9677 70.0495 10.6734C70.2807 11.072 70.4913 11.5025 70.6906 11.9857C70.7639 12.1859 70.8485 12.3749 70.9218 12.5741C70.6586 12.5535 70.417 12.4905 70.2074 12.3852C69.9658 12.2592 69.6716 12.0177 69.6406 11.5768L69.5457 11.5975ZM70.0288 12.7424C70.3334 12.9003 70.6906 12.984 71.0581 12.984C71.1314 13.1833 71.1944 13.3938 71.2687 13.5931C71.2997 13.6777 71.3204 13.7614 71.3523 13.845C71.3317 13.8563 71.31 13.8666 71.2894 13.877C70.5853 14.2972 69.8192 14.644 69.0625 14.9693C68.9676 14.8114 68.8736 14.6544 68.8002 14.4965C68.8519 13.6561 69.0418 12.8157 69.3567 12.028C69.4827 12.3326 69.7139 12.5741 70.0288 12.7424ZM70.7432 11.135C71.3523 11.5242 72.0668 11.7968 72.8122 11.934C72.6552 12.06 72.4869 12.1859 72.3083 12.2799C72.0245 12.4482 71.6776 12.5535 71.3317 12.5741C71.2471 12.3222 71.1531 12.0806 71.0478 11.8391C70.9528 11.5975 70.8485 11.3662 70.7432 11.135ZM72.9598 12.3119C72.9804 12.3749 73.0011 12.4378 73.0124 12.4905C72.6129 12.921 72.1608 13.2989 71.6889 13.6147C71.6673 13.5621 71.6466 13.5094 71.6362 13.4568C71.5836 13.2885 71.5206 13.1203 71.468 12.9633C71.8355 12.921 72.2031 12.8054 72.5076 12.6164C72.6655 12.5328 72.8122 12.4275 72.9598 12.3119ZM72.5076 16.5767C72.5706 16.6923 72.6439 16.8079 72.7285 16.9226C72.5499 16.9856 72.3713 17.0382 72.1927 17.0909C71.499 16.6077 70.7432 16.2298 70.0081 15.8519C69.8295 15.7673 69.6613 15.6733 69.4827 15.5887C69.4094 15.4844 69.3464 15.3998 69.2834 15.3161C70.0288 14.99 70.7855 14.644 71.4886 14.2239C71.7622 15.0219 72.0771 15.8303 72.5076 16.5767ZM71.6362 17.1858C71.6043 17.1858 71.5732 17.1962 71.5516 17.1962C71.0374 17.0382 70.5853 16.7337 70.2074 16.3877C70.6906 16.6397 71.1737 16.9019 71.6362 17.1858ZM70.6173 17.1962C69.5353 17.0702 68.6103 16.5551 67.8546 15.9253C67.9909 15.8726 68.1168 15.8096 68.2541 15.757C68.38 15.757 68.5163 15.7467 68.6423 15.726L68.8209 15.7044V15.694C68.9572 15.7673 69.0945 15.8407 69.2204 15.9046C69.5457 16.3135 70.0185 16.8183 70.6173 17.1962ZM67.55 11.4612C67.3611 11.6294 67.1609 11.7968 66.9719 11.9547C66.7303 12.154 66.4784 12.3645 66.2368 12.5845C66.1739 12.6371 66.1212 12.6898 66.0582 12.7424C65.9746 12.5845 65.9003 12.4275 65.8373 12.2592C65.8373 12.2592 65.8373 12.2489 65.8486 12.2489C66.0376 11.9227 66.2265 11.5871 66.4361 11.2826C66.783 10.7891 67.2032 10.3369 67.676 9.9487C67.5707 10.4422 67.5293 10.946 67.55 11.4612ZM68.4007 14.5914C68.3904 14.7277 68.3904 14.8537 68.3904 14.99C67.4344 14.4128 66.7303 13.7717 66.2575 13.0789C66.3318 13.0047 66.4154 12.9313 66.4888 12.8684C66.72 12.6587 66.9719 12.4482 67.2135 12.2489C67.3395 12.1436 67.4551 12.0383 67.581 11.934C67.6863 12.8261 67.9599 13.7191 68.4007 14.5914ZM67.0979 15.2109C66.5414 14.6121 66.1109 13.9823 65.827 13.5094C65.8796 13.4568 65.9323 13.4042 65.9849 13.3515C66.4888 14.0659 67.2351 14.738 68.2221 15.3368C68.2014 15.3472 68.1911 15.3472 68.1695 15.3575C67.8019 15.3575 67.4447 15.3058 67.0979 15.2109ZM66.2998 14.8856C65.9219 14.6854 65.5647 14.4335 65.2395 14.1496C65.3335 14.034 65.4388 13.9193 65.544 13.8037C65.7856 14.1919 66.0376 14.5594 66.2998 14.8856ZM65.6277 13.1626C65.607 13.1203 65.5751 13.0789 65.5544 13.0366C65.5224 12.984 65.5017 12.9313 65.4698 12.8787C65.5121 12.8157 65.5544 12.7424 65.5957 12.6794C65.6484 12.795 65.7114 12.9107 65.7743 13.0159C65.7226 13.0676 65.67 13.1203 65.6277 13.1626ZM64.9556 13.8873C64.9133 13.845 64.871 13.8037 64.8296 13.751C64.8607 13.7087 64.903 13.6777 64.934 13.6354C65.0393 13.5094 65.1342 13.3835 65.2282 13.2575C65.2705 13.3308 65.3025 13.3938 65.3438 13.4671C65.2075 13.5931 65.0816 13.7407 64.9556 13.8873ZM67.1298 15.8096C66.4474 16.1142 65.7743 16.4507 65.1342 16.8596C64.7667 16.4921 64.4405 16.0512 64.1886 15.5577C64.4405 15.1789 64.7037 14.8114 64.9866 14.4542C65.5328 14.927 66.1635 15.3265 66.8676 15.5474C66.9616 15.631 67.0462 15.726 67.1298 15.8096ZM64.01 15.1375C63.9366 14.9486 63.8633 14.7484 63.8003 14.5491C64.0729 14.4128 64.3361 14.2342 64.5561 14.034C64.6087 14.0866 64.6614 14.1392 64.714 14.1919C64.4621 14.4861 64.2309 14.8114 64.01 15.1375ZM64.1782 12.889C63.9573 12.5328 63.7684 12.1126 63.6217 11.6811C63.7054 11.0194 63.8737 10.3266 64.1152 9.61218C64.1256 10.6105 64.4095 11.6605 65.0186 12.8684C64.903 13.047 64.7667 13.2256 64.6294 13.3938C64.6087 13.4145 64.5881 13.4361 64.5664 13.4671C64.4301 13.2679 64.2938 13.0789 64.1782 12.889ZM64.5138 9.5915C64.5138 9.192 64.5664 8.79249 64.6717 8.43623C65.1652 8.26797 65.701 8.16269 66.2368 8.16269C66.2368 8.16269 66.2368 8.16269 66.2472 8.16269C65.4491 9.29728 65.0082 10.6734 65.3758 12.0496C65.3861 12.1126 65.4068 12.1643 65.4284 12.2169C65.3758 12.3015 65.3335 12.3852 65.2808 12.4698C64.7554 11.4085 64.5138 10.4732 64.5138 9.5915ZM68.695 8.47759C68.8942 8.17303 69.1151 7.88915 69.3671 7.63722C69.43 7.90043 69.4507 8.17303 69.43 8.45691C69.2514 8.53023 69.0728 8.61389 68.8942 8.69849C68.8839 8.68815 68.8736 8.68815 68.8736 8.67781C68.8209 8.61389 68.7579 8.55091 68.695 8.47759ZM69.3567 8.91939C69.3464 8.97109 69.336 9.02373 69.3144 9.06603C69.2834 9.03407 69.2514 9.00305 69.2204 8.98237C69.2618 8.96075 69.3041 8.94007 69.3567 8.91939ZM69.7976 10.3689C69.1151 11.4085 68.663 12.5958 68.4844 13.8243C68.1911 13.0996 68.0125 12.3542 67.9599 11.6294C68.3904 11.2506 68.7889 10.8304 69.1255 10.3576C69.2204 10.2213 69.3144 10.0747 69.399 9.91674C69.5137 10.0643 69.6509 10.2213 69.7976 10.3689ZM69.619 9.39128C69.6923 9.18165 69.7553 8.96075 69.7872 8.72951C70.0185 8.63551 70.2601 8.56219 70.5016 8.48793C70.575 8.62517 70.6586 8.76147 70.7536 8.88743C70.7959 8.94007 70.8372 8.99271 70.8795 9.04535C70.5853 9.3283 70.3127 9.64414 70.0711 9.97972C69.9235 9.75976 69.7769 9.56988 69.619 9.39128ZM71.342 8.28865C71.531 8.25763 71.7199 8.22567 71.9192 8.19465C71.7829 8.28865 71.6466 8.38359 71.5103 8.48793C71.4576 8.42495 71.3946 8.35163 71.342 8.28865ZM74.4299 10.022C74.3773 10.2636 74.2936 10.5052 74.1987 10.7364C73.9571 10.9254 73.7371 11.135 73.5162 11.3352C73.411 11.4292 73.317 11.5242 73.2117 11.6078C73.191 11.6078 73.1694 11.5975 73.1384 11.5975C73.0331 11.2929 72.9278 10.9987 72.8018 10.7045C72.6966 10.4525 72.5922 10.2213 72.4653 9.99006C73.0961 10.1376 73.7785 10.1376 74.4299 10.022ZM73.4213 12.0177C73.3903 12.06 73.348 12.1126 73.317 12.154C73.3057 12.1229 73.2953 12.091 73.285 12.0496C73.3057 12.0383 73.317 12.0177 73.3376 12.0073C73.3583 12.0177 73.3903 12.0177 73.4213 12.0177ZM74.0624 15.5474C74.146 15.7363 74.241 15.9149 74.3463 16.0935C73.9468 16.3558 73.5369 16.587 73.1064 16.776C73.0124 16.65 72.9278 16.5137 72.8545 16.3765C72.424 15.631 72.1091 14.8114 71.8252 14.0029C72.2877 13.6984 72.7389 13.3308 73.1384 12.921C73.1487 12.9417 73.1487 12.9633 73.159 12.984C73.411 13.8347 73.6742 14.7174 74.0624 15.5474ZM73.191 18.8036C71.6569 18.7293 70.1238 18.562 68.6216 18.3091C67.7813 18.1728 66.8253 17.9839 66.0159 17.5214C65.8166 17.4058 65.6174 17.2695 65.4388 17.1228C66.0686 16.7233 66.752 16.3981 67.4447 16.0935C68.6103 17.1012 69.9235 17.6474 71.2471 17.606C71.3317 17.606 71.4257 17.5957 71.5103 17.5957C71.7725 17.669 72.0564 17.7113 72.361 17.7C72.4023 17.732 72.4446 17.763 72.4869 17.8053C72.7389 18.0158 73.1167 18.3937 73.191 18.8036ZM63.9573 15.9356C64.1989 16.3558 64.4828 16.744 64.808 17.0805C64.7873 17.1012 64.7554 17.1125 64.7347 17.1332C63.9789 17.669 63.6217 18.2678 63.6951 18.8449C63.7261 19.0555 63.8107 19.2548 63.916 19.4127C63.6528 19.1288 63.4638 18.7819 63.3689 18.3834C63.2222 17.6793 63.4008 16.8916 63.9573 15.9356ZM63.5588 12.5741C63.6424 12.7527 63.7374 12.921 63.8417 13.0996C63.9789 13.3205 64.1256 13.5301 64.2938 13.7407C64.1152 13.8977 63.916 14.0452 63.6951 14.1609C63.6631 14.034 63.6424 13.908 63.6217 13.7717C63.5794 13.3835 63.5475 12.984 63.5588 12.5741ZM63.3379 14.3179C63.0436 14.4128 62.7287 14.4438 62.4138 14.3705C61.4578 14.1496 60.9643 13.0573 61.048 12.1756C61.1533 11.104 61.909 10.2316 62.5294 9.6855C62.6968 9.53886 62.8857 9.39128 63.0859 9.25498C62.9177 10.0324 62.9703 10.8934 63.2326 11.7441C63.1489 12.4801 63.1489 13.1729 63.2542 13.8347C63.2749 13.9926 63.3059 14.1496 63.3379 14.3179ZM64.0626 8.67781C64.01 8.80377 63.9573 8.91939 63.916 9.04535C63.7054 9.60184 63.5371 10.148 63.4215 10.6838C63.3585 10.0953 63.3905 9.49656 63.5794 8.94007C63.7261 8.84513 63.8943 8.76147 64.0626 8.67781ZM64.6821 7.39564C64.5561 7.61654 64.4508 7.84779 64.3672 8.09971C64.3568 8.11005 64.3465 8.12039 64.3465 8.14201C64.1782 8.20499 64.01 8.27831 63.8417 8.36197C63.8737 8.30933 63.9047 8.25763 63.9366 8.20499C64.1256 7.87881 64.3878 7.61654 64.6821 7.39564ZM64.997 7.93145C65.0712 7.85813 65.1549 7.79515 65.2498 7.73217C65.6803 7.44828 66.2058 7.43794 66.7097 7.58458C66.6467 7.64756 66.594 7.72183 66.5311 7.78481C66.4361 7.77447 66.3318 7.77447 66.2368 7.77447C65.827 7.77447 65.4068 7.82617 64.997 7.93145ZM67.7183 6.62954C67.4654 6.81848 67.2238 7.0281 66.9935 7.25934C66.6993 7.15406 66.3948 7.10142 66.0902 7.10142C65.7856 7.10142 65.4811 7.1644 65.1972 7.30164C65.3025 7.1644 65.4068 7.0281 65.5328 6.91248C66.1945 6.63988 66.9616 6.54494 67.7183 6.62954ZM68.1272 6.30336C67.676 6.20935 67.2135 6.18773 66.752 6.23003C66.9306 6.18773 67.1195 6.16705 67.3084 6.16705C67.5923 6.16705 67.8753 6.21969 68.1272 6.30336ZM68.7786 6.90214C68.8942 6.94444 68.9995 6.99708 69.1048 7.03844C69.1462 7.10142 69.1885 7.17568 69.2204 7.249C68.9159 7.5216 68.6526 7.84779 68.4214 8.19465C68.3274 8.09971 68.2325 8.01605 68.1272 7.93145C67.9072 7.74251 67.6553 7.57424 67.3818 7.43794C67.6233 7.2067 67.8856 6.99708 68.1488 6.8072C68.1798 6.78652 68.2118 6.76584 68.2428 6.74422C68.4214 6.77618 68.6 6.82882 68.7786 6.90214ZM70.1651 5.75721C70.1238 6.05143 70.1021 6.33532 70.1021 6.60792C69.9555 6.69252 69.8079 6.78652 69.6613 6.8918C69.5663 6.83916 69.462 6.78652 69.3671 6.73388C69.2514 6.5769 69.1048 6.42932 68.9469 6.30336C69.336 6.09373 69.7449 5.90479 70.1651 5.75721ZM70.1125 7.04972C70.1125 7.09108 70.1238 7.14372 70.1238 7.18602C70.0918 7.1644 70.0495 7.13338 70.0081 7.1127C70.0495 7.09108 70.0815 7.0704 70.1125 7.04972ZM70.3437 8.13073C70.1651 8.18337 69.9978 8.23601 69.8295 8.29899C69.8399 7.98409 69.7976 7.65884 69.6923 7.36462C69.8822 7.48024 70.0608 7.61654 70.2281 7.74251C70.2601 7.87881 70.2911 8.00477 70.3437 8.13073ZM70.4913 6.82882C70.9115 6.61826 71.3627 6.48196 71.8252 6.45094C72.4869 6.3983 73.0961 6.54494 73.5266 6.85984C73.6845 6.97546 73.8105 7.10142 73.9157 7.23866C73.4843 7.37496 73.0754 7.54322 72.6862 7.74251C72.1194 7.76319 71.562 7.83745 71.0271 7.95307C70.8795 7.80549 70.7329 7.65884 70.575 7.53288C70.5223 7.31198 70.5016 7.08074 70.4913 6.82882ZM74.4506 4.91685C74.0417 4.8642 73.6215 4.83318 73.2013 4.83318C72.3394 4.83318 71.4783 4.94881 70.6483 5.17911C70.7959 4.53896 71.0158 4.0558 71.3204 3.68826C71.7829 3.14211 72.4973 2.90053 73.0641 3.08947C73.5473 3.24645 73.9468 3.6986 74.2617 4.43368C74.3359 4.5916 74.3989 4.75892 74.4506 4.91685ZM74.8821 7.00742C74.6922 7.03844 74.5136 7.08074 74.3246 7.13338C74.178 6.92282 73.9891 6.72354 73.7578 6.55528C73.2427 6.17739 72.5499 6.00913 71.7932 6.07211C71.342 6.10407 70.9115 6.23003 70.4913 6.40864C70.5016 6.15671 70.5327 5.89351 70.575 5.62091C71.8675 5.22141 73.2427 5.12741 74.5775 5.33703C74.7345 5.87283 74.8294 6.43966 74.8821 7.00742ZM74.9234 7.88915C74.8501 7.87881 74.7768 7.86847 74.6922 7.85813C74.6508 7.74251 74.5982 7.61654 74.5352 7.48024C74.6612 7.44828 74.7871 7.4276 74.9131 7.39564C74.9131 7.5639 74.9131 7.73217 74.9234 7.88915ZM74.8191 8.26797C74.8501 8.27831 74.8924 8.27831 74.9234 8.28865C74.9234 8.47759 74.9131 8.66653 74.9131 8.85641C74.8924 8.65619 74.8605 8.46725 74.8191 8.26797ZM74.8191 10.3059C74.7975 10.3162 74.7768 10.3369 74.7448 10.3473C74.7871 10.211 74.8191 10.0747 74.8398 9.93742C74.8398 10.0643 74.8294 10.179 74.8191 10.3059ZM74.7035 11.5975C74.5249 11.6182 74.3359 11.6398 74.1573 11.6398C74.2936 11.4189 74.4093 11.198 74.5136 10.978C74.5982 10.915 74.6922 10.8408 74.7768 10.7891C74.7768 10.8408 74.7665 10.8831 74.7665 10.9357C74.7345 11.1566 74.7242 11.3766 74.7035 11.5975ZM74.6085 15.7673C74.5352 15.6414 74.4722 15.5051 74.4093 15.3791C74.0417 14.5811 73.7785 13.7087 73.5266 12.8684C73.4956 12.7744 73.4739 12.6794 73.4429 12.5958C73.5999 12.4172 73.7475 12.2273 73.8838 12.0383C73.8941 12.0383 73.9045 12.0383 73.9157 12.0383C74.1677 12.0383 74.4093 12.028 74.6612 11.997C74.5879 12.9107 74.5456 13.8347 74.6085 14.7484V15.7673ZM74.5982 18.2678C74.2203 18.0158 73.8734 17.7113 73.5689 17.3748C73.9571 17.1755 74.2936 16.8916 74.6085 16.5551L74.5982 18.2678ZM74.5879 18.8449C74.4826 18.8449 74.3773 18.8449 74.2833 18.8449C74.052 18.8449 73.8208 18.8346 73.5896 18.8242C73.5369 18.3307 73.1797 17.9106 72.8855 17.6267C72.9908 17.606 73.0961 17.574 73.2013 17.5327C73.5896 17.9942 74.0624 18.4041 74.5982 18.719L74.5879 18.8449ZM74.5775 21.3247C73.4213 21.4393 72.2557 21.5023 71.0901 21.5023C71.0788 21.5023 71.0685 21.5023 71.0581 21.5023C69.9978 21.5023 68.6846 21.4393 67.4344 21.1141C69.0728 21.1771 70.7432 20.9045 72.2764 20.3367C72.7492 20.1685 73.3903 19.8639 73.5585 19.2548C73.5585 19.2444 73.5689 19.2341 73.5689 19.2125C73.8105 19.2237 74.0417 19.2341 74.2833 19.2341C74.3876 19.2341 74.4929 19.2341 74.5982 19.2341L74.5775 21.3247ZM17.1835 5.55793C16.3958 6.05143 15.4182 6.50264 14.2949 6.92282C15.124 6.26105 16.1119 5.77789 17.1835 5.55793ZM18.4121 5.43197C17.2672 6.29302 15.5864 7.0704 13.4855 7.72183C13.5589 7.63722 13.6331 7.55356 13.7168 7.46896C15.4501 6.88146 16.8677 6.19807 17.9083 5.45265C18.0756 5.44231 18.2439 5.43197 18.4121 5.43197ZM19.4207 5.49495C18.1705 6.51392 16.1646 7.44828 13.5908 8.18337C13.4019 8.23601 13.2026 8.28865 13.0024 8.34129C13.0447 8.27831 13.087 8.21533 13.1283 8.15235C15.6598 7.40598 17.6451 6.47162 18.8953 5.43197C19.0842 5.45265 19.2525 5.47333 19.4207 5.49495ZM20.3448 5.69423C19.1058 6.74422 17.0576 7.71055 14.4105 8.46725C13.8324 8.63551 13.2543 8.78215 12.6555 8.91939C12.6875 8.85641 12.7194 8.79249 12.7608 8.74079C13.0757 8.65619 13.3802 8.57253 13.6858 8.48793C16.4372 7.7002 18.5587 6.68124 19.8306 5.56827C19.9979 5.59929 20.1765 5.64159 20.3448 5.69423ZM21.0065 5.91513C19.7779 7.00742 17.6874 8.01605 14.9566 8.79249C14.1266 9.02373 13.2759 9.2343 12.4036 9.42324C12.4252 9.3706 12.4459 9.3283 12.4666 9.27566C13.1499 9.11868 13.8324 8.95041 14.4942 8.76147C17.2775 7.96341 19.4207 6.9341 20.6916 5.78917C20.7969 5.84087 20.9012 5.87283 21.0065 5.91513ZM21.689 6.24037C20.45 7.31198 18.3914 8.28865 15.7021 9.05569C14.5778 9.38094 13.4019 9.64414 12.225 9.87444C12.2353 9.84342 12.2466 9.80112 12.2673 9.7701C13.2129 9.56988 14.1473 9.34992 15.0403 9.08671C17.8866 8.26797 20.0609 7.21704 21.3214 6.04109C21.4474 6.11441 21.5743 6.17739 21.689 6.24037ZM22.3507 6.66056C21.1015 7.67952 19.0946 8.61389 16.5218 9.34992C15.0929 9.75976 13.5805 10.085 12.0783 10.3576C12.0887 10.3162 12.099 10.2739 12.1094 10.2429C13.3596 10.0013 14.5994 9.71746 15.7857 9.38094C18.57 8.58287 20.702 7.5639 21.9729 6.42932C22.0988 6.4923 22.2248 6.56562 22.3507 6.66056ZM22.8339 7.03844C21.5846 8.03673 19.5993 8.95041 17.0679 9.67516C15.4398 10.1376 13.6961 10.5052 11.9834 10.7891C11.9937 10.7468 11.9937 10.7148 12.005 10.6838C13.5589 10.4102 15.1352 10.0747 16.6158 9.64414C19.2628 8.88743 21.3327 7.92111 22.6139 6.8495C22.6873 6.91248 22.7606 6.97546 22.8339 7.03844ZM23.3283 7.50092C22.0678 8.42495 20.1878 9.26532 17.8237 9.93742C15.9333 10.4732 13.8954 10.8831 11.9204 11.1876C11.9204 11.1669 11.9204 11.1463 11.9308 11.1246C13.6858 10.8304 15.4812 10.4629 17.1619 9.97972C19.7563 9.2343 21.7839 8.29899 23.0755 7.249C23.1601 7.33266 23.2437 7.41726 23.3283 7.50092ZM23.7795 8.03673C22.5293 8.85641 20.7856 9.61218 18.633 10.2213C16.4691 10.8408 14.0947 11.2722 11.8678 11.5975C11.8678 11.5665 11.8678 11.5345 11.8791 11.5138C13.885 11.198 15.9756 10.7891 17.9083 10.2429C20.3137 9.5492 22.2464 8.68815 23.538 7.73217C23.6226 7.83745 23.6959 7.93145 23.7795 8.03673ZM24.9564 10.4732C24.9348 10.4732 24.9141 10.4629 24.8935 10.4629C24.9141 10.4525 24.9245 10.4525 24.9461 10.4422C24.9564 10.4422 24.9564 10.4525 24.9564 10.4732ZM25.0608 10.9987C24.8512 10.946 24.6303 10.8831 24.4103 10.8201C24.3473 10.7994 24.273 10.7778 24.2101 10.7571C24.2843 10.7261 24.3577 10.6941 24.431 10.6631C24.6303 10.7148 24.8305 10.7674 25.0298 10.8097C25.0504 10.8727 25.0608 10.9357 25.0608 10.9987ZM25.135 11.5345C25.0721 11.5138 25.0194 11.5025 24.9564 11.4819C24.4733 11.3456 23.9901 11.198 23.5069 11.0306C23.5906 10.9987 23.6639 10.9677 23.7372 10.9357C23.9375 10.9987 24.1264 11.0513 24.3154 11.104C24.5776 11.1773 24.8408 11.2506 25.1031 11.3136C25.1238 11.3982 25.1238 11.4715 25.135 11.5345ZM25.1557 12.028C24.3887 11.808 23.6113 11.5552 22.8452 11.2722C22.9082 11.2506 22.9711 11.2299 23.0341 11.2092C23.6432 11.4189 24.2627 11.6182 24.8718 11.7864C24.9668 11.8184 25.0608 11.8391 25.1557 11.8597C25.1557 11.9227 25.1557 11.9754 25.1557 12.028ZM22.3507 11.5345C22.3094 11.5138 22.2567 11.5025 22.2144 11.4819C22.2671 11.4715 22.3094 11.4508 22.362 11.4396C22.393 11.4508 22.4137 11.4612 22.4457 11.4715C23.349 11.7968 24.2627 12.1013 25.1557 12.3645C25.1557 12.4172 25.1557 12.4585 25.1454 12.5112C24.2101 12.2169 23.2757 11.8917 22.3507 11.5345ZM21.9832 11.8494C21.9306 11.8287 21.8676 11.808 21.8159 11.7864C21.8262 11.7554 21.8469 11.7234 21.8572 11.6924C21.9306 11.7234 21.9945 11.7441 22.0678 11.7761C23.0755 12.1643 24.0945 12.5215 25.1031 12.8261C25.0927 12.8787 25.0927 12.9313 25.0824 12.9943C24.0531 12.6475 23.0125 12.2592 21.9832 11.8494ZM21.658 12.1756C21.6476 12.1756 21.6476 12.1643 21.6373 12.1643C21.6476 12.1333 21.6683 12.1013 21.6786 12.0703C21.7003 12.0806 21.7106 12.0806 21.7313 12.091C22.8132 12.5328 23.9271 12.9417 25.0298 13.2989C25.0194 13.3412 25.0091 13.3938 25.0091 13.4361C23.8952 13.0573 22.7606 12.6268 21.658 12.1756ZM24.9141 13.8563C23.7589 13.4465 22.5923 12.9943 21.4793 12.5215C21.4897 12.5008 21.5 12.4801 21.5104 12.4585C22.6346 12.921 23.7899 13.3619 24.9461 13.751C24.9348 13.782 24.9245 13.814 24.9141 13.8563ZM21.3214 12.889C21.3327 12.858 21.343 12.8373 21.3534 12.8054C22.4776 13.2885 23.6536 13.7407 24.8192 14.1609C24.8089 14.2022 24.7882 14.2445 24.7778 14.2868C23.6009 13.845 22.4353 13.3722 21.3214 12.889ZM21.1645 13.2575C21.1748 13.2256 21.1851 13.2049 21.1955 13.1729C22.3197 13.6561 23.4853 14.1392 24.6622 14.5698C24.6519 14.6017 24.6303 14.644 24.6199 14.6751C23.444 14.2445 22.2774 13.751 21.1645 13.2575ZM21.0272 13.6034C21.0272 13.5931 21.0385 13.5724 21.0488 13.5621C22.1515 14.0452 23.3171 14.5388 24.4939 14.9796C24.4836 15.0012 24.4733 15.0323 24.4517 15.0529C23.2757 14.5914 22.1204 14.0979 21.0272 13.6034ZM20.8909 13.9606C20.9012 13.94 20.9125 13.9193 20.9125 13.8977C21.9945 14.3808 23.1394 14.8743 24.305 15.3368C24.2843 15.3688 24.273 15.3998 24.2524 15.4318C23.0868 14.9486 21.9522 14.4438 20.8909 13.9606ZM23.5699 15.5887C23.538 15.5784 23.4957 15.5577 23.4646 15.5474C23.3387 15.4947 23.2127 15.4421 23.0971 15.3895C23.0548 15.3688 23.0022 15.3472 22.9608 15.3368C22.8339 15.2842 22.7079 15.2315 22.5923 15.1789C22.551 15.1582 22.5087 15.1375 22.4664 15.1272C22.3404 15.0746 22.2144 15.0219 22.0988 14.9589C22.0678 14.9486 22.0358 14.927 22.0048 14.9166C21.8789 14.864 21.752 14.801 21.6373 14.7484C21.595 14.7277 21.5527 14.7174 21.5217 14.6957C21.3957 14.644 21.2801 14.5811 21.1541 14.5284C21.1118 14.5068 21.0695 14.4861 21.0385 14.4758C20.9539 14.4335 20.8599 14.3912 20.7753 14.3602L20.8072 14.2868C21.8469 14.77 22.9608 15.2635 24.1161 15.726C24.0945 15.757 24.0738 15.7777 24.0634 15.8096C24.0315 15.7993 24.0108 15.789 23.9788 15.7777C23.8218 15.694 23.6959 15.6414 23.5699 15.5887ZM23.1601 15.8933C22.3724 15.5577 21.5743 15.1789 20.7856 14.7803C20.7339 14.7597 20.6813 14.7277 20.639 14.707C20.6493 14.6854 20.6493 14.6647 20.6597 14.644C20.702 14.6647 20.7443 14.6854 20.7856 14.6957C20.9012 14.7484 21.0272 14.8114 21.1541 14.864C21.1955 14.8856 21.2378 14.9063 21.2801 14.9166C21.3957 14.9693 21.5217 15.0323 21.6476 15.0849C21.6786 15.0952 21.7106 15.1159 21.7416 15.1272C21.8572 15.1789 21.9832 15.2315 22.1092 15.2945C22.1515 15.3161 22.1938 15.3368 22.2464 15.3575C22.3724 15.4101 22.488 15.4628 22.6139 15.5154C22.6666 15.5361 22.7079 15.5577 22.7502 15.5784C22.8762 15.631 22.9918 15.6837 23.1178 15.7363C23.1601 15.757 23.1911 15.7673 23.2334 15.789C23.3594 15.8407 23.475 15.8933 23.6009 15.9459C23.6432 15.9676 23.6959 15.9882 23.7485 16.0089C23.7795 16.0193 23.8218 16.0409 23.8642 16.0512C23.8425 16.0822 23.8115 16.1142 23.7899 16.1462C23.5699 16.0616 23.3594 15.9779 23.1601 15.8933ZM20.5027 15.0952C20.513 15.0642 20.5234 15.0323 20.5337 15.0012C21.3637 15.4318 22.2041 15.82 23.0341 16.1772C23.2127 16.2505 23.3913 16.3248 23.5586 16.3981C23.5276 16.4394 23.4853 16.4817 23.4543 16.5137C22.4664 16.0935 21.4794 15.6104 20.5027 15.0952ZM20.3767 15.5154C20.3871 15.4731 20.3974 15.4421 20.4077 15.3998C21.343 15.8933 22.2878 16.3558 23.2231 16.7656C23.1808 16.8079 23.1394 16.8493 23.0971 16.8916C22.1834 16.4714 21.2688 15.9986 20.3767 15.5154ZM20.2611 15.9356C20.2714 15.9046 20.2818 15.8623 20.2921 15.82C21.1325 16.2721 21.9832 16.713 22.8452 17.1125C22.8029 17.1435 22.7709 17.1755 22.7296 17.2065C21.8995 16.8183 21.0695 16.3877 20.2611 15.9356ZM20.1662 16.3351L20.1878 16.2608C20.9332 16.6707 21.689 17.0702 22.456 17.4377C22.425 17.4584 22.393 17.4904 22.362 17.5111C21.6157 17.1332 20.8806 16.7337 20.1662 16.3351ZM20.0825 16.7656C20.0825 16.7337 20.0928 16.7026 20.1032 16.6603C20.7443 17.0175 21.3957 17.3748 22.0462 17.7113C22.0048 17.7423 21.9625 17.763 21.9202 17.7846C21.3008 17.4481 20.6813 17.1125 20.0825 16.7656ZM20.0092 17.1962C20.0092 17.1642 20.0195 17.1228 20.0299 17.0909C20.544 17.3851 21.0695 17.6793 21.6053 17.9632C21.563 17.9839 21.5217 18.0046 21.4793 18.0262C20.9858 17.7526 20.4923 17.48 20.0092 17.1962ZM19.9565 17.606C19.9565 17.5844 19.9565 17.5637 19.9669 17.543C20.3448 17.763 20.7339 17.9839 21.1221 18.1944C21.0911 18.2048 21.0592 18.2151 21.0385 18.2358C20.6709 18.0262 20.3137 17.8156 19.9565 17.606ZM19.9246 18.0469C19.9246 18.0158 19.9246 17.9839 19.9246 17.9529C20.1662 18.0892 20.4077 18.2358 20.6493 18.373C20.607 18.3834 20.576 18.4041 20.5337 18.4144C20.3344 18.2884 20.1239 18.1728 19.9246 18.0469ZM19.9246 18.4144C19.9876 18.4567 20.0609 18.499 20.1239 18.53C20.0825 18.5404 20.0402 18.5507 19.9979 18.562C19.9772 18.5507 19.9453 18.53 19.9246 18.5197C19.9246 18.4877 19.9246 18.4464 19.9246 18.4144ZM19.1688 18.6983C19.1895 17.0702 19.809 14.896 20.9755 12.4059C21.0798 12.1963 21.1748 11.9754 21.2801 11.7657C21.3111 11.7554 21.3327 11.7554 21.3637 11.7441C21.406 11.7338 21.4587 11.7234 21.5 11.7028C21.4794 11.7441 21.4587 11.7968 21.437 11.8391C21.406 11.9124 21.3741 11.9857 21.3327 12.0496C21.2904 12.1436 21.2481 12.2386 21.2058 12.3326C21.1955 12.3542 21.1851 12.3749 21.1851 12.3955C21.1428 12.4905 21.1015 12.5845 21.0592 12.6794C21.0488 12.7001 21.0385 12.7321 21.0272 12.7527C20.9858 12.8477 20.9436 12.953 20.9012 13.047C20.8909 13.0789 20.8806 13.0996 20.8702 13.1306C20.8279 13.2256 20.7856 13.3308 20.7546 13.4248C20.7443 13.4361 20.7443 13.4568 20.7339 13.4671C20.6916 13.5621 20.6597 13.6664 20.6183 13.7614C20.607 13.782 20.607 13.8037 20.5967 13.8243C20.5553 13.9193 20.5234 14.0236 20.4923 14.1186C20.4811 14.1392 20.4707 14.1712 20.4604 14.1919C20.4181 14.2972 20.3871 14.3912 20.3551 14.4965C20.3344 14.5594 20.3137 14.6121 20.3025 14.6647C20.2818 14.7277 20.2611 14.7803 20.2395 14.8433C20.2291 14.8743 20.2188 14.9063 20.2085 14.9373C20.1765 15.0426 20.1455 15.1479 20.1135 15.2428C20.1032 15.2842 20.0928 15.3161 20.0825 15.3472C20.0505 15.4524 20.0195 15.5577 19.9979 15.663C19.9876 15.694 19.9772 15.7363 19.9669 15.7673C19.9349 15.8726 19.9142 15.9779 19.8936 16.0822C19.8823 16.1039 19.8823 16.1349 19.8719 16.1565C19.8513 16.2608 19.8193 16.3765 19.7986 16.4817C19.7883 16.5137 19.7883 16.5447 19.7779 16.5767C19.7563 16.6923 19.7356 16.7966 19.715 16.9019C19.7037 16.9339 19.7037 16.9649 19.6933 17.0072C19.6727 17.1228 19.6623 17.2385 19.6407 17.3428C19.6407 17.3644 19.6407 17.3851 19.6304 17.4058C19.62 17.5214 19.6097 17.637 19.5993 17.7526C19.5993 17.7846 19.5993 17.8156 19.589 17.8372C19.5777 17.9632 19.5777 18.0788 19.5777 18.1944C19.5777 18.2255 19.5777 18.2678 19.5777 18.2988C19.5777 18.4041 19.5777 18.5093 19.589 18.6146C19.557 18.6146 19.5364 18.625 19.5044 18.625C19.4104 18.6663 19.2948 18.6879 19.1688 18.6983ZM18.57 18.7293C18.6227 17.1228 19.2421 15.0116 20.3767 12.5958C20.4811 12.3749 20.5863 12.1436 20.702 11.9227C20.7649 11.9124 20.8279 11.8917 20.8909 11.871C20.8279 12.0073 20.7649 12.1333 20.702 12.2696C19.5044 14.8114 18.8849 17.0382 18.8643 18.719C18.759 18.7293 18.664 18.7293 18.57 18.7293ZM17.897 18.7086C18.0342 17.1539 18.6433 15.2005 19.6727 12.9943C19.8193 12.6898 19.9669 12.3852 20.1135 12.0806C20.1662 12.0703 20.2291 12.0496 20.2818 12.0383C20.2085 12.1859 20.1455 12.3222 20.0722 12.4698C18.9272 14.9166 18.2965 17.0702 18.2439 18.7293C18.1386 18.719 18.0126 18.719 17.897 18.7086ZM17.2145 18.6033C17.4251 17.1435 18.0126 15.3791 18.9272 13.4145C19.1162 13.0159 19.3155 12.6164 19.5147 12.2169C19.5777 12.2066 19.652 12.1859 19.715 12.1756C19.5993 12.4059 19.4941 12.6268 19.3888 12.858C18.3388 15.0952 17.7297 17.0805 17.5821 18.6776C17.4665 18.656 17.3405 18.6353 17.2145 18.6033ZM16.6581 18.467C16.91 17.0702 17.4665 15.4214 18.3172 13.6034C18.5174 13.1833 18.727 12.7631 18.9376 12.3429C18.9902 12.3326 19.0532 12.3119 19.1162 12.3015C18.9479 12.6268 18.79 12.953 18.6433 13.2782C17.7193 15.2532 17.1309 17.0495 16.91 18.53C16.8263 18.5197 16.7417 18.499 16.6581 18.467ZM16.0799 18.2781C16.3638 17.0175 16.8893 15.5681 17.6244 14.0029C17.866 13.4878 18.1179 12.9736 18.3914 12.4698C18.4441 12.4585 18.4958 12.4482 18.5381 12.4378C18.3595 12.7847 18.1912 13.1306 18.0239 13.4775C17.1722 15.3058 16.6054 16.9649 16.3432 18.3834C16.2689 18.3411 16.1749 18.3091 16.0799 18.2781ZM15.5131 18.0158C15.8177 16.9226 16.2802 15.7147 16.879 14.4231C17.1619 13.814 17.4777 13.1945 17.8133 12.5741C17.8763 12.5638 17.9393 12.5535 18.0023 12.5328C17.771 12.9736 17.5511 13.4145 17.3508 13.8563C16.6158 15.4214 16.0903 16.8709 15.797 18.1418C15.7021 18.1098 15.6071 18.0675 15.5131 18.0158ZM15.0403 17.7526C15.0826 17.6267 15.124 17.5007 15.1663 17.3748C15.4501 16.5137 15.828 15.5887 16.2802 14.6224C16.5847 13.9823 16.91 13.3308 17.2568 12.6898C17.3095 12.6794 17.3621 12.6691 17.4251 12.6587C17.1412 13.2049 16.8573 13.751 16.6054 14.2972C16.0066 15.5784 15.5442 16.776 15.2396 17.8683C15.2189 17.8579 15.1982 17.8372 15.1663 17.826C15.1136 17.8053 15.0826 17.7846 15.0403 17.7526ZM14.5778 17.4481C14.6408 17.2695 14.7038 17.0909 14.778 16.9123C14.841 16.7553 14.8937 16.5974 14.967 16.4394C15.1559 15.9779 15.3552 15.5051 15.5864 15.0116C15.9333 14.2652 16.3215 13.5198 16.721 12.7847C16.7633 12.7744 16.816 12.7631 16.8573 12.7631C16.5528 13.3412 16.2586 13.9193 15.986 14.4861C15.6711 15.1582 15.3975 15.8096 15.1559 16.4291C15.0093 16.8079 14.8824 17.1858 14.7677 17.543C14.7677 17.5534 14.7677 17.5637 14.7564 17.5637C14.7038 17.5327 14.6408 17.4904 14.5778 17.4481ZM14.1266 17.0805C14.3362 16.5551 14.5675 16.0089 14.8307 15.4421C15.2292 14.5914 15.6814 13.7294 16.1542 12.8787C16.2059 12.8684 16.2689 12.858 16.3215 12.8477C15.954 13.5198 15.6071 14.2022 15.2922 14.8743C14.904 15.694 14.5778 16.4921 14.3156 17.2385C14.2526 17.1858 14.1793 17.1332 14.1266 17.0805ZM13.7375 16.713C13.885 16.3558 14.042 15.9986 14.2206 15.631C14.6408 14.7484 15.1033 13.8563 15.5968 12.9736C15.6494 12.9633 15.7021 12.953 15.7547 12.953C15.3242 13.7407 14.9143 14.5284 14.5468 15.3161C14.2949 15.8407 14.074 16.3558 13.8747 16.8596C13.8324 16.8079 13.7798 16.7656 13.7375 16.713ZM13.3915 16.3248C13.4329 16.2195 13.4855 16.1245 13.5278 16.0193C13.9903 15.0323 14.5261 14.034 15.0826 13.047C15.124 13.0366 15.1663 13.0366 15.2086 13.0263C14.7564 13.845 14.3259 14.6751 13.9377 15.4947C13.7798 15.82 13.6435 16.1462 13.5072 16.4611C13.4649 16.4188 13.4226 16.3661 13.3915 16.3248ZM13.055 15.883C13.5072 14.9589 14.011 14.034 14.5365 13.1306C14.5891 13.1203 14.6408 13.1203 14.6831 13.1099C14.1689 14.034 13.6745 14.9589 13.2336 15.8933C13.2129 15.9459 13.181 15.9986 13.1603 16.0512C13.1283 15.9986 13.087 15.9356 13.055 15.883ZM12.7608 15.4421C13.1499 14.6957 13.5589 13.9503 13.9903 13.2152C14.042 13.2049 14.0843 13.2049 14.137 13.1945C13.6858 13.9823 13.2439 14.7803 12.8454 15.5887C12.8238 15.5361 12.7927 15.4844 12.7608 15.4421ZM12.5192 14.9796C12.8341 14.4025 13.1603 13.8347 13.4855 13.2782C13.5175 13.2782 13.5589 13.2679 13.5908 13.2679C13.2336 13.877 12.8971 14.4965 12.5718 15.1056C12.5615 15.0642 12.5408 15.0219 12.5192 14.9796ZM12.2992 14.4758C12.5192 14.0979 12.7401 13.7191 12.961 13.3515C13.0024 13.3515 13.055 13.3412 13.0973 13.3308C12.8454 13.7614 12.6038 14.1919 12.3622 14.6224C12.3406 14.5698 12.3199 14.5181 12.2992 14.4758ZM12.1206 13.9296C12.225 13.7614 12.3199 13.5828 12.4252 13.4145C12.4666 13.4145 12.5192 13.4042 12.5615 13.3938C12.4252 13.6147 12.2992 13.845 12.162 14.0763C12.1413 14.034 12.131 13.9823 12.1206 13.9296ZM12.005 13.4671C12.0154 13.4671 12.0257 13.4671 12.036 13.4671C12.0257 13.4775 12.0257 13.4878 12.0154 13.4991C12.005 13.4878 12.005 13.4775 12.005 13.4671ZM11.9308 13.0789C14.7151 12.7321 17.9496 12.2386 20.8383 11.4085C22.362 10.9677 23.6959 10.4629 24.7985 9.9064C24.8089 9.92708 24.8089 9.9487 24.8192 9.96938C24.8408 10.022 24.8512 10.0747 24.8718 10.1273C24.8089 10.1583 24.7355 10.1903 24.6622 10.2213C24.5776 10.2636 24.5043 10.2946 24.4206 10.3266C24.2627 10.3896 24.1161 10.4629 23.9478 10.5259C23.8745 10.5578 23.8115 10.5785 23.7372 10.6105C23.5803 10.6734 23.4223 10.7364 23.2654 10.7891C23.1911 10.8201 23.1178 10.8408 23.0445 10.8727C22.8865 10.9254 22.7296 10.9883 22.5613 11.041C22.4137 11.0936 22.2671 11.135 22.1204 11.1876C21.9832 11.2299 21.8469 11.2722 21.7002 11.3136C21.626 11.3352 21.563 11.3559 21.4897 11.3766C21.4267 11.3982 21.3637 11.4189 21.2904 11.4292C21.2171 11.4508 21.1428 11.4715 21.0695 11.4922C21.0065 11.5138 20.9436 11.5242 20.8909 11.5448C20.7546 11.5871 20.6183 11.6182 20.4811 11.6501C20.4294 11.6605 20.3767 11.6811 20.3137 11.6924C20.1765 11.7234 20.0402 11.7554 19.9039 11.7968C19.8409 11.8184 19.7779 11.8287 19.715 11.8391C19.5777 11.871 19.4414 11.902 19.3051 11.934C19.2525 11.9443 19.1895 11.9547 19.1369 11.9754C19.0006 12.0073 18.8643 12.0383 18.7374 12.06C18.6857 12.0703 18.6433 12.0806 18.5907 12.091C18.4544 12.1229 18.3172 12.1436 18.1912 12.1756C18.1282 12.1859 18.0756 12.1963 18.0126 12.2066C17.8763 12.2386 17.74 12.2592 17.614 12.2912C17.5614 12.3015 17.5088 12.3119 17.4561 12.3222C17.3198 12.3429 17.1835 12.3749 17.0576 12.3955C17.0153 12.4059 16.973 12.4059 16.9307 12.4172C16.7944 12.4378 16.6684 12.4585 16.5321 12.4905C16.4795 12.5008 16.4268 12.5112 16.3742 12.5215C16.2379 12.5431 16.1016 12.5638 15.9756 12.5845C15.923 12.5958 15.8703 12.6061 15.828 12.6061C15.6917 12.6268 15.5554 12.6475 15.4295 12.6691C15.3872 12.6794 15.3552 12.6794 15.3139 12.6898C15.1766 12.7114 15.0506 12.7321 14.9143 12.7527C14.8617 12.7631 14.8194 12.7631 14.7677 12.7744C14.6305 12.795 14.4942 12.8157 14.3682 12.8373C14.3259 12.8477 14.2733 12.8477 14.2319 12.858C14.0947 12.8787 13.9687 12.9003 13.8324 12.9107C13.8004 12.9107 13.7694 12.921 13.7271 12.921C13.5908 12.9417 13.4545 12.953 13.3286 12.9736C13.2863 12.984 13.2439 12.984 13.2026 12.9943C13.0654 13.0159 12.929 13.0263 12.8031 13.047C12.7608 13.047 12.7194 13.0573 12.6668 13.0676C12.5295 13.0893 12.3932 13.0996 12.2673 13.1203C12.2363 13.1203 12.2043 13.1306 12.1723 13.1306C12.1094 13.1419 12.036 13.1522 11.9731 13.1522C11.9308 13.1306 11.9308 13.0996 11.9308 13.0789ZM11.8791 12.7001C14.4735 12.3645 17.3931 11.8814 20.0092 11.1246C21.8159 10.6105 23.349 9.99006 24.5466 9.31796C24.5889 9.4129 24.6303 9.51724 24.6726 9.61218C23.5906 10.1583 22.2567 10.6631 20.7339 11.104C17.8763 11.9227 14.6521 12.4172 11.8791 12.7631C11.8894 12.7424 11.8791 12.7217 11.8791 12.7001ZM11.8574 12.3326C14.2629 11.997 16.8893 11.5345 19.2628 10.8624C21.3111 10.2739 23.0125 9.55954 24.273 8.77181C24.3257 8.85641 24.368 8.95041 24.4206 9.03407C23.2437 9.69584 21.7209 10.3059 19.9349 10.8201C17.3405 11.5665 14.4519 12.0383 11.8678 12.3852C11.8574 12.3645 11.8574 12.3542 11.8574 12.3326ZM11.8574 12.0177C11.8574 11.9857 11.8574 11.9547 11.8574 11.9227C14.1163 11.5975 16.5218 11.1566 18.7167 10.5259C20.8909 9.9064 22.6769 9.13935 23.9581 8.28865C24.0108 8.36197 24.0531 8.43623 24.1057 8.50955C22.8762 9.27566 21.1955 9.97972 19.1688 10.5578C16.8263 11.2299 14.2422 11.6811 11.8574 12.0177Z" fill="white"/>
</g>
</svg>
