<svg width="45" height="41" viewBox="0 0 45 41" fill="none" xmlns="http://www.w3.org/2000/svg">
<path d="M44.0972 20.3115C44.4312 14.4253 39.7666 10.3013 38.4512 9.25684C36.1817 2.55078 28.5518 2.02148 26.233 2.02148C25.959 2.02148 25.7374 2.03027 25.5816 2.03564C22.5679 1.01514 19.7642 0.5 17.2515 0.5C11.1675 0.5 8.35063 3.47461 7.49956 4.60156C4.28911 5.66016 2.11333 7.37158 1.03276 9.69336C-0.206988 12.355 0.402387 15.0039 0.744673 16.0732C-0.278765 18.8315 -0.222613 21.0762 0.909223 22.7524C2.52495 25.146 5.80522 25.5571 7.72026 25.5796C8.43608 29.3574 10.6426 31.272 14.2896 31.272C15.3287 31.272 16.3843 31.1104 17.4117 30.9043C18.2906 32.0498 20.0508 33.876 23.4424 36.0127C26.0801 37.6743 28.1714 40.2207 28.1714 40.2207H33.3023C33.3023 40.2207 32.5035 38.521 31.5547 36.6948C32.2818 36.6724 32.9976 36.5962 33.67 36.439C36.566 35.7598 38.314 33.9111 38.5186 31.397C41.4273 30.5576 43.3868 29.0991 44.3291 27.0508C45.6119 24.2461 44.5323 21.291 44.0972 20.3115ZM33.1226 34.1074C30.2476 34.7812 26.7002 34.5132 25.4004 32.4102C23.8677 32.5635 21.6988 31.3662 21.5835 29.9888C21.6485 29.9775 21.7271 29.9595 21.7872 29.9512C22.8511 29.8105 23.9952 29.7402 25.1871 29.7402C29.8956 29.7402 34.3257 30.8535 36.104 31.3662C35.9234 32.7583 34.9307 33.6836 33.1226 34.1074ZM42.146 26.064C41.4581 27.5532 39.8482 28.6187 37.3619 29.2422C36.0142 28.8223 30.8599 27.3472 25.1871 27.3472C23.8902 27.3472 22.6407 27.4272 21.4727 27.583C20.709 27.6841 19.8418 27.8931 18.9219 28.1147C17.4424 28.4712 15.7681 28.877 14.2896 28.877C12.4229 28.877 10.459 28.3364 9.97172 24.4609C11.5215 18.6533 22.7207 19.145 26.9546 19.8413L27.3433 17.48C26.6514 17.3677 10.8521 14.873 7.84917 23.1851C6.69829 23.1821 3.96635 23.0039 2.89262 21.4131C2.17387 20.3491 2.25395 18.7095 3.13139 16.5352L3.31499 16.0747L3.1187 15.6187C3.10893 15.5933 2.09379 13.0791 3.20122 10.7056C4.02983 8.92822 5.84477 7.60156 8.59868 6.76514L9.05083 6.62744L9.28813 6.21631C9.3062 6.18408 11.273 2.89355 17.253 2.89355C19.5635 2.89355 22.1788 3.3916 25.0284 4.37451L25.2657 4.45703L25.5157 4.4375C25.5396 4.43457 25.8018 4.41504 26.2344 4.41504C28.7247 4.41504 34.6919 4.99072 36.2798 10.3237L36.3975 10.7153L36.733 10.9565C36.7876 10.9946 42.1797 14.897 41.6924 20.4351L41.6631 20.7856L41.8248 21.0962C41.8374 21.1201 43.1973 23.7939 42.146 26.064Z" fill="white"/>
</svg>
