<svg width="60" height="54" viewBox="0 0 60 54" fill="none" xmlns="http://www.w3.org/2000/svg">
<path d="M55.1244 5.53168C51.9258 2.33304 47.7989 0.681641 43.3622 0.681641C38.9249 0.681641 34.6945 2.43588 31.5994 5.53168L29.9487 7.07892L28.4008 5.53168C25.2021 2.33304 21.0746 0.681641 16.6379 0.681641C12.2012 0.681641 7.97088 2.43588 4.87509 5.53168C-1.62503 12.0318 -1.62503 22.6594 4.87509 29.1602L29.2261 53.5106C29.4325 53.7169 29.7423 53.8204 29.9487 53.8204C30.155 53.8204 30.4642 53.7169 30.6705 53.5106L55.1244 29.1602C61.6252 22.5566 61.6252 12.0318 55.1244 5.53168ZM53.5772 27.6123L29.9487 51.3437L6.32014 27.6123C0.644738 21.9369 0.644738 12.6508 6.32014 6.97607C9.1061 4.19012 12.7174 2.64222 16.6379 2.64222C20.5591 2.64222 24.1704 4.19012 26.9564 6.87257L29.2261 9.143C29.6388 9.55568 30.2578 9.55568 30.6705 9.143L32.941 6.87257C35.7262 4.08662 39.3376 2.64222 43.2587 2.64222C47.1799 2.64222 50.7912 4.19012 53.5772 6.97607C59.3548 12.6508 59.3548 21.9369 53.5772 27.6123ZM46.1475 18.2227C45.7348 15.953 43.8778 14.3016 41.5045 14.3016H35.4171V12.548C35.4171 11.5156 34.5917 10.5874 33.4565 10.5874H26.131C25.0986 10.5874 24.1704 11.4128 24.1704 12.548V14.3016H18.0823C15.7097 14.3016 13.852 16.0558 13.4393 18.2227C13.3364 18.4291 13.3364 18.5319 13.3364 18.7389C13.3364 18.8418 13.3364 18.9453 13.3364 18.9453V30.5011C13.3364 33.0807 15.3999 35.1441 17.9795 35.1441H41.1953C43.7749 35.1441 45.8383 33.0807 45.8383 30.5011V19.0481C45.8383 18.9453 45.8383 18.9453 45.8383 18.8418C46.251 18.6354 46.251 18.4291 46.1475 18.2227ZM26.4402 12.7543H33.4565V14.4051H26.4402V12.7543ZM18.2887 16.3656H41.5045C42.6397 16.3656 43.5686 17.0875 43.9813 18.0164L41.2982 19.0481C40.989 18.4291 40.4728 18.1192 39.7509 18.1192H38.7185C37.7903 18.1192 36.965 18.8418 36.965 19.8735V20.9052L29.9487 23.6911L22.9324 20.8023V19.7706C22.9324 18.8418 22.2098 18.0164 21.1781 18.0164H20.1464C19.4239 18.0164 18.9077 18.4291 18.5985 18.9453L15.9161 17.9129C16.2252 17.0875 17.257 16.3656 18.2887 16.3656ZM39.0284 21.6277C39.0284 21.5242 39.1312 21.5242 39.0284 21.6277V20.2861H39.4411V23.4848H39.0284V21.6277ZM20.4556 20.596V20.2861H20.8683V23.4848H20.4556V20.596ZM41.608 33.287H18.2887C16.8443 33.287 15.7097 32.1518 15.7097 30.7074V20.1833L18.3922 21.3179V23.7946C18.3922 24.7228 19.1147 25.5489 20.1464 25.5489H21.1781C22.1063 25.5489 22.9324 24.8263 22.9324 23.7946V23.0721L29.6388 25.7552C29.7423 25.7552 29.8452 25.8581 30.0515 25.8581C30.2578 25.8581 30.3613 25.8581 30.4642 25.7552L37.1713 23.0721V23.6911C37.1713 24.62 37.8932 25.4454 38.9249 25.4454H39.9573C40.8855 25.4454 41.7108 24.7228 41.7108 23.6911V21.215L44.394 20.0798V30.5011C44.1876 32.049 43.0524 33.287 41.608 33.287Z" fill="white"/>
</svg>
