<svg width="50" height="67" viewBox="0 0 50 67" fill="none" xmlns="http://www.w3.org/2000/svg">
<path d="M29.8805 34.9742C29.9636 34.9742 30.0459 34.9742 30.129 34.8919C30.129 34.8919 33.4376 32.4106 39.2276 33.5681C39.4761 33.6512 39.6416 33.4858 39.724 33.2372C39.807 32.9894 39.6416 32.8239 39.393 32.7408C33.1891 31.4178 29.715 34.0645 29.6326 34.1476C29.4672 34.3131 29.3841 34.5609 29.5496 34.7264C29.6326 34.8919 29.715 34.9742 29.8805 34.9742Z" fill="white"/>
<path d="M38.8962 38.2836C38.8962 38.035 38.7307 37.8696 38.5659 37.8696C37.2422 37.7041 36.4149 38.2005 35.5876 38.6138C34.5955 39.1933 33.6851 39.6066 31.7002 38.6969C31.5347 38.6138 31.2862 38.6969 31.1207 38.8624C31.0383 39.0278 31.1207 39.2757 31.2862 39.4411C32.1966 39.9375 33.0232 40.103 33.6027 40.103C34.5124 40.103 35.1742 39.7721 35.8361 39.3588C36.5804 38.9448 37.2422 38.6138 38.3174 38.6969C38.6483 38.6969 38.8962 38.5314 38.8962 38.2836Z" fill="white"/>
<path d="M17.721 38.6142C15.7354 39.5246 14.9088 39.1106 13.8329 38.5318C13.0887 38.1185 12.179 37.6221 10.8552 37.7875C10.6074 37.7875 10.4419 38.0354 10.5243 38.2009C10.5243 38.4494 10.7728 38.6142 10.9383 38.5318C12.0135 38.4494 12.6754 38.7796 13.4196 39.1937C14.0815 39.5246 14.7433 39.9379 15.653 39.9379C16.3149 39.9379 17.0592 39.7724 17.9689 39.276C18.1343 39.1937 18.2998 38.9451 18.1343 38.6973C18.1343 38.6142 17.8865 38.5318 17.721 38.6142Z" fill="white"/>
<path d="M10.6893 33.5693C16.4799 32.3287 19.7885 34.81 19.7885 34.893C19.8709 34.9754 19.954 34.9754 20.0363 34.9754C20.1194 34.9754 20.2849 34.893 20.3673 34.81C20.5327 34.6445 20.4504 34.3966 20.2849 34.2312C20.1194 34.1488 16.6453 31.5013 10.5238 32.8251C10.276 32.9074 10.1929 33.0729 10.1929 33.3215C10.276 33.4869 10.4414 33.6524 10.6893 33.5693Z" fill="white"/>
<path d="M26.4062 57.1439C24.5868 57.9713 23.0976 57.2263 23.0152 57.1439C22.8497 57.0609 22.6012 57.1439 22.4357 57.3094C22.2703 57.4749 22.4357 57.7227 22.6012 57.8882C22.6843 57.8882 23.3454 58.3015 24.4213 58.3846C24.3382 58.467 24.2558 58.55 24.2558 58.7155V61.1968C24.2558 61.4453 24.4213 61.6108 24.6692 61.6108C24.9177 61.6108 25.0825 61.4453 25.0825 61.1968V58.7155C25.0825 58.6324 25.0001 58.467 24.9177 58.3846C25.4965 58.3846 26.0753 58.2191 26.6548 57.9713C26.9026 57.8882 26.985 57.6403 26.8202 57.3918C26.9026 57.1439 26.6548 57.0609 26.4062 57.1439Z" fill="white"/>
<path d="M29.8799 54.5796C29.218 54.9105 28.2259 54.7451 27.1501 54.4965C26.4889 54.331 25.9094 54.2487 25.1652 54.1656V53.6699C25.1652 53.4213 24.9997 53.2559 24.7519 53.2559C24.5033 53.2559 24.3378 53.4213 24.3378 53.6699V54.1656C23.676 54.2487 23.0148 54.4141 22.353 54.5796C21.2771 54.8274 20.285 55.076 19.6231 54.7451C19.3746 54.662 19.2091 54.7451 19.0443 54.9105C18.9613 55.1584 19.0443 55.3238 19.2091 55.4893C19.54 55.6548 19.9541 55.7378 20.3674 55.7378C21.0292 55.7378 21.7735 55.5724 22.5184 55.4069C23.0972 55.2414 23.676 55.1584 24.2555 55.076V56.2335C24.2555 56.4821 24.4209 56.6476 24.6688 56.6476C24.9173 56.6476 25.0821 56.4821 25.0821 56.2335V55.076C25.6616 55.1584 26.3234 55.2414 26.9022 55.4069C28.1429 55.6548 29.3011 55.9033 30.2108 55.4893C30.3763 55.4069 30.5418 55.1584 30.3763 54.9105C30.2939 54.5796 30.0454 54.4965 29.8799 54.5796Z" fill="white"/>
<mask id="mask0_1222_9149" style="mask-type:luminance" maskUnits="userSpaceOnUse" x="0" y="0" width="50" height="67">
<path d="M0 0.204102H50V66.5133H0V0.204102Z" fill="white"/>
</mask>
<g mask="url(#mask0_1222_9149)">
<path d="M49.9808 28.1099C49.9808 23.6431 49.319 12.6413 43.1974 6.60287C40.4683 3.95611 36.9935 2.63239 32.9407 2.71547H32.8576C27.7295 -0.0974501 21.608 -0.510766 16.0659 1.72267C6.30556 5.61007 0.0185547 15.9499 0.0185547 28.1099C0.0185547 29.5984 0.101637 32.3283 0.845884 34.6441C0.7635 34.7272 0.680418 34.8096 0.598034 34.975C0.0185548 35.8854 0.267103 37.5394 0.598034 38.78C1.42536 42.0063 3.57572 46.1422 6.05701 47.6314C8.20806 54.5796 12.4264 61.6932 20.4504 65.4982C21.8565 66.1601 23.345 66.491 24.8342 66.491C26.3234 66.491 27.8119 66.1601 29.218 65.4982C37.2421 61.6932 41.378 54.662 43.6115 47.6314C46.0927 46.1422 48.3262 42.0063 49.0704 38.78C49.4014 37.6225 49.6499 35.9678 49.1535 35.0581C49.6499 32.8247 49.9808 30.5088 49.9808 28.1099ZM47.7474 34.1484C47.0025 34.0653 46.2582 34.6441 45.7618 35.1405C45.9273 32.4937 45.8449 30.4258 45.7618 29.433C46.5891 29.847 47.5819 30.1779 48.6571 30.4258H48.7395C48.905 30.4258 48.9881 30.3434 49.0704 30.2603C48.9881 31.6664 48.7395 33.0725 48.4086 34.4793C48.1607 34.2308 47.9129 34.1484 47.7474 34.1484ZM16.3969 2.46692C21.6911 0.398947 27.481 0.729879 32.4443 3.45972L32.6097 3.5421H32.6928H32.7752C36.7457 3.45972 39.9719 4.70036 42.6187 7.18235C48.7395 13.1377 49.1535 24.6359 49.1535 28.0269C49.1535 28.6063 49.1535 29.1851 49.0704 29.6815C48.9881 29.5984 48.905 29.433 48.7395 29.433C44.3557 28.5232 42.4532 25.8765 40.3852 23.0636C39.5579 21.9884 38.7306 20.8308 37.7385 19.755C34.5122 16.364 30.0454 16.6118 29.0526 16.6949C26.6544 14.7093 24.3378 13.9651 22.022 14.3784C19.0443 14.9578 16.149 17.6046 13.7501 21.9884C10.8548 27.365 2.66601 28.1099 0.7635 28.2754C0.7635 28.1923 0.7635 28.1099 0.7635 28.0269C0.845884 16.2809 6.96742 6.27194 16.3969 2.46692ZM3.90665 35.1405C3.41025 34.6441 2.66601 34.1484 2.00414 34.1484H1.92106C1.83868 34.1484 1.67321 34.1484 1.59013 34.2308C1.09443 32.4937 0.928966 30.5912 0.928966 29.1851C1.50775 29.1851 2.58293 29.102 3.98904 28.8542C3.90665 29.516 3.74119 31.8319 3.90665 35.1405ZM1.42536 38.6146C1.01135 37.1261 1.01135 35.9678 1.34228 35.4714C1.59013 35.0581 1.92106 34.975 2.00414 34.975C2.74839 34.975 3.6581 35.9678 3.98904 36.3818C4.1545 38.1189 4.31997 40.1038 4.73398 42.2548C4.73398 42.3372 4.73398 42.5027 4.81636 42.5851C5.06491 43.8264 5.31276 45.067 5.72608 46.3901C3.82357 44.7361 2.08653 41.3444 1.42536 38.6146ZM28.8878 64.754C27.7295 65.3328 26.4058 65.5813 25.1652 65.6637V63.5957C25.1652 63.3479 24.9997 63.1824 24.7519 63.1824C24.5033 63.1824 24.3378 63.3479 24.3378 63.5957V65.6637C23.0972 65.5813 21.9389 65.3328 20.7814 64.754C11.3512 60.2871 7.38073 51.1055 5.72608 43.0814C6.22247 43.33 6.71887 43.4955 7.21527 43.7433C7.29835 43.7433 7.29835 43.7433 7.38073 43.7433C7.5462 43.7433 7.71167 43.6609 7.79405 43.4955C7.87713 43.2469 7.79405 43.0814 7.5462 42.916C6.88434 42.6681 6.22247 42.3372 5.47823 42.0894C4.1545 34.8096 4.73398 28.8542 4.73398 28.6887C8.0426 28.0269 12.4264 26.3729 14.4944 22.4848C16.0659 19.5071 18.7134 15.8676 22.1875 15.2881C22.8493 15.1226 23.5105 15.2057 24.2555 15.2881V16.4463C24.2555 16.6949 24.4209 16.8604 24.6688 16.8604C24.9173 16.8604 25.0821 16.6949 25.0821 16.4463V15.4535C26.2403 15.7845 27.481 16.4463 28.7223 17.5215C28.8047 17.6046 28.9702 17.6046 29.0526 17.6046C29.1356 17.6046 33.9335 16.9427 37.159 20.3344C38.1518 21.3265 38.896 22.4848 39.7234 23.56C41.1295 25.4625 42.5363 27.4481 44.8521 28.8542C44.9345 29.9294 45.2654 35.4714 44.0248 42.0894C43.6938 42.2548 43.446 42.4203 43.1151 42.5851C42.9496 42.6681 42.8665 42.916 42.9496 43.1645C43.032 43.33 43.1974 43.4124 43.2805 43.4124C43.3629 43.4124 43.446 43.4124 43.446 43.33C43.5284 43.2469 43.6115 43.2469 43.6938 43.1645C42.2053 51.1879 38.2349 60.3695 28.8878 64.754ZM48.2438 38.6146C47.5819 41.3444 45.8449 44.7361 43.9424 46.3901C44.2733 45.1494 44.6036 43.9088 44.769 42.6681C44.8521 42.5851 44.8521 42.4196 44.8521 42.3372C45.2654 40.1868 45.514 38.2013 45.5964 36.3818C45.9273 35.9678 46.9201 34.975 47.5819 34.975C47.6643 34.975 47.9129 34.975 48.1607 35.389C48.1607 35.389 48.1607 35.4714 48.2438 35.4714C48.6571 35.9678 48.6571 37.1261 48.2438 38.6146Z" fill="white"/>
</g>
<path d="M24.7524 31.75C25.0002 31.75 25.1657 31.5846 25.1657 31.336V28.8547C25.1657 28.6069 25.0002 28.4414 24.7524 28.4414C24.5038 28.4414 24.3384 28.6069 24.3384 28.8547V31.336C24.3384 31.5846 24.5038 31.75 24.7524 31.75Z" fill="white"/>
<path d="M24.7524 36.711C25.0002 36.711 25.1657 36.5462 25.1657 36.2976V33.8164C25.1657 33.5678 25.0002 33.4023 24.7524 33.4023C24.5038 33.4023 24.3384 33.5678 24.3384 33.8164V36.2976C24.3384 36.5462 24.5038 36.711 24.7524 36.711Z" fill="white"/>
<path d="M24.7524 26.7862C25.0002 26.7862 25.1657 26.6207 25.1657 26.3728V23.8909C25.1657 23.643 25.0002 23.4775 24.7524 23.4775C24.5038 23.4775 24.3384 23.643 24.3384 23.8909V26.3728C24.3384 26.6207 24.5038 26.7862 24.7524 26.7862Z" fill="white"/>
<path d="M24.7524 41.6748C25.0002 41.6748 25.1657 41.5094 25.1657 41.2615V38.7795C25.1657 38.5317 25.0002 38.3662 24.7524 38.3662C24.5038 38.3662 24.3384 38.5317 24.3384 38.7795V41.2615C24.3384 41.5094 24.5038 41.6748 24.7524 41.6748Z" fill="white"/>
<path d="M24.7524 21.8223C25.0002 21.8223 25.1657 21.6568 25.1657 21.409V18.9277C25.1657 18.6791 25.0002 18.5137 24.7524 18.5137C24.5038 18.5137 24.3384 18.6791 24.3384 18.9277V21.409C24.3384 21.6568 24.5038 21.8223 24.7524 21.8223Z" fill="white"/>
<path d="M24.3384 48.707V51.1883C24.3384 51.4368 24.5038 51.6023 24.7524 51.6023C25.0002 51.6023 25.1657 51.4368 25.1657 51.1883V48.707C25.1657 48.4584 25.0002 48.293 24.7524 48.293C24.5038 48.293 24.3384 48.4584 24.3384 48.707Z" fill="white"/>
<path d="M24.7524 46.6387C25.0002 46.6387 25.1657 46.4732 25.1657 46.2254V43.7434C25.1657 43.4955 25.0002 43.3301 24.7524 43.3301C24.5038 43.3301 24.3384 43.4955 24.3384 43.7434V46.2254C24.3384 46.4732 24.5038 46.6387 24.7524 46.6387Z" fill="white"/>
<path d="M31.6174 46.4736C30.7908 46.556 29.9634 46.7215 29.2185 46.7215C28.9706 46.7215 28.8052 46.97 28.8052 47.1355C28.8052 47.3833 28.9706 47.5488 29.2185 47.5488C30.0458 47.4664 30.8731 47.3833 31.7005 47.2179C31.9483 47.2179 32.1138 46.97 32.0314 46.7215C32.0314 46.6391 31.8659 46.4736 31.6174 46.4736Z" fill="white"/>
<path d="M40.9643 43.7436C40.2201 44.0745 39.4758 44.4054 38.7309 44.6533C38.483 44.7364 38.4006 44.9842 38.483 45.1497C38.5661 45.3151 38.7309 45.3982 38.8963 45.3982C38.9794 45.3982 38.9794 45.3982 39.0618 45.3982C39.8068 45.1497 40.6334 44.8188 41.3783 44.4878C41.6262 44.4054 41.7093 44.1576 41.6262 43.909C41.5438 43.6612 41.2129 43.6612 40.9643 43.7436Z" fill="white"/>
<path d="M36.4149 45.3972C35.6706 45.645 34.8433 45.8105 34.016 45.9759C33.7681 46.059 33.6851 46.2245 33.6851 46.4723C33.7681 46.6378 33.9336 46.8033 34.0991 46.8033H34.1815C35.0088 46.6378 35.8361 46.3893 36.5804 46.1414C36.8282 46.059 36.9113 45.8105 36.8282 45.645C36.7458 45.4795 36.5804 45.3141 36.4149 45.3972Z" fill="white"/>
<path d="M21.7741 47.4665C22.0227 47.4665 22.1881 47.301 22.1881 47.1356C22.1881 46.887 22.0227 46.7216 21.8572 46.7216C21.0299 46.6392 20.2026 46.5561 19.4583 46.3906C19.2098 46.3906 19.045 46.4737 18.9619 46.7216C18.9619 46.9701 19.045 47.1356 19.2928 47.218C20.1202 47.301 20.9475 47.3834 21.7741 47.4665Z" fill="white"/>
<path d="M24.2558 47.713C24.8346 47.713 25.4965 47.7961 26.0752 47.7961C26.3238 47.7961 26.5716 47.7961 26.7371 47.7961C26.9849 47.7961 27.1504 47.6306 27.1504 47.3821C27.1504 47.1342 26.9849 46.9688 26.7371 46.9688C25.9098 46.9688 25.0824 46.9688 24.2558 46.9688C24.0073 46.9688 23.8418 47.1342 23.8418 47.3821C23.8418 47.4651 24.0073 47.6306 24.2558 47.713Z" fill="white"/>
<path d="M12.1788 44.6527C11.4339 44.4049 10.6073 44.157 9.86233 43.8261C9.61448 43.743 9.44901 43.8261 9.36663 44.0739C9.28354 44.3225 9.36663 44.4873 9.61448 44.5703C10.4418 44.8182 11.1861 45.1491 12.0134 45.3977C12.0958 45.3977 12.0958 45.3977 12.1788 45.3977C12.3443 45.3977 12.5098 45.3146 12.5922 45.1491C12.5098 44.9013 12.4267 44.6527 12.1788 44.6527Z" fill="white"/>
<path d="M16.977 45.8948C16.2321 45.7293 15.4048 45.5639 14.5781 45.3153C14.3296 45.2329 14.1641 45.3984 14.0817 45.6462C13.9987 45.8948 14.1641 46.0603 14.4127 46.1426C15.24 46.3905 16.0666 46.556 16.8116 46.7214H16.894C17.0594 46.7214 17.2249 46.556 17.3073 46.3905C17.3073 46.1426 17.2249 45.8948 16.977 45.8948Z" fill="white"/>
</svg>
