<svg width="56" height="67" viewBox="0 0 56 67" fill="none" xmlns="http://www.w3.org/2000/svg">
<path fill-rule="evenodd" clip-rule="evenodd" d="M52.8159 53.9605C52.8159 53.9605 52.8159 53.9605 52.7765 53.9605C47.7629 53.9219 43.5271 52.5619 40.2236 49.8801C39.8734 49.6079 39.8348 49.1417 40.1069 48.7916C40.379 48.4808 40.8452 48.4034 41.1947 48.6748C44.11 51.0072 47.8023 52.2504 52.1936 52.4065C56.4688 35.8105 52.0382 24.7342 47.4908 18.36C43.5657 12.8022 38.9017 9.7322 37.1529 8.72175C35.7149 12.2193 34.6264 16.4172 34.0048 20.6144C33.9662 21.0419 33.5773 21.314 33.1498 21.2753C32.7223 21.1973 32.4115 20.8084 32.4888 20.3809C33.1498 15.6789 34.3937 11.1315 36.0644 7.28378C36.1424 7.08901 36.2978 6.93361 36.4919 6.89493C36.6867 6.81758 36.9195 6.81758 37.1142 6.89493C37.3863 7.05033 43.5657 10.1597 48.7734 17.4663C53.5542 24.19 58.2569 35.8885 53.5542 53.417C53.4761 53.7278 53.1653 53.9605 52.8159 53.9605ZM35.2094 42.6122C34.9379 42.6122 34.6264 42.4568 34.5104 42.146C32.4888 37.5205 31.6338 31.5746 32.0226 25.045C32.0226 24.6175 32.4115 24.268 32.839 24.3067C33.2665 24.3454 33.5773 24.6955 33.5773 25.1231C33.1885 31.4192 34.0048 37.093 35.9484 41.5237C36.1038 41.9125 35.909 42.3787 35.5208 42.5735C35.4428 42.6122 35.3261 42.6122 35.2094 42.6122Z" fill="white"/>
<path fill-rule="evenodd" clip-rule="evenodd" d="M3.18431 53.9605C2.83484 53.9605 2.52403 53.7278 2.44599 53.417C-2.25677 35.8885 2.44599 24.19 7.22679 17.4663C12.3957 10.1597 18.6138 7.05033 18.886 6.89493C19.0807 6.81758 19.2748 6.81758 19.5082 6.89493C19.7023 6.93361 19.8577 7.08901 19.9358 7.28378C21.6845 11.2869 22.9671 16.2224 23.5887 21.1199C23.6668 21.5475 23.3553 21.9356 22.9284 21.975C22.5009 22.0523 22.1121 21.7415 22.0734 21.314C21.4898 16.8834 20.3633 12.4141 18.8473 8.72175C17.0591 9.7322 12.3957 12.8416 8.43132 18.4381C3.96201 24.8116 -0.468628 35.8498 3.76724 52.4065C8.19787 52.2504 11.8902 51.0072 14.8055 48.6748C15.1163 48.4034 15.6212 48.4808 15.8933 48.7916C16.1654 49.1417 16.0881 49.6079 15.7766 49.8801C12.4344 52.5619 8.19787 53.9219 3.18431 53.9605ZM20.7514 42.6122C20.6741 42.6122 20.5574 42.6122 20.4406 42.5735C20.0518 42.3787 19.8964 41.9125 20.0518 41.5237C21.8786 37.2878 22.7337 31.8467 22.4615 25.8614C22.4229 25.4339 22.7723 25.045 23.1999 25.045C23.6274 25.0063 23.9776 25.3558 24.0162 25.7833C24.2884 32.0408 23.3946 37.6759 21.4898 42.146C21.3737 42.4568 21.0623 42.6122 20.7514 42.6122Z" fill="white"/>
<path fill-rule="evenodd" clip-rule="evenodd" d="M42.05 25.9779C42.0113 25.9779 41.9339 25.9779 41.8559 25.9779C29.4577 22.6351 29.9633 14.8623 30.08 13.9686V1.37563C30.08 0.948111 30.4295 0.598633 30.857 0.598633C31.2845 0.598633 31.634 0.948111 31.634 1.37563V14.0073C31.634 14.0459 31.5953 14.0846 31.5953 14.124C31.5567 14.4348 30.5849 21.3525 42.2447 24.4619C42.6723 24.5786 42.905 25.0062 42.8277 25.4337C42.7109 25.7832 42.4001 25.9779 42.05 25.9779Z" fill="white"/>
<path fill-rule="evenodd" clip-rule="evenodd" d="M14.7658 25.9779C14.4164 25.9779 14.1056 25.7832 14.0275 25.4337C13.9108 25.0062 14.1442 24.5786 14.5718 24.4619C26.2316 21.3525 25.2598 14.4348 25.2212 14.124C25.2212 14.0846 25.2212 14.0459 25.2212 14.0073V1.37563C25.2212 0.948111 25.532 0.598633 25.9982 0.598633C26.4257 0.598633 26.7752 0.948111 26.7752 1.37563V13.9686C26.8532 14.8623 27.3588 22.6351 14.9606 25.9779C14.8826 25.9779 14.8439 25.9779 14.7658 25.9779Z" fill="white"/>
<path fill-rule="evenodd" clip-rule="evenodd" d="M39.9513 31.1859C39.7179 31.1859 39.4844 31.0692 39.329 30.8751C34.0434 23.9961 26.9316 23.5292 18.109 29.5145C17.3313 30.0201 17.0591 30.2141 16.5929 29.9814C16.3602 29.826 16.2041 29.5539 16.2041 29.2817C16.2041 28.8929 16.4375 28.5821 16.7877 28.504C16.9037 28.4654 17.0985 28.31 17.2539 28.2319C29.2246 20.1097 36.5311 24.6563 40.5729 29.942C40.8064 30.2535 40.767 30.7584 40.4175 31.0305C40.2621 31.1086 40.1067 31.1859 39.9513 31.1859Z" fill="white"/>
<path fill-rule="evenodd" clip-rule="evenodd" d="M39.9513 31.1858C39.8346 31.1858 39.7565 31.1471 39.6398 31.1085C39.2516 30.9524 39.0569 30.4862 39.2123 30.0973L41.3499 24.9284C41.506 24.5402 41.9722 24.3454 42.3603 24.5008C42.7492 24.6562 42.9439 25.1231 42.7879 25.5113L40.6509 30.6809C40.5342 30.9917 40.2621 31.1858 39.9513 31.1858Z" fill="white"/>
<path fill-rule="evenodd" clip-rule="evenodd" d="M16.9817 30.0593C16.7096 30.0593 16.4375 29.9039 16.2821 29.6704L14.0664 25.5899C13.8724 25.2011 14.0278 24.7349 14.3779 24.5408C14.7661 24.3461 15.233 24.4628 15.427 24.8516L17.6427 28.9321C17.8755 29.2823 17.7201 29.7485 17.3312 29.9819C17.2152 30.0206 17.0985 30.0593 16.9817 30.0593Z" fill="white"/>
<path fill-rule="evenodd" clip-rule="evenodd" d="M30.8563 2.15333H25.9982C25.532 2.15333 25.2212 1.80316 25.2212 1.37563C25.2212 0.948111 25.532 0.598633 25.9982 0.598633H30.8563C31.2839 0.598633 31.6334 0.948111 31.6334 1.37563C31.6334 1.80316 31.2839 2.15333 30.8563 2.15333Z" fill="white"/>
<path fill-rule="evenodd" clip-rule="evenodd" d="M42.0108 40.2023C41.8554 40.2023 41.7387 40.1636 41.6219 40.0856C39.2902 38.7644 37.969 37.0929 36.6477 35.4996C35.4425 33.9842 34.2767 32.5849 32.4112 31.4964C32.0223 31.3024 31.9056 30.7968 32.1004 30.4473C32.3331 30.0585 32.8 29.9418 33.1882 30.1365C35.2871 31.3797 36.6084 32.9738 37.8523 34.5278C39.1348 36.0825 40.3394 37.5598 42.3996 38.7644C42.7491 38.9584 42.8658 39.4253 42.6718 39.8135C42.5164 40.0469 42.2829 40.2023 42.0108 40.2023Z" fill="white"/>
<path fill-rule="evenodd" clip-rule="evenodd" d="M37.5421 36.0439C37.5027 36.0439 37.464 36.0439 37.4253 36.0439C36.9978 36.0053 36.687 35.6551 36.687 35.2276C36.687 34.8001 37.0365 34.4893 37.464 34.4893C37.5027 34.4893 37.5421 34.4893 37.5421 34.4893C39.1741 34.4893 41.7006 33.4401 42.5556 33.0513C42.9445 32.8572 43.4107 33.0126 43.6047 33.4014C43.7995 33.7896 43.6047 34.2565 43.2159 34.4506C43.0999 34.5279 39.8351 36.0439 37.5421 36.0439Z" fill="white"/>
<path fill-rule="evenodd" clip-rule="evenodd" d="M13.9893 40.2023C13.7172 40.2023 13.4451 40.0469 13.3284 39.8135C13.0956 39.4253 13.251 38.9584 13.6005 38.7644C15.9716 37.3651 17.0987 35.9271 18.2646 34.4118C19.3917 32.9344 20.5576 31.4191 22.8119 30.1365C23.1614 29.9418 23.667 30.0585 23.8611 30.4473C24.0945 30.7968 23.9391 31.2637 23.5889 31.4964C21.6067 32.6236 20.5963 33.9449 19.5085 35.3442C18.2646 36.9375 17.0207 38.5703 14.3782 40.0856C14.2615 40.1636 14.1061 40.2023 13.9893 40.2023Z" fill="white"/>
<path fill-rule="evenodd" clip-rule="evenodd" d="M18.4979 36.0434C16.2042 36.0434 12.9007 34.5274 12.7847 34.45C12.3572 34.256 12.2011 33.8284 12.3959 33.4396C12.5513 33.0507 13.0175 32.8567 13.4063 33.0507C13.445 33.0507 16.6711 34.5274 18.5753 34.4887C19.0028 34.4887 19.3523 34.7995 19.3916 35.227C19.3916 35.6546 19.0415 36.0434 18.6139 36.0434C18.5753 36.0434 18.5366 36.0434 18.4979 36.0434Z" fill="white"/>
<path fill-rule="evenodd" clip-rule="evenodd" d="M27.9808 66.903C20.2854 66.903 13.9893 60.6456 13.9893 52.9115C13.9893 45.2161 20.2854 38.9199 27.9808 38.9199C35.7149 38.9199 42.011 45.2161 42.011 52.9115C42.011 60.6456 35.7149 66.903 27.9808 66.903ZM27.9808 40.4746C21.1404 40.4746 15.544 46.0711 15.544 52.9115C15.544 59.7905 21.1404 65.3483 27.9808 65.3483C34.8599 65.3483 40.4563 59.7905 40.4563 52.9115C40.4563 46.0711 34.8599 40.4746 27.9808 40.4746Z" fill="white"/>
<path fill-rule="evenodd" clip-rule="evenodd" d="M30.8177 61.811H25.1818C24.7543 61.811 24.4048 61.4616 24.4048 61.034V56.5253H19.8961C19.4686 56.5253 19.1191 56.1759 19.1191 55.7483V50.1132C19.1191 49.6857 19.4686 49.3355 19.8961 49.3355H24.4048V44.8275C24.4048 44.3606 24.7543 44.0498 25.1818 44.0498H30.8177C31.2452 44.0498 31.5947 44.3606 31.5947 44.8275V49.3355H36.1033C36.5309 49.3355 36.8804 49.6857 36.8804 50.1132V55.7483C36.8804 56.1759 36.5309 56.5253 36.1033 56.5253H31.5947V61.034C31.5947 61.4616 31.2452 61.811 30.8177 61.811ZM25.9595 60.2563H30.04V55.7483C30.04 55.3208 30.3901 54.9707 30.8177 54.9707H35.3257V50.8902H30.8177C30.3901 50.8902 30.04 50.54 30.04 50.1132V45.6045H25.9595V50.1132C25.9595 50.54 25.6093 50.8902 25.1818 50.8902H20.6738V54.9707H25.1818C25.6093 54.9707 25.9595 55.3208 25.9595 55.7483V60.2563Z" fill="white"/>
</svg>
