<svg width="36" height="58" viewBox="0 0 36 58" fill="none" xmlns="http://www.w3.org/2000/svg">
<mask id="mask0_1220_8808" style="mask-type:luminance" maskUnits="userSpaceOnUse" x="12" y="0" width="12" height="11">
<path d="M12.8955 0.561523H23.1851V10.7667H12.8955V0.561523Z" fill="white"/>
</mask>
<g mask="url(#mask0_1220_8808)">
<path d="M23.0282 5.62419C23.0282 5.79023 23.0196 5.95562 23.0038 6.12034C22.9873 6.28507 22.963 6.44848 22.9307 6.61123C22.8984 6.77332 22.8582 6.9341 22.8101 7.09289C22.762 7.25103 22.7066 7.40719 22.6427 7.56006C22.5795 7.71293 22.509 7.8625 22.4306 8.00878C22.3528 8.15439 22.2678 8.29672 22.1756 8.43443C22.0833 8.57214 21.9851 8.70524 21.8797 8.83307C21.7749 8.9609 21.6636 9.08346 21.5463 9.20074C21.4297 9.31803 21.3071 9.42872 21.1786 9.53415C21.0508 9.63891 20.9177 9.73775 20.78 9.83C20.6423 9.92159 20.5006 10.0066 20.3543 10.085C20.2081 10.1627 20.0585 10.2339 19.9056 10.2972C19.7527 10.3604 19.5972 10.4164 19.4384 10.4645C19.2796 10.5126 19.1195 10.5528 18.9568 10.5851C18.7947 10.6174 18.6306 10.6418 18.4659 10.6576C18.3012 10.6741 18.1358 10.682 17.9704 10.682C17.8043 10.682 17.6396 10.6741 17.4742 10.6576C17.3095 10.6418 17.1461 10.6174 16.9833 10.5851C16.8213 10.5528 16.6605 10.5126 16.5023 10.4645C16.3435 10.4164 16.188 10.3604 16.0345 10.2972C15.8816 10.2339 15.7321 10.1627 15.5858 10.085C15.4402 10.0066 15.2979 9.92159 15.1601 9.83C15.0224 9.73775 14.8893 9.63891 14.7615 9.53415C14.6337 9.42872 14.5111 9.31803 14.3938 9.20074C14.2765 9.08346 14.1658 8.9609 14.0604 8.83307C13.9557 8.70524 13.8568 8.57214 13.7646 8.43443C13.673 8.29672 13.588 8.15439 13.5096 8.00878C13.4318 7.8625 13.3607 7.71293 13.2974 7.56006C13.2341 7.40719 13.1781 7.25103 13.13 7.09289C13.0819 6.9341 13.0417 6.77332 13.0095 6.61123C12.9772 6.44848 12.9528 6.28507 12.937 6.12034C12.9205 5.95562 12.9126 5.79023 12.9126 5.62419C12.9126 5.4588 12.9205 5.29341 12.937 5.12869C12.9528 4.96396 12.9772 4.79989 13.0095 4.6378C13.0417 4.47505 13.0819 4.31494 13.13 4.15614C13.1781 3.998 13.2341 3.84184 13.2974 3.68897C13.3607 3.53611 13.4318 3.38653 13.5096 3.24026C13.588 3.09398 13.673 2.95231 13.7646 2.8146C13.8568 2.67689 13.9557 2.54379 14.0604 2.41596C14.1658 2.28747 14.2765 2.16492 14.3938 2.04829C14.5111 1.93101 14.6337 1.81965 14.7615 1.71488C14.8893 1.60946 15.0224 1.51128 15.1601 1.41903C15.2979 1.32679 15.4402 1.24179 15.5858 1.16404C15.7321 1.08563 15.8816 1.01512 16.0345 0.951868C16.188 0.887954 16.3435 0.832605 16.5023 0.784505C16.6605 0.736404 16.8213 0.696211 16.9833 0.663925C17.1461 0.631638 17.3095 0.607259 17.4742 0.590786C17.6396 0.574972 17.8043 0.566406 17.9704 0.566406C18.1358 0.566406 18.3012 0.574972 18.4659 0.590786C18.6306 0.607259 18.7947 0.631638 18.9568 0.663925C19.1195 0.696211 19.2796 0.736404 19.4384 0.784505C19.5972 0.832605 19.7527 0.887954 19.9056 0.951868C20.0585 1.01512 20.2081 1.08563 20.3543 1.16404C20.5006 1.24179 20.6423 1.32679 20.78 1.41903C20.9177 1.51128 21.0508 1.60946 21.1786 1.71488C21.3071 1.81965 21.4297 1.93101 21.5463 2.04829C21.6636 2.16492 21.7749 2.28747 21.8797 2.41596C21.9851 2.54379 22.0833 2.67689 22.1756 2.8146C22.2678 2.95231 22.3528 3.09398 22.4306 3.24026C22.509 3.38653 22.5795 3.53611 22.6427 3.68897C22.7066 3.84184 22.762 3.998 22.8101 4.15614C22.8582 4.31494 22.8984 4.47505 22.9307 4.6378C22.963 4.79989 22.9873 4.96396 23.0038 5.12869C23.0196 5.29341 23.0282 5.4588 23.0282 5.62419Z" fill="white"/>
</g>
<path d="M3.48584 29.5955C3.48584 30.2854 4.04723 30.8461 4.73711 30.8461C4.94599 30.8461 5.14695 30.7954 5.32684 30.6992C5.50606 30.7954 5.70769 30.8461 5.91656 30.8461C6.60644 30.8461 7.16717 30.2854 7.16717 29.5955C7.16717 29.1646 6.9471 28.7725 6.59787 28.5458V23.9526C6.9471 23.7259 7.16717 23.3339 7.16717 22.903C7.16717 22.2131 6.60644 21.6523 5.91656 21.6523C5.70769 21.6523 5.50606 21.7031 5.32684 21.7993C5.14695 21.7031 4.94599 21.6523 4.73711 21.6523C4.04723 21.6523 3.48584 22.2131 3.48584 22.903C3.48584 23.3339 3.70592 23.7259 4.0558 23.9526V28.5458C3.70592 28.7725 3.48584 29.1646 3.48584 29.5955ZM4.5994 23.3082C4.4261 23.2495 4.31014 23.0868 4.31014 22.9036C4.31014 22.6684 4.50122 22.4766 4.73645 22.4766C4.84978 22.4766 4.95653 22.5201 5.03691 22.5999L5.32684 22.8865L5.6161 22.5999C5.69648 22.5201 5.80323 22.4766 5.91656 22.4766C6.15179 22.4766 6.34353 22.6677 6.34353 22.9036C6.34353 23.0868 6.22691 23.2495 6.05361 23.3082L5.77358 23.4031V29.096L6.05361 29.1909C6.22691 29.2496 6.34353 29.4123 6.34353 29.5955C6.34353 29.8307 6.15179 30.0225 5.91656 30.0225C5.80323 30.0225 5.69648 29.9783 5.6161 29.8992L5.32684 29.6126L5.03691 29.8992C4.95653 29.9783 4.84978 30.0225 4.73645 30.0225C4.50122 30.0225 4.31014 29.8314 4.31014 29.5955C4.31014 29.4123 4.4261 29.2496 4.5994 29.1909L4.87944 29.096V23.4031L4.5994 23.3082Z" fill="white"/>
<path d="M28.9058 29.5955C28.9058 30.2854 29.4665 30.8461 30.1564 30.8461C30.3652 30.8461 30.5669 30.7954 30.7461 30.6992C30.9253 30.7954 31.1269 30.8461 31.3358 30.8461C32.0257 30.8461 32.5871 30.2854 32.5871 29.5955C32.5871 29.1646 32.367 28.7725 32.0171 28.5458V23.9526C32.367 23.7259 32.5871 23.3339 32.5871 22.903C32.5871 22.2131 32.0257 21.6523 31.3358 21.6523C31.1269 21.6523 30.9253 21.7031 30.7461 21.7993C30.5669 21.7031 30.3652 21.6523 30.1564 21.6523C29.4665 21.6523 28.9058 22.2131 28.9058 22.903C28.9058 23.3339 29.1258 23.7259 29.4751 23.9526V28.5458C29.1252 28.7725 28.9058 29.1646 28.9058 29.5955ZM30.0193 23.3082C29.8454 23.2495 29.7294 23.0868 29.7294 22.9036C29.7294 22.6684 29.9205 22.4766 30.1564 22.4766C30.269 22.4766 30.3758 22.5201 30.4562 22.5999L30.7461 22.8865L31.0354 22.5999C31.1157 22.5201 31.2225 22.4766 31.3358 22.4766C31.5711 22.4766 31.7628 22.6677 31.7628 22.9036C31.7628 23.0868 31.6462 23.2495 31.4729 23.3082L31.1928 23.4031V29.096L31.4729 29.1909C31.6462 29.2496 31.7628 29.4123 31.7628 29.5955C31.7628 29.8307 31.5711 30.0225 31.3358 30.0225C31.2225 30.0225 31.1164 29.9783 31.0354 29.8992L30.7461 29.6126L30.4562 29.8992C30.3758 29.9783 30.269 30.0225 30.1564 30.0225C29.9205 30.0225 29.7294 29.8314 29.7294 29.5955C29.7294 29.4123 29.8454 29.2496 30.0193 29.1909L30.2987 29.096V23.4031L30.0193 23.3082Z" fill="white"/>
<path d="M12.8498 26.2411C13.3756 26.334 13.9482 26.3802 14.5577 26.3802C15.5045 26.3802 16.5397 26.2681 17.6256 26.0474V27.128C15.436 27.5464 13.7228 27.7632 12.5296 27.7737C10.9594 27.7882 10.7386 27.4469 10.7103 27.3784C10.6872 27.3237 10.6438 27.1043 11.0345 26.5759C11.1696 26.3933 11.1307 26.135 10.9475 26C10.765 25.8649 10.5067 25.9038 10.3716 26.0863C10.1555 26.3788 10.0132 26.6417 9.93674 26.8888C9.84515 27.1827 9.84976 27.4535 9.9486 27.6934C10.0903 28.0353 10.4112 28.2824 10.902 28.4274C11.2921 28.542 11.7949 28.598 12.4366 28.598C12.4696 28.598 12.5032 28.598 12.5368 28.598C13.7505 28.5875 15.461 28.3747 17.6256 27.9668V28.0577C17.6256 28.2851 17.8101 28.4696 18.0374 28.4696C18.2654 28.4696 18.4499 28.2851 18.4499 28.0577V27.9668C20.6144 28.3747 22.3249 28.5875 23.5386 28.598C23.5722 28.598 23.6058 28.598 23.6388 28.598C24.2799 28.598 24.7826 28.542 25.1734 28.4274C25.6636 28.2824 25.9845 28.0353 26.1262 27.6934C26.2257 27.4535 26.2303 27.1827 26.1387 26.8888C26.0623 26.6411 25.9199 26.3788 25.7038 26.0863C25.5687 25.9038 25.3104 25.8649 25.1273 26C24.9447 26.135 24.9059 26.3933 25.0409 26.5759C25.431 27.1043 25.3875 27.3237 25.3651 27.3784C25.3375 27.4456 25.1246 27.7744 23.6375 27.7744C23.6078 27.7744 23.5768 27.7744 23.5459 27.7737C22.3526 27.7632 20.6388 27.5458 18.4499 27.128V26.0474C19.5357 26.2681 20.5702 26.3802 21.5171 26.3802C22.1266 26.3802 22.6992 26.334 23.2256 26.2411C24.7029 25.9802 25.7091 25.3687 26.1347 24.472C26.3298 24.0608 26.3996 23.587 26.3416 23.0626C26.3173 22.8365 26.1136 22.6738 25.887 22.6982C25.661 22.7232 25.4982 22.9268 25.5226 23.1528C25.5641 23.5284 25.5206 23.844 25.3902 24.1188C25.0884 24.7546 24.2687 25.2205 23.0827 25.43C21.7991 25.656 20.198 25.5789 18.4499 25.206V23.9369C19.1997 24.0621 19.9225 24.1247 20.6025 24.1247C21.3319 24.1247 22.0113 24.0529 22.6208 23.9086C23.2368 23.763 23.764 23.5462 24.1863 23.2648C24.6423 22.9604 24.9691 22.5875 25.1576 22.1552C25.3361 21.7447 25.3882 21.2749 25.3118 20.7597C25.2788 20.535 25.0686 20.3795 24.8439 20.4131C24.6192 20.4467 24.4637 20.6556 24.4967 20.8809C24.5514 21.2459 24.5204 21.5556 24.4018 21.8264C24.1475 22.4116 23.4477 22.8662 22.431 23.1067C21.3253 23.3689 19.9495 23.3663 18.4499 23.1008V21.9734C18.7754 22.0037 19.093 22.0182 19.4013 22.0182C21.6522 22.0182 23.3943 21.2394 23.9228 19.9189C24.0888 19.5031 24.131 19.0353 24.0486 18.5286C24.0117 18.3046 23.8002 18.1517 23.5755 18.1886C23.3508 18.2249 23.1986 18.437 23.2349 18.6617C23.2935 19.0182 23.2672 19.3384 23.1571 19.6125C22.9357 20.1667 22.3407 20.6239 21.4822 20.9007C20.5933 21.1866 19.5002 21.2657 18.3102 21.1313C18.2377 21.0674 18.1422 21.0278 18.0374 21.0278C17.9326 21.0278 17.8371 21.0674 17.7646 21.1313C16.5746 21.2657 15.4815 21.1866 14.5926 20.9007C13.734 20.6246 13.139 20.1667 12.9176 19.6125C12.8076 19.3384 12.7819 19.0182 12.8399 18.661C12.8761 18.437 12.7239 18.2249 12.4992 18.188C12.2746 18.1517 12.063 18.3039 12.0261 18.5286C11.9438 19.0353 11.986 19.5031 12.152 19.9182C12.6804 21.2394 14.4219 22.0182 16.6734 22.0182C16.9818 22.0182 17.2994 22.003 17.6249 21.9734V23.1001C16.1252 23.3657 14.7501 23.3683 13.6438 23.1067C12.6277 22.8662 11.9273 22.4116 11.673 21.8264C11.555 21.555 11.5234 21.2459 11.5781 20.8809C11.6117 20.6556 11.4562 20.446 11.2308 20.4131C11.0062 20.3795 10.7966 20.535 10.763 20.7597C10.6866 21.2749 10.7386 21.7441 10.9179 22.1552C11.1056 22.5875 11.4325 22.9604 11.8884 23.2642C12.3115 23.5455 12.8379 23.7623 13.454 23.9086C14.0642 24.0529 14.7428 24.1247 15.4722 24.1247C16.1522 24.1247 16.8751 24.0621 17.6249 23.9363V25.206C15.8775 25.5783 14.2763 25.656 12.9928 25.4294C11.8061 25.2205 10.9864 24.7546 10.6846 24.1188C10.5541 23.844 10.5107 23.5277 10.5522 23.1528C10.5772 22.9262 10.4138 22.7232 10.1878 22.6982C9.96112 22.6731 9.75817 22.8359 9.73314 23.0626C9.67515 23.5864 9.745 24.0608 9.94003 24.472C10.3657 25.3687 11.3718 25.9802 12.8498 26.2411Z" fill="white"/>
<path d="M24.4202 32.5168C23.7988 31.5482 23.4239 30.9644 22.674 30.7186C22.0072 30.5005 21.4827 30.6771 20.8759 30.882C20.3303 31.0665 19.651 31.2958 18.5769 31.3604C18.2185 31.3821 17.8548 31.3821 17.4963 31.3604C16.4223 31.2958 15.743 31.0665 15.1974 30.882C14.5905 30.6771 14.066 30.4999 13.3992 30.7186C12.6494 30.9644 12.2745 31.5482 11.6531 32.5168C11.3803 32.9424 11.122 33.3444 10.9566 33.7377C10.7517 34.2273 10.7148 34.6582 10.8453 35.0555C11.0192 35.5893 11.4871 36.0465 12.1618 36.3431C12.7765 36.6125 13.4836 36.7087 14.1029 36.6066C14.7638 36.4979 15.2204 36.1882 15.623 35.9148C16.0711 35.611 16.3439 35.441 16.7267 35.5095C16.7557 35.5207 16.8262 35.5629 16.8783 35.5945C17.0871 35.7204 17.4014 35.9102 17.8429 35.949C17.9714 35.9602 18.1019 35.9602 18.231 35.949C18.6718 35.9102 18.9868 35.7204 19.195 35.5945C19.247 35.5636 19.3175 35.5207 19.3472 35.5095C19.7294 35.4417 20.0028 35.611 20.4509 35.9148C20.8535 36.1882 21.3094 36.4979 21.9703 36.6066C22.1324 36.633 22.3004 36.6462 22.4711 36.6462C22.9534 36.6462 23.4581 36.542 23.9115 36.3431C24.5862 36.0465 25.054 35.5899 25.2286 35.0555C25.3584 34.6582 25.3215 34.2273 25.1166 33.7377C24.9512 33.3444 24.6929 32.9424 24.4202 32.5168ZM24.4452 34.7999C24.3457 35.103 24.0307 35.3909 23.5807 35.5879C23.1149 35.7922 22.5633 35.8693 22.1041 35.7935C21.6224 35.7138 21.2778 35.4805 20.9134 35.2328C20.5207 34.9666 20.0839 34.6701 19.51 34.6701C19.4072 34.6701 19.2998 34.6793 19.1884 34.7004C19.0349 34.7287 18.9057 34.8065 18.77 34.8888C18.5927 34.9949 18.4096 35.1056 18.1585 35.128C18.0788 35.1346 17.9945 35.1346 17.9154 35.128C17.6637 35.1056 17.4805 34.9956 17.3033 34.8888C17.1675 34.8065 17.0384 34.7287 16.8849 34.7004C16.1469 34.5633 15.6224 34.9192 15.1598 35.2328C14.7954 35.4805 14.4508 35.7138 13.9692 35.7935C13.5099 35.8693 12.9577 35.7922 12.4926 35.5879C12.0425 35.3903 11.7276 35.103 11.6281 34.7999C11.4726 34.3235 11.858 33.7226 12.3469 32.9615C12.9426 32.0325 13.2022 31.6497 13.6555 31.5014C14.0456 31.3736 14.3296 31.4586 14.9338 31.6628C15.4946 31.8519 16.2628 32.1115 17.4469 32.1827C17.8376 32.2064 18.235 32.2064 18.6264 32.1827C19.8098 32.1115 20.5787 31.8519 21.1394 31.6628C21.7437 31.4586 22.0276 31.3736 22.4177 31.5014C22.8704 31.6497 23.13 32.0325 23.7263 32.9615C24.2146 33.7226 24.6007 34.3235 24.4452 34.7999Z" fill="white"/>
<path d="M17.4208 20.4012H18.6504C19.2335 20.4012 19.7079 19.9268 19.7079 19.3436V19.2659C19.7079 18.6834 19.2335 18.209 18.6504 18.209H17.4208C16.8377 18.209 16.3633 18.6834 16.3633 19.2659V19.3436C16.3633 19.9268 16.8377 20.4012 17.4208 20.4012ZM17.1876 19.2659C17.1876 19.1374 17.2923 19.0326 17.4208 19.0326H18.6504C18.7788 19.0326 18.8836 19.1374 18.8836 19.2659V19.3436C18.8836 19.4721 18.7788 19.5769 18.6504 19.5769H17.4208C17.2923 19.5769 17.1876 19.4721 17.1876 19.3436V19.2659Z" fill="white"/>
<path d="M17.4208 17.6723H18.6504C19.2335 17.6723 19.7079 17.1979 19.7079 16.6148V16.537C19.7079 15.9539 19.2335 15.4795 18.6504 15.4795H17.4208C16.8377 15.4795 16.3633 15.9539 16.3633 16.537V16.6148C16.3633 17.1979 16.8377 17.6723 17.4208 17.6723ZM17.1876 16.537C17.1876 16.4086 17.2923 16.3031 17.4208 16.3031H18.6504C18.7788 16.3031 18.8836 16.4086 18.8836 16.537V16.6141C18.8836 16.7433 18.7788 16.848 18.6504 16.848H17.4208C17.2923 16.848 17.1876 16.7433 17.1876 16.6141V16.537Z" fill="white"/>
<mask id="mask1_1220_8808" style="mask-type:luminance" maskUnits="userSpaceOnUse" x="0" y="10" width="36" height="48">
<path d="M0.5 10.5986H35.5V57.4918H0.5V10.5986Z" fill="white"/>
</mask>
<g mask="url(#mask1_1220_8808)">
<path d="M35.3421 56.4042C34.8775 55.601 33.8925 55.7861 33.0827 55.0191C32.8791 54.8261 32.6208 54.5105 32.4363 53.9912C32.462 52.4975 32.4514 50.9392 32.3974 49.3222C32.3348 47.4582 32.2188 45.6745 32.0633 43.9765H34.9177V10.6904H1.15515V43.9765H3.98056C3.82506 45.6745 3.70909 47.4582 3.64649 49.3222C3.59246 50.9392 3.58192 52.4975 3.60696 53.9912C3.42312 54.5105 3.16483 54.8261 2.96123 55.0191C2.15143 55.7868 1.16635 55.601 0.701822 56.4042C0.644497 56.503 0.500196 56.7613 0.597056 56.9721C0.684032 57.1626 0.935736 57.243 1.2138 57.2805C2.26739 57.4235 5.85846 57.2436 6.30322 57.2212C6.50287 57.2377 6.64388 57.1962 6.74469 57.1375C7.30542 56.8153 7.3555 55.5865 6.87647 54.0795C6.90612 53.5294 6.97004 52.6906 7.1262 51.6765C7.39833 49.9001 7.71395 49.1357 7.99201 47.5109C8.11852 46.7729 8.26348 45.7002 8.30565 44.3685C8.49739 44.2381 8.68847 44.1076 8.87956 43.9772H27.163C27.3547 44.1076 27.5458 44.2381 27.7376 44.3685C27.7791 45.7002 27.9247 46.7729 28.0506 47.5109C28.3286 49.1357 28.6442 49.9001 28.917 51.6765C29.0725 52.6906 29.1364 53.5294 29.1668 54.0795C28.6877 55.5865 28.7371 56.8153 29.2985 57.1375C29.3993 57.1955 29.5397 57.2377 29.74 57.2212C30.1848 57.2436 33.7758 57.4235 34.8294 57.2805C35.1068 57.243 35.3585 57.1626 35.4462 56.9721C35.5437 56.7613 35.3987 56.503 35.3421 56.4042ZM1.97879 11.5141H34.0934V13.8394H1.97879V11.5141ZM24.928 16.0085L24.6591 16.1297C24.4924 16.2048 24.2961 16.1653 24.1709 16.0309C24.0108 15.8589 24.02 15.5881 24.1926 15.428C24.275 15.3509 24.3831 15.31 24.4957 15.3133L24.9029 15.3258L24.9201 14.9186C24.924 14.8238 24.9583 14.7348 25.0183 14.663H25.6745C25.7859 14.7967 25.8056 14.9845 25.7226 15.1387L25.5823 15.399L29.4626 19.5646L29.7321 19.4434C29.8988 19.3683 30.0952 19.4078 30.2197 19.5422C30.2974 19.6252 30.3383 19.7339 30.3343 19.8479C30.3297 19.9619 30.2816 20.0674 30.1986 20.1451C30.1156 20.2222 30.0082 20.2624 29.8948 20.2598L29.4876 20.2472L29.4712 20.6544C29.4659 20.7671 29.4178 20.8719 29.3354 20.949C29.2518 21.0267 29.143 21.0676 29.029 21.0636C28.915 21.059 28.8096 21.0109 28.7319 20.9279C28.6067 20.7935 28.581 20.5958 28.668 20.4344L28.8083 20.1741L24.928 16.0085ZM7.40426 20.4344C7.49058 20.5958 7.46488 20.7935 7.34034 20.9279C7.26259 21.0116 7.15651 21.0597 7.04318 21.0636C6.92853 21.0676 6.81981 21.0274 6.73678 20.949C6.65376 20.8725 6.60566 20.7678 6.60105 20.6544L6.58457 20.2472L6.17737 20.2598C6.06404 20.263 5.95663 20.2222 5.87361 20.1451C5.78993 20.0674 5.74183 19.9619 5.73787 19.8479C5.73392 19.7339 5.77411 19.6252 5.85252 19.5422C5.97706 19.4084 6.17276 19.3683 6.34012 19.4434L6.60895 19.5646L10.4893 15.399L10.3496 15.1387C10.2666 14.9845 10.2863 14.7967 10.3977 14.6636H11.054C11.1139 14.7348 11.1482 14.8238 11.1521 14.9186L11.1686 15.3258L11.5758 15.3133C11.6892 15.3107 11.7972 15.3509 11.8796 15.428C12.0522 15.5881 12.0614 15.8589 11.9007 16.0315C11.7761 16.1653 11.5804 16.2048 11.4131 16.1297L11.1442 16.0085L7.26325 20.1748L7.40426 20.4344ZM1.97879 14.663H9.50486C9.4627 14.8514 9.46401 15.0491 9.51211 15.2395L6.38097 18.6006C5.97113 18.5281 5.54284 18.6652 5.24962 18.9802C4.77916 19.4849 4.80749 20.2782 5.31222 20.7487C5.46509 20.891 5.64694 20.9911 5.84396 21.0425C5.90985 21.2356 6.02252 21.4102 6.17539 21.5525C6.40865 21.7693 6.70977 21.8879 7.0267 21.8879C7.04186 21.8879 7.05701 21.8879 7.07217 21.8873C7.40624 21.8754 7.71526 21.7337 7.94325 21.4893C8.23712 21.1743 8.34255 20.7375 8.24173 20.3336L11.3722 16.9725C11.444 16.985 11.5165 16.9909 11.5883 16.9909C11.9283 16.9909 12.2617 16.8525 12.5042 16.5929C12.974 16.0875 12.9457 15.2949 12.4416 14.8244C12.3751 14.7631 12.3026 14.7085 12.2262 14.663H16.7041C16.8926 14.8376 17.1449 14.945 17.4217 14.945H18.6505C18.9273 14.945 19.1796 14.8376 19.3681 14.663H23.8467C23.7703 14.7085 23.6978 14.7631 23.6312 14.8251C23.1265 15.2949 23.0982 16.0875 23.5686 16.5929C23.8619 16.9079 24.2902 17.0449 24.7007 16.9725L27.8311 20.3336C27.7297 20.7375 27.8358 21.1743 28.1296 21.4893C28.357 21.7337 28.6666 21.8747 29 21.8866C29.0152 21.8873 29.0304 21.8879 29.0462 21.8879C29.3631 21.8879 29.6636 21.7693 29.8975 21.5519C30.0504 21.4095 30.163 21.2349 30.2283 21.0425C30.4253 20.9905 30.6071 20.8903 30.7607 20.748C31.0051 20.5207 31.1461 20.211 31.158 19.8776C31.1698 19.5435 31.0506 19.2246 30.8233 18.9802C30.5294 18.6652 30.1017 18.5288 29.6912 18.6006L26.5608 15.2395C26.6082 15.0491 26.6102 14.8514 26.5674 14.663H34.0934V40.0039H28.268L27.9095 39.6191L26.4936 38.099C26.5944 37.6945 26.4883 37.2576 26.1951 36.9427C25.7246 36.4379 24.9319 36.4096 24.4272 36.8801C24.2743 37.0224 24.1617 37.197 24.0958 37.3894C23.8988 37.4414 23.7169 37.5416 23.564 37.6839C23.0593 38.1537 23.031 38.9471 23.5008 39.4518C23.7947 39.7667 24.2223 39.9038 24.6328 39.8313L24.7936 40.0039H11.1442L11.305 39.8313C11.7155 39.9038 12.1431 39.7667 12.4364 39.4518C12.9068 38.9471 12.8785 38.1544 12.3738 37.6839C12.2209 37.5416 12.039 37.4414 11.842 37.3894C11.7761 37.197 11.6641 37.0224 11.5112 36.8801C11.0065 36.4103 10.2132 36.4379 9.74273 36.9427C9.44952 37.2583 9.34343 37.6945 9.44425 38.099L7.6698 40.0039H1.97879V14.663ZM27.1419 40.0039H25.9196L24.8614 38.8673L24.5913 38.9886C24.4246 39.0637 24.2289 39.0248 24.1037 38.8904C23.9436 38.7178 23.9528 38.4476 24.1254 38.2868C24.2078 38.2097 24.3159 38.1695 24.4292 38.1728L24.8357 38.1847L24.8529 37.7781C24.8575 37.6648 24.9056 37.5601 24.9886 37.483C25.1606 37.3228 25.4314 37.3321 25.5922 37.504C25.7167 37.6385 25.7424 37.8368 25.6554 37.9976L25.5157 38.2578L27.1419 40.0039ZM10.2824 37.9976C10.1954 37.8368 10.2211 37.6385 10.3463 37.504C10.5071 37.3321 10.7772 37.3222 10.9499 37.483C11.0322 37.5601 11.0803 37.6648 11.0856 37.7781L11.1021 38.1847L11.5093 38.1728C11.6226 38.1695 11.73 38.2097 11.813 38.2868C11.985 38.4476 11.9949 38.7178 11.8341 38.8904C11.7089 39.0248 11.5132 39.0643 11.3465 38.9886L11.077 38.8673L10.0188 40.0039H8.79654L10.4227 38.2578L10.2824 37.9976ZM31.0038 43.1529H1.97945V40.8282H34.0941V43.1529H31.0038Z" fill="white"/>
</g>
<path d="M27.1935 35.7702C27.2311 35.7702 27.2654 35.7643 27.2963 35.7531C27.3609 35.73 27.3925 35.6872 27.467 35.5541C27.5072 35.4829 27.525 35.446 27.5381 35.4196C27.5487 35.3979 27.5559 35.3834 27.5704 35.3597C27.6119 35.2905 27.6502 35.249 27.6805 35.216C27.722 35.1699 27.774 35.1139 27.7404 35.0329C27.7391 35.0309 27.7378 35.0289 27.7371 35.0269C27.8452 35.019 27.9091 34.9551 27.9888 34.8747C28.0416 34.8227 28.1061 34.7574 28.205 34.6843C28.3163 34.6006 28.4158 34.5479 28.4949 34.5051C28.6214 34.4379 28.7209 34.3845 28.7123 34.2672C28.7117 34.2527 28.7084 34.2382 28.7038 34.2237C28.7183 34.2257 28.7328 34.227 28.7472 34.227H28.7519C28.8883 34.227 28.9653 34.1532 29.0629 34.0603C29.1248 34.0017 29.2019 33.9292 29.3185 33.8462C29.4503 33.752 29.5663 33.6926 29.6598 33.6445C29.7949 33.5747 29.9036 33.5194 29.9089 33.4087C29.9162 33.4126 29.9241 33.4166 29.932 33.4205C29.8364 33.5339 29.7877 33.7427 29.7303 33.9925C29.6697 34.2573 29.6005 34.5578 29.4635 34.7502C29.4582 34.7574 29.4529 34.7647 29.4483 34.7713C29.3976 34.8398 29.3139 34.9551 29.391 35.0572C29.4042 35.075 29.4213 35.0902 29.4404 35.1021C29.4345 35.104 29.4279 35.106 29.422 35.108C29.2632 35.1673 29.2638 35.3155 29.2638 35.4467C29.2645 35.5837 29.2645 35.7379 29.1479 35.9086C29.1433 35.9145 29.1393 35.9204 29.1353 35.927C29.0912 35.9889 29.0174 36.0937 29.0919 36.1893C29.1024 36.2031 29.1162 36.2143 29.1307 36.2248C29.1189 36.2281 29.107 36.2314 29.0958 36.2354C28.935 36.2953 28.9429 36.4027 28.9489 36.4811C28.9555 36.5629 28.9634 36.6643 28.8461 36.8356C28.8421 36.8416 28.8375 36.8475 28.8336 36.8534C28.7894 36.916 28.7156 37.0208 28.7901 37.1163C28.8052 37.1354 28.8243 37.1513 28.8467 37.1644C28.8421 37.1658 28.8369 37.1671 28.8329 37.1684C28.7057 37.2139 28.7169 37.3087 28.7229 37.3595C28.7281 37.4096 28.7354 37.4669 28.6702 37.5657C28.6682 37.5697 28.6655 37.573 28.6629 37.5769C28.6379 37.6145 28.5792 37.7014 28.6418 37.7799C28.6873 37.8365 28.7756 37.8563 28.8382 37.8563C28.8817 37.8563 28.9212 37.8477 28.9528 37.8306C29.0108 37.799 29.026 37.7476 29.0497 37.6514C29.0635 37.596 29.0688 37.5677 29.0728 37.5473C29.0754 37.5308 29.0774 37.5216 29.0826 37.5044C29.0965 37.455 29.1136 37.424 29.1281 37.399C29.1479 37.3634 29.1815 37.3028 29.134 37.2382C29.1268 37.2277 29.1169 37.2185 29.107 37.2106C29.1413 37.2059 29.1795 37.1961 29.2144 37.1763C29.2836 37.1381 29.3067 37.0781 29.3495 36.9285C29.3739 36.8442 29.3838 36.8007 29.391 36.7698C29.3969 36.7441 29.4009 36.7269 29.4101 36.6986C29.4371 36.6162 29.4674 36.5648 29.4918 36.5233C29.5248 36.4673 29.5663 36.3981 29.5116 36.3217C29.4971 36.3013 29.4793 36.2848 29.4576 36.2703C29.4753 36.2657 29.4931 36.2604 29.5103 36.2525C29.6322 36.1985 29.642 36.0963 29.6526 35.9883C29.6592 35.9244 29.6671 35.8453 29.6967 35.7458C29.7297 35.6338 29.7745 35.5508 29.8101 35.4842C29.8648 35.3834 29.9208 35.2793 29.8298 35.1844C29.8153 35.1693 29.7976 35.1554 29.7778 35.1436C29.8022 35.1376 29.8272 35.1304 29.8516 35.1192C29.9939 35.054 30.0987 34.7403 30.2423 34.2692C30.2667 34.1888 30.2898 34.113 30.3095 34.0524C30.3524 33.9233 30.407 33.8277 30.4505 33.7513C30.4538 33.7454 30.4571 33.7394 30.4604 33.7335C30.4393 33.8785 30.4262 34.0616 30.4117 34.2843C30.3879 34.6415 30.3616 35.046 30.27 35.247C30.2667 35.2549 30.2627 35.2622 30.2594 35.2694C30.2245 35.3439 30.1659 35.4684 30.2608 35.5567C30.2786 35.5732 30.2996 35.5857 30.3214 35.5949C30.3181 35.5969 30.3141 35.5982 30.3108 35.6002C30.1606 35.6806 30.1936 35.8295 30.2225 35.9613C30.2522 36.0957 30.2858 36.2479 30.2081 36.4278C30.2054 36.4344 30.2028 36.4403 30.1995 36.4475C30.1712 36.5101 30.1191 36.6274 30.21 36.7098C30.2239 36.723 30.2403 36.7329 30.2568 36.7408C30.2489 36.7447 30.2397 36.748 30.2318 36.752C30.0796 36.8337 30.1119 36.9411 30.1349 37.0195C30.1586 37.0992 30.1883 37.198 30.1099 37.3792C30.1072 37.3852 30.1046 37.3918 30.1013 37.3984C30.073 37.4616 30.0209 37.5782 30.1119 37.6613C30.1316 37.679 30.1553 37.6922 30.1797 37.7014C30.1777 37.7028 30.1758 37.7034 30.1731 37.7047C30.0512 37.768 30.0842 37.8662 30.1007 37.913C30.1171 37.9624 30.1356 38.0177 30.0941 38.1212C30.0927 38.1251 30.0908 38.1291 30.0888 38.133C30.0723 38.1732 30.0328 38.2668 30.1086 38.334C30.1613 38.3801 30.241 38.3854 30.2726 38.3854C30.3075 38.3854 30.3734 38.3801 30.4235 38.3426C30.4769 38.3017 30.4815 38.2444 30.4841 38.1469C30.4861 38.0909 30.4855 38.0625 30.4848 38.0414C30.4841 38.0256 30.4835 38.0157 30.4848 37.9986C30.4881 37.9485 30.4986 37.9169 30.5065 37.8906C30.5191 37.853 30.5395 37.7891 30.4815 37.7337C30.4716 37.7245 30.4611 37.7173 30.4492 37.7107C30.4848 37.6995 30.5158 37.685 30.5408 37.6659C30.6041 37.6171 30.6146 37.5539 30.6251 37.3984C30.6311 37.3114 30.6311 37.2679 30.6317 37.2363C30.6317 37.2099 30.6317 37.1928 30.635 37.1638C30.6436 37.0801 30.6627 37.0261 30.6779 36.9826C30.6983 36.9233 30.724 36.8501 30.6561 36.7836C30.637 36.7645 30.6153 36.7506 30.5915 36.7401C30.6067 36.7335 30.6205 36.7263 30.6331 36.7184C30.7464 36.6472 30.7339 36.5385 30.7213 36.4337C30.7141 36.3698 30.7042 36.2907 30.7121 36.1893C30.7207 36.0753 30.747 35.9889 30.7681 35.9191C30.7998 35.813 30.8327 35.7036 30.7266 35.6239C30.7088 35.6107 30.6871 35.5995 30.664 35.5903C30.6864 35.5811 30.7075 35.5705 30.726 35.5593C30.8564 35.475 30.8927 35.1515 30.9322 34.6672C30.9394 34.5848 30.9454 34.5071 30.9526 34.4445C30.9658 34.3219 31.0093 34.1598 31.0508 34.0037C31.0587 33.974 31.066 33.9463 31.0732 33.9193C31.0877 33.9621 31.1029 34.0063 31.118 34.0518C31.207 34.312 31.3071 34.6066 31.2873 34.822C31.2867 34.8299 31.2854 34.8372 31.2847 34.8451C31.2761 34.9228 31.2623 35.0526 31.3756 35.1152C31.3994 35.1284 31.427 35.1363 31.458 35.1409C31.4567 35.1429 31.4541 35.1442 31.4521 35.1462C31.3275 35.2589 31.4106 35.3979 31.4844 35.5198C31.5555 35.6391 31.6438 35.7867 31.6306 35.9758C31.63 35.9824 31.6293 35.9889 31.6287 35.9955C31.6227 36.0608 31.6122 36.182 31.7203 36.24C31.7394 36.2499 31.7611 36.2571 31.7855 36.2617C31.7796 36.2663 31.7743 36.2703 31.769 36.2749C31.6425 36.3896 31.713 36.4917 31.7598 36.5589C31.8105 36.6327 31.8738 36.7243 31.8599 36.9141C31.8593 36.9206 31.8593 36.9272 31.8586 36.9338C31.8527 36.9991 31.8422 37.1203 31.9496 37.1783C31.9785 37.1934 32.0108 37.2013 32.0398 37.2053C32.0392 37.2059 32.0378 37.2059 32.0372 37.2066C31.9331 37.2975 32.0016 37.3898 32.0306 37.4293C32.0642 37.4748 32.1024 37.5262 32.0978 37.6349C32.0971 37.6389 32.0971 37.6428 32.0971 37.6468C32.0939 37.6916 32.0886 37.7832 32.1756 37.8293C32.2118 37.8484 32.254 37.8523 32.2823 37.8523C32.3495 37.8523 32.4371 37.8313 32.4839 37.7706C32.5281 37.7133 32.5077 37.6501 32.48 37.5618C32.4622 37.5077 32.4516 37.4801 32.4444 37.4603C32.4378 37.4445 32.4345 37.4352 32.4299 37.4181C32.4154 37.3694 32.4147 37.3364 32.4141 37.3101C32.4128 37.2699 32.4101 37.2092 32.3436 37.1717C32.3291 37.1631 32.3126 37.1572 32.2975 37.1526C32.3245 37.1368 32.3489 37.117 32.3673 37.0933C32.4154 37.03 32.4035 36.9654 32.3601 36.8106C32.3363 36.7263 32.3218 36.6841 32.3113 36.6531C32.3027 36.6274 32.2968 36.611 32.2896 36.582C32.2691 36.4996 32.2691 36.4436 32.2691 36.3988C32.2691 36.3368 32.2685 36.2657 32.1881 36.2189C32.1604 36.2024 32.1301 36.1939 32.1011 36.1886C32.1123 36.18 32.1222 36.1715 32.1314 36.1616C32.223 36.0647 32.1729 35.9613 32.1248 35.8611C32.0952 35.8005 32.0589 35.7247 32.0319 35.6252C32.0016 35.5132 31.997 35.4243 31.9937 35.3531C31.9884 35.2477 31.9832 35.1383 31.8626 35.0856C31.8375 35.075 31.8092 35.0678 31.7782 35.0632C31.7954 35.0507 31.8118 35.0375 31.8257 35.0223C31.9206 34.9195 31.8738 34.6692 31.7255 34.1111C31.7038 34.03 31.6834 33.9536 31.6689 33.8923C31.6379 33.7618 31.6353 33.659 31.6333 33.576C31.6333 33.5596 31.6326 33.5431 31.632 33.5273C31.6748 33.5991 31.7315 33.6788 31.7954 33.7678C31.9245 33.949 32.0708 34.1539 32.1077 34.3147C32.1084 34.3199 32.1097 34.3259 32.111 34.3324C32.1242 34.3931 32.1459 34.4952 32.25 34.5275C32.2658 34.5321 32.2836 34.5347 32.3014 34.5361C32.25 34.6435 32.3436 34.7337 32.4273 34.8135C32.5083 34.8919 32.6098 34.9887 32.6447 35.1284C32.646 35.133 32.6473 35.1383 32.6487 35.1436C32.6605 35.1943 32.6829 35.2892 32.7811 35.3188C32.7923 35.3221 32.8048 35.3248 32.818 35.3261C32.7554 35.4374 32.8371 35.5079 32.8865 35.5508C32.9419 35.5982 33.0104 35.6569 33.0453 35.7965C33.0466 35.8018 33.048 35.8064 33.0493 35.8117C33.0611 35.8624 33.0835 35.9573 33.1817 35.987C33.1988 35.9929 33.2193 35.9955 33.2397 35.9955C33.2015 36.0812 33.2726 36.1392 33.3016 36.1622C33.3366 36.1912 33.3768 36.2235 33.3985 36.3019C33.3998 36.3046 33.4005 36.3079 33.4011 36.3112C33.4104 36.3461 33.4295 36.4186 33.5092 36.4423C33.5243 36.4469 33.5415 36.4489 33.5593 36.4489C33.6324 36.4489 33.7247 36.41 33.753 36.3382C33.7761 36.2782 33.7438 36.2308 33.6983 36.1649C33.6726 36.1267 33.6574 36.1075 33.6469 36.0937C33.6383 36.0825 33.6337 36.0759 33.6258 36.0647C33.6047 36.0311 33.5962 36.0081 33.5889 35.9883C33.5777 35.9573 33.5606 35.9099 33.4987 35.8901C33.4934 35.8881 33.4868 35.8868 33.4809 35.8855C33.4888 35.8743 33.4954 35.8624 33.5006 35.8493C33.5257 35.782 33.494 35.728 33.4255 35.6213C33.3873 35.5613 33.3662 35.5317 33.3511 35.5099C33.3379 35.4921 33.33 35.4809 33.3181 35.4605C33.2832 35.4025 33.27 35.3617 33.2588 35.3294C33.2437 35.2833 33.2245 35.2259 33.1507 35.2009C33.1336 35.1956 33.1145 35.1923 33.0954 35.191C33.0954 35.1903 33.0961 35.1903 33.0961 35.1897C33.1481 35.0909 33.0816 35.0164 33.0183 34.9446C32.9814 34.9037 32.9366 34.8523 32.8918 34.7818C32.8424 34.7034 32.818 34.6388 32.7982 34.5868C32.7679 34.5064 32.737 34.424 32.6302 34.4003C32.6151 34.397 32.5992 34.395 32.5828 34.3944C32.5854 34.3904 32.588 34.3858 32.5907 34.3819C32.6408 34.283 32.5564 34.1157 32.2942 33.6946C32.2586 33.6373 32.225 33.5833 32.1986 33.5398C32.1439 33.4475 32.1176 33.3718 32.0958 33.3105C32.0701 33.2354 32.0444 33.1642 31.9779 33.1253C32.024 33.068 32.0556 33.0008 32.0675 32.9217C32.1031 32.6905 31.9621 32.4137 31.7539 32.305C31.7427 32.2991 31.7315 32.2944 31.7209 32.2898C31.7216 32.2892 31.7222 32.2885 31.7235 32.2872C31.8099 32.1996 31.7512 32.0922 31.7084 32.0131C31.6939 31.9874 31.6794 31.9604 31.6682 31.934C31.6155 31.8055 31.659 31.7054 31.7044 31.5993C31.7512 31.4906 31.8092 31.3562 31.6959 31.2297C31.6076 31.1315 31.4488 31.0801 31.3374 31.0801C31.288 31.0801 31.2504 31.0906 31.2228 31.1117C31.149 31.1677 31.1885 31.2501 31.2076 31.2896C31.2228 31.3212 31.2399 31.3568 31.2439 31.4003C31.2485 31.4557 31.23 31.4846 31.1911 31.54C31.1615 31.5828 31.1246 31.6362 31.1042 31.712C31.0851 31.7812 31.0844 31.8576 31.0996 31.9334C31.0963 31.9274 31.093 31.9215 31.0903 31.9156C31.0152 31.7627 31.0613 31.6138 31.1029 31.482C31.1404 31.3627 31.1865 31.2138 31.0515 31.14C31.0211 31.1236 30.9882 31.1157 30.9493 31.1157C30.9124 31.1157 30.8722 31.1222 30.811 31.1315C30.7754 31.1374 30.7306 31.144 30.6779 31.1512C30.4914 31.1756 30.3023 31.1881 30.1165 31.1881C30.1026 31.1881 30.0901 31.1881 30.0782 31.1875H30.0598L30.0433 31.1954C29.8964 31.2626 29.6394 31.4128 29.5689 31.6652C29.532 31.797 29.5821 31.9281 29.6809 32.1897C29.7732 32.4328 29.8536 32.527 29.9458 32.5758C29.9227 32.5916 29.8997 32.6101 29.8773 32.6325C29.7442 32.7636 29.6546 32.9698 29.6967 33.1497C29.6559 33.1332 29.6124 33.1227 29.5676 33.1194C29.5597 33.1187 29.5511 33.1187 29.5432 33.1187C29.3831 33.1187 29.2876 33.2248 29.1782 33.3467C29.0642 33.4739 28.9225 33.6307 28.6497 33.7467C28.6405 33.7506 28.6306 33.7546 28.6214 33.7585C28.5199 33.8001 28.3947 33.8521 28.3868 33.9635C28.3855 33.978 28.3868 33.9957 28.3928 34.0162C28.3895 34.0155 28.3855 34.0155 28.3822 34.0155C28.2386 34.0155 28.1523 34.117 28.0613 34.2237C27.9658 34.3371 27.8465 34.4768 27.6152 34.5782C27.608 34.5815 27.5994 34.5855 27.5915 34.5888C27.5019 34.627 27.3906 34.6744 27.3846 34.7805C27.3826 34.8181 27.3958 34.8556 27.4222 34.8912C27.4077 34.8925 27.3932 34.8938 27.3787 34.8971C27.2258 34.9301 27.2107 35.021 27.1975 35.0948C27.1856 35.1666 27.1705 35.2556 27.0301 35.3913C27.0255 35.3959 27.0209 35.4012 27.0156 35.4058C26.9623 35.4559 26.874 35.5396 26.9221 35.6397C26.9636 35.7254 27.0901 35.7702 27.1935 35.7702Z" fill="white"/>
<path d="M5.44123 37.2363C5.44189 37.2685 5.44189 37.312 5.44782 37.3983C5.45902 37.5539 5.4689 37.6171 5.53216 37.6659C5.5572 37.685 5.58883 37.7001 5.62375 37.7107C5.61255 37.7173 5.60135 37.7245 5.59146 37.7344C5.53414 37.7891 5.55456 37.853 5.56642 37.8912C5.57433 37.9169 5.58487 37.9492 5.58817 37.9986C5.58883 38.0157 5.58883 38.0256 5.58817 38.0421C5.58751 38.0632 5.58685 38.0915 5.58883 38.1475C5.59146 38.245 5.59607 38.3024 5.64945 38.3426C5.69952 38.3808 5.76541 38.3861 5.80034 38.3861C5.83196 38.3861 5.91169 38.3808 5.96441 38.3347C6.04018 38.2674 6.00065 38.1739 5.98417 38.1337C5.9822 38.1297 5.98022 38.1258 5.9789 38.1218C5.93739 38.0177 5.95584 37.9624 5.97231 37.9136C5.98879 37.8662 6.02173 37.768 5.89983 37.7047C5.89786 37.7041 5.89522 37.7028 5.89324 37.7021C5.91762 37.6922 5.94134 37.6797 5.96111 37.6619C6.05204 37.5789 5.99999 37.4616 5.97165 37.399C5.96902 37.3924 5.96572 37.3858 5.96309 37.3799C5.88534 37.1987 5.91433 37.0999 5.93805 37.0201C5.96177 36.9417 5.9934 36.8343 5.84119 36.7526C5.83328 36.748 5.82472 36.7447 5.81615 36.7414C5.83328 36.7335 5.8491 36.723 5.86293 36.7104C5.95452 36.6274 5.90181 36.5108 5.87348 36.4475C5.87084 36.441 5.8682 36.4344 5.86491 36.4284C5.78716 36.2479 5.82076 36.0957 5.85041 35.9613C5.87941 35.8301 5.91235 35.6812 5.76278 35.6002C5.75883 35.5989 5.75553 35.5969 5.75158 35.5956C5.77398 35.5857 5.79441 35.5738 5.8122 35.5574C5.90708 35.4691 5.84844 35.3445 5.81352 35.2701C5.81022 35.2628 5.80693 35.2549 5.80363 35.2477C5.71204 35.046 5.68503 34.6415 5.66197 34.285C5.64681 34.0623 5.63363 33.8791 5.61255 33.7342C5.61584 33.7401 5.61914 33.746 5.62243 33.7513C5.66592 33.8284 5.72061 33.9239 5.76344 34.0531C5.78386 34.1137 5.80693 34.1895 5.83131 34.2699C5.97429 34.741 6.07906 35.054 6.22138 35.1192C6.24576 35.131 6.27146 35.1383 6.29584 35.1442C6.27541 35.1561 6.25828 35.1699 6.24378 35.1844C6.1522 35.28 6.2082 35.3841 6.26289 35.4849C6.29847 35.5514 6.34328 35.6345 6.37688 35.7465C6.40588 35.8453 6.41378 35.925 6.42037 35.9889C6.43091 36.0963 6.4408 36.1985 6.56336 36.2525C6.58049 36.2604 6.59828 36.2663 6.61541 36.271C6.59432 36.2848 6.57587 36.3019 6.56138 36.3217C6.50735 36.3981 6.5482 36.468 6.58115 36.5233C6.60553 36.5648 6.63649 36.6162 6.66285 36.6986C6.67273 36.7269 6.67603 36.7441 6.68196 36.7698C6.68921 36.8014 6.69909 36.8442 6.72347 36.9285C6.76696 37.0781 6.78936 37.1387 6.85855 37.177C6.89413 37.1961 6.93169 37.2059 6.96661 37.2106C6.95607 37.2191 6.94684 37.2284 6.93893 37.2389C6.89149 37.3028 6.9251 37.3634 6.94552 37.3997C6.95936 37.4247 6.97649 37.4557 6.99033 37.5044C6.9956 37.5216 6.99692 37.5314 7.00021 37.5473C7.00417 37.5683 7.00944 37.5967 7.02327 37.6514C7.04765 37.7476 7.06281 37.7996 7.12079 37.8306C7.15176 37.8477 7.19196 37.8569 7.23544 37.8569C7.29738 37.8569 7.38568 37.8365 7.43114 37.7805C7.4944 37.7021 7.43575 37.6145 7.41006 37.5769C7.40742 37.5736 7.40544 37.5697 7.40281 37.5664C7.33823 37.4669 7.34482 37.4096 7.35075 37.3595C7.35668 37.3087 7.36723 37.2139 7.24072 37.169C7.2361 37.1671 7.23149 37.1658 7.22688 37.1644C7.24862 37.1513 7.26839 37.1361 7.28289 37.1163C7.35734 37.0208 7.2842 36.9167 7.24006 36.8541C7.2361 36.8475 7.23149 36.8416 7.22754 36.8356C7.11025 36.6643 7.11816 36.5629 7.12409 36.4818C7.13002 36.4034 7.13858 36.2953 6.97781 36.236C6.96661 36.2314 6.95475 36.2281 6.94289 36.2248C6.95738 36.2143 6.97122 36.2031 6.98176 36.1899C7.05556 36.0937 6.98242 35.9896 6.93828 35.927C6.93432 35.9211 6.92971 35.9145 6.92576 35.9086C6.80913 35.7386 6.80913 35.5837 6.80979 35.4473C6.81045 35.3162 6.81045 35.1673 6.65165 35.108C6.64572 35.106 6.63913 35.104 6.6332 35.1021C6.65231 35.0902 6.66944 35.0757 6.68262 35.0572C6.76037 34.9558 6.67603 34.8405 6.62595 34.7719C6.62068 34.7647 6.61541 34.7574 6.6108 34.7509C6.47374 34.5585 6.40456 34.258 6.34328 33.9925C6.28595 33.7434 6.23785 33.5345 6.14165 33.4205C6.14956 33.4172 6.15747 33.4133 6.16537 33.4093C6.17064 33.5194 6.27871 33.5754 6.41444 33.6445C6.50735 33.6926 6.62398 33.752 6.75576 33.8462C6.87238 33.9292 6.94948 34.0023 7.01076 34.061C7.10893 34.1539 7.18603 34.227 7.32242 34.227H7.32703C7.34153 34.227 7.35602 34.2257 7.37052 34.2244C7.36591 34.2382 7.36261 34.2534 7.36195 34.2679C7.35273 34.3852 7.45223 34.4379 7.57874 34.5057C7.65846 34.5479 7.7573 34.6006 7.86932 34.6843C7.96815 34.7581 8.03273 34.8233 8.08478 34.8754C8.16451 34.9551 8.22842 35.019 8.33648 35.0269C8.33582 35.0289 8.33451 35.0309 8.33385 35.0335C8.30024 35.1139 8.35164 35.1706 8.39381 35.216C8.42412 35.249 8.46234 35.2912 8.50385 35.3597C8.51834 35.3841 8.52493 35.3979 8.53547 35.4196C8.54865 35.4467 8.5671 35.4829 8.60664 35.5541C8.68109 35.6878 8.71272 35.73 8.77729 35.7537C8.80826 35.7649 8.84253 35.7702 8.88008 35.7702C8.98353 35.7702 9.1107 35.7254 9.15156 35.6391C9.19966 35.5389 9.11136 35.4552 9.05865 35.4052C9.05338 35.4005 9.04811 35.3959 9.04349 35.3913C8.90315 35.2556 8.88799 35.166 8.87613 35.0941C8.86361 35.021 8.84846 34.9294 8.69493 34.8965C8.68109 34.8938 8.6666 34.8919 8.65144 34.8905C8.6778 34.8556 8.69098 34.8174 8.689 34.7805C8.68307 34.6744 8.57171 34.6263 8.4821 34.5888C8.4742 34.5848 8.46629 34.5815 8.45838 34.5782C8.2271 34.4768 8.10784 34.3364 8.0123 34.2237C7.92137 34.1163 7.83571 34.0149 7.69141 34.0149C7.68812 34.0149 7.68482 34.0155 7.68153 34.0155C7.6868 33.9957 7.68812 33.9773 7.68746 33.9635C7.67955 33.8514 7.5537 33.7994 7.45288 33.7579C7.443 33.7539 7.43378 33.75 7.42455 33.7467C7.1511 33.6307 7.00944 33.4732 6.89611 33.3467C6.78607 33.2242 6.69118 33.1187 6.53041 33.1187C6.5225 33.1187 6.5146 33.1187 6.50603 33.1194C6.46122 33.122 6.41774 33.1332 6.37688 33.1497C6.41905 32.9692 6.32944 32.7629 6.197 32.6325C6.17394 32.6101 6.15154 32.5916 6.12782 32.5751C6.22072 32.527 6.30045 32.4322 6.3927 32.189C6.49153 31.9274 6.54161 31.7963 6.50537 31.6652C6.43421 31.4122 6.17789 31.2619 6.03096 31.1947L6.01448 31.1868L5.99603 31.1875C5.98417 31.1875 5.97099 31.1875 5.95782 31.1875C5.77134 31.1875 5.5829 31.175 5.39643 31.1506C5.34305 31.1433 5.29891 31.1367 5.26332 31.1315C5.20205 31.1216 5.16185 31.1157 5.12495 31.1157C5.08608 31.1157 5.05313 31.1229 5.02282 31.14C4.88775 31.2132 4.93387 31.3621 4.97143 31.482C5.01228 31.6131 5.05906 31.7627 4.98395 31.9149C4.98131 31.9208 4.97736 31.9268 4.97406 31.9327C4.98988 31.8576 4.98922 31.7812 4.97011 31.712C4.94968 31.6355 4.91278 31.5828 4.88313 31.54C4.84426 31.4846 4.82581 31.4557 4.83042 31.4003C4.83437 31.3562 4.85151 31.3212 4.866 31.2896C4.88511 31.2501 4.92464 31.1671 4.85085 31.111C4.82317 31.0906 4.78561 31.0801 4.7362 31.0801C4.62484 31.0801 4.46604 31.1315 4.37775 31.2297C4.26442 31.3555 4.3224 31.4906 4.36918 31.5986C4.41531 31.7054 4.45814 31.8055 4.40542 31.9334C4.39488 31.9597 4.37973 31.9867 4.36589 32.0131C4.32306 32.0915 4.26442 32.1996 4.35073 32.2872C4.35139 32.2879 4.35205 32.2885 4.35337 32.2898C4.34217 32.2944 4.33097 32.2991 4.31977 32.3043C4.11155 32.413 3.97054 32.6898 4.00612 32.9211C4.01798 33.0008 4.05027 33.0673 4.09574 33.1247C4.02919 33.1635 4.00415 33.2354 3.97779 33.3098C3.95605 33.3711 3.92969 33.4469 3.875 33.5391C3.8493 33.5833 3.8157 33.6373 3.77946 33.6946C3.51721 34.115 3.43353 34.2824 3.48361 34.3812C3.48558 34.3852 3.48822 34.3898 3.49086 34.3944C3.47438 34.395 3.45857 34.3964 3.44341 34.3997C3.33733 34.4234 3.3057 34.5064 3.27539 34.5861C3.25562 34.6382 3.23124 34.7034 3.18183 34.7818C3.13768 34.8517 3.09221 34.9031 3.05597 34.9439C2.99206 35.0157 2.92617 35.0902 2.97756 35.1897C2.97822 35.1897 2.97822 35.1903 2.97822 35.1903C2.95912 35.1923 2.94001 35.195 2.92353 35.2009C2.84908 35.2259 2.83063 35.2833 2.81481 35.3287C2.80427 35.3617 2.79043 35.4025 2.75617 35.4605C2.74365 35.4809 2.73574 35.4921 2.72323 35.5099C2.70741 35.5317 2.68633 35.5613 2.64811 35.6213C2.57958 35.7274 2.54795 35.782 2.57365 35.8486C2.57826 35.8618 2.58485 35.8743 2.59342 35.8855C2.58683 35.8868 2.5809 35.8881 2.57497 35.8901C2.51303 35.9099 2.4959 35.9573 2.4847 35.9883C2.47745 36.0081 2.46954 36.0311 2.4478 36.0647C2.44055 36.0759 2.43528 36.0825 2.42672 36.0937C2.41617 36.1075 2.40168 36.1267 2.37532 36.1649C2.32986 36.2301 2.29757 36.2782 2.32063 36.3382C2.34896 36.41 2.44187 36.4489 2.51435 36.4489C2.53214 36.4489 2.54927 36.4469 2.56509 36.4423C2.64481 36.4192 2.66392 36.3461 2.67249 36.3112C2.67381 36.3079 2.67447 36.3052 2.67512 36.3026C2.69687 36.2242 2.73706 36.1912 2.77264 36.1629C2.80098 36.1398 2.87214 36.0819 2.83392 35.9962C2.85501 35.9955 2.87477 35.9929 2.89257 35.9876C2.99008 35.958 3.01249 35.8631 3.02435 35.8117C3.02566 35.8064 3.02698 35.8018 3.0283 35.7972C3.06388 35.6569 3.13175 35.5982 3.1871 35.5508C3.23652 35.5086 3.31822 35.4381 3.25562 35.3261C3.2688 35.3248 3.28132 35.3228 3.29252 35.3195C3.3907 35.2898 3.4131 35.1943 3.42496 35.1436C3.42628 35.1383 3.42694 35.1337 3.42826 35.1284C3.46384 34.9894 3.56465 34.8919 3.64636 34.8135C3.72938 34.7337 3.82295 34.6435 3.77221 34.5361C3.79066 34.5354 3.80779 34.5328 3.82361 34.5275C3.92705 34.4952 3.94946 34.3931 3.96198 34.3324C3.96329 34.3265 3.96461 34.3206 3.96593 34.3147C4.00283 34.1545 4.14911 33.949 4.27825 33.7684C4.34151 33.6788 4.39818 33.5991 4.44166 33.5279C4.441 33.5437 4.44035 33.5595 4.43969 33.576C4.43771 33.659 4.43573 33.7625 4.40476 33.893C4.38961 33.9542 4.36918 34.0307 4.3481 34.1117C4.19984 34.6698 4.15306 34.9202 4.24729 35.023C4.26178 35.0381 4.27825 35.0513 4.29539 35.0638C4.26442 35.0684 4.23542 35.0757 4.21104 35.0862C4.09046 35.139 4.08453 35.2483 4.07992 35.3538C4.07597 35.4249 4.07201 35.5139 4.0417 35.6259C4.01469 35.7254 3.97779 35.8012 3.9488 35.8618C3.9007 35.9619 3.85062 36.0654 3.94155 36.1622C3.95078 36.1721 3.96132 36.1807 3.97186 36.1893C3.94353 36.1939 3.91256 36.2031 3.88488 36.2196C3.80516 36.2663 3.8045 36.3375 3.8045 36.3994C3.8045 36.4443 3.80384 36.5003 3.78341 36.5826C3.77682 36.6116 3.77089 36.6287 3.76233 36.6538C3.75178 36.6848 3.73729 36.7269 3.71357 36.8113C3.67008 36.9661 3.65822 37.0307 3.70632 37.0939C3.72477 37.1177 3.74849 37.1374 3.77616 37.1532C3.76035 37.1578 3.74454 37.1638 3.72938 37.1723C3.66283 37.2099 3.66085 37.2705 3.65954 37.3107C3.65888 37.3371 3.65756 37.37 3.64372 37.4188C3.63911 37.4352 3.63516 37.4451 3.62923 37.4609C3.62198 37.4807 3.61144 37.5084 3.59365 37.5624C3.56531 37.6501 3.54555 37.714 3.58969 37.7713C3.63582 37.8313 3.72411 37.853 3.79132 37.853C3.81965 37.853 3.86116 37.849 3.89806 37.8299C3.98504 37.7838 3.97977 37.6916 3.97647 37.6474C3.97647 37.6435 3.97647 37.6395 3.97581 37.6356C3.9712 37.5268 4.00942 37.4754 4.04302 37.43C4.07202 37.3904 4.14054 37.2982 4.03643 37.2073C4.03577 37.2066 4.03446 37.2059 4.0338 37.2059C4.06279 37.202 4.09508 37.1941 4.12407 37.1789C4.23147 37.1209 4.22093 36.9997 4.215 36.9345C4.215 36.9279 4.21434 36.9213 4.21368 36.9147C4.19984 36.7249 4.2631 36.6334 4.31383 36.5596C4.36062 36.4924 4.43112 36.3902 4.30461 36.2756C4.29934 36.271 4.29407 36.267 4.28814 36.2624C4.31252 36.2578 4.33426 36.2505 4.35403 36.2406C4.46143 36.1827 4.45023 36.0614 4.44496 35.9962C4.4443 35.9896 4.44364 35.983 4.44298 35.9764C4.4298 35.7873 4.5181 35.6397 4.58926 35.5205C4.66306 35.3986 4.74608 35.2595 4.62155 35.1469C4.61957 35.1449 4.61759 35.1436 4.61496 35.1416C4.64658 35.137 4.67426 35.1291 4.69798 35.1159C4.81131 35.0533 4.79748 34.9235 4.78891 34.8464C4.78825 34.8378 4.78693 34.8299 4.78627 34.8227C4.76651 34.6072 4.86666 34.3127 4.95561 34.0524C4.97143 34.0069 4.98592 33.9628 5.00042 33.92C5.00701 33.947 5.01492 33.9747 5.02282 34.0043C5.06433 34.1605 5.10782 34.3226 5.121 34.4451C5.12825 34.5077 5.13418 34.5855 5.14143 34.6678C5.18162 35.1521 5.21786 35.4757 5.34767 35.56C5.36611 35.5719 5.3872 35.5824 5.4096 35.591C5.38654 35.6002 5.3648 35.612 5.34701 35.6252C5.24026 35.705 5.27387 35.8143 5.3055 35.9198C5.32658 35.9896 5.35294 36.0759 5.3615 36.1906C5.36941 36.2914 5.35953 36.3705 5.35228 36.4344C5.33976 36.5391 5.32724 36.6479 5.44057 36.7197C5.45309 36.7276 5.46759 36.7342 5.48208 36.7408C5.45902 36.7513 5.43596 36.7651 5.41751 36.7842C5.34964 36.8508 5.37534 36.9246 5.39577 36.9832C5.41092 37.0267 5.43003 37.0808 5.4386 37.1651C5.44123 37.1934 5.44123 37.2099 5.44123 37.2363Z" fill="white"/>
</svg>
