<svg width="66" height="61" viewBox="0 0 66 61" fill="none" xmlns="http://www.w3.org/2000/svg">
<path d="M19.7714 19.1482C19.7252 19.1441 19.6743 19.1421 19.6254 19.138C19.5058 19.1686 19.3713 19.193 19.2253 19.2012C19.1723 19.2073 18.2702 19.3105 17.2628 19.875C17.4313 20.2982 17.6079 20.7167 17.7852 21.131C19.3265 24.7306 19.9141 26.545 16.4851 28.3689C15.4525 28.9178 13.6124 29.5047 11.5439 29.5047C7.8099 29.5047 3.31439 27.6197 3.09906 18.6401C2.92856 11.5258 5.1736 7.13757 10.3803 4.40341C11.9338 3.58622 13.3461 3.17388 14.5749 3.17388C16.034 3.17388 17.2037 3.75332 18.0549 4.90065C19.0935 6.29864 19.3774 8.24482 19.0548 9.32558C18.8293 10.0776 18.4251 10.7256 17.9924 11.3995C18.0141 12.1127 18.1568 12.9802 18.6323 13.7607C18.9203 13.7987 19.2314 13.811 19.5262 13.8436C19.6926 13.5494 19.8835 13.2526 20.0887 12.9333C20.6049 12.129 21.1898 11.2208 21.5349 10.0714C22.1442 8.04579 21.5695 5.28717 20.1355 3.35661C17.8314 0.261067 13.7421 -0.283728 9.17527 2.10943C1.15291 6.32513 0.389393 13.5977 0.510985 18.7032C0.801719 30.7845 8.32412 32.0908 11.5439 32.0908C13.7054 32.0908 16.0075 31.5548 17.6996 30.6548C23.3818 27.6319 21.5226 23.2865 20.1641 20.1128C20.0255 19.784 19.9039 19.4688 19.7714 19.1482Z" fill="white"/>
<path d="M30.0204 5.17676H26.5914V17.8782C24.8932 16.6161 22.4634 15.6698 20.7611 15.5924C19.609 15.5394 18.6057 15.4137 17.7077 15.2514C15.6964 12.8419 16.5271 9.55278 16.5373 9.52221C16.68 8.99032 16.3668 8.44349 15.837 8.29948C15.3105 8.15275 14.7617 8.46183 14.6156 8.99236C14.5749 9.13637 13.8861 11.8019 14.9654 14.5055C12.2327 13.4574 11.4223 12.041 11.3917 11.9867C11.1519 11.499 10.5671 11.2999 10.0712 11.5275C9.57531 11.7632 9.36202 12.3583 9.59977 12.8542C9.66294 12.99 10.8958 15.4321 15.4382 16.7628C14.2216 17.4537 12.9378 18.5283 12.0112 20.2754C11.7531 20.7605 11.9379 21.3644 12.4236 21.6218C12.5723 21.7013 12.7326 21.738 12.8889 21.738C13.2462 21.738 13.5919 21.5451 13.7706 21.2095C15.5177 17.9101 18.9447 17.5916 19.1152 17.5793C19.2314 17.5732 19.3346 17.5325 19.4365 17.4897C19.8366 17.5263 20.2367 17.561 20.6674 17.5814C23.1766 17.6968 26.514 19.9501 26.5894 20.7442V33.1834C27.8426 32.9966 29.0273 32.9294 30.0184 32.9035V5.17676H30.0204Z" fill="white"/>
<path d="M56.8329 2.10876C52.2681 -0.286434 48.1788 0.256323 45.8726 3.35391C44.4386 5.28243 43.864 8.04308 44.4712 10.0687C44.8163 11.2181 45.4019 12.1284 45.9195 12.9326C46.1246 13.2519 46.3135 13.5488 46.4806 13.8409C46.7767 13.8083 47.0838 13.7981 47.3738 13.7539C47.8473 12.9754 47.9899 12.1059 48.0103 11.3927C47.5769 10.7229 47.1748 10.0728 46.9493 9.32084C46.6246 8.24212 46.9112 6.2939 47.9492 4.89591C48.8024 3.75062 49.9721 3.16914 51.4292 3.16914C52.658 3.16914 54.0702 3.58147 55.6237 4.39866C60.8311 7.13283 63.0735 11.5231 62.903 18.6353C62.6876 27.6149 58.1921 29.5 54.4581 29.5C52.3876 29.5 50.5495 28.9131 49.5176 28.3642C46.0879 26.5403 46.6776 24.7259 48.2175 21.1263C48.3941 20.7119 48.5687 20.2935 48.7371 19.8703C47.7277 19.3038 46.8175 19.2025 46.7523 19.1964C46.6164 19.1842 46.4921 19.1638 46.3766 19.1353C46.3298 19.1394 46.2768 19.1414 46.2285 19.1455C46.0961 19.4661 45.9765 19.7813 45.8346 20.1101C44.4774 23.2858 42.6161 27.6292 48.2983 30.6521C49.9904 31.5521 52.2925 32.0881 54.454 32.0881C57.6738 32.0881 65.1962 30.7838 65.487 18.7005C65.6208 13.597 64.8552 6.32447 56.8329 2.10876Z" fill="white"/>
<path d="M55.9487 11.5438C55.463 11.2999 54.8679 11.501 54.618 11.9867C54.6057 12.0071 53.8117 13.4451 51.0429 14.5055C52.1216 11.8019 51.4308 9.13637 51.392 8.99236C51.244 8.46183 50.6951 8.15275 50.1693 8.29948C49.6409 8.44145 49.3277 8.99032 49.4703 9.52221C49.4805 9.55481 50.3113 12.8419 48.2999 15.2514C47.4019 15.4137 46.3986 15.5394 45.2466 15.5924C43.5443 15.6698 41.1165 16.6161 39.4183 17.8782V5.17676H35.9893V32.9015C36.9803 32.9273 38.167 32.9946 39.4203 33.1814V20.7462C39.4957 19.948 42.831 17.6948 45.3403 17.5793C45.773 17.5589 46.1772 17.5243 46.5773 17.4876C46.6771 17.5304 46.7804 17.5691 46.8945 17.5793C47.0405 17.5916 50.4859 17.8966 52.2391 21.2074C52.4178 21.5451 52.7635 21.738 53.1208 21.738C53.2791 21.738 53.4381 21.7013 53.5861 21.6218C54.0718 21.3644 54.2586 20.7605 54.0005 20.2775C53.074 18.5283 51.7921 17.4516 50.5735 16.7628C55.1159 15.4321 56.3468 12.99 56.412 12.8542C56.6436 12.3644 56.4364 11.7836 55.9487 11.5438Z" fill="white"/>
<path d="M33.0055 34.9236C29.139 34.9236 19.0672 34.4399 19.0163 42.495C18.9776 48.7887 26.0611 53.5268 30.4962 55.0728V60.1003H35.5141V55.0728C39.9491 53.5247 47.0327 48.7866 46.994 42.495C46.943 34.4379 36.8733 34.9236 33.0055 34.9236ZM42.4251 44.8033H23.5851C23.2217 44.0676 22.9962 43.302 23.0003 42.5174C23.0084 41.2539 23.022 38.8995 31.5708 38.8995H34.4394C42.9882 38.8995 43.0025 41.2539 43.0107 42.5174C43.0141 43.302 42.7892 44.0676 42.4251 44.8033Z" fill="white"/>
</svg>
